<svg width="202" height="100" viewBox="0 0 202 100" fill="none" xmlns="http://www.w3.org/2000/svg">
<circle cx="179.5" cy="50.5" r="1.5" fill="black"/>
<rect width="202" height="100" fill="#CDCDCD" fill-opacity="0.1"/>
<mask id="mask0_148_1905" style="mask-type:alpha" maskUnits="userSpaceOnUse" x="0" y="0" width="202" height="100">
<rect width="202" height="100" fill="#CDCDCD"/>
</mask>
<g mask="url(#mask0_148_1905)">
<path d="M-39 -11C-22.0087 9.0823 36.1061 49.5713 132.635 50.8689M132.635 50.8689H179.38M132.635 50.8689C36.3296 49.3859 -21.9156 16.6518 -39 0.470085M132.635 50.8689C45.6027 50.8689 -18.0518 25.6888 -39 13.0988M132.635 50.8689C44.0385 50.8689 -18.7036 32.6404 -39 23.5261M132.635 50.8689C54.3171 52.0739 -14.4208 40.4802 -39 34.5328M132.635 50.8689C93.3086 52.4446 1.82564 47.5863 -39 44.9601M132.635 50.8689C93.3086 47.7176 1.82564 53.1089 -39 56.1985M132.635 50.8689C37.782 49.8494 -21.3104 62.1845 -39 68.4796M132.635 50.8689C30.4083 50.8689 -24.3828 69.9471 -39 79.4862M132.635 50.8689C45.6027 49.1079 -18.0518 75.7787 -39 89.3343M132.635 50.8689C40.1282 50.8689 -20.3329 83.4641 -39 99.7616M132.635 50.8689C42.1392 49.7567 -19.4949 90.4929 -39 111" stroke="url(#paint0_linear_148_1905)" stroke-width="1.22"/>
</g>
<defs>
<linearGradient id="paint0_linear_148_1905" x1="202.56" y1="50" x2="-39" y2="50" gradientUnits="userSpaceOnUse">
<stop/>
<stop offset="1" stop-opacity="0"/>
</linearGradient>
</defs>
</svg>
