<svg width="202" height="100" viewBox="0 0 202 100" fill="none" xmlns="http://www.w3.org/2000/svg">
<circle cx="179.5" cy="50.5" r="1.5" fill="black"/>
<rect width="202" height="100" fill="#CDCDCD" fill-opacity="0.1"/>
<mask id="mask0_148_1920" style="mask-type:alpha" maskUnits="userSpaceOnUse" x="0" y="0" width="202" height="100">
<rect width="202" height="100" fill="#CDCDCD"/>
</mask>
<g mask="url(#mask0_148_1920)">
<path d="M0 0C13.9273 16.4609 61.5624 49.6486 140.685 50.7122M140.685 50.7122H179M140.685 50.7122C61.7456 49.4967 14.0036 22.6654 0 9.40171M140.685 50.7122C69.3464 50.7122 17.1706 30.0728 0 19.7531M140.685 50.7122C68.0644 50.7122 16.6364 35.7708 0 28.3001M140.685 50.7122C76.4894 51.6999 20.1469 42.1969 0 37.3219M140.685 50.7122C108.45 52.0038 33.4636 48.0215 0 45.8689M140.685 50.7122C108.45 48.1292 33.4636 52.5483 0 55.0807M140.685 50.7122C62.9361 49.8765 14.4996 59.9873 0 65.1472M140.685 50.7122C56.892 50.7122 11.9813 66.3501 0 74.169M140.685 50.7122C69.3464 49.2688 17.1706 71.1301 0 82.2412M140.685 50.7122C64.8592 50.7122 15.3009 77.4296 0 90.7882M140.685 50.7122C66.5076 49.8006 15.9878 83.1909 0 100" stroke="url(#paint0_linear_148_1920)"/>
</g>
<defs>
<linearGradient id="paint0_linear_148_1920" x1="198" y1="50" x2="0" y2="50" gradientUnits="userSpaceOnUse">
<stop/>
<stop offset="1" stop-opacity="0"/>
</linearGradient>
</defs>
</svg>
