<svg width="225" height="53" viewBox="0 0 225 53" fill="none" xmlns="http://www.w3.org/2000/svg">
<rect width="225" height="53" fill="#CDCDCD" fill-opacity="0.4"/>
<g clip-path="url(#clip0_261_2191)">
<path d="M123.75 34H122.25V23.5C122.449 23.5 122.64 23.421 122.78 23.2803C122.921 23.1397 123 22.9489 123 22.75C123 22.5511 122.921 22.3603 122.78 22.2197C122.64 22.079 122.449 22 122.25 22H117.75V19C117.949 19 118.14 18.921 118.28 18.7803C118.421 18.6397 118.5 18.4489 118.5 18.25C118.5 18.0511 118.421 17.8603 118.28 17.7197C118.14 17.579 117.949 17.5 117.75 17.5H104.25C104.051 17.5 103.86 17.579 103.72 17.7197C103.579 17.8603 103.5 18.0511 103.5 18.25C103.5 18.4489 103.579 18.6397 103.72 18.7803C103.86 18.921 104.051 19 104.25 19V34H102.75C102.551 34 102.36 34.079 102.22 34.2197C102.079 34.3603 102 34.5511 102 34.75C102 34.9489 102.079 35.1397 102.22 35.2803C102.36 35.421 102.551 35.5 102.75 35.5H123.75C123.949 35.5 124.14 35.421 124.28 35.2803C124.421 35.1397 124.5 34.9489 124.5 34.75C124.5 34.5511 124.421 34.3603 124.28 34.2197C124.14 34.079 123.949 34 123.75 34ZM120.75 23.5V34H117.75V23.5H120.75ZM105.75 19H116.25V34H114V29.5C114 29.3011 113.921 29.1103 113.78 28.9697C113.64 28.829 113.449 28.75 113.25 28.75H108.75C108.551 28.75 108.36 28.829 108.22 28.9697C108.079 29.1103 108 29.3011 108 29.5V34H105.75V19ZM112.5 34H109.5V30.25H112.5V34ZM107.25 22C107.25 21.8011 107.329 21.6103 107.47 21.4697C107.61 21.329 107.801 21.25 108 21.25H109.5C109.699 21.25 109.89 21.329 110.03 21.4697C110.171 21.6103 110.25 21.8011 110.25 22C110.25 22.1989 110.171 22.3897 110.03 22.5303C109.89 22.671 109.699 22.75 109.5 22.75H108C107.801 22.75 107.61 22.671 107.47 22.5303C107.329 22.3897 107.25 22.1989 107.25 22ZM111.75 22C111.75 21.8011 111.829 21.6103 111.97 21.4697C112.11 21.329 112.301 21.25 112.5 21.25H114C114.199 21.25 114.39 21.329 114.53 21.4697C114.671 21.6103 114.75 21.8011 114.75 22C114.75 22.1989 114.671 22.3897 114.53 22.5303C114.39 22.671 114.199 22.75 114 22.75H112.5C112.301 22.75 112.11 22.671 111.97 22.5303C111.829 22.3897 111.75 22.1989 111.75 22ZM107.25 25.75C107.25 25.5511 107.329 25.3603 107.47 25.2197C107.61 25.079 107.801 25 108 25H109.5C109.699 25 109.89 25.079 110.03 25.2197C110.171 25.3603 110.25 25.5511 110.25 25.75C110.25 25.9489 110.171 26.1397 110.03 26.2803C109.89 26.421 109.699 26.5 109.5 26.5H108C107.801 26.5 107.61 26.421 107.47 26.2803C107.329 26.1397 107.25 25.9489 107.25 25.75ZM111.75 25.75C111.75 25.5511 111.829 25.3603 111.97 25.2197C112.11 25.079 112.301 25 112.5 25H114C114.199 25 114.39 25.079 114.53 25.2197C114.671 25.3603 114.75 25.5511 114.75 25.75C114.75 25.9489 114.671 26.1397 114.53 26.2803C114.39 26.421 114.199 26.5 114 26.5H112.5C112.301 26.5 112.11 26.421 111.97 26.2803C111.829 26.1397 111.75 25.9489 111.75 25.75Z" fill="black"/>
</g>
<defs>
<clipPath id="clip0_261_2191">
<rect width="24" height="24" fill="white" transform="translate(100.5 14.5)"/>
</clipPath>
</defs>
</svg>
