<svg width="374" height="101" viewBox="0 0 374 101" fill="none" xmlns="http://www.w3.org/2000/svg">
<ellipse cx="49.4118" cy="36.0967" rx="49.4118" ry="15.8824" fill="#CDCDCD" fill-opacity="0.1"/>
<path d="M49.4121 21.0972C62.9908 21.0972 75.2482 22.8674 84.0811 25.7065C88.5022 27.1276 92.0163 28.8006 94.4062 30.6167C96.8101 32.4435 97.9414 34.3046 97.9414 36.0972C97.9412 37.8896 96.8099 39.7501 94.4062 41.5767C92.0163 43.3928 88.5022 45.0657 84.0811 46.4868C75.2482 49.3259 62.9908 51.0971 49.4121 51.0972C35.8332 51.0972 23.5751 49.326 14.7422 46.4868C10.321 45.0657 6.80692 43.3928 4.41699 41.5767C2.01338 39.7501 0.883006 37.8896 0.882812 36.0972C0.882812 34.3046 2.01317 32.4435 4.41699 30.6167C6.80692 28.8006 10.321 27.1277 14.7422 25.7065C23.5751 22.8674 35.8332 21.0972 49.4121 21.0972Z" stroke="#CDCDCD" stroke-opacity="0.4" stroke-width="1.76471"/>
<ellipse cx="49.4118" cy="50.2144" rx="49.4118" ry="15.8824" fill="#CDCDCD" fill-opacity="0.1"/>
<path d="M49.4121 35.2148C62.9908 35.2149 75.2482 36.9851 84.0811 39.8242C88.5022 41.2453 92.0163 42.9183 94.4062 44.7344C96.8101 46.5611 97.9414 48.4222 97.9414 50.2148C97.9412 52.0073 96.8099 53.8677 94.4062 55.6943C92.0163 57.5105 88.5022 59.1834 84.0811 60.6045C75.2482 63.4436 62.9908 65.2148 49.4121 65.2148C35.8332 65.2148 23.5751 63.4436 14.7422 60.6045C10.321 59.1834 6.80692 57.5105 4.41699 55.6943C2.01338 53.8677 0.883006 52.0073 0.882812 50.2148C0.882812 48.4222 2.01317 46.5611 4.41699 44.7344C6.80692 42.9182 10.321 41.2453 14.7422 39.8242C23.5751 36.9851 35.8332 35.2148 49.4121 35.2148Z" stroke="#CDCDCD" stroke-opacity="0.4" stroke-width="1.76471"/>
<ellipse cx="49.4118" cy="64.3321" rx="49.4118" ry="15.8824" fill="#CDCDCD" fill-opacity="0.1"/>
<path d="M49.4121 49.3325C62.9908 49.3325 75.2482 51.1028 84.0811 53.9419C88.5022 55.363 92.0163 57.0359 94.4062 58.8521C96.8101 60.6788 97.9414 62.5399 97.9414 64.3325C97.9412 66.125 96.8099 67.9854 94.4062 69.812C92.0163 71.6281 88.5022 73.3011 84.0811 74.7222C75.2482 77.5613 62.9908 79.3325 49.4121 79.3325C35.8332 79.3325 23.5751 77.5613 14.7422 74.7222C10.321 73.3011 6.80692 71.6282 4.41699 69.812C2.01338 67.9854 0.883006 66.125 0.882812 64.3325C0.882812 62.5399 2.01317 60.6788 4.41699 58.8521C6.80692 57.0359 10.321 55.363 14.7422 53.9419C23.5751 51.1027 35.8332 49.3325 49.4121 49.3325Z" stroke="#CDCDCD" stroke-opacity="0.4" stroke-width="1.76471"/>
<path d="M124.824 28.7144L136.302 29.9731L131.653 19.4033L124.824 28.7144ZM250.824 28.7144L251.355 27.8673C233.943 16.9421 187.06 2.00022 132.691 24.1618L133.069 25.0878L133.446 26.0138C187.15 4.12336 233.359 18.9367 250.292 29.5614L250.824 28.7144Z" fill="url(#paint0_linear_148_1662)" fill-opacity="0.4"/>
<path d="M250.824 70.7144L239.318 69.7388L244.226 80.1908L250.824 70.7144ZM124.824 70.7144L124.267 71.5454C141.695 83.2094 188.646 99.1671 243.077 75.4561L242.678 74.5393L242.279 73.6225C188.552 97.0262 142.318 81.22 125.38 69.8833L124.824 70.7144Z" fill="url(#paint1_linear_148_1662)" fill-opacity="0.4"/>
<ellipse cx="325.306" cy="15.5837" rx="48.4828" ry="15.5837" fill="#e0b84d" fill-opacity="0.1"/>
<path d="M325.306 0.866211C338.629 0.866211 350.657 2.60295 359.323 5.38867C363.662 6.78313 367.11 8.42493 369.455 10.207C371.814 11.9994 372.923 13.8251 372.923 15.584C372.923 17.3427 371.814 19.1677 369.455 20.96C367.11 22.7421 363.662 24.3848 359.323 25.7793C350.657 28.565 338.629 30.3018 325.306 30.3018C311.982 30.3017 299.955 28.565 291.288 25.7793C286.95 24.3849 283.502 22.742 281.157 20.96C278.799 19.1676 277.69 17.3428 277.69 15.584C277.69 13.8251 278.799 11.9995 281.157 10.207C283.502 8.42502 286.95 6.78308 291.288 5.38867C299.955 2.60292 311.982 0.86624 325.306 0.866211Z" stroke="#e0b84d" stroke-opacity="0.4" stroke-width="1.73153"/>
<ellipse cx="325.306" cy="29.4363" rx="48.4828" ry="15.5837" fill="#e0b84d" fill-opacity="0.1"/>
<path d="M325.306 14.7188C338.629 14.7188 350.657 16.4555 359.323 19.2412C363.662 20.6357 367.11 22.2775 369.455 24.0596C371.814 25.852 372.923 27.6776 372.923 29.4365C372.923 31.1953 371.814 33.0202 369.455 34.8125C367.11 36.5946 363.662 38.2374 359.323 39.6318C350.657 42.4175 338.629 44.1543 325.306 44.1543C311.982 44.1543 299.955 42.4176 291.288 39.6318C286.95 38.2374 283.502 36.5946 281.157 34.8125C278.799 33.0202 277.69 31.1953 277.69 29.4365C277.69 27.6776 278.799 25.852 281.157 24.0596C283.502 22.2776 286.95 20.6356 291.288 19.2412C299.955 16.4555 311.982 14.7188 325.306 14.7188Z" stroke="#e0b84d" stroke-opacity="0.4" stroke-width="1.73153"/>
<ellipse cx="325.306" cy="43.2883" rx="48.4828" ry="15.5837" fill="#e0b84d" fill-opacity="0.1"/>
<path d="M325.306 28.5708C338.629 28.5708 350.657 30.3075 359.323 33.0933C363.662 34.4877 367.11 36.1295 369.455 37.9116C371.814 39.704 372.923 41.5297 372.923 43.2886C372.923 45.0473 371.814 46.8723 369.455 48.6646C367.11 50.4467 363.662 52.0894 359.323 53.4839C350.657 56.2696 338.629 58.0063 325.306 58.0063C311.982 58.0063 299.955 56.2696 291.288 53.4839C286.95 52.0894 283.502 50.4466 281.157 48.6646C278.799 46.8722 277.69 45.0474 277.69 43.2886C277.69 41.5297 278.799 39.704 281.157 37.9116C283.502 36.1296 286.95 34.4877 291.288 33.0933C299.955 30.3075 311.982 28.5708 325.306 28.5708Z" stroke="#e0b84d" stroke-opacity="0.4" stroke-width="1.73153"/>
<ellipse cx="325.306" cy="57.1404" rx="48.4828" ry="15.5837" fill="#CDCDCD" fill-opacity="0.1"/>
<path d="M325.306 42.4229C338.629 42.4229 350.657 44.1596 359.323 46.9453C363.662 48.3398 367.11 49.9816 369.455 51.7637C371.814 53.5561 372.923 55.3817 372.923 57.1406C372.923 58.8994 371.814 60.7243 369.455 62.5166C367.11 64.2987 363.662 65.9415 359.323 67.3359C350.657 70.1216 338.629 71.8584 325.306 71.8584C311.982 71.8584 299.955 70.1217 291.288 67.3359C286.95 65.9415 283.502 64.2987 281.157 62.5166C278.799 60.7243 277.69 58.8994 277.69 57.1406C277.69 55.3817 278.799 53.5561 281.157 51.7637C283.502 49.9817 286.95 48.3397 291.288 46.9453C299.955 44.1596 311.982 42.4229 325.306 42.4229Z" stroke="#CDCDCD" stroke-opacity="0.4" stroke-width="1.73153"/>
<ellipse cx="325.306" cy="70.9929" rx="48.4828" ry="15.5837" fill="#CDCDCD" fill-opacity="0.1"/>
<path d="M325.306 56.2754C338.629 56.2754 350.657 58.0121 359.323 60.7979C363.662 62.1923 367.11 63.8341 369.455 65.6162C371.814 67.4086 372.923 69.2343 372.923 70.9932C372.923 72.7519 371.814 74.5769 369.455 76.3691C367.11 78.1512 363.662 79.794 359.323 81.1885C350.657 83.9742 338.629 85.7109 325.306 85.7109C311.982 85.7109 299.955 83.9742 291.288 81.1885C286.95 79.794 283.502 78.1512 281.157 76.3691C278.799 74.5768 277.69 72.752 277.69 70.9932C277.69 69.2343 278.799 67.4086 281.157 65.6162C283.502 63.8342 286.95 62.1923 291.288 60.7979C299.955 58.0121 311.982 56.2754 325.306 56.2754Z" stroke="#CDCDCD" stroke-opacity="0.4" stroke-width="1.73153"/>
<ellipse cx="325.306" cy="84.845" rx="48.4828" ry="15.5837" fill="#CDCDCD" fill-opacity="0.1"/>
<path d="M325.306 70.1274C338.629 70.1274 350.657 71.8642 359.323 74.6499C363.662 76.0444 367.11 77.6862 369.455 79.4683C371.814 81.2607 372.923 83.0863 372.923 84.8452C372.923 86.604 371.814 88.4289 369.455 90.2212C367.11 92.0033 363.662 93.6461 359.323 95.0405C350.657 97.8262 338.629 99.563 325.306 99.563C311.982 99.563 299.955 97.8263 291.288 95.0405C286.95 93.6461 283.502 92.0033 281.157 90.2212C278.799 88.4289 277.69 86.604 277.69 84.8452C277.69 83.0863 278.799 81.2607 281.157 79.4683C283.502 77.6863 286.95 76.0443 291.288 74.6499C299.955 71.8642 311.982 70.1275 325.306 70.1274Z" stroke="#CDCDCD" stroke-opacity="0.4" stroke-width="1.73153"/>
<defs>
<linearGradient id="paint0_linear_148_1662" x1="124.824" y1="21.2144" x2="250.824" y2="21.2144" gradientUnits="userSpaceOnUse">
<stop stop-color="#CDCDCD"/>
<stop offset="1" stop-color="#CDCDCD" stop-opacity="0"/>
</linearGradient>
<linearGradient id="paint1_linear_148_1662" x1="124.824" y1="78.7144" x2="250.824" y2="78.7144" gradientUnits="userSpaceOnUse">
<stop stop-color="#CDCDCD" stop-opacity="0"/>
<stop offset="1" stop-color="#CDCDCD"/>
</linearGradient>
</defs>
</svg>
