<svg width="194" height="100" viewBox="0 0 194 100" fill="none" xmlns="http://www.w3.org/2000/svg">
<rect width="194" height="100" fill="#CDCDCD" fill-opacity="0.1"/>
<line x1="98" y1="1" x2="98" y2="100" stroke="url(#paint0_linear_0_1)" stroke-opacity="0.2" stroke-width="2"/>
<ellipse cx="49" cy="42" rx="28" ry="9" fill="#CDCDCD" fill-opacity="0.2"/>
<path d="M49 34C56.6574 34 63.5495 34.9989 68.4932 36.5879C70.9705 37.3842 72.9026 38.3114 74.1943 39.293C75.5018 40.2866 76 41.211 76 42C76 42.789 75.5018 43.7134 74.1943 44.707C72.9026 45.6886 70.9705 46.6158 68.4932 47.4121C63.5495 49.0011 56.6574 50 49 50C41.3426 50 34.4505 49.0011 29.5068 47.4121C27.0295 46.6158 25.0974 45.6886 23.8057 44.707C22.4982 43.7134 22 42.789 22 42C22 41.211 22.4982 40.2866 23.8057 39.293C25.0974 38.3114 27.0295 37.3842 29.5068 36.5879C34.4505 34.9989 41.3426 34 49 34Z" stroke="#CDCDCD" stroke-opacity="0.4" stroke-width="2"/>
<ellipse cx="49" cy="50" rx="28" ry="9" fill="#CDCDCD" fill-opacity="0.2"/>
<path d="M49 42C56.6574 42 63.5495 42.9989 68.4932 44.5879C70.9705 45.3842 72.9026 46.3114 74.1943 47.293C75.5018 48.2866 76 49.211 76 50C76 50.789 75.5018 51.7134 74.1943 52.707C72.9026 53.6886 70.9705 54.6158 68.4932 55.4121C63.5495 57.0011 56.6574 58 49 58C41.3426 58 34.4505 57.0011 29.5068 55.4121C27.0295 54.6158 25.0974 53.6886 23.8057 52.707C22.4982 51.7134 22 50.789 22 50C22 49.211 22.4982 48.2866 23.8057 47.293C25.0974 46.3114 27.0295 45.3842 29.5068 44.5879C34.4505 42.9989 41.3426 42 49 42Z" stroke="#CDCDCD" stroke-opacity="0.4" stroke-width="2"/>
<ellipse cx="49" cy="58" rx="28" ry="9" fill="#CDCDCD" fill-opacity="0.2"/>
<path d="M49 50C56.6574 50 63.5495 50.9989 68.4932 52.5879C70.9705 53.3842 72.9026 54.3114 74.1943 55.293C75.5018 56.2866 76 57.211 76 58C76 58.789 75.5018 59.7134 74.1943 60.707C72.9026 61.6886 70.9705 62.6158 68.4932 63.4121C63.5495 65.0011 56.6574 66 49 66C41.3426 66 34.4505 65.0011 29.5068 63.4121C27.0295 62.6158 25.0974 61.6886 23.8057 60.707C22.4982 59.7134 22 58.789 22 58C22 57.211 22.4982 56.2866 23.8057 55.293C25.0974 54.3114 27.0295 53.3842 29.5068 52.5879C34.4505 50.9989 41.3426 50 49 50Z" stroke="#CDCDCD" stroke-opacity="0.4" stroke-width="2"/>
<ellipse cx="145" cy="29" rx="28" ry="9" fill="#86EB20" fill-opacity="0.1"/>
<path d="M145 21C152.657 21 159.55 21.9989 164.493 23.5879C166.97 24.3842 168.903 25.3114 170.194 26.293C171.502 27.2866 172 28.211 172 29C172 29.789 171.502 30.7134 170.194 31.707C168.903 32.6886 166.97 33.6158 164.493 34.4121C159.55 36.0011 152.657 37 145 37C137.343 37 130.45 36.0011 125.507 34.4121C123.03 33.6158 121.097 32.6886 119.806 31.707C118.498 30.7134 118 29.789 118 29C118 28.211 118.498 27.2866 119.806 26.293C121.097 25.3114 123.03 24.3842 125.507 23.5879C130.45 21.9989 137.343 21 145 21Z" stroke="#86EB20" stroke-opacity="0.4" stroke-width="2"/>
<ellipse cx="145" cy="37" rx="28" ry="9" fill="#86EB20" fill-opacity="0.1"/>
<path d="M145 29C152.657 29 159.55 29.9989 164.493 31.5879C166.97 32.3842 168.903 33.3114 170.194 34.293C171.502 35.2866 172 36.211 172 37C172 37.789 171.502 38.7134 170.194 39.707C168.903 40.6886 166.97 41.6158 164.493 42.4121C159.55 44.0011 152.657 45 145 45C137.343 45 130.45 44.0011 125.507 42.4121C123.03 41.6158 121.097 40.6886 119.806 39.707C118.498 38.7134 118 37.789 118 37C118 36.211 118.498 35.2866 119.806 34.293C121.097 33.3114 123.03 32.3842 125.507 31.5879C130.45 29.9989 137.343 29 145 29Z" stroke="#86EB20" stroke-opacity="0.4" stroke-width="2"/>
<ellipse cx="145" cy="45" rx="28" ry="9" fill="#86EB20" fill-opacity="0.1"/>
<path d="M145 37C152.657 37 159.55 37.9989 164.493 39.5879C166.97 40.3842 168.903 41.3114 170.194 42.293C171.502 43.2866 172 44.211 172 45C172 45.789 171.502 46.7134 170.194 47.707C168.903 48.6886 166.97 49.6158 164.493 50.4121C159.55 52.0011 152.657 53 145 53C137.343 53 130.45 52.0011 125.507 50.4121C123.03 49.6158 121.097 48.6886 119.806 47.707C118.498 46.7134 118 45.789 118 45C118 44.211 118.498 43.2866 119.806 42.293C121.097 41.3114 123.03 40.3842 125.507 39.5879C130.45 37.9989 137.343 37 145 37Z" stroke="#86EB20" stroke-opacity="0.4" stroke-width="2"/>
<ellipse cx="145" cy="53" rx="28" ry="9" fill="#CDCDCD" fill-opacity="0.1"/>
<path d="M145 45C152.657 45 159.55 45.9989 164.493 47.5879C166.97 48.3842 168.903 49.3114 170.194 50.293C171.502 51.2866 172 52.211 172 53C172 53.789 171.502 54.7134 170.194 55.707C168.903 56.6886 166.97 57.6158 164.493 58.4121C159.55 60.0011 152.657 61 145 61C137.343 61 130.45 60.0011 125.507 58.4121C123.03 57.6158 121.097 56.6886 119.806 55.707C118.498 54.7134 118 53.789 118 53C118 52.211 118.498 51.2866 119.806 50.293C121.097 49.3114 123.03 48.3842 125.507 47.5879C130.45 45.9989 137.343 45 145 45Z" stroke="#CDCDCD" stroke-opacity="0.4" stroke-width="2"/>
<ellipse cx="145" cy="61" rx="28" ry="9" fill="#CDCDCD" fill-opacity="0.1"/>
<path d="M145 53C152.657 53 159.55 53.9989 164.493 55.5879C166.97 56.3842 168.903 57.3114 170.194 58.293C171.502 59.2866 172 60.211 172 61C172 61.789 171.502 62.7134 170.194 63.707C168.903 64.6886 166.97 65.6158 164.493 66.4121C159.55 68.0011 152.657 69 145 69C137.343 69 130.45 68.0011 125.507 66.4121C123.03 65.6158 121.097 64.6886 119.806 63.707C118.498 62.7134 118 61.789 118 61C118 60.211 118.498 59.2866 119.806 58.293C121.097 57.3114 123.03 56.3842 125.507 55.5879C130.45 53.9989 137.343 53 145 53Z" stroke="#CDCDCD" stroke-opacity="0.4" stroke-width="2"/>
<ellipse cx="145" cy="69" rx="28" ry="9" fill="#CDCDCD" fill-opacity="0.1"/>
<path d="M145 61C152.657 61 159.55 61.9989 164.493 63.5879C166.97 64.3842 168.903 65.3114 170.194 66.293C171.502 67.2866 172 68.211 172 69C172 69.789 171.502 70.7134 170.194 71.707C168.903 72.6886 166.97 73.6158 164.493 74.4121C159.55 76.0011 152.657 77 145 77C137.343 77 130.45 76.0011 125.507 74.4121C123.03 73.6158 121.097 72.6886 119.806 71.707C118.498 70.7134 118 69.789 118 69C118 68.211 118.498 67.2866 119.806 66.293C121.097 65.3114 123.03 64.3842 125.507 63.5879C130.45 61.9989 137.343 61 145 61Z" stroke="#CDCDCD" stroke-opacity="0.4" stroke-width="2"/>
<path d="M137.5 83L125.98 82.2169L131.062 92.5854L137.5 83ZM63 83L62.4081 83.806C72.462 91.1894 98.8639 101.141 129.809 87.8819L129.415 86.9627L129.021 86.0436C98.8204 98.984 73.162 89.222 63.5919 82.194L63 83Z" fill="url(#paint1_linear_0_1)" fill-opacity="0.4"/>
<path d="M63 15.3805L74.5204 16.1636L69.4384 5.79508L63 15.3805ZM137.5 15.3805L138.092 14.5745C128.038 7.19114 101.636 -2.76079 70.6911 10.4986L71.085 11.4177L71.4788 12.3369C101.68 -0.60355 127.338 9.1585 136.908 16.1865L137.5 15.3805Z" fill="url(#paint2_linear_0_1)" fill-opacity="0.4"/>
<defs>
<linearGradient id="paint0_linear_0_1" x1="96.5" y1="1" x2="96.5" y2="100" gradientUnits="userSpaceOnUse">
<stop stop-color="#CDCDCD" stop-opacity="0"/>
<stop offset="0.5" stop-color="#CDCDCD"/>
<stop offset="1" stop-color="#CDCDCD" stop-opacity="0"/>
</linearGradient>
<linearGradient id="paint1_linear_0_1" x1="63" y1="88.1902" x2="137.5" y2="88.1902" gradientUnits="userSpaceOnUse">
<stop stop-color="#CDCDCD" stop-opacity="0"/>
<stop offset="1" stop-color="#CDCDCD"/>
</linearGradient>
<linearGradient id="paint2_linear_0_1" x1="63" y1="10.1903" x2="137.5" y2="10.1903" gradientUnits="userSpaceOnUse">
<stop stop-color="#CDCDCD"/>
<stop offset="1" stop-color="#CDCDCD" stop-opacity="0"/>
</linearGradient>
</defs>
</svg>
