<svg width="152" height="99" viewBox="0 0 152 99" fill="none" xmlns="http://www.w3.org/2000/svg">
<line x1="77" y1="-4.37114e-08" x2="77" y2="99" stroke="url(#paint0_linear_0_1)" stroke-opacity="0.2" stroke-width="2"/>
<path d="M28 33C35.6574 33 42.5495 33.9989 47.4932 35.5879C49.9705 36.3842 51.9026 37.3114 53.1943 38.293C54.5018 39.2866 55 40.211 55 41C55 41.789 54.5018 42.7134 53.1943 43.707C51.9026 44.6886 49.9705 45.6158 47.4932 46.4121C42.5495 48.0011 35.6574 49 28 49C20.3426 49 13.4505 48.0011 8.50684 46.4121C6.02952 45.6158 4.09741 44.6886 2.80566 43.707C1.49821 42.7134 1 41.789 1 41C1 40.211 1.49821 39.2866 2.80566 38.293C4.09741 37.3114 6.02952 36.3842 8.50684 35.5879C13.4505 33.9989 20.3426 33 28 33Z" fill="#CDCDCD" fill-opacity="0.4" stroke="#CDCDCD" stroke-width="2"/>
<path d="M28 41C35.6574 41 42.5495 41.9989 47.4932 43.5879C49.9705 44.3842 51.9026 45.3114 53.1943 46.293C54.5018 47.2866 55 48.211 55 49C55 49.789 54.5018 50.7134 53.1943 51.707C51.9026 52.6886 49.9705 53.6158 47.4932 54.4121C42.5495 56.0011 35.6574 57 28 57C20.3426 57 13.4505 56.0011 8.50684 54.4121C6.02952 53.6158 4.09741 52.6886 2.80566 51.707C1.49821 50.7134 1 49.789 1 49C1 48.211 1.49821 47.2866 2.80566 46.293C4.09741 45.3114 6.02952 44.3842 8.50684 43.5879C13.4505 41.9989 20.3426 41 28 41Z" fill="#CDCDCD" fill-opacity="0.4" stroke="#CDCDCD" stroke-width="2"/>
<path d="M28 49C35.6574 49 42.5495 49.9989 47.4932 51.5879C49.9705 52.3842 51.9026 53.3114 53.1943 54.293C54.5018 55.2866 55 56.211 55 57C55 57.789 54.5018 58.7134 53.1943 59.707C51.9026 60.6886 49.9705 61.6158 47.4932 62.4121C42.5495 64.0011 35.6574 65 28 65C20.3426 65 13.4505 64.0011 8.50684 62.4121C6.02952 61.6158 4.09741 60.6886 2.80566 59.707C1.49821 58.7134 1 57.789 1 57C1 56.211 1.49821 55.2866 2.80566 54.293C4.09741 53.3114 6.02952 52.3842 8.50684 51.5879C13.4505 49.9989 20.3426 49 28 49Z" fill="#CDCDCD" fill-opacity="0.4" stroke="#CDCDCD" stroke-width="2"/>
<path d="M124 20C131.657 20 138.55 20.9989 143.493 22.5879C145.97 23.3842 147.903 24.3114 149.194 25.293C150.502 26.2866 151 27.211 151 28C151 28.789 150.502 29.7134 149.194 30.707C147.903 31.6886 145.97 32.6158 143.493 33.4121C138.55 35.0011 131.657 36 124 36C116.343 36 109.45 35.0011 104.507 33.4121C102.03 32.6158 100.097 31.6886 98.8057 30.707C97.4982 29.7134 97 28.789 97 28C97 27.211 97.4982 26.2866 98.8057 25.293C100.097 24.3114 102.03 23.3842 104.507 22.5879C109.45 20.9989 116.343 20 124 20Z" fill="#E0B84D" fill-opacity="0.4" stroke="#E0B84D" stroke-width="2"/>
<path d="M124 28C131.657 28 138.55 28.9989 143.493 30.5879C145.97 31.3842 147.903 32.3114 149.194 33.293C150.502 34.2866 151 35.211 151 36C151 36.789 150.502 37.7134 149.194 38.707C147.903 39.6886 145.97 40.6158 143.493 41.4121C138.55 43.0011 131.657 44 124 44C116.343 44 109.45 43.0011 104.507 41.4121C102.03 40.6158 100.097 39.6886 98.8057 38.707C97.4982 37.7134 97 36.789 97 36C97 35.211 97.4982 34.2866 98.8057 33.293C100.097 32.3114 102.03 31.3842 104.507 30.5879C109.45 28.9989 116.343 28 124 28Z" fill="#E0B84D" fill-opacity="0.4" stroke="#E0B84D" stroke-width="2"/>
<path d="M124 36C131.657 36 138.55 36.9989 143.493 38.5879C145.97 39.3842 147.903 40.3114 149.194 41.293C150.502 42.2866 151 43.211 151 44C151 44.789 150.502 45.7134 149.194 46.707C147.903 47.6886 145.97 48.6158 143.493 49.4121C138.55 51.0011 131.657 52 124 52C116.343 52 109.45 51.0011 104.507 49.4121C102.03 48.6158 100.097 47.6886 98.8057 46.707C97.4982 45.7134 97 44.789 97 44C97 43.211 97.4982 42.2866 98.8057 41.293C100.097 40.3114 102.03 39.3842 104.507 38.5879C109.45 36.9989 116.343 36 124 36Z" fill="#E0B84D" fill-opacity="0.4" stroke="#E0B84D" stroke-width="2"/>
<path d="M124 44C131.657 44 138.55 44.9989 143.493 46.5879C145.97 47.3842 147.903 48.3114 149.194 49.293C150.502 50.2866 151 51.211 151 52C151 52.789 150.502 53.7134 149.194 54.707C147.903 55.6886 145.97 56.6158 143.493 57.4121C138.55 59.0011 131.657 60 124 60C116.343 60 109.45 59.0011 104.507 57.4121C102.03 56.6158 100.097 55.6886 98.8057 54.707C97.4982 53.7134 97 52.789 97 52C97 51.211 97.4982 50.2866 98.8057 49.293C100.097 48.3114 102.03 47.3842 104.507 46.5879C109.45 44.9989 116.343 44 124 44Z" fill="#CDCDCD" fill-opacity="0.4" stroke="#CDCDCD" stroke-width="2"/>
<path d="M124 52C131.657 52 138.55 52.9989 143.493 54.5879C145.97 55.3842 147.903 56.3114 149.194 57.293C150.502 58.2866 151 59.211 151 60C151 60.789 150.502 61.7134 149.194 62.707C147.903 63.6886 145.97 64.6158 143.493 65.4121C138.55 67.0011 131.657 68 124 68C116.343 68 109.45 67.0011 104.507 65.4121C102.03 64.6158 100.097 63.6886 98.8057 62.707C97.4982 61.7134 97 60.789 97 60C97 59.211 97.4982 58.2866 98.8057 57.293C100.097 56.3114 102.03 55.3842 104.507 54.5879C109.45 52.9989 116.343 52 124 52Z" fill="#CDCDCD" fill-opacity="0.4" stroke="#CDCDCD" stroke-width="2"/>
<path d="M124 60C131.657 60 138.55 60.9989 143.493 62.5879C145.97 63.3842 147.903 64.3114 149.194 65.293C150.502 66.2866 151 67.211 151 68C151 68.789 150.502 69.7134 149.194 70.707C147.903 71.6886 145.97 72.6158 143.493 73.4121C138.55 75.0011 131.657 76 124 76C116.343 76 109.45 75.0011 104.507 73.4121C102.03 72.6158 100.097 71.6886 98.8057 70.707C97.4982 69.7134 97 68.789 97 68C97 67.211 97.4982 66.2866 98.8057 65.293C100.097 64.3114 102.03 63.3842 104.507 62.5879C109.45 60.9989 116.343 60 124 60Z" fill="#CDCDCD" fill-opacity="0.4" stroke="#CDCDCD" stroke-width="2"/>
<path d="M116.5 82L104.98 81.2169L110.062 91.5854L116.5 82ZM42 82L41.4081 82.806C51.462 90.1894 77.8639 100.141 108.809 86.8819L108.415 85.9627L108.021 85.0436C77.8204 97.984 52.162 88.222 42.5919 81.194L42 82Z" fill="url(#paint1_linear_0_1)" fill-opacity="0.4"/>
<defs>
<linearGradient id="paint0_linear_0_1" x1="75.5" y1="2.18557e-08" x2="75.5" y2="99" gradientUnits="userSpaceOnUse">
<stop stop-color="#CDCDCD" stop-opacity="0"/>
<stop offset="0.5" stop-color="#CDCDCD"/>
<stop offset="1" stop-color="#CDCDCD" stop-opacity="0"/>
</linearGradient>
<linearGradient id="paint1_linear_0_1" x1="42" y1="87.1902" x2="116.5" y2="87.1902" gradientUnits="userSpaceOnUse">
<stop stop-color="#CDCDCD" stop-opacity="0"/>
<stop offset="1" stop-color="#CDCDCD"/>
</linearGradient>
</defs>
</svg>
