<svg width="225" height="53" viewBox="0 0 225 53" fill="none" xmlns="http://www.w3.org/2000/svg">
<rect width="225" height="53" fill="#CDCDCD" fill-opacity="0.4"/>
<path d="M114.75 25.75H113.25V19.75H114C114.796 19.75 115.559 20.0661 116.121 20.6287C116.684 21.1913 117 21.9544 117 22.75C117 22.9489 117.079 23.1397 117.22 23.2803C117.36 23.421 117.551 23.5 117.75 23.5C117.949 23.5 118.14 23.421 118.28 23.2803C118.421 23.1397 118.5 22.9489 118.5 22.75C118.499 21.5569 118.024 20.413 117.181 19.5694C116.337 18.7257 115.193 18.2512 114 18.25H113.25V16.75C113.25 16.5511 113.171 16.3603 113.03 16.2197C112.89 16.079 112.699 16 112.5 16C112.301 16 112.11 16.079 111.97 16.2197C111.829 16.3603 111.75 16.5511 111.75 16.75V18.25H111C109.807 18.25 108.662 18.7241 107.818 19.568C106.974 20.4119 106.5 21.5565 106.5 22.75C106.5 23.9435 106.974 25.0881 107.818 25.932C108.662 26.7759 109.807 27.25 111 27.25H111.75V33.25H110.25C109.454 33.25 108.691 32.9339 108.129 32.3713C107.566 31.8087 107.25 31.0456 107.25 30.25C107.25 30.0511 107.171 29.8603 107.03 29.7197C106.89 29.579 106.699 29.5 106.5 29.5C106.301 29.5 106.11 29.579 105.97 29.7197C105.829 29.8603 105.75 30.0511 105.75 30.25C105.751 31.4431 106.226 32.587 107.069 33.4306C107.913 34.2743 109.057 34.7488 110.25 34.75H111.75V36.25C111.75 36.4489 111.829 36.6397 111.97 36.7803C112.11 36.921 112.301 37 112.5 37C112.699 37 112.89 36.921 113.03 36.7803C113.171 36.6397 113.25 36.4489 113.25 36.25V34.75H114.75C115.943 34.75 117.088 34.2759 117.932 33.432C118.776 32.5881 119.25 31.4435 119.25 30.25C119.25 29.0565 118.776 27.9119 117.932 27.068C117.088 26.2241 115.943 25.75 114.75 25.75ZM111 25.75C110.204 25.75 109.441 25.4339 108.879 24.8713C108.316 24.3087 108 23.5456 108 22.75C108 21.9544 108.316 21.1913 108.879 20.6287C109.441 20.0661 110.204 19.75 111 19.75H111.75V25.75H111ZM114.75 33.25H113.25V27.25H114.75C115.546 27.25 116.309 27.5661 116.871 28.1287C117.434 28.6913 117.75 29.4544 117.75 30.25C117.75 31.0456 117.434 31.8087 116.871 32.3713C116.309 32.9339 115.546 33.25 114.75 33.25Z" fill="black"/>
</svg>
