<?xml version="1.0" encoding="UTF-8"?>
<svg version="1.1" xmlns="http://www.w3.org/2000/svg" width="500" height="183">
<path d="M0 0 C1.65 0 3.3 0 5 0 C5.33 0.99 5.66 1.98 6 3 C6.66 3 7.32 3 8 3 C9.9453125 5.08203125 9.9453125 5.08203125 12.125 7.8125 C13.21167969 9.15248047 13.21167969 9.15248047 14.3203125 10.51953125 C16 13 16 13 16 16 C16.99 16 17.98 16 19 16 C20.38442 17.96498322 21.71203834 19.97048465 23 22 C24.32775461 23.33888882 25.66178271 24.67156858 27 26 C28.43556805 27.71350698 29.85111062 29.44392026 31.25 31.1875 C34.0951075 34.69739569 36.97587798 38.14322456 40 41.5 C43.79018902 45.71384288 47.37963781 50.07190553 50.9453125 54.4765625 C52.62115709 56.53472906 54.32826406 58.55392165 56.0625 60.5625 C58 63 58 63 58 65 C58.66 65 59.32 65 60 65 C61.5078125 66.4609375 61.5078125 66.4609375 63.125 68.375 C63.93324219 69.31472656 63.93324219 69.31472656 64.7578125 70.2734375 C66 72 66 72 66 74 C70.50811937 71.42393179 74.58199922 68.80917341 77.8125 64.6875 C80.31143989 61.61737385 83.09466004 59.20821692 86.1015625 56.6484375 C88.13584914 54.92824582 88.13584914 54.92824582 90.375 52.5625 C92 51 92 51 94 51 C94.33 50.01 94.66 49.02 95 48 C95.66 48 96.32 48 97 48 C97.33 47.01 97.66 46.02 98 45 C98.66 45 99.32 45 100 45 C100.33 44.01 100.66 43.02 101 42 C101.66 42 102.32 42 103 42 C103.33 41.01 103.66 40.02 104 39 C107 37 107 37 108.875 37.0625 C111.95877329 38.42298821 113.79666035 40.49064095 116 43 C116 43.66 116 44.32 116 45 C116.66 45 117.32 45 118 45 C119.48046875 46.46875 119.48046875 46.46875 121.1875 48.5 C121.80753906 49.22832031 122.42757813 49.95664062 123.06640625 50.70703125 C123.70449219 51.46371094 124.34257812 52.22039062 125 53 C129.56623775 58.30304045 134.22398731 63.37404205 139.3125 68.1875 C141 70 141 70 141 72 C141.556875 72.226875 142.11375 72.45375 142.6875 72.6875 C147.80497211 75.5920112 151.30316815 80.52488776 155 85 C156.52047128 86.57895094 158.07927043 88.07339855 159.6875 89.5625 C161 91 161 91 161 93 C161.99 93.33 162.98 93.66 164 94 C164 94.66 164 95.32 164 96 C164.58265625 96.2475 165.1653125 96.495 165.765625 96.75 C168.33114236 98.18525446 169.83724798 99.77663013 171.75 102 C172.36359375 102.70125 172.9771875 103.4025 173.609375 104.125 C175 106 175 106 175 108 C175.5775 108.226875 176.155 108.45375 176.75 108.6875 C179.58434736 110.3408693 180.96762189 112.42963944 183 115 C184.45535793 116.19662763 185.91157503 117.39230357 187.37890625 118.57421875 C189.83569842 120.73501186 191.88618881 123.19893667 194.0078125 125.68359375 C196.33715861 128.39202952 198.7248471 131.04163412 201.125 133.6875 C201.93195313 134.57824219 202.73890625 135.46898437 203.5703125 136.38671875 C205.98927899 138.98846888 208.47400148 141.50238349 211 144 C213.33333333 146.33333333 215.66666667 148.66666667 218 151 C217.67 151.99 217.34 152.98 217 154 C213.74173269 153.41492139 212.07395231 152.45630128 209.71484375 150.15625 C209.10648682 149.57327148 208.49812988 148.99029297 207.87133789 148.38964844 C207.23317139 147.76606445 206.59500488 147.14248047 205.9375 146.5 C200.45293619 141.2390082 194.89126254 136.32773169 188.87890625 131.671875 C188.25886719 131.12015625 187.63882812 130.5684375 187 130 C187 129.34 187 128.68 187 128 C186.40614502 127.72905518 185.81229004 127.45811035 185.20043945 127.17895508 C183.03120135 126.01671711 181.556642 124.83712121 179.79296875 123.13671875 C179.20580078 122.57919922 178.61863281 122.02167969 178.01367188 121.44726562 C177.41103516 120.86654297 176.80839844 120.28582031 176.1875 119.6875 C171.67937154 115.34652134 167.14753602 111.56561032 162 108 C159.5625 105.8125 159.5625 105.8125 158 104 C158 103.34 158 102.68 158 102 C157.46375 101.773125 156.9275 101.54625 156.375 101.3125 C153.17539839 99.54429911 150.70962777 97.46329797 148 95 C148 94.34 148 93.68 148 93 C147.41863281 92.73703125 146.83726562 92.4740625 146.23828125 92.203125 C143.88996178 90.94085206 142.16202155 89.53551439 140.1875 87.75 C136.941085 84.83249008 133.63371585 82.01854082 130.25 79.26171875 C129 78 129 78 129 76 C128.38125 75.7525 127.7625 75.505 127.125 75.25 C125 74 125 74 124 71.9375 C123.67 71.298125 123.34 70.65875 123 70 C122.39671875 69.85820313 121.7934375 69.71640625 121.171875 69.5703125 C118.53941965 68.87905624 117.25744591 67.75192227 115.25 65.9375 C114.63640625 65.38964844 114.0228125 64.84179688 113.390625 64.27734375 C112.93171875 63.85582031 112.4728125 63.43429688 112 63 C113.54345915 67.84084916 115.21434843 72.52953339 117.25 77.1875 C118.86746216 81.27206398 119.74610199 83.77259517 118 88 C115.82892531 90.83273555 113.48657536 93.44200864 111 96 C113.0383122 97.75403721 115.08045769 99.50324973 117.125 101.25 C117.69476563 101.74113281 118.26453125 102.23226562 118.8515625 102.73828125 C122.41720544 105.77718148 126.04724272 108.46776487 130 111 C132.30279924 112.48365589 134.59176111 113.98645024 136.875 115.5 C137.46796875 115.87769531 138.0609375 116.25539063 138.671875 116.64453125 C140.3671875 117.78125 140.3671875 117.78125 143 120 C143 121.32 143 122.64 143 124 C136.21338787 123.21085905 129.63850633 121.58725189 123 120 C123.32871094 120.43828125 123.65742188 120.8765625 123.99609375 121.328125 C125.02625001 122.70166668 126.05617171 124.0753843 127.0859375 125.44921875 C128.46451349 127.28638227 129.84494871 129.12215118 131.2265625 130.95703125 C133.49051686 133.96680335 135.74559353 136.9830737 138 140 C138.556875 140.7321875 139.11375 141.464375 139.6875 142.21875 C143 146.66051136 143 146.66051136 143 150 C139.25026094 150.11622939 135.50098536 150.1872595 131.75 150.25 C130.68652344 150.28351563 129.62304688 150.31703125 128.52734375 150.3515625 C127.50253906 150.36445313 126.47773438 150.37734375 125.421875 150.390625 C124.47924805 150.41157227 123.53662109 150.43251953 122.56542969 150.45410156 C119.24612458 149.86655803 118.06188313 148.60735486 116 146 C116 145.34 116 144.68 116 144 C115.42765625 143.7628125 114.8553125 143.525625 114.265625 143.28125 C111.5120708 141.72406762 109.83204366 139.87507203 107.75 137.5 C106.69039063 136.30890625 106.69039063 136.30890625 105.609375 135.09375 C104 133 104 133 104 131 C103.40703125 130.7421875 102.8140625 130.484375 102.203125 130.21875 C99.82339035 128.90230105 98.49021208 127.57419218 96.75 125.5 C96.22921875 124.8915625 95.7084375 124.283125 95.171875 123.65625 C94 122 94 122 94 120 C93.443125 119.773125 92.88625 119.54625 92.3125 119.3125 C87.14469638 116.37942227 83.21338333 111.160884 79.1875 106.8125 C78.43436523 106.01295898 78.43436523 106.01295898 77.66601562 105.19726562 C74 101.23198342 74 101.23198342 74 99 C73.34 99 72.68 99 72 99 C70.2734375 97.3203125 70.2734375 97.3203125 68.375 95.125 C67.42753906 94.04605469 67.42753906 94.04605469 66.4609375 92.9453125 C65 91 65 91 65 89 C64.01 88.67 63.02 88.34 62 88 C60.4921875 86.50390625 60.4921875 86.50390625 58.875 84.5625 C56.13168105 81.32723567 53.34768648 78.14411801 50.5 75 C40.5812681 63.99983907 40.5812681 63.99983907 36.875 59.3125 C34.74412864 56.68442533 32.39453139 54.39108602 30 52 C28.21575924 50.11677946 26.44484329 48.22084464 24.6875 46.3125 C23.80449219 45.35988281 22.92148437 44.40726563 22.01171875 43.42578125 C20 41 20 41 20 39 C19.34 39 18.68 39 18 39 C17.01 36.525 17.01 36.525 16 34 C15.34 34 14.68 34 14 34 C14 33.34 14 32.68 14 32 C13.01 31.67 12.02 31.34 11 31 C9.61423077 29.37667033 8.27358732 27.71275535 7 26 C6.92483154 27.20160767 6.92483154 27.20160767 6.84814453 28.42749023 C6.61438118 32.09799888 6.36977445 35.76770986 6.125 39.4375 C6.04636719 40.69755859 5.96773437 41.95761719 5.88671875 43.25585938 C4.63180635 61.7416843 4.63180635 61.7416843 -1 68.8125 C-3.34247741 71.79657508 -5.44634637 74.52855516 -7 78 C-6.34773437 78.71285156 -5.69546875 79.42570312 -5.0234375 80.16015625 C-3.21892874 82.13766364 -1.41918054 84.11866733 0.375 86.10546875 C1.90145654 87.78865967 3.43810629 89.46292091 5 91.11328125 C8.91848213 95.36144337 8.91848213 95.36144337 9.375 98.9375 C9.25125 99.618125 9.1275 100.29875 9 101 C3.43748953 99.26171548 -1.77299293 96.94972686 -7.078125 94.56640625 C-10.99981574 92.82260102 -14.89595903 91.2825128 -19 90 C-18.566875 90.90363281 -18.13375 91.80726562 -17.6875 92.73828125 C-17.130625 93.91777344 -16.57375 95.09726563 -16 96.3125 C-15.443125 97.48425781 -14.88625 98.65601562 -14.3125 99.86328125 C-13 103 -13 103 -13 106 C-12.34 106 -11.68 106 -11 106 C-10.69707031 106.82242188 -10.39414063 107.64484375 -10.08203125 108.4921875 C-7.69644027 114.84886992 -5.19411905 120.88213914 -1.8203125 126.78125 C-0.78169714 129.59045725 -1.12319007 131.17051067 -2 134 C-3.4375 135.8125 -3.4375 135.8125 -5 137 C-5.66 137 -6.32 137 -7 137 C-7 137.66 -7 138.32 -7 139 C-7.66 139 -8.32 139 -9 139 C-9.26296875 139.59425781 -9.5259375 140.18851563 -9.796875 140.80078125 C-11.056963 143.10412393 -12.28369677 144.46477037 -14.25 146.1875 C-14.81203125 146.69667969 -15.3740625 147.20585937 -15.953125 147.73046875 C-18.81386037 149.50477981 -20.60986135 150.01247904 -24 150 C-26.52872856 148.28591573 -28.50036424 146.70178273 -30.6875 144.625 C-31.92871085 143.50282505 -33.1709082 142.38174034 -34.4140625 141.26171875 C-35.32720215 140.42519775 -35.32720215 140.42519775 -36.25878906 139.57177734 C-38.62305043 137.4375773 -41.08180743 135.43442114 -43.5625 133.4375 C-48.36045016 129.5463053 -53.07535834 125.5648823 -57.76196289 121.54077148 C-60.69826348 119.00529424 -60.69826348 119.00529424 -64 117 C-64 116.34 -64 115.68 -64 115 C-64.99 114.67 -65.98 114.34 -67 114 C-67 113.34 -67 112.68 -67 112 C-67.54011719 111.76925781 -68.08023438 111.53851563 -68.63671875 111.30078125 C-71.68419127 109.62341208 -74.19594059 107.45300402 -76.8125 105.1875 C-77.37509521 104.70611572 -77.93769043 104.22473145 -78.51733398 103.72875977 C-83.51604559 99.44326809 -88.48077876 95.1179513 -93.44873047 90.796875 C-99.22862139 85.7784881 -105.09546572 80.8709659 -111 76 C-110.13479657 81.91070555 -108.49166952 87.51466983 -106.83984375 93.24609375 C-106.00803164 96.96410042 -105.84820107 100.20502675 -106 104 C-112 107.33333333 -118 110.66666667 -124 114 C-120.21660313 117.83299196 -116.33134703 121.53375029 -112.375 125.1875 C-111.80265625 125.72052734 -111.2303125 126.25355469 -110.640625 126.80273438 C-108.17653282 129.08058703 -105.79781004 131.13479331 -103 133 C-103 133.66 -103 134.32 -103 135 C-102.01 135.33 -101.02 135.66 -100 136 C-100 136.66 -100 137.32 -100 138 C-99.41734375 138.26554688 -98.8346875 138.53109375 -98.234375 138.8046875 C-95.93825772 140.03302996 -94.19643982 141.40314939 -92.25 143.125 C-91.63640625 143.66382813 -91.0228125 144.20265625 -90.390625 144.7578125 C-89.70226562 145.37269531 -89.70226562 145.37269531 -89 146 C-89.33 147.32 -89.66 148.64 -90 150 C-134.88 150 -179.76 150 -226 150 C-224.87861061 145.51444244 -224.01204708 144.74544771 -220.625 141.8125 C-219.72910156 141.03261719 -218.83320313 140.25273437 -217.91015625 139.44921875 C-214.09207328 136.23587913 -210.23896573 133.0695581 -206.34765625 129.9453125 C-204.03927203 128.10675749 -204.03927203 128.10675749 -202.30859375 126.2421875 C-201 125 -201 125 -199 125 C-198.505 123.515 -198.505 123.515 -198 122 C-194.55555556 119 -194.55555556 119 -192 119 C-191.505 117.515 -191.505 117.515 -191 116 C-189.28835912 114.41284209 -187.50672181 112.90010614 -185.6875 111.4375 C-184.72199219 110.65246094 -183.75648438 109.86742188 -182.76171875 109.05859375 C-180.5306699 107.395563 -178.53257755 106.11289037 -176 105 C-176 104.34 -176 103.68 -176 103 C-172.53846154 100 -172.53846154 100 -170 100 C-169.505 98.515 -169.505 98.515 -169 97 C-167.30618696 95.45681128 -165.54557498 93.98599728 -163.75 92.5625 C-162.79609375 91.80066406 -161.8421875 91.03882812 -160.859375 90.25390625 C-159.91578125 89.51011719 -158.9721875 88.76632813 -158 88 C-155.42348979 85.9684495 -153.00817615 84.00817615 -150.6875 81.6875 C-147.27532479 78.27532479 -143.6474802 75.15621442 -140 72 C-138.60380441 70.77124484 -137.20796294 69.54208716 -135.8125 68.3125 C-127.42947635 61 -127.42947635 61 -125 61 C-124.690625 60.1646875 -124.690625 60.1646875 -124.375 59.3125 C-122.37856753 55.95486357 -120.21521125 54.25064788 -117 52 C-114.9375 51.875 -114.9375 51.875 -113 53 C-110.5625 55.25 -110.5625 55.25 -108 58 C-107.071875 58.886875 -106.14375 59.77375 -105.1875 60.6875 C-103 63 -103 63 -103 65 C-102.34 65 -101.68 65 -101 65 C-96.23255814 69.30232558 -96.23255814 69.30232558 -95 73 C-93.67592331 73.68486725 -92.34090759 74.34870203 -91 75 C-89.62913085 76.29470975 -88.28659163 77.62150897 -87 79 C-82.24284089 76.98650475 -78.95651345 73.39232868 -75.2421875 69.8984375 C-73 68 -73 68 -71 68 C-70.74992188 67.41476563 -70.49984375 66.82953125 -70.2421875 66.2265625 C-68.83523859 63.70467294 -67.31287196 62.24913938 -65.125 60.375 C-64.44695312 59.78460938 -63.76890625 59.19421875 -63.0703125 58.5859375 C-61 57 -61 57 -58.8671875 56.0390625 C-56.8579957 55.15173919 -56.8579957 55.15173919 -56.08203125 53.15234375 C-54.55857163 50.12192407 -52.34742108 48.63932606 -49.6875 46.5625 C-45.86770365 43.5660704 -42.38055021 40.48584604 -39 37 C-27.8256059 25.62486828 -27.8256059 25.62486828 -23 22 C-22.34 22 -21.68 22 -21 22 C-20.67 21.01 -20.34 20.02 -20 19 C-19.34 19 -18.68 19 -18 19 C-18 18.34 -18 17.68 -18 17 C-16.56640625 15.5546875 -16.56640625 15.5546875 -14.5625 13.875 C-13.840625 13.26011719 -13.11875 12.64523438 -12.375 12.01171875 C-11.199375 11.01591797 -11.199375 11.01591797 -10 10 C-8.34908096 8.56834364 -6.70312845 7.13093753 -5.0625 5.6875 C-4.31097656 5.03136719 -3.55945313 4.37523437 -2.78515625 3.69921875 C-0.91375803 2.11045152 -0.91375803 2.11045152 0 0 Z " fill="#000" transform="translate(256,12)"/>
<path d="M0 0 C3.05841168 2.24883212 5.58578894 4.59168875 8 7.5 C9.75174467 9.60833391 11.27483943 11.21846211 13.4375 12.9375 C17.10134881 15.88645148 19.96266399 19.42399115 23 23 C26.86768219 27.48750305 30.75504551 31.86116937 35 36 C36.27216614 37.26949913 37.54293941 38.5403952 38.8125 39.8125 C39.41707031 40.41707031 40.02164063 41.02164063 40.64453125 41.64453125 C41.09183594 42.09183594 41.53914063 42.53914063 42 43 C41.67 43.99 41.34 44.98 41 46 C37.74173269 45.41492139 36.07395231 44.45630128 33.71484375 42.15625 C33.10648682 41.57327148 32.49812988 40.99029297 31.87133789 40.38964844 C31.23317139 39.76606445 30.59500488 39.14248047 29.9375 38.5 C24.45293619 33.2390082 18.89126254 28.32773169 12.87890625 23.671875 C12.25886719 23.12015625 11.63882812 22.5684375 11 22 C11 21.34 11 20.68 11 20 C10.46890625 19.78601563 9.9378125 19.57203125 9.390625 19.3515625 C6.09182474 17.48655451 3.49008292 14.95775758 0.75 12.375 C0.19570313 11.859375 -0.35859375 11.34375 -0.9296875 10.8125 C-2.2902712 9.54574965 -3.64565837 8.27342185 -5 7 C-4.360625 6.21625 -3.72125 5.4325 -3.0625 4.625 C-1.01857687 2.20460719 -1.01857687 2.20460719 0 0 Z " fill="#000" transform="translate(432,120)"/>
<path d="M0 0 C0.33 0.66 0.66 1.32 1 2 C0.67 2.99 0.34 3.98 0 5 C43.56 5.33 87.12 5.66 132 6 C132 6.33 132 6.66 132 7 C87.12 7 42.24 7 -4 7 C-3.04065919 3.16263678 -2.76390737 2.40339772 0 0 Z " fill="#000" transform="translate(34,155)"/>
<path d="M0 0 C1.32 0 2.64 0 4 0 C5.28374129 1.41540707 6.55810032 2.84439039 7.72265625 4.359375 C9.61096446 6.784725 11.80224833 8.85457575 14 11 C15.27216057 12.26950471 16.54294453 13.54039009 17.8125 14.8125 C18.41707031 15.41707031 19.02164062 16.02164063 19.64453125 16.64453125 C20.09183594 17.09183594 20.53914063 17.53914063 21 18 C20.67 18.99 20.34 19.98 20 21 C16.59533676 20.41132576 14.88023004 19.28268537 12.3984375 16.91015625 C11.74359375 16.29076172 11.08875 15.67136719 10.4140625 15.03320312 C9.74117188 14.38287109 9.06828125 13.73253906 8.375 13.0625 C7.3540625 12.09280273 7.3540625 12.09280273 6.3125 11.10351562 C3.84964129 8.75990601 1.40400151 6.40400151 -1 4 C-0.625 1.875 -0.625 1.875 0 0 Z " fill="#000" transform="translate(453,145)"/>
<path d="M0 0 C2.5 2.5 2.5 2.5 5 5 C5.763125 5.66 6.52625 6.32 7.3125 7 C9 9 9 9 9.25 11.75 C9.1675 12.4925 9.085 13.235 9 14 C4.27775484 12.46527032 -0.35855331 10.76054874 -5 9 C-3.69791667 7.53515625 -2.39583333 6.0703125 -1.09375 4.60546875 C0.28151241 2.910552 0.28151241 2.910552 0 0 Z " fill="#000" transform="translate(256,99)"/>
<path d="M0 0 C1.1055189 0.93590504 2.20935453 1.87379858 3.3125 2.8125 C3.92738281 3.33457031 4.54226563 3.85664063 5.17578125 4.39453125 C6.85424679 5.87172469 8.43882034 7.40039131 10 9 C9.67 9.99 9.34 10.98 9 12 C5.33939179 11.41463247 3.45464836 9.916761 0.75 7.4375 C0.04359375 6.79683594 -0.6628125 6.15617188 -1.390625 5.49609375 C-2.18726563 4.75552734 -2.18726563 4.75552734 -3 4 C-2.01 3.67 -1.02 3.34 0 3 C0 2.01 0 1.02 0 0 Z " fill="#000" transform="translate(464,154)"/>
<path d="M0 0 C7.71428571 4 7.71428571 4 9 8 C3.87160006 9.81975482 -0.17684382 7.8599099 -5 6 C-5 5.67 -5 5.34 -5 5 C-3.35 4.67 -1.7 4.34 0 4 C-0.66 3.34 -1.32 2.68 -2 2 C-1.34 2 -0.68 2 0 2 C0 1.34 0 0.68 0 0 Z " fill="#000" transform="translate(391,127)"/>
<path d="M0 0 C1 3 1 3 -0.4375 6.1875 C-1.2109375 7.5796875 -1.2109375 7.5796875 -2 9 C-2.66 9 -3.32 9 -4 9 C-5.37310707 10.29233607 -6.71034824 11.62437146 -8 13 C-8.99 12.34 -9.98 11.68 -11 11 C-10.28972656 10.37351562 -9.57945312 9.74703125 -8.84765625 9.1015625 C-7.46900391 7.87566406 -7.46900391 7.87566406 -6.0625 6.625 C-5.14597656 5.81289063 -4.22945312 5.00078125 -3.28515625 4.1640625 C-0.96398605 2.21290653 -0.96398605 2.21290653 0 0 Z " fill="#000" transform="translate(214,51)"/>
<path d="M0 0 C2.5 1.375 2.5 1.375 5 3 C5 3.66 5 4.32 5 5 C5.99 5.33 6.98 5.66 8 6 C8 6.66 8 7.32 8 8 C9.32 8.66 10.64 9.32 12 10 C11.34 10.66 10.68 11.32 10 12 C9.608125 11.525625 9.21625 11.05125 8.8125 10.5625 C6.59191626 8.64820367 4.86624291 8.38733012 2 8 C2 7.01 2 6.02 2 5 C1.34 4.34 0.68 3.68 0 3 C0 2.01 0 1.02 0 0 Z " fill="#000" transform="translate(148,142)"/>
<path d="M0 0 C3.21462343 1.65601813 4.87387056 4.20512267 7.0625 7.0625 C5.4125 6.7325 3.7625 6.4025 2.0625 6.0625 C2.0625 5.4025 2.0625 4.7425 2.0625 4.0625 C1.11375 4.26875 0.165 4.475 -0.8125 4.6875 C-1.84375 4.81125 -2.875 4.935 -3.9375 5.0625 C-4.5975 4.4025 -5.2575 3.7425 -5.9375 3.0625 C-2.60148929 0.08391901 -2.60148929 0.08391901 0 0 Z " fill="#000" transform="translate(364.9375,48.9375)"/>
<path d="M0 0 C2.6875 0.875 2.6875 0.875 5 2 C4.6875 3.9375 4.6875 3.9375 4 6 C3.01 6.33 2.02 6.66 1 7 C-0.32 5.35 -1.64 3.7 -3 2 C-2.01 1.34 -1.02 0.68 0 0 Z " fill="#000" transform="translate(430,124)"/>
<path d="M0 0 C0.66 0.33 1.32 0.66 2 1 C2.125 4.375 2.125 4.375 2 8 C1.34 8.66 0.68 9.32 0 10 C-1.5 8.625 -1.5 8.625 -3 7 C-3 6.34 -3 5.68 -3 5 C-3.66 4.67 -4.32 4.34 -5 4 C-4.360625 3.71125 -3.72125 3.4225 -3.0625 3.125 C-0.84793921 2.17176549 -0.84793921 2.17176549 0 0 Z " fill="#000" transform="translate(333,106)"/>
<path d="M0 0 C0.75 1.75 0.75 1.75 1 4 C-0.8125 6.25 -0.8125 6.25 -3 8 C-3.66 8 -4.32 8 -5 8 C-5 8.66 -5 9.32 -5 10 C-5.66 10 -6.32 10 -7 10 C-7.33 10.66 -7.66 11.32 -8 12 C-8 8 -8 8 -5.6875 5.4375 C-4.800625 4.633125 -3.91375 3.82875 -3 3 C-2.401875 2.401875 -1.80375 1.80375 -1.1875 1.1875 C-0.795625 0.795625 -0.40375 0.40375 0 0 Z " fill="#000" transform="translate(254,141)"/>
<path d="M0 0 C0.66 0 1.32 0 2 0 C2.79953138 3.28696233 3.09658936 4.71023192 2 8 C-1.16115776 6.63016497 -1.9927092 6.0109362 -4 3 C-3.34 3 -2.68 3 -2 3 C-1.34 2.01 -0.68 1.02 0 0 Z " fill="#000" transform="translate(202,129)"/>
<path d="M0 0 C0.33 0.99 0.66 1.98 1 3 C-2.63 3 -6.26 3 -10 3 C-8.0130571 -0.97388579 -3.91761109 -0.08705802 0 0 Z " fill="#000" transform="translate(472,180)"/>
<path d="M0 0 C0 3 0 3 -1.75 5.04296875 C-2.4925 5.75066406 -3.235 6.45835938 -4 7.1875 C-4.7425 7.90292969 -5.485 8.61835937 -6.25 9.35546875 C-6.8275 9.89816406 -7.405 10.44085938 -8 11 C-8.99 10.67 -9.98 10.34 -11 10 C-7.50640535 6.40365256 -3.88901869 3.16548033 0 0 Z " fill="#000" transform="translate(345,66)"/>
<path d="M0 0 C2 1.8125 2 1.8125 4 4 C4 4.99 4 5.98 4 7 C1.36 7 -1.28 7 -4 7 C-3.34 6.401875 -2.68 5.80375 -2 5.1875 C0.3373846 3.12498166 0.3373846 3.12498166 0 0 Z " fill="#000" transform="translate(395,155)"/>
<path d="M0 0 C2.5 2.3125 2.5 2.3125 5 5 C5 5.99 5 6.98 5 8 C2.03 7.505 2.03 7.505 -1 7 C-0.67 4.69 -0.34 2.38 0 0 Z " fill="#000" transform="translate(405,91)"/>
<path d="M0 0 C1.32 1.32 2.64 2.64 4 4 C3.01 4.33 2.02 4.66 1 5 C0.01 6.485 0.01 6.485 -1 8 C-1.99 6.68 -2.98 5.36 -4 4 C-3.01 4 -2.02 4 -1 4 C-0.67 2.68 -0.34 1.36 0 0 Z " fill="#000" transform="translate(452,141)"/>
<path d="M0 0 C1.98 0 3.96 0 6 0 C6 0.99 6 1.98 6 3 C5.67 3.33 5.34 3.66 5 4 C5.99 4 6.98 4 8 4 C7.67 4.99 7.34 5.98 7 7 C5 5.625 5 5.625 3 4 C3 3.34 3 2.68 3 2 C2.01 1.67 1.02 1.34 0 1 C0 0.67 0 0.34 0 0 Z " fill="#000" transform="translate(318,99)"/>
<path d="M0 0 C1.9375 0.25 1.9375 0.25 4 1 C4.66 1.99 5.32 2.98 6 4 C5.67 4.66 5.34 5.32 5 6 C1.83884224 4.63016497 1.0072908 4.0109362 -1 1 C-0.67 0.67 -0.34 0.34 0 0 Z " fill="#000" transform="translate(213,143)"/>
<path d="M0 0 C1.32 0.66 2.64 1.32 4 2 C4 2.66 4 3.32 4 4 C1.03 3.505 1.03 3.505 -2 3 C-1.34 2.67 -0.68 2.34 0 2 C0 1.34 0 0.68 0 0 Z M0 4 C0.33 4.99 0.66 5.98 1 7 C-1.97 6.505 -1.97 6.505 -5 6 C-5 5.67 -5 5.34 -5 5 C-3.35 4.67 -1.7 4.34 0 4 Z " fill="#000" transform="translate(391,127)"/>
<path d="M0 0 C2.97 0.33 5.94 0.66 9 1 C4.25 5 4.25 5 2 5 C1.34 3.35 0.68 1.7 0 0 Z " fill="#000" transform="translate(140,115)"/>
<path d="M0 0 C0.99 0.33 1.98 0.66 3 1 C1.35 2.98 -0.3 4.96 -2 7 C-2.99 6.67 -3.98 6.34 -5 6 C-3.35 4.02 -1.7 2.04 0 0 Z " fill="#000" transform="translate(243,152)"/>
<path d="M0 0 C3.68754757 0.49831724 5.60490662 1.10067643 8 4 C7.67 4.99 7.34 5.98 7 7 C6.34 6.67 5.68 6.34 5 6 C5 5.34 5 4.68 5 4 C4.34 4 3.68 4 3 4 C3 3.34 3 2.68 3 2 C2.01 1.67 1.02 1.34 0 1 C0 0.67 0 0.34 0 0 Z " fill="#000" transform="translate(267,42)"/>
<path d="M0 0 C2.97 0.33 5.94 0.66 9 1 C8.67 1.66 8.34 2.32 8 3 C7.34 3 6.68 3 6 3 C5.67 3.66 5.34 4.32 5 5 C3.35 3.35 1.7 1.7 0 0 Z " fill="#000" transform="translate(226,156)"/>
<path d="M0 0 C2.475 0.99 2.475 0.99 5 2 C4.67 3.32 4.34 4.64 4 6 C3.01 5.67 2.02 5.34 1 5 C1.33 4.34 1.66 3.68 2 3 C1.01 2.67 0.02 2.34 -1 2 C-0.67 1.34 -0.34 0.68 0 0 Z " fill="#000" transform="translate(447,139)"/>
<path d="M0 0 C2.375 0.25 2.375 0.25 5 1 C6.3125 3.0625 6.3125 3.0625 7 5 C6.01 5.33 5.02 5.66 4 6 C2.68 4.02 1.36 2.04 0 0 Z " fill="#000" transform="translate(307,86)"/>
<path d="M0 0 C1.32 0.33 2.64 0.66 4 1 C3.67 1.99 3.34 2.98 3 4 C2.34 4 1.68 4 1 4 C0.67 4.66 0.34 5.32 0 6 C-0.99 4.68 -1.98 3.36 -3 2 C-2.01 2 -1.02 2 0 2 C0 1.34 0 0.68 0 0 Z " fill="#000" transform="translate(266,35)"/>
<path d="M0 0 C0.99 0.66 1.98 1.32 3 2 C2.67 2.99 2.34 3.98 2 5 C0.0625 4.625 0.0625 4.625 -2 4 C-2.33 3.34 -2.66 2.68 -3 2 C-2.01 1.34 -1.02 0.68 0 0 Z " fill="#000" transform="translate(471,161)"/>
<path d="M0 0 C0.99 0.33 1.98 0.66 3 1 C3 1.99 3 2.98 3 4 C0.69 4.33 -1.62 4.66 -4 5 C-2.68 3.35 -1.36 1.7 0 0 Z " fill="#000" transform="translate(127,74)"/>
<path d="M0 0 C1.98 0 3.96 0 6 0 C6.33 1.32 6.66 2.64 7 4 C6.01 4.33 5.02 4.66 4 5 C3.67 4.01 3.34 3.02 3 2 C2.01 1.67 1.02 1.34 0 1 C0 0.67 0 0.34 0 0 Z " fill="#000" transform="translate(347,130)"/>
</svg>
