<svg width="614" height="322" viewBox="0 0 614 322" fill="none" xmlns="http://www.w3.org/2000/svg">
<line x1="28" y1="33.5" x2="614" y2="33.5" stroke="#CDCDCD" stroke-opacity="0.4"/>
<line x1="28" y1="75.5" x2="614" y2="75.5001" stroke="#CDCDCD" stroke-opacity="0.4"/>
<line x1="28" y1="117.5" x2="614" y2="117.5" stroke="#CDCDCD" stroke-opacity="0.4"/>
<line x1="28" y1="159.5" x2="614" y2="159.5" stroke="#CDCDCD" stroke-opacity="0.4"/>
<line x1="28" y1="201.5" x2="614" y2="201.5" stroke="#CDCDCD" stroke-opacity="0.4"/>
<line x1="28" y1="243.5" x2="614" y2="243.5" stroke="#CDCDCD" stroke-opacity="0.4"/>
<line x1="562.5" y1="34" x2="562.5" y2="257" stroke="#CDCDCD" stroke-opacity="0.4"/>
<line x1="493.643" y1="34" x2="493.643" y2="257" stroke="#CDCDCD" stroke-opacity="0.4"/>
<line x1="424.786" y1="34" x2="424.786" y2="257" stroke="#CDCDCD" stroke-opacity="0.4"/>
<line x1="355.929" y1="34" x2="355.929" y2="257" stroke="#CDCDCD" stroke-opacity="0.4"/>
<line x1="287.071" y1="34" x2="287.071" y2="257" stroke="#CDCDCD" stroke-opacity="0.4"/>
<line x1="218.214" y1="34" x2="218.214" y2="257" stroke="#CDCDCD" stroke-opacity="0.4"/>
<line x1="149.357" y1="34" x2="149.357" y2="257" stroke="#CDCDCD" stroke-opacity="0.4"/>
<line x1="80.5" y1="34" x2="80.4999" y2="257" stroke="#CDCDCD" stroke-opacity="0.4"/>
<path d="M0.546 39V38.286L4.62 34.296C4.99333 33.932 5.27333 33.6147 5.46 33.344C5.64667 33.064 5.77267 32.8027 5.838 32.56C5.90333 32.3173 5.936 32.0887 5.936 31.874C5.936 31.3047 5.74 30.8567 5.348 30.53C4.96533 30.2033 4.396 30.04 3.64 30.04C3.06133 30.04 2.548 30.1287 2.1 30.306C1.66133 30.4833 1.28333 30.7587 0.966 31.132L0.252 30.516C0.634667 30.068 1.12467 29.7227 1.722 29.48C2.31933 29.2373 2.98667 29.116 3.724 29.116C4.38667 29.116 4.96067 29.2233 5.446 29.438C5.93133 29.6433 6.30467 29.9467 6.566 30.348C6.83667 30.7493 6.972 31.2207 6.972 31.762C6.972 32.0793 6.92533 32.392 6.832 32.7C6.748 33.008 6.58933 33.3347 6.356 33.68C6.132 34.016 5.80067 34.3987 5.362 34.828L1.624 38.496L1.344 38.104H7.42V39H0.546ZM9.57775 39.07C9.37242 39.07 9.19508 38.9953 9.04575 38.846C8.90575 38.6967 8.83575 38.5147 8.83575 38.3C8.83575 38.076 8.90575 37.894 9.04575 37.754C9.19508 37.614 9.37242 37.544 9.57775 37.544C9.78308 37.544 9.95575 37.614 10.0958 37.754C10.2451 37.894 10.3198 38.076 10.3198 38.3C10.3198 38.5147 10.2451 38.6967 10.0958 38.846C9.95575 38.9953 9.78308 39.07 9.57775 39.07ZM14.8825 39.084C14.1825 39.084 13.5152 38.972 12.8805 38.748C12.2459 38.5147 11.7419 38.2067 11.3685 37.824L11.8585 37.026C12.1665 37.3527 12.5865 37.6233 13.1185 37.838C13.6599 38.0527 14.2432 38.16 14.8685 38.16C15.6992 38.16 16.3292 37.978 16.7585 37.614C17.1972 37.2407 17.4165 36.7553 17.4165 36.158C17.4165 35.738 17.3139 35.3787 17.1085 35.08C16.9125 34.772 16.5765 34.534 16.1005 34.366C15.6245 34.198 14.9712 34.114 14.1405 34.114H12.0545L12.5585 29.2H17.9205V30.096H12.9645L13.4825 29.606L13.0485 33.722L12.5305 33.218H14.3645C15.3539 33.218 16.1472 33.3393 16.7445 33.582C17.3419 33.8247 17.7712 34.1653 18.0325 34.604C18.3032 35.0333 18.4385 35.5373 18.4385 36.116C18.4385 36.6667 18.3079 37.1707 18.0465 37.628C17.7852 38.076 17.3932 38.4307 16.8705 38.692C16.3479 38.9533 15.6852 39.084 14.8825 39.084Z" fill="black"/>
<path d="M0.546 81V80.286L4.62 76.296C4.99333 75.932 5.27333 75.6147 5.46 75.344C5.64667 75.064 5.77267 74.8027 5.838 74.56C5.90333 74.3173 5.936 74.0887 5.936 73.874C5.936 73.3047 5.74 72.8567 5.348 72.53C4.96533 72.2033 4.396 72.04 3.64 72.04C3.06133 72.04 2.548 72.1287 2.1 72.306C1.66133 72.4833 1.28333 72.7587 0.966 73.132L0.252 72.516C0.634667 72.068 1.12467 71.7227 1.722 71.48C2.31933 71.2373 2.98667 71.116 3.724 71.116C4.38667 71.116 4.96067 71.2233 5.446 71.438C5.93133 71.6433 6.30467 71.9467 6.566 72.348C6.83667 72.7493 6.972 73.2207 6.972 73.762C6.972 74.0793 6.92533 74.392 6.832 74.7C6.748 75.008 6.58933 75.3347 6.356 75.68C6.132 76.016 5.80067 76.3987 5.362 76.828L1.624 80.496L1.344 80.104H7.42V81H0.546ZM9.57775 81.07C9.37242 81.07 9.19508 80.9953 9.04575 80.846C8.90575 80.6967 8.83575 80.5147 8.83575 80.3C8.83575 80.076 8.90575 79.894 9.04575 79.754C9.19508 79.614 9.37242 79.544 9.57775 79.544C9.78308 79.544 9.95575 79.614 10.0958 79.754C10.2451 79.894 10.3198 80.076 10.3198 80.3C10.3198 80.5147 10.2451 80.6967 10.0958 80.846C9.95575 80.9953 9.78308 81.07 9.57775 81.07ZM15.5442 81.084C14.7882 81.084 14.1162 80.888 13.5282 80.496C12.9402 80.0947 12.4782 79.5253 12.1422 78.788C11.8062 78.0413 11.6382 77.1453 11.6382 76.1C11.6382 75.0547 11.8062 74.1633 12.1422 73.426C12.4782 72.6793 12.9402 72.11 13.5282 71.718C14.1162 71.3167 14.7882 71.116 15.5442 71.116C16.3002 71.116 16.9722 71.3167 17.5602 71.718C18.1482 72.11 18.6102 72.6793 18.9462 73.426C19.2915 74.1633 19.4642 75.0547 19.4642 76.1C19.4642 77.1453 19.2915 78.0413 18.9462 78.788C18.6102 79.5253 18.1482 80.0947 17.5602 80.496C16.9722 80.888 16.3002 81.084 15.5442 81.084ZM15.5442 80.16C16.1228 80.16 16.6268 80.006 17.0562 79.698C17.4855 79.3807 17.8215 78.9233 18.0642 78.326C18.3068 77.7193 18.4282 76.9773 18.4282 76.1C18.4282 75.2227 18.3068 74.4853 18.0642 73.888C17.8215 73.2813 17.4855 72.824 17.0562 72.516C16.6268 72.1987 16.1228 72.04 15.5442 72.04C14.9842 72.04 14.4848 72.1987 14.0462 72.516C13.6075 72.824 13.2668 73.2813 13.0242 73.888C12.7815 74.4853 12.6602 75.2227 12.6602 76.1C12.6602 76.9773 12.7815 77.7193 13.0242 78.326C13.2668 78.9233 13.6075 79.3807 14.0462 79.698C14.4848 80.006 14.9842 80.16 15.5442 80.16Z" fill="black"/>
<path d="M2.436 123V113.62L2.884 114.096H0.126V113.2H3.444V123H2.436ZM6.54259 123.07C6.33726 123.07 6.15993 122.995 6.01059 122.846C5.87059 122.697 5.80059 122.515 5.80059 122.3C5.80059 122.076 5.87059 121.894 6.01059 121.754C6.15993 121.614 6.33726 121.544 6.54259 121.544C6.74793 121.544 6.92059 121.614 7.06059 121.754C7.20993 121.894 7.28459 122.076 7.28459 122.3C7.28459 122.515 7.20993 122.697 7.06059 122.846C6.92059 122.995 6.74793 123.07 6.54259 123.07ZM11.8474 123.084C11.1474 123.084 10.4801 122.972 9.84539 122.748C9.21072 122.515 8.70672 122.207 8.33339 121.824L8.82339 121.026C9.13139 121.353 9.55139 121.623 10.0834 121.838C10.6247 122.053 11.2081 122.16 11.8334 122.16C12.6641 122.16 13.2941 121.978 13.7234 121.614C14.1621 121.241 14.3814 120.755 14.3814 120.158C14.3814 119.738 14.2787 119.379 14.0734 119.08C13.8774 118.772 13.5414 118.534 13.0654 118.366C12.5894 118.198 11.9361 118.114 11.1054 118.114H9.01939L9.52339 113.2H14.8854V114.096H9.92939L10.4474 113.606L10.0134 117.722L9.49539 117.218H11.3294C12.3187 117.218 13.1121 117.339 13.7094 117.582C14.3067 117.825 14.7361 118.165 14.9974 118.604C15.2681 119.033 15.4034 119.537 15.4034 120.116C15.4034 120.667 15.2727 121.171 15.0114 121.628C14.7501 122.076 14.3581 122.431 13.8354 122.692C13.3127 122.953 12.6501 123.084 11.8474 123.084Z" fill="black"/>
<path d="M2.436 165V155.62L2.884 156.096H0.126V155.2H3.444V165H2.436ZM6.54259 165.07C6.33726 165.07 6.15993 164.995 6.01059 164.846C5.87059 164.697 5.80059 164.515 5.80059 164.3C5.80059 164.076 5.87059 163.894 6.01059 163.754C6.15993 163.614 6.33726 163.544 6.54259 163.544C6.74793 163.544 6.92059 163.614 7.06059 163.754C7.20993 163.894 7.28459 164.076 7.28459 164.3C7.28459 164.515 7.20993 164.697 7.06059 164.846C6.92059 164.995 6.74793 165.07 6.54259 165.07ZM12.509 165.084C11.753 165.084 11.081 164.888 10.493 164.496C9.905 164.095 9.443 163.525 9.107 162.788C8.771 162.041 8.603 161.145 8.603 160.1C8.603 159.055 8.771 158.163 9.107 157.426C9.443 156.679 9.905 156.11 10.493 155.718C11.081 155.317 11.753 155.116 12.509 155.116C13.265 155.116 13.937 155.317 14.525 155.718C15.113 156.11 15.575 156.679 15.911 157.426C16.2563 158.163 16.429 159.055 16.429 160.1C16.429 161.145 16.2563 162.041 15.911 162.788C15.575 163.525 15.113 164.095 14.525 164.496C13.937 164.888 13.265 165.084 12.509 165.084ZM12.509 164.16C13.0877 164.16 13.5917 164.006 14.021 163.698C14.4503 163.381 14.7863 162.923 15.029 162.326C15.2717 161.719 15.393 160.977 15.393 160.1C15.393 159.223 15.2717 158.485 15.029 157.888C14.7863 157.281 14.4503 156.824 14.021 156.516C13.5917 156.199 13.0877 156.04 12.509 156.04C11.949 156.04 11.4497 156.199 11.011 156.516C10.5723 156.824 10.2317 157.281 9.989 157.888C9.74633 158.485 9.625 159.223 9.625 160.1C9.625 160.977 9.74633 161.719 9.989 162.326C10.2317 162.923 10.5723 163.381 11.011 163.698C11.4497 164.006 11.949 164.16 12.509 164.16Z" fill="black"/>
<path d="M4.634 207.084C3.878 207.084 3.206 206.888 2.618 206.496C2.03 206.095 1.568 205.525 1.232 204.788C0.896 204.041 0.728 203.145 0.728 202.1C0.728 201.055 0.896 200.163 1.232 199.426C1.568 198.679 2.03 198.11 2.618 197.718C3.206 197.317 3.878 197.116 4.634 197.116C5.39 197.116 6.062 197.317 6.65 197.718C7.238 198.11 7.7 198.679 8.036 199.426C8.38133 200.163 8.554 201.055 8.554 202.1C8.554 203.145 8.38133 204.041 8.036 204.788C7.7 205.525 7.238 206.095 6.65 206.496C6.062 206.888 5.39 207.084 4.634 207.084ZM4.634 206.16C5.21267 206.16 5.71667 206.006 6.146 205.698C6.57533 205.381 6.91133 204.923 7.154 204.326C7.39667 203.719 7.518 202.977 7.518 202.1C7.518 201.223 7.39667 200.485 7.154 199.888C6.91133 199.281 6.57533 198.824 6.146 198.516C5.71667 198.199 5.21267 198.04 4.634 198.04C4.074 198.04 3.57467 198.199 3.136 198.516C2.69733 198.824 2.35667 199.281 2.114 199.888C1.87133 200.485 1.75 201.223 1.75 202.1C1.75 202.977 1.87133 203.719 2.114 204.326C2.35667 204.923 2.69733 205.381 3.136 205.698C3.57467 206.006 4.074 206.16 4.634 206.16ZM10.6031 207.07C10.3978 207.07 10.2205 206.995 10.0711 206.846C9.93114 206.697 9.86114 206.515 9.86114 206.3C9.86114 206.076 9.93114 205.894 10.0711 205.754C10.2205 205.614 10.3978 205.544 10.6031 205.544C10.8085 205.544 10.9811 205.614 11.1211 205.754C11.2705 205.894 11.3451 206.076 11.3451 206.3C11.3451 206.515 11.2705 206.697 11.1211 206.846C10.9811 206.995 10.8085 207.07 10.6031 207.07ZM15.9079 207.084C15.2079 207.084 14.5406 206.972 13.9059 206.748C13.2713 206.515 12.7673 206.207 12.3939 205.824L12.8839 205.026C13.1919 205.353 13.6119 205.623 14.1439 205.838C14.6853 206.053 15.2686 206.16 15.8939 206.16C16.7246 206.16 17.3546 205.978 17.7839 205.614C18.2226 205.241 18.4419 204.755 18.4419 204.158C18.4419 203.738 18.3393 203.379 18.1339 203.08C17.9379 202.772 17.6019 202.534 17.1259 202.366C16.6499 202.198 15.9966 202.114 15.1659 202.114H13.0799L13.5839 197.2H18.9459V198.096H13.9899L14.5079 197.606L14.0739 201.722L13.5559 201.218H15.3899C16.3793 201.218 17.1726 201.339 17.7699 201.582C18.3673 201.825 18.7966 202.165 19.0579 202.604C19.3286 203.033 19.4639 203.537 19.4639 204.116C19.4639 204.667 19.3333 205.171 19.0719 205.628C18.8106 206.076 18.4186 206.431 17.8959 206.692C17.3733 206.953 16.7106 207.084 15.9079 207.084Z" fill="black"/>
<path d="M4.634 249.084C3.878 249.084 3.206 248.888 2.618 248.496C2.03 248.095 1.568 247.525 1.232 246.788C0.896 246.041 0.728 245.145 0.728 244.1C0.728 243.055 0.896 242.163 1.232 241.426C1.568 240.679 2.03 240.11 2.618 239.718C3.206 239.317 3.878 239.116 4.634 239.116C5.39 239.116 6.062 239.317 6.65 239.718C7.238 240.11 7.7 240.679 8.036 241.426C8.38133 242.163 8.554 243.055 8.554 244.1C8.554 245.145 8.38133 246.041 8.036 246.788C7.7 247.525 7.238 248.095 6.65 248.496C6.062 248.888 5.39 249.084 4.634 249.084ZM4.634 248.16C5.21267 248.16 5.71667 248.006 6.146 247.698C6.57533 247.381 6.91133 246.923 7.154 246.326C7.39667 245.719 7.518 244.977 7.518 244.1C7.518 243.223 7.39667 242.485 7.154 241.888C6.91133 241.281 6.57533 240.824 6.146 240.516C5.71667 240.199 5.21267 240.04 4.634 240.04C4.074 240.04 3.57467 240.199 3.136 240.516C2.69733 240.824 2.35667 241.281 2.114 241.888C1.87133 242.485 1.75 243.223 1.75 244.1C1.75 244.977 1.87133 245.719 2.114 246.326C2.35667 246.923 2.69733 247.381 3.136 247.698C3.57467 248.006 4.074 248.16 4.634 248.16ZM10.6031 249.07C10.3978 249.07 10.2205 248.995 10.0711 248.846C9.93114 248.697 9.86114 248.515 9.86114 248.3C9.86114 248.076 9.93114 247.894 10.0711 247.754C10.2205 247.614 10.3978 247.544 10.6031 247.544C10.8085 247.544 10.9811 247.614 11.1211 247.754C11.2705 247.894 11.3451 248.076 11.3451 248.3C11.3451 248.515 11.2705 248.697 11.1211 248.846C10.9811 248.995 10.8085 249.07 10.6031 249.07ZM16.5695 249.084C15.8135 249.084 15.1415 248.888 14.5535 248.496C13.9655 248.095 13.5035 247.525 13.1675 246.788C12.8315 246.041 12.6635 245.145 12.6635 244.1C12.6635 243.055 12.8315 242.163 13.1675 241.426C13.5035 240.679 13.9655 240.11 14.5535 239.718C15.1415 239.317 15.8135 239.116 16.5695 239.116C17.3255 239.116 17.9975 239.317 18.5855 239.718C19.1735 240.11 19.6355 240.679 19.9715 241.426C20.3169 242.163 20.4895 243.055 20.4895 244.1C20.4895 245.145 20.3169 246.041 19.9715 246.788C19.6355 247.525 19.1735 248.095 18.5855 248.496C17.9975 248.888 17.3255 249.084 16.5695 249.084ZM16.5695 248.16C17.1482 248.16 17.6522 248.006 18.0815 247.698C18.5109 247.381 18.8469 246.923 19.0895 246.326C19.3322 245.719 19.4535 244.977 19.4535 244.1C19.4535 243.223 19.3322 242.485 19.0895 241.888C18.8469 241.281 18.5109 240.824 18.0815 240.516C17.6522 240.199 17.1482 240.04 16.5695 240.04C16.0095 240.04 15.5102 240.199 15.0715 240.516C14.6329 240.824 14.2922 241.281 14.0495 241.888C13.8069 242.485 13.6855 243.223 13.6855 244.1C13.6855 244.977 13.8069 245.719 14.0495 246.326C14.2922 246.923 14.6329 247.381 15.0715 247.698C15.5102 248.006 16.0095 248.16 16.5695 248.16Z" fill="black"/>
<path d="M68.468 275V274.388L71.96 270.968C72.28 270.656 72.52 270.384 72.68 270.152C72.84 269.912 72.948 269.688 73.004 269.48C73.06 269.272 73.088 269.076 73.088 268.892C73.088 268.404 72.92 268.02 72.584 267.74C72.256 267.46 71.768 267.32 71.12 267.32C70.624 267.32 70.184 267.396 69.8 267.548C69.424 267.7 69.1 267.936 68.828 268.256L68.216 267.728C68.544 267.344 68.964 267.048 69.476 266.84C69.988 266.632 70.56 266.528 71.192 266.528C71.76 266.528 72.252 266.62 72.668 266.804C73.084 266.98 73.404 267.24 73.628 267.584C73.86 267.928 73.976 268.332 73.976 268.796C73.976 269.068 73.936 269.336 73.856 269.6C73.784 269.864 73.648 270.144 73.448 270.44C73.256 270.728 72.972 271.056 72.596 271.424L69.392 274.568L69.152 274.232H74.36V275H68.468ZM78.7689 275.072C78.1209 275.072 77.5449 274.904 77.0409 274.568C76.5369 274.224 76.1409 273.736 75.8529 273.104C75.5649 272.464 75.4209 271.696 75.4209 270.8C75.4209 269.904 75.5649 269.14 75.8529 268.508C76.1409 267.868 76.5369 267.38 77.0409 267.044C77.5449 266.7 78.1209 266.528 78.7689 266.528C79.4169 266.528 79.9929 266.7 80.4969 267.044C81.0009 267.38 81.3969 267.868 81.6849 268.508C81.9809 269.14 82.1289 269.904 82.1289 270.8C82.1289 271.696 81.9809 272.464 81.6849 273.104C81.3969 273.736 81.0009 274.224 80.4969 274.568C79.9929 274.904 79.4169 275.072 78.7689 275.072ZM78.7689 274.28C79.2649 274.28 79.6969 274.148 80.0649 273.884C80.4329 273.612 80.7209 273.22 80.9289 272.708C81.1369 272.188 81.2409 271.552 81.2409 270.8C81.2409 270.048 81.1369 269.416 80.9289 268.904C80.7209 268.384 80.4329 267.992 80.0649 267.728C79.6969 267.456 79.2649 267.32 78.7689 267.32C78.2889 267.32 77.8609 267.456 77.4849 267.728C77.1089 267.992 76.8169 268.384 76.6089 268.904C76.4009 269.416 76.2969 270.048 76.2969 270.8C76.2969 271.552 76.4009 272.188 76.6089 272.708C76.8169 273.22 77.1089 273.612 77.4849 273.884C77.8609 274.148 78.2889 274.28 78.7689 274.28ZM84.8302 275V266.96L85.2142 267.368H82.8502V266.6H85.6942V275H84.8302ZM87.5581 272.792V272.168L92.0101 266.6H92.9701L88.5541 272.168L88.0861 272.024H94.8421V272.792H87.5581ZM92.2981 275V272.792L92.3221 272.024V270.08H93.1621V275H92.2981Z" fill="black"/>
<path d="M136.611 275V274.388L140.103 270.968C140.423 270.656 140.663 270.384 140.823 270.152C140.983 269.912 141.091 269.688 141.147 269.48C141.203 269.272 141.231 269.076 141.231 268.892C141.231 268.404 141.063 268.02 140.727 267.74C140.399 267.46 139.911 267.32 139.263 267.32C138.767 267.32 138.327 267.396 137.943 267.548C137.567 267.7 137.243 267.936 136.971 268.256L136.359 267.728C136.687 267.344 137.107 267.048 137.619 266.84C138.131 266.632 138.703 266.528 139.335 266.528C139.903 266.528 140.395 266.62 140.811 266.804C141.227 266.98 141.547 267.24 141.771 267.584C142.003 267.928 142.119 268.332 142.119 268.796C142.119 269.068 142.079 269.336 141.999 269.6C141.927 269.864 141.791 270.144 141.591 270.44C141.399 270.728 141.115 271.056 140.739 271.424L137.535 274.568L137.295 274.232H142.503V275H136.611ZM146.912 275.072C146.264 275.072 145.688 274.904 145.184 274.568C144.68 274.224 144.284 273.736 143.996 273.104C143.708 272.464 143.564 271.696 143.564 270.8C143.564 269.904 143.708 269.14 143.996 268.508C144.284 267.868 144.68 267.38 145.184 267.044C145.688 266.7 146.264 266.528 146.912 266.528C147.56 266.528 148.136 266.7 148.64 267.044C149.144 267.38 149.54 267.868 149.828 268.508C150.124 269.14 150.272 269.904 150.272 270.8C150.272 271.696 150.124 272.464 149.828 273.104C149.54 273.736 149.144 274.224 148.64 274.568C148.136 274.904 147.56 275.072 146.912 275.072ZM146.912 274.28C147.408 274.28 147.84 274.148 148.208 273.884C148.576 273.612 148.864 273.22 149.072 272.708C149.28 272.188 149.384 271.552 149.384 270.8C149.384 270.048 149.28 269.416 149.072 268.904C148.864 268.384 148.576 267.992 148.208 267.728C147.84 267.456 147.408 267.32 146.912 267.32C146.432 267.32 146.004 267.456 145.628 267.728C145.252 267.992 144.96 268.384 144.752 268.904C144.544 269.416 144.44 270.048 144.44 270.8C144.44 271.552 144.544 272.188 144.752 272.708C144.96 273.22 145.252 273.612 145.628 273.884C146.004 274.148 146.432 274.28 146.912 274.28ZM152.973 275V266.96L153.357 267.368H150.993V266.6H153.837V275H152.973ZM159.289 275.072C158.545 275.072 157.917 274.908 157.405 274.58C156.893 274.244 156.505 273.764 156.241 273.14C155.977 272.508 155.845 271.752 155.845 270.872C155.845 269.92 156.005 269.124 156.325 268.484C156.653 267.836 157.105 267.348 157.681 267.02C158.257 266.692 158.925 266.528 159.685 266.528C160.061 266.528 160.421 266.564 160.765 266.636C161.109 266.708 161.413 266.824 161.677 266.984L161.329 267.68C161.113 267.536 160.865 267.436 160.585 267.38C160.305 267.316 160.009 267.284 159.697 267.284C158.793 267.284 158.069 267.572 157.525 268.148C156.989 268.724 156.721 269.584 156.721 270.728C156.721 270.904 156.729 271.124 156.745 271.388C156.769 271.644 156.817 271.9 156.889 272.156L156.589 271.928C156.677 271.512 156.849 271.16 157.105 270.872C157.361 270.576 157.681 270.352 158.065 270.2C158.449 270.048 158.869 269.972 159.325 269.972C159.885 269.972 160.377 270.076 160.801 270.284C161.225 270.492 161.557 270.784 161.797 271.16C162.037 271.536 162.157 271.98 162.157 272.492C162.157 273.012 162.033 273.468 161.785 273.86C161.537 274.244 161.193 274.544 160.753 274.76C160.321 274.968 159.833 275.072 159.289 275.072ZM159.253 274.34C159.653 274.34 160.005 274.268 160.309 274.124C160.621 273.972 160.865 273.76 161.041 273.488C161.217 273.208 161.305 272.884 161.305 272.516C161.305 271.964 161.113 271.524 160.729 271.196C160.353 270.868 159.841 270.704 159.193 270.704C158.761 270.704 158.385 270.784 158.065 270.944C157.745 271.104 157.493 271.324 157.309 271.604C157.125 271.876 157.033 272.188 157.033 272.54C157.033 272.844 157.117 273.136 157.285 273.416C157.453 273.688 157.701 273.912 158.029 274.088C158.365 274.256 158.773 274.34 159.253 274.34Z" fill="black"/>
<path d="M203.754 275V274.388L207.246 270.968C207.566 270.656 207.806 270.384 207.966 270.152C208.126 269.912 208.234 269.688 208.29 269.48C208.346 269.272 208.374 269.076 208.374 268.892C208.374 268.404 208.206 268.02 207.87 267.74C207.542 267.46 207.054 267.32 206.406 267.32C205.91 267.32 205.47 267.396 205.086 267.548C204.71 267.7 204.386 267.936 204.114 268.256L203.502 267.728C203.83 267.344 204.25 267.048 204.762 266.84C205.274 266.632 205.846 266.528 206.478 266.528C207.046 266.528 207.538 266.62 207.954 266.804C208.37 266.98 208.69 267.24 208.914 267.584C209.146 267.928 209.262 268.332 209.262 268.796C209.262 269.068 209.222 269.336 209.142 269.6C209.07 269.864 208.934 270.144 208.734 270.44C208.542 270.728 208.258 271.056 207.882 271.424L204.678 274.568L204.438 274.232H209.646V275H203.754ZM214.055 275.072C213.407 275.072 212.831 274.904 212.327 274.568C211.823 274.224 211.427 273.736 211.139 273.104C210.851 272.464 210.707 271.696 210.707 270.8C210.707 269.904 210.851 269.14 211.139 268.508C211.427 267.868 211.823 267.38 212.327 267.044C212.831 266.7 213.407 266.528 214.055 266.528C214.703 266.528 215.279 266.7 215.783 267.044C216.287 267.38 216.683 267.868 216.971 268.508C217.267 269.14 217.415 269.904 217.415 270.8C217.415 271.696 217.267 272.464 216.971 273.104C216.683 273.736 216.287 274.224 215.783 274.568C215.279 274.904 214.703 275.072 214.055 275.072ZM214.055 274.28C214.551 274.28 214.983 274.148 215.351 273.884C215.719 273.612 216.007 273.22 216.215 272.708C216.423 272.188 216.527 271.552 216.527 270.8C216.527 270.048 216.423 269.416 216.215 268.904C216.007 268.384 215.719 267.992 215.351 267.728C214.983 267.456 214.551 267.32 214.055 267.32C213.575 267.32 213.147 267.456 212.771 267.728C212.395 267.992 212.103 268.384 211.895 268.904C211.687 269.416 211.583 270.048 211.583 270.8C211.583 271.552 211.687 272.188 211.895 272.708C212.103 273.22 212.395 273.612 212.771 273.884C213.147 274.148 213.575 274.28 214.055 274.28ZM220.116 275V266.96L220.5 267.368H218.136V266.6H220.98V275H220.116ZM226.18 275.072C225.508 275.072 224.928 274.976 224.44 274.784C223.96 274.592 223.588 274.316 223.324 273.956C223.068 273.588 222.94 273.156 222.94 272.66C222.94 272.18 223.064 271.772 223.312 271.436C223.568 271.092 223.936 270.828 224.416 270.644C224.904 270.46 225.492 270.368 226.18 270.368C226.86 270.368 227.444 270.46 227.932 270.644C228.42 270.828 228.792 271.092 229.048 271.436C229.312 271.772 229.444 272.18 229.444 272.66C229.444 273.156 229.312 273.588 229.048 273.956C228.784 274.316 228.408 274.592 227.92 274.784C227.432 274.976 226.852 275.072 226.18 275.072ZM226.18 274.34C226.924 274.34 227.504 274.188 227.92 273.884C228.344 273.58 228.556 273.168 228.556 272.648C228.556 272.128 228.344 271.72 227.92 271.424C227.504 271.12 226.924 270.968 226.18 270.968C225.436 270.968 224.856 271.12 224.44 271.424C224.024 271.72 223.816 272.128 223.816 272.648C223.816 273.168 224.024 273.58 224.44 273.884C224.856 274.188 225.436 274.34 226.18 274.34ZM226.18 270.86C225.556 270.86 225.024 270.776 224.584 270.608C224.152 270.44 223.82 270.2 223.588 269.888C223.356 269.568 223.24 269.188 223.24 268.748C223.24 268.284 223.36 267.888 223.6 267.56C223.848 267.224 224.192 266.968 224.632 266.792C225.072 266.616 225.588 266.528 226.18 266.528C226.772 266.528 227.288 266.616 227.728 266.792C228.176 266.968 228.524 267.224 228.772 267.56C229.02 267.888 229.144 268.284 229.144 268.748C229.144 269.188 229.028 269.568 228.796 269.888C228.564 270.2 228.224 270.44 227.776 270.608C227.336 270.776 226.804 270.86 226.18 270.86ZM226.18 270.284C226.836 270.284 227.348 270.148 227.716 269.876C228.084 269.604 228.268 269.24 228.268 268.784C228.268 268.304 228.076 267.932 227.692 267.668C227.316 267.396 226.812 267.26 226.18 267.26C225.548 267.26 225.044 267.396 224.668 267.668C224.292 267.932 224.104 268.3 224.104 268.772C224.104 269.236 224.284 269.604 224.644 269.876C225.012 270.148 225.524 270.284 226.18 270.284Z" fill="black"/>
<path d="M270.897 275V274.388L274.389 270.968C274.709 270.656 274.949 270.384 275.109 270.152C275.269 269.912 275.377 269.688 275.433 269.48C275.489 269.272 275.517 269.076 275.517 268.892C275.517 268.404 275.349 268.02 275.013 267.74C274.685 267.46 274.197 267.32 273.549 267.32C273.053 267.32 272.613 267.396 272.229 267.548C271.853 267.7 271.529 267.936 271.257 268.256L270.645 267.728C270.973 267.344 271.393 267.048 271.905 266.84C272.417 266.632 272.989 266.528 273.621 266.528C274.189 266.528 274.681 266.62 275.097 266.804C275.513 266.98 275.833 267.24 276.057 267.584C276.289 267.928 276.405 268.332 276.405 268.796C276.405 269.068 276.365 269.336 276.285 269.6C276.213 269.864 276.077 270.144 275.877 270.44C275.685 270.728 275.401 271.056 275.025 271.424L271.821 274.568L271.581 274.232H276.789V275H270.897ZM281.197 275.072C280.549 275.072 279.973 274.904 279.469 274.568C278.965 274.224 278.569 273.736 278.281 273.104C277.993 272.464 277.849 271.696 277.849 270.8C277.849 269.904 277.993 269.14 278.281 268.508C278.569 267.868 278.965 267.38 279.469 267.044C279.973 266.7 280.549 266.528 281.197 266.528C281.845 266.528 282.421 266.7 282.925 267.044C283.429 267.38 283.825 267.868 284.113 268.508C284.409 269.14 284.557 269.904 284.557 270.8C284.557 271.696 284.409 272.464 284.113 273.104C283.825 273.736 283.429 274.224 282.925 274.568C282.421 274.904 281.845 275.072 281.197 275.072ZM281.197 274.28C281.693 274.28 282.125 274.148 282.493 273.884C282.861 273.612 283.149 273.22 283.357 272.708C283.565 272.188 283.669 271.552 283.669 270.8C283.669 270.048 283.565 269.416 283.357 268.904C283.149 268.384 282.861 267.992 282.493 267.728C282.125 267.456 281.693 267.32 281.197 267.32C280.717 267.32 280.289 267.456 279.913 267.728C279.537 267.992 279.245 268.384 279.037 268.904C278.829 269.416 278.725 270.048 278.725 270.8C278.725 271.552 278.829 272.188 279.037 272.708C279.245 273.22 279.537 273.612 279.913 273.884C280.289 274.148 280.717 274.28 281.197 274.28ZM285.639 275V274.388L289.131 270.968C289.451 270.656 289.691 270.384 289.851 270.152C290.011 269.912 290.119 269.688 290.175 269.48C290.231 269.272 290.259 269.076 290.259 268.892C290.259 268.404 290.091 268.02 289.755 267.74C289.427 267.46 288.939 267.32 288.291 267.32C287.795 267.32 287.355 267.396 286.971 267.548C286.595 267.7 286.271 267.936 285.999 268.256L285.387 267.728C285.715 267.344 286.135 267.048 286.647 266.84C287.159 266.632 287.731 266.528 288.363 266.528C288.931 266.528 289.423 266.62 289.839 266.804C290.255 266.98 290.575 267.24 290.799 267.584C291.031 267.928 291.147 268.332 291.147 268.796C291.147 269.068 291.107 269.336 291.027 269.6C290.955 269.864 290.819 270.144 290.619 270.44C290.427 270.728 290.143 271.056 289.767 271.424L286.563 274.568L286.323 274.232H291.531V275H285.639ZM295.94 275.072C295.292 275.072 294.716 274.904 294.212 274.568C293.708 274.224 293.312 273.736 293.024 273.104C292.736 272.464 292.592 271.696 292.592 270.8C292.592 269.904 292.736 269.14 293.024 268.508C293.312 267.868 293.708 267.38 294.212 267.044C294.716 266.7 295.292 266.528 295.94 266.528C296.588 266.528 297.164 266.7 297.668 267.044C298.172 267.38 298.568 267.868 298.856 268.508C299.152 269.14 299.3 269.904 299.3 270.8C299.3 271.696 299.152 272.464 298.856 273.104C298.568 273.736 298.172 274.224 297.668 274.568C297.164 274.904 296.588 275.072 295.94 275.072ZM295.94 274.28C296.436 274.28 296.868 274.148 297.236 273.884C297.604 273.612 297.892 273.22 298.1 272.708C298.308 272.188 298.412 271.552 298.412 270.8C298.412 270.048 298.308 269.416 298.1 268.904C297.892 268.384 297.604 267.992 297.236 267.728C296.868 267.456 296.436 267.32 295.94 267.32C295.46 267.32 295.032 267.456 294.656 267.728C294.28 267.992 293.988 268.384 293.78 268.904C293.572 269.416 293.468 270.048 293.468 270.8C293.468 271.552 293.572 272.188 293.78 272.708C293.988 273.22 294.28 273.612 294.656 273.884C295.032 274.148 295.46 274.28 295.94 274.28Z" fill="black"/>
<path d="M341.039 275V274.388L344.531 270.968C344.851 270.656 345.091 270.384 345.251 270.152C345.411 269.912 345.519 269.688 345.575 269.48C345.631 269.272 345.659 269.076 345.659 268.892C345.659 268.404 345.491 268.02 345.155 267.74C344.827 267.46 344.339 267.32 343.691 267.32C343.195 267.32 342.755 267.396 342.371 267.548C341.995 267.7 341.671 267.936 341.399 268.256L340.787 267.728C341.115 267.344 341.535 267.048 342.047 266.84C342.559 266.632 343.131 266.528 343.763 266.528C344.331 266.528 344.823 266.62 345.239 266.804C345.655 266.98 345.975 267.24 346.199 267.584C346.431 267.928 346.547 268.332 346.547 268.796C346.547 269.068 346.507 269.336 346.427 269.6C346.355 269.864 346.219 270.144 346.019 270.44C345.827 270.728 345.543 271.056 345.167 271.424L341.963 274.568L341.723 274.232H346.931V275H341.039ZM351.34 275.072C350.692 275.072 350.116 274.904 349.612 274.568C349.108 274.224 348.712 273.736 348.424 273.104C348.136 272.464 347.992 271.696 347.992 270.8C347.992 269.904 348.136 269.14 348.424 268.508C348.712 267.868 349.108 267.38 349.612 267.044C350.116 266.7 350.692 266.528 351.34 266.528C351.988 266.528 352.564 266.7 353.068 267.044C353.572 267.38 353.968 267.868 354.256 268.508C354.552 269.14 354.7 269.904 354.7 270.8C354.7 271.696 354.552 272.464 354.256 273.104C353.968 273.736 353.572 274.224 353.068 274.568C352.564 274.904 351.988 275.072 351.34 275.072ZM351.34 274.28C351.836 274.28 352.268 274.148 352.636 273.884C353.004 273.612 353.292 273.22 353.5 272.708C353.708 272.188 353.812 271.552 353.812 270.8C353.812 270.048 353.708 269.416 353.5 268.904C353.292 268.384 353.004 267.992 352.636 267.728C352.268 267.456 351.836 267.32 351.34 267.32C350.86 267.32 350.432 267.456 350.056 267.728C349.68 267.992 349.388 268.384 349.18 268.904C348.972 269.416 348.868 270.048 348.868 270.8C348.868 271.552 348.972 272.188 349.18 272.708C349.388 273.22 349.68 273.612 350.056 273.884C350.432 274.148 350.86 274.28 351.34 274.28ZM355.782 275V274.388L359.274 270.968C359.594 270.656 359.834 270.384 359.994 270.152C360.154 269.912 360.262 269.688 360.318 269.48C360.374 269.272 360.402 269.076 360.402 268.892C360.402 268.404 360.234 268.02 359.898 267.74C359.57 267.46 359.082 267.32 358.434 267.32C357.938 267.32 357.498 267.396 357.114 267.548C356.738 267.7 356.414 267.936 356.142 268.256L355.53 267.728C355.858 267.344 356.278 267.048 356.79 266.84C357.302 266.632 357.874 266.528 358.506 266.528C359.074 266.528 359.566 266.62 359.982 266.804C360.398 266.98 360.718 267.24 360.942 267.584C361.174 267.928 361.29 268.332 361.29 268.796C361.29 269.068 361.25 269.336 361.17 269.6C361.098 269.864 360.962 270.144 360.762 270.44C360.57 270.728 360.286 271.056 359.91 271.424L356.706 274.568L356.466 274.232H361.674V275H355.782ZM362.602 275V274.388L366.094 270.968C366.414 270.656 366.654 270.384 366.814 270.152C366.974 269.912 367.082 269.688 367.138 269.48C367.194 269.272 367.222 269.076 367.222 268.892C367.222 268.404 367.054 268.02 366.718 267.74C366.39 267.46 365.902 267.32 365.254 267.32C364.758 267.32 364.318 267.396 363.934 267.548C363.558 267.7 363.234 267.936 362.962 268.256L362.35 267.728C362.678 267.344 363.098 267.048 363.61 266.84C364.122 266.632 364.694 266.528 365.326 266.528C365.894 266.528 366.386 266.62 366.802 266.804C367.218 266.98 367.538 267.24 367.762 267.584C367.994 267.928 368.11 268.332 368.11 268.796C368.11 269.068 368.07 269.336 367.99 269.6C367.918 269.864 367.782 270.144 367.582 270.44C367.39 270.728 367.106 271.056 366.73 271.424L363.526 274.568L363.286 274.232H368.494V275H362.602Z" fill="black"/>
<path d="M410.182 275V274.388L413.674 270.968C413.994 270.656 414.234 270.384 414.394 270.152C414.554 269.912 414.662 269.688 414.718 269.48C414.774 269.272 414.802 269.076 414.802 268.892C414.802 268.404 414.634 268.02 414.298 267.74C413.97 267.46 413.482 267.32 412.834 267.32C412.338 267.32 411.898 267.396 411.514 267.548C411.138 267.7 410.814 267.936 410.542 268.256L409.93 267.728C410.258 267.344 410.678 267.048 411.19 266.84C411.702 266.632 412.274 266.528 412.906 266.528C413.474 266.528 413.966 266.62 414.382 266.804C414.798 266.98 415.118 267.24 415.342 267.584C415.574 267.928 415.69 268.332 415.69 268.796C415.69 269.068 415.65 269.336 415.57 269.6C415.498 269.864 415.362 270.144 415.162 270.44C414.97 270.728 414.686 271.056 414.31 271.424L411.106 274.568L410.866 274.232H416.074V275H410.182ZM420.483 275.072C419.835 275.072 419.259 274.904 418.755 274.568C418.251 274.224 417.855 273.736 417.567 273.104C417.279 272.464 417.135 271.696 417.135 270.8C417.135 269.904 417.279 269.14 417.567 268.508C417.855 267.868 418.251 267.38 418.755 267.044C419.259 266.7 419.835 266.528 420.483 266.528C421.131 266.528 421.707 266.7 422.211 267.044C422.715 267.38 423.111 267.868 423.399 268.508C423.695 269.14 423.843 269.904 423.843 270.8C423.843 271.696 423.695 272.464 423.399 273.104C423.111 273.736 422.715 274.224 422.211 274.568C421.707 274.904 421.131 275.072 420.483 275.072ZM420.483 274.28C420.979 274.28 421.411 274.148 421.779 273.884C422.147 273.612 422.435 273.22 422.643 272.708C422.851 272.188 422.955 271.552 422.955 270.8C422.955 270.048 422.851 269.416 422.643 268.904C422.435 268.384 422.147 267.992 421.779 267.728C421.411 267.456 420.979 267.32 420.483 267.32C420.003 267.32 419.575 267.456 419.199 267.728C418.823 267.992 418.531 268.384 418.323 268.904C418.115 269.416 418.011 270.048 418.011 270.8C418.011 271.552 418.115 272.188 418.323 272.708C418.531 273.22 418.823 273.612 419.199 273.884C419.575 274.148 420.003 274.28 420.483 274.28ZM424.924 275V274.388L428.416 270.968C428.736 270.656 428.976 270.384 429.136 270.152C429.296 269.912 429.404 269.688 429.46 269.48C429.516 269.272 429.544 269.076 429.544 268.892C429.544 268.404 429.376 268.02 429.04 267.74C428.712 267.46 428.224 267.32 427.576 267.32C427.08 267.32 426.64 267.396 426.256 267.548C425.88 267.7 425.556 267.936 425.284 268.256L424.672 267.728C425 267.344 425.42 267.048 425.932 266.84C426.444 266.632 427.016 266.528 427.648 266.528C428.216 266.528 428.708 266.62 429.124 266.804C429.54 266.98 429.86 267.24 430.084 267.584C430.316 267.928 430.432 268.332 430.432 268.796C430.432 269.068 430.392 269.336 430.312 269.6C430.24 269.864 430.104 270.144 429.904 270.44C429.712 270.728 429.428 271.056 429.052 271.424L425.848 274.568L425.608 274.232H430.816V275H424.924ZM431.487 272.792V272.168L435.939 266.6H436.899L432.483 272.168L432.015 272.024H438.771V272.792H431.487ZM436.227 275V272.792L436.251 272.024V270.08H437.091V275H436.227Z" fill="black"/>
<path d="M480.325 275V274.388L483.817 270.968C484.137 270.656 484.377 270.384 484.537 270.152C484.697 269.912 484.805 269.688 484.861 269.48C484.917 269.272 484.945 269.076 484.945 268.892C484.945 268.404 484.777 268.02 484.441 267.74C484.113 267.46 483.625 267.32 482.977 267.32C482.481 267.32 482.041 267.396 481.657 267.548C481.281 267.7 480.957 267.936 480.685 268.256L480.073 267.728C480.401 267.344 480.821 267.048 481.333 266.84C481.845 266.632 482.417 266.528 483.049 266.528C483.617 266.528 484.109 266.62 484.525 266.804C484.941 266.98 485.261 267.24 485.485 267.584C485.717 267.928 485.833 268.332 485.833 268.796C485.833 269.068 485.793 269.336 485.713 269.6C485.641 269.864 485.505 270.144 485.305 270.44C485.113 270.728 484.829 271.056 484.453 271.424L481.249 274.568L481.009 274.232H486.217V275H480.325ZM490.626 275.072C489.978 275.072 489.402 274.904 488.898 274.568C488.394 274.224 487.998 273.736 487.71 273.104C487.422 272.464 487.278 271.696 487.278 270.8C487.278 269.904 487.422 269.14 487.71 268.508C487.998 267.868 488.394 267.38 488.898 267.044C489.402 266.7 489.978 266.528 490.626 266.528C491.274 266.528 491.85 266.7 492.354 267.044C492.858 267.38 493.254 267.868 493.542 268.508C493.838 269.14 493.986 269.904 493.986 270.8C493.986 271.696 493.838 272.464 493.542 273.104C493.254 273.736 492.858 274.224 492.354 274.568C491.85 274.904 491.274 275.072 490.626 275.072ZM490.626 274.28C491.122 274.28 491.554 274.148 491.922 273.884C492.29 273.612 492.578 273.22 492.786 272.708C492.994 272.188 493.098 271.552 493.098 270.8C493.098 270.048 492.994 269.416 492.786 268.904C492.578 268.384 492.29 267.992 491.922 267.728C491.554 267.456 491.122 267.32 490.626 267.32C490.146 267.32 489.718 267.456 489.342 267.728C488.966 267.992 488.674 268.384 488.466 268.904C488.258 269.416 488.154 270.048 488.154 270.8C488.154 271.552 488.258 272.188 488.466 272.708C488.674 273.22 488.966 273.612 489.342 273.884C489.718 274.148 490.146 274.28 490.626 274.28ZM495.067 275V274.388L498.559 270.968C498.879 270.656 499.119 270.384 499.279 270.152C499.439 269.912 499.547 269.688 499.603 269.48C499.659 269.272 499.687 269.076 499.687 268.892C499.687 268.404 499.519 268.02 499.183 267.74C498.855 267.46 498.367 267.32 497.719 267.32C497.223 267.32 496.783 267.396 496.399 267.548C496.023 267.7 495.699 267.936 495.427 268.256L494.815 267.728C495.143 267.344 495.563 267.048 496.075 266.84C496.587 266.632 497.159 266.528 497.791 266.528C498.359 266.528 498.851 266.62 499.267 266.804C499.683 266.98 500.003 267.24 500.227 267.584C500.459 267.928 500.575 268.332 500.575 268.796C500.575 269.068 500.535 269.336 500.455 269.6C500.383 269.864 500.247 270.144 500.047 270.44C499.855 270.728 499.571 271.056 499.195 271.424L495.991 274.568L495.751 274.232H500.959V275H495.067ZM505.464 275.072C504.72 275.072 504.092 274.908 503.58 274.58C503.068 274.244 502.68 273.764 502.416 273.14C502.152 272.508 502.02 271.752 502.02 270.872C502.02 269.92 502.18 269.124 502.5 268.484C502.828 267.836 503.28 267.348 503.856 267.02C504.432 266.692 505.1 266.528 505.86 266.528C506.236 266.528 506.596 266.564 506.94 266.636C507.284 266.708 507.588 266.824 507.852 266.984L507.504 267.68C507.288 267.536 507.04 267.436 506.76 267.38C506.48 267.316 506.184 267.284 505.872 267.284C504.968 267.284 504.244 267.572 503.7 268.148C503.164 268.724 502.896 269.584 502.896 270.728C502.896 270.904 502.904 271.124 502.92 271.388C502.944 271.644 502.992 271.9 503.064 272.156L502.764 271.928C502.852 271.512 503.024 271.16 503.28 270.872C503.536 270.576 503.856 270.352 504.24 270.2C504.624 270.048 505.044 269.972 505.5 269.972C506.06 269.972 506.552 270.076 506.976 270.284C507.4 270.492 507.732 270.784 507.972 271.16C508.212 271.536 508.332 271.98 508.332 272.492C508.332 273.012 508.208 273.468 507.96 273.86C507.712 274.244 507.368 274.544 506.928 274.76C506.496 274.968 506.008 275.072 505.464 275.072ZM505.428 274.34C505.828 274.34 506.18 274.268 506.484 274.124C506.796 273.972 507.04 273.76 507.216 273.488C507.392 273.208 507.48 272.884 507.48 272.516C507.48 271.964 507.288 271.524 506.904 271.196C506.528 270.868 506.016 270.704 505.368 270.704C504.936 270.704 504.56 270.784 504.24 270.944C503.92 271.104 503.668 271.324 503.484 271.604C503.3 271.876 503.208 272.188 503.208 272.54C503.208 272.844 503.292 273.136 503.46 273.416C503.628 273.688 503.876 273.912 504.204 274.088C504.54 274.256 504.948 274.34 505.428 274.34Z" fill="black"/>
<path d="M549.468 275V274.388L552.96 270.968C553.28 270.656 553.52 270.384 553.68 270.152C553.84 269.912 553.948 269.688 554.004 269.48C554.06 269.272 554.088 269.076 554.088 268.892C554.088 268.404 553.92 268.02 553.584 267.74C553.256 267.46 552.768 267.32 552.12 267.32C551.624 267.32 551.184 267.396 550.8 267.548C550.424 267.7 550.1 267.936 549.828 268.256L549.216 267.728C549.544 267.344 549.964 267.048 550.476 266.84C550.988 266.632 551.56 266.528 552.192 266.528C552.76 266.528 553.252 266.62 553.668 266.804C554.084 266.98 554.404 267.24 554.628 267.584C554.86 267.928 554.976 268.332 554.976 268.796C554.976 269.068 554.936 269.336 554.856 269.6C554.784 269.864 554.648 270.144 554.448 270.44C554.256 270.728 553.972 271.056 553.596 271.424L550.392 274.568L550.152 274.232H555.36V275H549.468ZM559.769 275.072C559.121 275.072 558.545 274.904 558.041 274.568C557.537 274.224 557.141 273.736 556.853 273.104C556.565 272.464 556.421 271.696 556.421 270.8C556.421 269.904 556.565 269.14 556.853 268.508C557.141 267.868 557.537 267.38 558.041 267.044C558.545 266.7 559.121 266.528 559.769 266.528C560.417 266.528 560.993 266.7 561.497 267.044C562.001 267.38 562.397 267.868 562.685 268.508C562.981 269.14 563.129 269.904 563.129 270.8C563.129 271.696 562.981 272.464 562.685 273.104C562.397 273.736 562.001 274.224 561.497 274.568C560.993 274.904 560.417 275.072 559.769 275.072ZM559.769 274.28C560.265 274.28 560.697 274.148 561.065 273.884C561.433 273.612 561.721 273.22 561.929 272.708C562.137 272.188 562.241 271.552 562.241 270.8C562.241 270.048 562.137 269.416 561.929 268.904C561.721 268.384 561.433 267.992 561.065 267.728C560.697 267.456 560.265 267.32 559.769 267.32C559.289 267.32 558.861 267.456 558.485 267.728C558.109 267.992 557.817 268.384 557.609 268.904C557.401 269.416 557.297 270.048 557.297 270.8C557.297 271.552 557.401 272.188 557.609 272.708C557.817 273.22 558.109 273.612 558.485 273.884C558.861 274.148 559.289 274.28 559.769 274.28ZM564.21 275V274.388L567.702 270.968C568.022 270.656 568.262 270.384 568.422 270.152C568.582 269.912 568.69 269.688 568.746 269.48C568.802 269.272 568.83 269.076 568.83 268.892C568.83 268.404 568.662 268.02 568.326 267.74C567.998 267.46 567.51 267.32 566.862 267.32C566.366 267.32 565.926 267.396 565.542 267.548C565.166 267.7 564.842 267.936 564.57 268.256L563.958 267.728C564.286 267.344 564.706 267.048 565.218 266.84C565.73 266.632 566.302 266.528 566.934 266.528C567.502 266.528 567.994 266.62 568.41 266.804C568.826 266.98 569.146 267.24 569.37 267.584C569.602 267.928 569.718 268.332 569.718 268.796C569.718 269.068 569.678 269.336 569.598 269.6C569.526 269.864 569.39 270.144 569.19 270.44C568.998 270.728 568.714 271.056 568.338 271.424L565.134 274.568L564.894 274.232H570.102V275H564.21ZM574.607 275.072C573.863 275.072 573.235 274.908 572.723 274.58C572.211 274.244 571.823 273.764 571.559 273.14C571.295 272.508 571.163 271.752 571.163 270.872C571.163 269.92 571.323 269.124 571.643 268.484C571.971 267.836 572.423 267.348 572.999 267.02C573.575 266.692 574.243 266.528 575.003 266.528C575.379 266.528 575.739 266.564 576.083 266.636C576.427 266.708 576.731 266.824 576.995 266.984L576.647 267.68C576.431 267.536 576.183 267.436 575.903 267.38C575.623 267.316 575.327 267.284 575.015 267.284C574.111 267.284 573.387 267.572 572.843 268.148C572.307 268.724 572.039 269.584 572.039 270.728C572.039 270.904 572.047 271.124 572.063 271.388C572.087 271.644 572.135 271.9 572.207 272.156L571.907 271.928C571.995 271.512 572.167 271.16 572.423 270.872C572.679 270.576 572.999 270.352 573.383 270.2C573.767 270.048 574.187 269.972 574.643 269.972C575.203 269.972 575.695 270.076 576.119 270.284C576.543 270.492 576.875 270.784 577.115 271.16C577.355 271.536 577.475 271.98 577.475 272.492C577.475 273.012 577.351 273.468 577.103 273.86C576.855 274.244 576.511 274.544 576.071 274.76C575.639 274.968 575.151 275.072 574.607 275.072ZM574.571 274.34C574.971 274.34 575.323 274.268 575.627 274.124C575.939 273.972 576.183 273.76 576.359 273.488C576.535 273.208 576.623 272.884 576.623 272.516C576.623 271.964 576.431 271.524 576.047 271.196C575.671 270.868 575.159 270.704 574.511 270.704C574.079 270.704 573.703 270.784 573.383 270.944C573.063 271.104 572.811 271.324 572.627 271.604C572.443 271.876 572.351 272.188 572.351 272.54C572.351 272.844 572.435 273.136 572.603 273.416C572.771 273.688 573.019 273.912 573.347 274.088C573.683 274.256 574.091 274.34 574.571 274.34Z" fill="black"/>
<path d="M4 318V307.824H0.064V306.8H9.12V307.824H5.184V318H4ZM15.0595 309.52C15.7422 309.52 16.3395 309.653 16.8515 309.92C17.3742 310.176 17.7795 310.571 18.0675 311.104C18.3662 311.637 18.5155 312.309 18.5155 313.12V318H17.3795V313.232C17.3795 312.347 17.1555 311.68 16.7075 311.232C16.2702 310.773 15.6515 310.544 14.8515 310.544C14.2542 310.544 13.7315 310.667 13.2835 310.912C12.8462 311.147 12.5048 311.493 12.2595 311.952C12.0248 312.4 11.9075 312.944 11.9075 313.584V318H10.7715V306.128H11.9075V311.904L11.6835 311.472C11.9502 310.864 12.3768 310.389 12.9635 310.048C13.5502 309.696 14.2488 309.52 15.0595 309.52ZM25.152 318.08C24.2773 318.08 23.5093 317.899 22.848 317.536C22.1867 317.163 21.6693 316.656 21.296 316.016C20.9227 315.365 20.736 314.624 20.736 313.792C20.736 312.96 20.912 312.224 21.264 311.584C21.6267 310.944 22.1173 310.443 22.736 310.08C23.3653 309.707 24.0693 309.52 24.848 309.52C25.6373 309.52 26.336 309.701 26.944 310.064C27.5627 310.416 28.048 310.917 28.4 311.568C28.752 312.208 28.928 312.949 28.928 313.792C28.928 313.845 28.9227 313.904 28.912 313.968C28.912 314.021 28.912 314.08 28.912 314.144H21.6V313.296H28.304L27.856 313.632C27.856 313.024 27.7227 312.485 27.456 312.016C27.2 311.536 26.848 311.163 26.4 310.896C25.952 310.629 25.4347 310.496 24.848 310.496C24.272 310.496 23.7547 310.629 23.296 310.896C22.8373 311.163 22.48 311.536 22.224 312.016C21.968 312.496 21.84 313.045 21.84 313.664V313.84C21.84 314.48 21.9787 315.045 22.256 315.536C22.544 316.016 22.9387 316.395 23.44 316.672C23.952 316.939 24.5333 317.072 25.184 317.072C25.696 317.072 26.1707 316.981 26.608 316.8C27.056 316.619 27.44 316.341 27.76 315.968L28.4 316.704C28.0267 317.152 27.5573 317.493 26.992 317.728C26.4373 317.963 25.824 318.08 25.152 318.08ZM39.7158 309.52C40.3984 309.52 40.9958 309.653 41.5078 309.92C42.0304 310.176 42.4358 310.571 42.7238 311.104C43.0224 311.637 43.1718 312.309 43.1718 313.12V318H42.0358V313.232C42.0358 312.347 41.8118 311.68 41.3638 311.232C40.9264 310.773 40.3078 310.544 39.5078 310.544C38.9104 310.544 38.3878 310.667 37.9398 310.912C37.5024 311.147 37.1611 311.493 36.9158 311.952C36.6811 312.4 36.5638 312.944 36.5638 313.584V318H35.4278V309.6H36.5158V311.904L36.3398 311.472C36.6064 310.864 37.0331 310.389 37.6198 310.048C38.2064 309.696 38.9051 309.52 39.7158 309.52ZM49.7123 318.08C48.9976 318.08 48.3736 317.947 47.8403 317.68C47.3069 317.413 46.8909 317.013 46.5923 316.48C46.3043 315.947 46.1603 315.28 46.1603 314.48V309.6H47.2963V314.352C47.2963 315.248 47.5149 315.925 47.9523 316.384C48.4003 316.832 49.0243 317.056 49.8243 317.056C50.4109 317.056 50.9176 316.939 51.3443 316.704C51.7816 316.459 52.1123 316.107 52.3363 315.648C52.5709 315.189 52.6883 314.64 52.6883 314V309.6H53.8243V318H52.7362V315.696L52.9123 316.112C52.6456 316.731 52.2296 317.216 51.6643 317.568C51.1096 317.909 50.4589 318.08 49.7123 318.08ZM67.4863 309.52C68.1689 309.52 68.7609 309.653 69.2623 309.92C69.7743 310.176 70.1689 310.571 70.4463 311.104C70.7343 311.637 70.8783 312.309 70.8783 313.12V318H69.7423V313.232C69.7423 312.347 69.5289 311.68 69.1023 311.232C68.6863 310.773 68.0943 310.544 67.3263 310.544C66.7503 310.544 66.2489 310.667 65.8223 310.912C65.4063 311.147 65.0809 311.493 64.8463 311.952C64.6223 312.4 64.5103 312.944 64.5103 313.584V318H63.3743V313.232C63.3743 312.347 63.1609 311.68 62.7343 311.232C62.3076 310.773 61.7103 310.544 60.9423 310.544C60.3769 310.544 59.8809 310.667 59.4543 310.912C59.0276 311.147 58.6969 311.493 58.4623 311.952C58.2383 312.4 58.1263 312.944 58.1263 313.584V318H56.9903V309.6H58.0783V311.872L57.9023 311.472C58.1583 310.864 58.5689 310.389 59.1343 310.048C59.7103 309.696 60.3876 309.52 61.1663 309.52C61.9876 309.52 62.6863 309.728 63.2623 310.144C63.8383 310.549 64.2116 311.163 64.3823 311.984L63.9343 311.808C64.1796 311.125 64.6116 310.576 65.2303 310.16C65.8596 309.733 66.6116 309.52 67.4863 309.52ZM78.295 318.08C77.559 318.08 76.8977 317.915 76.311 317.584C75.7243 317.243 75.2603 316.752 74.919 316.112C74.5777 315.472 74.407 314.699 74.407 313.792C74.407 312.875 74.5777 312.101 74.919 311.472C75.271 310.832 75.7403 310.347 76.327 310.016C76.9137 309.685 77.5697 309.52 78.295 309.52C79.095 309.52 79.8097 309.701 80.439 310.064C81.079 310.416 81.5803 310.912 81.943 311.552C82.3057 312.192 82.487 312.939 82.487 313.792C82.487 314.635 82.3057 315.381 81.943 316.032C81.5803 316.672 81.079 317.173 80.439 317.536C79.8097 317.899 79.095 318.08 78.295 318.08ZM73.959 318V306.128H75.095V312.08L74.935 313.776L75.047 315.472V318H73.959ZM78.215 317.072C78.8123 317.072 79.3457 316.939 79.815 316.672C80.2843 316.395 80.6577 316.011 80.935 315.52C81.2123 315.019 81.351 314.443 81.351 313.792C81.351 313.131 81.2123 312.555 80.935 312.064C80.6577 311.573 80.2843 311.195 79.815 310.928C79.3457 310.651 78.8123 310.512 78.215 310.512C77.6177 310.512 77.079 310.651 76.599 310.928C76.1297 311.195 75.7563 311.573 75.479 312.064C75.2123 312.555 75.079 313.131 75.079 313.792C75.079 314.443 75.2123 315.019 75.479 315.52C75.7563 316.011 76.1297 316.395 76.599 316.672C77.079 316.939 77.6177 317.072 78.215 317.072ZM88.3708 318.08C87.4961 318.08 86.7281 317.899 86.0668 317.536C85.4054 317.163 84.8881 316.656 84.5148 316.016C84.1414 315.365 83.9548 314.624 83.9548 313.792C83.9548 312.96 84.1308 312.224 84.4828 311.584C84.8454 310.944 85.3361 310.443 85.9548 310.08C86.5841 309.707 87.2881 309.52 88.0668 309.52C88.8561 309.52 89.5548 309.701 90.1628 310.064C90.7814 310.416 91.2668 310.917 91.6188 311.568C91.9708 312.208 92.1468 312.949 92.1468 313.792C92.1468 313.845 92.1414 313.904 92.1308 313.968C92.1308 314.021 92.1308 314.08 92.1308 314.144H84.8188V313.296H91.5228L91.0748 313.632C91.0748 313.024 90.9414 312.485 90.6748 312.016C90.4188 311.536 90.0668 311.163 89.6188 310.896C89.1708 310.629 88.6534 310.496 88.0668 310.496C87.4908 310.496 86.9734 310.629 86.5148 310.896C86.0561 311.163 85.6988 311.536 85.4428 312.016C85.1868 312.496 85.0588 313.045 85.0588 313.664V313.84C85.0588 314.48 85.1974 315.045 85.4748 315.536C85.7628 316.016 86.1574 316.395 86.6588 316.672C87.1708 316.939 87.7521 317.072 88.4028 317.072C88.9148 317.072 89.3894 316.981 89.8268 316.8C90.2748 316.619 90.6588 316.341 90.9788 315.968L91.6188 316.704C91.2454 317.152 90.7761 317.493 90.2108 317.728C89.6561 317.963 89.0428 318.08 88.3708 318.08ZM94.459 318V309.6H95.547V311.888L95.435 311.488C95.6697 310.848 96.0643 310.363 96.619 310.032C97.1737 309.691 97.8617 309.52 98.683 309.52V310.624C98.6403 310.624 98.5977 310.624 98.555 310.624C98.5123 310.613 98.4697 310.608 98.427 310.608C97.5417 310.608 96.8483 310.88 96.347 311.424C95.8457 311.957 95.595 312.72 95.595 313.712V318H94.459ZM103.106 318.08C102.412 318.08 101.756 317.984 101.138 317.792C100.519 317.589 100.034 317.339 99.6816 317.04L100.194 316.144C100.535 316.4 100.972 316.624 101.506 316.816C102.039 316.997 102.599 317.088 103.186 317.088C103.986 317.088 104.562 316.965 104.914 316.72C105.266 316.464 105.442 316.128 105.442 315.712C105.442 315.403 105.34 315.163 105.138 314.992C104.946 314.811 104.69 314.677 104.37 314.592C104.05 314.496 103.692 314.416 103.298 314.352C102.903 314.288 102.508 314.213 102.114 314.128C101.73 314.043 101.378 313.92 101.058 313.76C100.738 313.589 100.476 313.36 100.274 313.072C100.082 312.784 99.9856 312.4 99.9856 311.92C99.9856 311.461 100.114 311.051 100.37 310.688C100.626 310.325 100.999 310.043 101.49 309.84C101.991 309.627 102.599 309.52 103.314 309.52C103.858 309.52 104.402 309.595 104.946 309.744C105.49 309.883 105.938 310.069 106.29 310.304L105.794 311.216C105.42 310.96 105.02 310.779 104.594 310.672C104.167 310.555 103.74 310.496 103.314 310.496C102.556 310.496 101.996 310.629 101.634 310.896C101.282 311.152 101.106 311.483 101.106 311.888C101.106 312.208 101.202 312.459 101.394 312.64C101.596 312.821 101.858 312.965 102.178 313.072C102.508 313.168 102.866 313.248 103.25 313.312C103.644 313.376 104.034 313.456 104.418 313.552C104.812 313.637 105.17 313.76 105.49 313.92C105.82 314.069 106.082 314.288 106.274 314.576C106.476 314.853 106.578 315.221 106.578 315.68C106.578 316.171 106.439 316.597 106.162 316.96C105.895 317.312 105.5 317.589 104.978 317.792C104.466 317.984 103.842 318.08 103.106 318.08ZM115.106 318.08C114.412 318.08 113.756 317.984 113.138 317.792C112.519 317.589 112.034 317.339 111.682 317.04L112.194 316.144C112.535 316.4 112.972 316.624 113.506 316.816C114.039 316.997 114.599 317.088 115.186 317.088C115.986 317.088 116.562 316.965 116.914 316.72C117.266 316.464 117.442 316.128 117.442 315.712C117.442 315.403 117.34 315.163 117.138 314.992C116.946 314.811 116.69 314.677 116.37 314.592C116.05 314.496 115.692 314.416 115.298 314.352C114.903 314.288 114.508 314.213 114.114 314.128C113.73 314.043 113.378 313.92 113.058 313.76C112.738 313.589 112.476 313.36 112.274 313.072C112.082 312.784 111.986 312.4 111.986 311.92C111.986 311.461 112.114 311.051 112.37 310.688C112.626 310.325 112.999 310.043 113.49 309.84C113.991 309.627 114.599 309.52 115.314 309.52C115.858 309.52 116.402 309.595 116.946 309.744C117.49 309.883 117.938 310.069 118.29 310.304L117.794 311.216C117.42 310.96 117.02 310.779 116.594 310.672C116.167 310.555 115.74 310.496 115.314 310.496C114.556 310.496 113.996 310.629 113.634 310.896C113.282 311.152 113.106 311.483 113.106 311.888C113.106 312.208 113.202 312.459 113.394 312.64C113.596 312.821 113.858 312.965 114.178 313.072C114.508 313.168 114.866 313.248 115.25 313.312C115.644 313.376 116.034 313.456 116.418 313.552C116.812 313.637 117.17 313.76 117.49 313.92C117.82 314.069 118.082 314.288 118.274 314.576C118.476 314.853 118.578 315.221 118.578 315.68C118.578 316.171 118.439 316.597 118.162 316.96C117.895 317.312 117.5 317.589 116.978 317.792C116.466 317.984 115.842 318.08 115.106 318.08ZM124.95 309.52C125.633 309.52 126.23 309.653 126.742 309.92C127.265 310.176 127.67 310.571 127.958 311.104C128.257 311.637 128.406 312.309 128.406 313.12V318H127.27V313.232C127.27 312.347 127.046 311.68 126.598 311.232C126.161 310.773 125.542 310.544 124.742 310.544C124.145 310.544 123.622 310.667 123.174 310.912C122.737 311.147 122.395 311.493 122.15 311.952C121.915 312.4 121.798 312.944 121.798 313.584V318H120.662V306.128H121.798V311.904L121.574 311.472C121.841 310.864 122.267 310.389 122.854 310.048C123.441 309.696 124.139 309.52 124.95 309.52ZM134.899 318.08C134.088 318.08 133.357 317.899 132.707 317.536C132.067 317.163 131.56 316.656 131.187 316.016C130.813 315.365 130.627 314.624 130.627 313.792C130.627 312.949 130.813 312.208 131.187 311.568C131.56 310.928 132.067 310.427 132.707 310.064C133.347 309.701 134.077 309.52 134.899 309.52C135.731 309.52 136.467 309.701 137.107 310.064C137.757 310.427 138.264 310.928 138.627 311.568C139 312.208 139.187 312.949 139.187 313.792C139.187 314.624 139 315.365 138.627 316.016C138.264 316.656 137.757 317.163 137.107 317.536C136.456 317.899 135.72 318.08 134.899 318.08ZM134.899 317.072C135.507 317.072 136.045 316.939 136.515 316.672C136.984 316.395 137.352 316.011 137.619 315.52C137.896 315.019 138.035 314.443 138.035 313.792C138.035 313.131 137.896 312.555 137.619 312.064C137.352 311.573 136.984 311.195 136.515 310.928C136.045 310.651 135.512 310.512 134.915 310.512C134.317 310.512 133.784 310.651 133.315 310.928C132.845 311.195 132.472 311.573 132.195 312.064C131.917 312.555 131.779 313.131 131.779 313.792C131.779 314.443 131.917 315.019 132.195 315.52C132.472 316.011 132.845 316.395 133.315 316.672C133.784 316.939 134.312 317.072 134.899 317.072ZM142.984 318L139.816 309.6H140.904L143.784 317.392H143.288L146.248 309.6H147.224L150.152 317.392H149.656L152.584 309.6H153.624L150.44 318H149.368L146.552 310.672H146.888L144.056 318H142.984ZM161.234 318L158.066 309.6H159.154L162.034 317.392H161.538L164.498 309.6H165.474L168.402 317.392H167.906L170.834 309.6H171.874L168.69 318H167.618L164.802 310.672H165.138L162.306 318H161.234ZM177.872 309.52C178.555 309.52 179.152 309.653 179.664 309.92C180.187 310.176 180.592 310.571 180.88 311.104C181.179 311.637 181.328 312.309 181.328 313.12V318H180.192V313.232C180.192 312.347 179.968 311.68 179.52 311.232C179.083 310.773 178.464 310.544 177.664 310.544C177.067 310.544 176.544 310.667 176.096 310.912C175.659 311.147 175.317 311.493 175.072 311.952C174.837 312.4 174.72 312.944 174.72 313.584V318H173.584V306.128H174.72V311.904L174.496 311.472C174.763 310.864 175.189 310.389 175.776 310.048C176.363 309.696 177.061 309.52 177.872 309.52ZM184.304 321.184C183.91 321.184 183.531 321.12 183.168 320.992C182.816 320.864 182.512 320.672 182.256 320.416L182.784 319.568C182.998 319.771 183.227 319.925 183.472 320.032C183.728 320.149 184.011 320.208 184.32 320.208C184.694 320.208 185.014 320.101 185.28 319.888C185.558 319.685 185.819 319.323 186.064 318.8L186.608 317.568L186.736 317.392L190.192 309.6H191.312L187.104 319.008C186.87 319.552 186.608 319.984 186.32 320.304C186.043 320.624 185.739 320.848 185.408 320.976C185.078 321.115 184.71 321.184 184.304 321.184ZM186.544 318.24L182.672 309.6H183.856L187.28 317.312L186.544 318.24ZM197.1 318V309.6H198.236V318H197.1ZM197.676 307.744C197.441 307.744 197.244 307.664 197.084 307.504C196.924 307.344 196.844 307.152 196.844 306.928C196.844 306.704 196.924 306.517 197.084 306.368C197.244 306.208 197.441 306.128 197.676 306.128C197.91 306.128 198.108 306.203 198.268 306.352C198.428 306.501 198.508 306.688 198.508 306.912C198.508 307.147 198.428 307.344 198.268 307.504C198.118 307.664 197.921 307.744 197.676 307.744ZM205.685 309.52C206.367 309.52 206.965 309.653 207.477 309.92C207.999 310.176 208.405 310.571 208.693 311.104C208.991 311.637 209.141 312.309 209.141 313.12V318H208.005V313.232C208.005 312.347 207.781 311.68 207.333 311.232C206.895 310.773 206.277 310.544 205.477 310.544C204.879 310.544 204.357 310.667 203.909 310.912C203.471 311.147 203.13 311.493 202.885 311.952C202.65 312.4 202.533 312.944 202.533 313.584V318H201.397V309.6H202.485V311.904L202.309 311.472C202.575 310.864 203.002 310.389 203.589 310.048C204.175 309.696 204.874 309.52 205.685 309.52ZM214.213 318L210.485 309.6H211.669L215.093 317.392H214.533L218.005 309.6H219.125L215.381 318H214.213ZM224.058 318.08C223.184 318.08 222.416 317.899 221.754 317.536C221.093 317.163 220.576 316.656 220.202 316.016C219.829 315.365 219.642 314.624 219.642 313.792C219.642 312.96 219.818 312.224 220.17 311.584C220.533 310.944 221.024 310.443 221.642 310.08C222.272 309.707 222.976 309.52 223.754 309.52C224.544 309.52 225.242 309.701 225.85 310.064C226.469 310.416 226.954 310.917 227.306 311.568C227.658 312.208 227.834 312.949 227.834 313.792C227.834 313.845 227.829 313.904 227.818 313.968C227.818 314.021 227.818 314.08 227.818 314.144H220.506V313.296H227.21L226.762 313.632C226.762 313.024 226.629 312.485 226.362 312.016C226.106 311.536 225.754 311.163 225.306 310.896C224.858 310.629 224.341 310.496 223.754 310.496C223.178 310.496 222.661 310.629 222.202 310.896C221.744 311.163 221.386 311.536 221.13 312.016C220.874 312.496 220.746 313.045 220.746 313.664V313.84C220.746 314.48 220.885 315.045 221.162 315.536C221.45 316.016 221.845 316.395 222.346 316.672C222.858 316.939 223.44 317.072 224.09 317.072C224.602 317.072 225.077 316.981 225.514 316.8C225.962 316.619 226.346 316.341 226.666 315.968L227.306 316.704C226.933 317.152 226.464 317.493 225.898 317.728C225.344 317.963 224.73 318.08 224.058 318.08ZM232.403 318.08C231.709 318.08 231.053 317.984 230.435 317.792C229.816 317.589 229.331 317.339 228.979 317.04L229.491 316.144C229.832 316.4 230.269 316.624 230.803 316.816C231.336 316.997 231.896 317.088 232.483 317.088C233.283 317.088 233.859 316.965 234.211 316.72C234.563 316.464 234.739 316.128 234.739 315.712C234.739 315.403 234.637 315.163 234.435 314.992C234.243 314.811 233.987 314.677 233.667 314.592C233.347 314.496 232.989 314.416 232.595 314.352C232.2 314.288 231.805 314.213 231.411 314.128C231.027 314.043 230.675 313.92 230.355 313.76C230.035 313.589 229.773 313.36 229.571 313.072C229.379 312.784 229.283 312.4 229.283 311.92C229.283 311.461 229.411 311.051 229.667 310.688C229.923 310.325 230.296 310.043 230.787 309.84C231.288 309.627 231.896 309.52 232.611 309.52C233.155 309.52 233.699 309.595 234.243 309.744C234.787 309.883 235.235 310.069 235.587 310.304L235.091 311.216C234.717 310.96 234.317 310.779 233.891 310.672C233.464 310.555 233.037 310.496 232.611 310.496C231.853 310.496 231.293 310.629 230.931 310.896C230.579 311.152 230.403 311.483 230.403 311.888C230.403 312.208 230.499 312.459 230.691 312.64C230.893 312.821 231.155 312.965 231.475 313.072C231.805 313.168 232.163 313.248 232.547 313.312C232.941 313.376 233.331 313.456 233.715 313.552C234.109 313.637 234.467 313.76 234.787 313.92C235.117 314.069 235.379 314.288 235.571 314.576C235.773 314.853 235.875 315.221 235.875 315.68C235.875 316.171 235.736 316.597 235.459 316.96C235.192 317.312 234.797 317.589 234.275 317.792C233.763 317.984 233.139 318.08 232.403 318.08ZM240.615 318.08C239.826 318.08 239.218 317.867 238.791 317.44C238.364 317.013 238.151 316.411 238.151 315.632V307.744H239.287V315.568C239.287 316.059 239.41 316.437 239.655 316.704C239.911 316.971 240.274 317.104 240.743 317.104C241.244 317.104 241.66 316.96 241.991 316.672L242.391 317.488C242.167 317.691 241.895 317.84 241.575 317.936C241.266 318.032 240.946 318.08 240.615 318.08ZM236.647 310.544V309.6H241.847V310.544H236.647ZM247.586 318.08C246.775 318.08 246.045 317.899 245.394 317.536C244.754 317.163 244.247 316.656 243.874 316.016C243.501 315.365 243.314 314.624 243.314 313.792C243.314 312.949 243.501 312.208 243.874 311.568C244.247 310.928 244.754 310.427 245.394 310.064C246.034 309.701 246.765 309.52 247.586 309.52C248.418 309.52 249.154 309.701 249.794 310.064C250.445 310.427 250.951 310.928 251.314 311.568C251.687 312.208 251.874 312.949 251.874 313.792C251.874 314.624 251.687 315.365 251.314 316.016C250.951 316.656 250.445 317.163 249.794 317.536C249.143 317.899 248.407 318.08 247.586 318.08ZM247.586 317.072C248.194 317.072 248.733 316.939 249.202 316.672C249.671 316.395 250.039 316.011 250.306 315.52C250.583 315.019 250.722 314.443 250.722 313.792C250.722 313.131 250.583 312.555 250.306 312.064C250.039 311.573 249.671 311.195 249.202 310.928C248.733 310.651 248.199 310.512 247.602 310.512C247.005 310.512 246.471 310.651 246.002 310.928C245.533 311.195 245.159 311.573 244.882 312.064C244.605 312.555 244.466 313.131 244.466 313.792C244.466 314.443 244.605 315.019 244.882 315.52C245.159 316.011 245.533 316.395 246.002 316.672C246.471 316.939 246.999 317.072 247.586 317.072ZM254.193 318V309.6H255.281V311.888L255.169 311.488C255.404 310.848 255.799 310.363 256.353 310.032C256.908 309.691 257.596 309.52 258.417 309.52V310.624C258.375 310.624 258.332 310.624 258.289 310.624C258.247 310.613 258.204 310.608 258.161 310.608C257.276 310.608 256.583 310.88 256.081 311.424C255.58 311.957 255.329 312.72 255.329 313.712V318H254.193ZM262.84 318.08C262.147 318.08 261.491 317.984 260.872 317.792C260.253 317.589 259.768 317.339 259.416 317.04L259.928 316.144C260.269 316.4 260.707 316.624 261.24 316.816C261.773 316.997 262.333 317.088 262.92 317.088C263.72 317.088 264.296 316.965 264.648 316.72C265 316.464 265.176 316.128 265.176 315.712C265.176 315.403 265.075 315.163 264.872 314.992C264.68 314.811 264.424 314.677 264.104 314.592C263.784 314.496 263.427 314.416 263.032 314.352C262.637 314.288 262.243 314.213 261.848 314.128C261.464 314.043 261.112 313.92 260.792 313.76C260.472 313.589 260.211 313.36 260.008 313.072C259.816 312.784 259.72 312.4 259.72 311.92C259.72 311.461 259.848 311.051 260.104 310.688C260.36 310.325 260.733 310.043 261.224 309.84C261.725 309.627 262.333 309.52 263.048 309.52C263.592 309.52 264.136 309.595 264.68 309.744C265.224 309.883 265.672 310.069 266.024 310.304L265.528 311.216C265.155 310.96 264.755 310.779 264.328 310.672C263.901 310.555 263.475 310.496 263.048 310.496C262.291 310.496 261.731 310.629 261.368 310.896C261.016 311.152 260.84 311.483 260.84 311.888C260.84 312.208 260.936 312.459 261.128 312.64C261.331 312.821 261.592 312.965 261.912 313.072C262.243 313.168 262.6 313.248 262.984 313.312C263.379 313.376 263.768 313.456 264.152 313.552C264.547 313.637 264.904 313.76 265.224 313.92C265.555 314.069 265.816 314.288 266.008 314.576C266.211 314.853 266.312 315.221 266.312 315.68C266.312 316.171 266.173 316.597 265.896 316.96C265.629 317.312 265.235 317.589 264.712 317.792C264.2 317.984 263.576 318.08 262.84 318.08ZM277.848 318V316.144L277.8 315.84V312.736C277.8 312.021 277.597 311.472 277.192 311.088C276.797 310.704 276.205 310.512 275.416 310.512C274.872 310.512 274.355 310.603 273.864 310.784C273.373 310.965 272.957 311.205 272.616 311.504L272.104 310.656C272.531 310.293 273.043 310.016 273.64 309.824C274.237 309.621 274.867 309.52 275.528 309.52C276.616 309.52 277.453 309.792 278.04 310.336C278.637 310.869 278.936 311.685 278.936 312.784V318H277.848ZM274.952 318.08C274.323 318.08 273.773 317.979 273.304 317.776C272.845 317.563 272.493 317.275 272.248 316.912C272.003 316.539 271.88 316.112 271.88 315.632C271.88 315.195 271.981 314.8 272.184 314.448C272.397 314.085 272.739 313.797 273.208 313.584C273.688 313.36 274.328 313.248 275.128 313.248H278.024V314.096H275.16C274.349 314.096 273.784 314.24 273.464 314.528C273.155 314.816 273 315.173 273 315.6C273 316.08 273.187 316.464 273.56 316.752C273.933 317.04 274.456 317.184 275.128 317.184C275.768 317.184 276.317 317.04 276.776 316.752C277.245 316.453 277.587 316.027 277.8 315.472L278.056 316.256C277.843 316.811 277.469 317.253 276.936 317.584C276.413 317.915 275.752 318.08 274.952 318.08ZM282.022 318V309.6H283.11V311.888L282.998 311.488C283.232 310.848 283.627 310.363 284.182 310.032C284.736 309.691 285.424 309.52 286.246 309.52V310.624C286.203 310.624 286.16 310.624 286.118 310.624C286.075 310.613 286.032 310.608 285.99 310.608C285.104 310.608 284.411 310.88 283.91 311.424C283.408 311.957 283.158 312.72 283.158 313.712V318H282.022ZM291.808 318.08C290.934 318.08 290.166 317.899 289.504 317.536C288.843 317.163 288.326 316.656 287.952 316.016C287.579 315.365 287.392 314.624 287.392 313.792C287.392 312.96 287.568 312.224 287.92 311.584C288.283 310.944 288.774 310.443 289.392 310.08C290.022 309.707 290.726 309.52 291.504 309.52C292.294 309.52 292.992 309.701 293.6 310.064C294.219 310.416 294.704 310.917 295.056 311.568C295.408 312.208 295.584 312.949 295.584 313.792C295.584 313.845 295.579 313.904 295.568 313.968C295.568 314.021 295.568 314.08 295.568 314.144H288.256V313.296H294.96L294.512 313.632C294.512 313.024 294.379 312.485 294.112 312.016C293.856 311.536 293.504 311.163 293.056 310.896C292.608 310.629 292.091 310.496 291.504 310.496C290.928 310.496 290.411 310.629 289.952 310.896C289.494 311.163 289.136 311.536 288.88 312.016C288.624 312.496 288.496 313.045 288.496 313.664V313.84C288.496 314.48 288.635 315.045 288.912 315.536C289.2 316.016 289.595 316.395 290.096 316.672C290.608 316.939 291.19 317.072 291.84 317.072C292.352 317.072 292.827 316.981 293.264 316.8C293.712 316.619 294.096 316.341 294.416 315.968L295.056 316.704C294.683 317.152 294.214 317.493 293.648 317.728C293.094 317.963 292.48 318.08 291.808 318.08ZM304.74 318.08C303.951 318.08 303.343 317.867 302.916 317.44C302.489 317.013 302.276 316.411 302.276 315.632V307.744H303.412V315.568C303.412 316.059 303.535 316.437 303.78 316.704C304.036 316.971 304.399 317.104 304.868 317.104C305.369 317.104 305.785 316.96 306.116 316.672L306.516 317.488C306.292 317.691 306.02 317.84 305.7 317.936C305.391 318.032 305.071 318.08 304.74 318.08ZM300.772 310.544V309.6H305.972V310.544H300.772ZM312.056 318.08C311.341 318.08 310.717 317.947 310.184 317.68C309.651 317.413 309.235 317.013 308.936 316.48C308.648 315.947 308.504 315.28 308.504 314.48V309.6H309.64V314.352C309.64 315.248 309.859 315.925 310.296 316.384C310.744 316.832 311.368 317.056 312.168 317.056C312.755 317.056 313.261 316.939 313.688 316.704C314.125 316.459 314.456 316.107 314.68 315.648C314.915 315.189 315.032 314.64 315.032 314V309.6H316.168V318H315.08V315.696L315.256 316.112C314.989 316.731 314.573 317.216 314.008 317.568C313.453 317.909 312.803 318.08 312.056 318.08ZM319.334 318V309.6H320.422V311.888L320.31 311.488C320.545 310.848 320.939 310.363 321.494 310.032C322.049 309.691 322.737 309.52 323.558 309.52V310.624C323.515 310.624 323.473 310.624 323.43 310.624C323.387 310.613 323.345 310.608 323.302 310.608C322.417 310.608 321.723 310.88 321.222 311.424C320.721 311.957 320.47 312.72 320.47 313.712V318H319.334ZM329.919 309.52C330.602 309.52 331.199 309.653 331.711 309.92C332.234 310.176 332.639 310.571 332.927 311.104C333.226 311.637 333.375 312.309 333.375 313.12V318H332.239V313.232C332.239 312.347 332.015 311.68 331.567 311.232C331.13 310.773 330.511 310.544 329.711 310.544C329.114 310.544 328.591 310.667 328.143 310.912C327.706 311.147 327.364 311.493 327.119 311.952C326.884 312.4 326.767 312.944 326.767 313.584V318H325.631V309.6H326.719V311.904L326.543 311.472C326.81 310.864 327.236 310.389 327.823 310.048C328.41 309.696 329.108 309.52 329.919 309.52ZM336.443 318V309.6H337.579V318H336.443ZM337.019 307.744C336.785 307.744 336.587 307.664 336.427 307.504C336.267 307.344 336.187 307.152 336.187 306.928C336.187 306.704 336.267 306.517 336.427 306.368C336.587 306.208 336.785 306.128 337.019 306.128C337.254 306.128 337.451 306.203 337.611 306.352C337.771 306.501 337.851 306.688 337.851 306.912C337.851 307.147 337.771 307.344 337.611 307.504C337.462 307.664 337.265 307.744 337.019 307.744ZM345.028 309.52C345.711 309.52 346.308 309.653 346.82 309.92C347.343 310.176 347.748 310.571 348.036 311.104C348.335 311.637 348.484 312.309 348.484 313.12V318H347.348V313.232C347.348 312.347 347.124 311.68 346.676 311.232C346.239 310.773 345.62 310.544 344.82 310.544C344.223 310.544 343.7 310.667 343.252 310.912C342.815 311.147 342.474 311.493 342.228 311.952C341.994 312.4 341.876 312.944 341.876 313.584V318H340.74V309.6H341.828V311.904L341.652 311.472C341.919 310.864 342.346 310.389 342.932 310.048C343.519 309.696 344.218 309.52 345.028 309.52ZM355.137 321.184C354.369 321.184 353.633 321.072 352.929 320.848C352.225 320.624 351.654 320.304 351.217 319.888L351.793 319.024C352.187 319.376 352.673 319.653 353.249 319.856C353.835 320.069 354.454 320.176 355.105 320.176C356.171 320.176 356.955 319.925 357.457 319.424C357.958 318.933 358.209 318.165 358.209 317.12V315.024L358.369 313.584L358.257 312.144V309.6H359.345V316.976C359.345 318.427 358.987 319.488 358.273 320.16C357.569 320.843 356.523 321.184 355.137 321.184ZM354.929 317.68C354.129 317.68 353.409 317.509 352.769 317.168C352.129 316.816 351.622 316.331 351.249 315.712C350.886 315.093 350.705 314.384 350.705 313.584C350.705 312.784 350.886 312.08 351.249 311.472C351.622 310.853 352.129 310.373 352.769 310.032C353.409 309.691 354.129 309.52 354.929 309.52C355.675 309.52 356.347 309.675 356.945 309.984C357.542 310.293 358.017 310.752 358.369 311.36C358.721 311.968 358.897 312.709 358.897 313.584C358.897 314.459 358.721 315.2 358.369 315.808C358.017 316.416 357.542 316.88 356.945 317.2C356.347 317.52 355.675 317.68 354.929 317.68ZM355.041 316.672C355.659 316.672 356.209 316.544 356.689 316.288C357.169 316.021 357.547 315.659 357.825 315.2C358.102 314.731 358.241 314.192 358.241 313.584C358.241 312.976 358.102 312.443 357.825 311.984C357.547 311.525 357.169 311.168 356.689 310.912C356.209 310.645 355.659 310.512 355.041 310.512C354.433 310.512 353.883 310.645 353.393 310.912C352.913 311.168 352.534 311.525 352.257 311.984C351.99 312.443 351.857 312.976 351.857 313.584C351.857 314.192 351.99 314.731 352.257 315.2C352.534 315.659 352.913 316.021 353.393 316.288C353.883 316.544 354.433 316.672 355.041 316.672ZM369.349 318.08C368.56 318.08 367.952 317.867 367.525 317.44C367.099 317.013 366.885 316.411 366.885 315.632V307.744H368.021V315.568C368.021 316.059 368.144 316.437 368.389 316.704C368.645 316.971 369.008 317.104 369.477 317.104C369.979 317.104 370.395 316.96 370.725 316.672L371.125 317.488C370.901 317.691 370.629 317.84 370.309 317.936C370 318.032 369.68 318.08 369.349 318.08ZM365.381 310.544V309.6H370.581V310.544H365.381ZM376.321 318.08C375.51 318.08 374.779 317.899 374.129 317.536C373.489 317.163 372.982 316.656 372.609 316.016C372.235 315.365 372.049 314.624 372.049 313.792C372.049 312.949 372.235 312.208 372.609 311.568C372.982 310.928 373.489 310.427 374.129 310.064C374.769 309.701 375.499 309.52 376.321 309.52C377.153 309.52 377.889 309.701 378.529 310.064C379.179 310.427 379.686 310.928 380.049 311.568C380.422 312.208 380.609 312.949 380.609 313.792C380.609 314.624 380.422 315.365 380.049 316.016C379.686 316.656 379.179 317.163 378.529 317.536C377.878 317.899 377.142 318.08 376.321 318.08ZM376.321 317.072C376.929 317.072 377.467 316.939 377.937 316.672C378.406 316.395 378.774 316.011 379.041 315.52C379.318 315.019 379.457 314.443 379.457 313.792C379.457 313.131 379.318 312.555 379.041 312.064C378.774 311.573 378.406 311.195 377.937 310.928C377.467 310.651 376.934 310.512 376.337 310.512C375.739 310.512 375.206 310.651 374.737 310.928C374.267 311.195 373.894 311.573 373.617 312.064C373.339 312.555 373.201 313.131 373.201 313.792C373.201 314.443 373.339 315.019 373.617 315.52C373.894 316.011 374.267 316.395 374.737 316.672C375.206 316.939 375.734 317.072 376.321 317.072ZM391.451 318.08C390.726 318.08 390.07 317.915 389.483 317.584C388.897 317.243 388.427 316.757 388.075 316.128C387.734 315.488 387.563 314.709 387.563 313.792C387.563 312.875 387.734 312.101 388.075 311.472C388.417 310.832 388.881 310.347 389.467 310.016C390.054 309.685 390.715 309.52 391.451 309.52C392.251 309.52 392.966 309.701 393.595 310.064C394.235 310.416 394.737 310.917 395.099 311.568C395.462 312.208 395.643 312.949 395.643 313.792C395.643 314.645 395.462 315.392 395.099 316.032C394.737 316.672 394.235 317.173 393.595 317.536C392.966 317.899 392.251 318.08 391.451 318.08ZM387.115 321.104V309.6H388.203V312.128L388.091 313.808L388.251 315.504V321.104H387.115ZM391.371 317.072C391.969 317.072 392.502 316.939 392.971 316.672C393.441 316.395 393.814 316.011 394.091 315.52C394.369 315.019 394.507 314.443 394.507 313.792C394.507 313.141 394.369 312.571 394.091 312.08C393.814 311.589 393.441 311.205 392.971 310.928C392.502 310.651 391.969 310.512 391.371 310.512C390.774 310.512 390.235 310.651 389.755 310.928C389.286 311.205 388.913 311.589 388.635 312.08C388.369 312.571 388.235 313.141 388.235 313.792C388.235 314.443 388.369 315.019 388.635 315.52C388.913 316.011 389.286 316.395 389.755 316.672C390.235 316.939 390.774 317.072 391.371 317.072ZM397.959 318V309.6H399.047V311.888L398.935 311.488C399.17 310.848 399.564 310.363 400.119 310.032C400.674 309.691 401.362 309.52 402.183 309.52V310.624C402.14 310.624 402.098 310.624 402.055 310.624C402.012 310.613 401.97 310.608 401.927 310.608C401.042 310.608 400.348 310.88 399.847 311.424C399.346 311.957 399.095 312.72 399.095 313.712V318H397.959ZM404.256 318V309.6H405.392V318H404.256ZM404.832 307.744C404.597 307.744 404.4 307.664 404.24 307.504C404.08 307.344 404 307.152 404 306.928C404 306.704 404.08 306.517 404.24 306.368C404.4 306.208 404.597 306.128 404.832 306.128C405.067 306.128 405.264 306.203 405.424 306.352C405.584 306.501 405.664 306.688 405.664 306.912C405.664 307.147 405.584 307.344 405.424 307.504C405.275 307.664 405.077 307.744 404.832 307.744ZM410.713 318L406.985 309.6H408.169L411.593 317.392H411.033L414.505 309.6H415.625L411.881 318H410.713ZM422.239 318V316.144L422.191 315.84V312.736C422.191 312.021 421.988 311.472 421.583 311.088C421.188 310.704 420.596 310.512 419.807 310.512C419.263 310.512 418.745 310.603 418.255 310.784C417.764 310.965 417.348 311.205 417.007 311.504L416.495 310.656C416.921 310.293 417.433 310.016 418.031 309.824C418.628 309.621 419.257 309.52 419.919 309.52C421.007 309.52 421.844 309.792 422.431 310.336C423.028 310.869 423.327 311.685 423.327 312.784V318H422.239ZM419.343 318.08C418.713 318.08 418.164 317.979 417.695 317.776C417.236 317.563 416.884 317.275 416.639 316.912C416.393 316.539 416.271 316.112 416.271 315.632C416.271 315.195 416.372 314.8 416.575 314.448C416.788 314.085 417.129 313.797 417.599 313.584C418.079 313.36 418.719 313.248 419.519 313.248H422.415V314.096H419.551C418.74 314.096 418.175 314.24 417.855 314.528C417.545 314.816 417.391 315.173 417.391 315.6C417.391 316.08 417.577 316.464 417.951 316.752C418.324 317.04 418.847 317.184 419.519 317.184C420.159 317.184 420.708 317.04 421.167 316.752C421.636 316.453 421.977 316.027 422.191 315.472L422.447 316.256C422.233 316.811 421.86 317.253 421.327 317.584C420.804 317.915 420.143 318.08 419.343 318.08ZM429.068 318.08C428.279 318.08 427.671 317.867 427.244 317.44C426.817 317.013 426.604 316.411 426.604 315.632V307.744H427.74V315.568C427.74 316.059 427.863 316.437 428.108 316.704C428.364 316.971 428.727 317.104 429.196 317.104C429.697 317.104 430.113 316.96 430.444 316.672L430.844 317.488C430.62 317.691 430.348 317.84 430.028 317.936C429.719 318.032 429.399 318.08 429.068 318.08ZM425.1 310.544V309.6H430.3V310.544H425.1ZM436.183 318.08C435.309 318.08 434.541 317.899 433.879 317.536C433.218 317.163 432.701 316.656 432.327 316.016C431.954 315.365 431.767 314.624 431.767 313.792C431.767 312.96 431.943 312.224 432.295 311.584C432.658 310.944 433.149 310.443 433.767 310.08C434.397 309.707 435.101 309.52 435.879 309.52C436.669 309.52 437.367 309.701 437.975 310.064C438.594 310.416 439.079 310.917 439.431 311.568C439.783 312.208 439.959 312.949 439.959 313.792C439.959 313.845 439.954 313.904 439.943 313.968C439.943 314.021 439.943 314.08 439.943 314.144H432.631V313.296H439.335L438.887 313.632C438.887 313.024 438.754 312.485 438.487 312.016C438.231 311.536 437.879 311.163 437.431 310.896C436.983 310.629 436.466 310.496 435.879 310.496C435.303 310.496 434.786 310.629 434.327 310.896C433.869 311.163 433.511 311.536 433.255 312.016C432.999 312.496 432.871 313.045 432.871 313.664V313.84C432.871 314.48 433.01 315.045 433.287 315.536C433.575 316.016 433.97 316.395 434.471 316.672C434.983 316.939 435.565 317.072 436.215 317.072C436.727 317.072 437.202 316.981 437.639 316.8C438.087 316.619 438.471 316.341 438.791 315.968L439.431 316.704C439.058 317.152 438.589 317.493 438.023 317.728C437.469 317.963 436.855 318.08 436.183 318.08ZM449.947 318.08C449.115 318.08 448.368 317.899 447.707 317.536C447.056 317.163 446.544 316.656 446.171 316.016C445.798 315.365 445.611 314.624 445.611 313.792C445.611 312.949 445.798 312.208 446.171 311.568C446.544 310.928 447.056 310.427 447.707 310.064C448.368 309.701 449.115 309.52 449.947 309.52C450.662 309.52 451.307 309.659 451.883 309.936C452.459 310.213 452.912 310.629 453.243 311.184L452.395 311.76C452.107 311.333 451.75 311.019 451.323 310.816C450.896 310.613 450.432 310.512 449.931 310.512C449.334 310.512 448.795 310.651 448.315 310.928C447.835 311.195 447.456 311.573 447.179 312.064C446.902 312.555 446.763 313.131 446.763 313.792C446.763 314.453 446.902 315.029 447.179 315.52C447.456 316.011 447.835 316.395 448.315 316.672C448.795 316.939 449.334 317.072 449.931 317.072C450.432 317.072 450.896 316.971 451.323 316.768C451.75 316.565 452.107 316.256 452.395 315.84L453.243 316.416C452.912 316.96 452.459 317.376 451.883 317.664C451.307 317.941 450.662 318.08 449.947 318.08ZM455.475 318V309.6H456.563V311.888L456.451 311.488C456.685 310.848 457.08 310.363 457.635 310.032C458.189 309.691 458.877 309.52 459.699 309.52V310.624C459.656 310.624 459.613 310.624 459.571 310.624C459.528 310.613 459.485 310.608 459.443 310.608C458.557 310.608 457.864 310.88 457.363 311.424C456.861 311.957 456.611 312.72 456.611 313.712V318H455.475ZM465.261 318.08C464.387 318.08 463.619 317.899 462.957 317.536C462.296 317.163 461.779 316.656 461.405 316.016C461.032 315.365 460.845 314.624 460.845 313.792C460.845 312.96 461.021 312.224 461.373 311.584C461.736 310.944 462.227 310.443 462.845 310.08C463.475 309.707 464.179 309.52 464.957 309.52C465.747 309.52 466.445 309.701 467.053 310.064C467.672 310.416 468.157 310.917 468.509 311.568C468.861 312.208 469.037 312.949 469.037 313.792C469.037 313.845 469.032 313.904 469.021 313.968C469.021 314.021 469.021 314.08 469.021 314.144H461.709V313.296H468.413L467.965 313.632C467.965 313.024 467.832 312.485 467.565 312.016C467.309 311.536 466.957 311.163 466.509 310.896C466.061 310.629 465.544 310.496 464.957 310.496C464.381 310.496 463.864 310.629 463.405 310.896C462.947 311.163 462.589 311.536 462.333 312.016C462.077 312.496 461.949 313.045 461.949 313.664V313.84C461.949 314.48 462.088 315.045 462.365 315.536C462.653 316.016 463.048 316.395 463.549 316.672C464.061 316.939 464.643 317.072 465.293 317.072C465.805 317.072 466.28 316.981 466.717 316.8C467.165 316.619 467.549 316.341 467.869 315.968L468.509 316.704C468.136 317.152 467.667 317.493 467.101 317.728C466.547 317.963 465.933 318.08 465.261 318.08ZM474.694 318.08C473.894 318.08 473.174 317.899 472.534 317.536C471.904 317.173 471.408 316.672 471.046 316.032C470.683 315.381 470.502 314.635 470.502 313.792C470.502 312.939 470.683 312.192 471.046 311.552C471.408 310.912 471.904 310.416 472.534 310.064C473.174 309.701 473.894 309.52 474.694 309.52C475.43 309.52 476.086 309.685 476.662 310.016C477.248 310.347 477.712 310.832 478.054 311.472C478.406 312.101 478.582 312.875 478.582 313.792C478.582 314.699 478.411 315.472 478.07 316.112C477.728 316.752 477.264 317.243 476.678 317.584C476.102 317.915 475.44 318.08 474.694 318.08ZM474.774 317.072C475.371 317.072 475.904 316.939 476.374 316.672C476.854 316.395 477.227 316.011 477.494 315.52C477.771 315.019 477.91 314.443 477.91 313.792C477.91 313.131 477.771 312.555 477.494 312.064C477.227 311.573 476.854 311.195 476.374 310.928C475.904 310.651 475.371 310.512 474.774 310.512C474.187 310.512 473.659 310.651 473.19 310.928C472.72 311.195 472.347 311.573 472.07 312.064C471.792 312.555 471.654 313.131 471.654 313.792C471.654 314.443 471.792 315.019 472.07 315.52C472.347 316.011 472.72 316.395 473.19 316.672C473.659 316.939 474.187 317.072 474.774 317.072ZM477.942 318V315.472L478.054 313.776L477.894 312.08V306.128H479.03V318H477.942ZM482.193 318V309.6H483.329V318H482.193ZM482.769 307.744C482.535 307.744 482.337 307.664 482.177 307.504C482.017 307.344 481.937 307.152 481.937 306.928C481.937 306.704 482.017 306.517 482.177 306.368C482.337 306.208 482.535 306.128 482.769 306.128C483.004 306.128 483.201 306.203 483.361 306.352C483.521 306.501 483.601 306.688 483.601 306.912C483.601 307.147 483.521 307.344 483.361 307.504C483.212 307.664 483.015 307.744 482.769 307.744ZM489.146 318.08C488.357 318.08 487.749 317.867 487.322 317.44C486.896 317.013 486.682 316.411 486.682 315.632V307.744H487.818V315.568C487.818 316.059 487.941 316.437 488.186 316.704C488.442 316.971 488.805 317.104 489.274 317.104C489.776 317.104 490.192 316.96 490.522 316.672L490.922 317.488C490.698 317.691 490.426 317.84 490.106 317.936C489.797 318.032 489.477 318.08 489.146 318.08ZM485.178 310.544V309.6H490.378V310.544H485.178ZM502.442 318V316.144L502.394 315.84V312.736C502.394 312.021 502.191 311.472 501.786 311.088C501.391 310.704 500.799 310.512 500.01 310.512C499.466 310.512 498.948 310.603 498.458 310.784C497.967 310.965 497.551 311.205 497.21 311.504L496.698 310.656C497.124 310.293 497.636 310.016 498.234 309.824C498.831 309.621 499.46 309.52 500.122 309.52C501.21 309.52 502.047 309.792 502.634 310.336C503.231 310.869 503.53 311.685 503.53 312.784V318H502.442ZM499.546 318.08C498.916 318.08 498.367 317.979 497.898 317.776C497.439 317.563 497.087 317.275 496.842 316.912C496.596 316.539 496.474 316.112 496.474 315.632C496.474 315.195 496.575 314.8 496.778 314.448C496.991 314.085 497.332 313.797 497.802 313.584C498.282 313.36 498.922 313.248 499.722 313.248H502.618V314.096H499.754C498.943 314.096 498.378 314.24 498.058 314.528C497.748 314.816 497.594 315.173 497.594 315.6C497.594 316.08 497.78 316.464 498.154 316.752C498.527 317.04 499.05 317.184 499.722 317.184C500.362 317.184 500.911 317.04 501.37 316.752C501.839 316.453 502.18 316.027 502.394 315.472L502.65 316.256C502.436 316.811 502.063 317.253 501.53 317.584C501.007 317.915 500.346 318.08 499.546 318.08ZM509.271 318.08C508.482 318.08 507.874 317.867 507.447 317.44C507.021 317.013 506.807 316.411 506.807 315.632V307.744H507.943V315.568C507.943 316.059 508.066 316.437 508.311 316.704C508.567 316.971 508.93 317.104 509.399 317.104C509.901 317.104 510.317 316.96 510.647 316.672L511.047 317.488C510.823 317.691 510.551 317.84 510.231 317.936C509.922 318.032 509.602 318.08 509.271 318.08ZM505.303 310.544V309.6H510.503V310.544H505.303ZM517.303 318V309.6H518.391V311.888L518.279 311.488C518.513 310.848 518.908 310.363 519.463 310.032C520.017 309.691 520.705 309.52 521.527 309.52V310.624C521.484 310.624 521.441 310.624 521.399 310.624C521.356 310.613 521.313 310.608 521.271 310.608C520.385 310.608 519.692 310.88 519.191 311.424C518.689 311.957 518.439 312.72 518.439 313.712V318H517.303ZM527.09 318.08C526.215 318.08 525.447 317.899 524.786 317.536C524.124 317.163 523.607 316.656 523.234 316.016C522.86 315.365 522.674 314.624 522.674 313.792C522.674 312.96 522.85 312.224 523.202 311.584C523.564 310.944 524.055 310.443 524.674 310.08C525.303 309.707 526.007 309.52 526.786 309.52C527.575 309.52 528.274 309.701 528.882 310.064C529.5 310.416 529.986 310.917 530.338 311.568C530.69 312.208 530.866 312.949 530.866 313.792C530.866 313.845 530.86 313.904 530.85 313.968C530.85 314.021 530.85 314.08 530.85 314.144H523.538V313.296H530.242L529.794 313.632C529.794 313.024 529.66 312.485 529.394 312.016C529.138 311.536 528.786 311.163 528.338 310.896C527.89 310.629 527.372 310.496 526.786 310.496C526.21 310.496 525.692 310.629 525.234 310.896C524.775 311.163 524.418 311.536 524.162 312.016C523.906 312.496 523.778 313.045 523.778 313.664V313.84C523.778 314.48 523.916 315.045 524.194 315.536C524.482 316.016 524.876 316.395 525.378 316.672C525.89 316.939 526.471 317.072 527.122 317.072C527.634 317.072 528.108 316.981 528.546 316.8C528.994 316.619 529.378 316.341 529.698 315.968L530.338 316.704C529.964 317.152 529.495 317.493 528.93 317.728C528.375 317.963 527.762 318.08 527.09 318.08ZM536.666 318.08C535.834 318.08 535.087 317.899 534.426 317.536C533.775 317.163 533.263 316.656 532.89 316.016C532.516 315.365 532.33 314.624 532.33 313.792C532.33 312.949 532.516 312.208 532.89 311.568C533.263 310.928 533.775 310.427 534.426 310.064C535.087 309.701 535.834 309.52 536.666 309.52C537.38 309.52 538.026 309.659 538.602 309.936C539.178 310.213 539.631 310.629 539.962 311.184L539.114 311.76C538.826 311.333 538.468 311.019 538.042 310.816C537.615 310.613 537.151 310.512 536.65 310.512C536.052 310.512 535.514 310.651 535.034 310.928C534.554 311.195 534.175 311.573 533.898 312.064C533.62 312.555 533.482 313.131 533.482 313.792C533.482 314.453 533.62 315.029 533.898 315.52C534.175 316.011 534.554 316.395 535.034 316.672C535.514 316.939 536.052 317.072 536.65 317.072C537.151 317.072 537.615 316.971 538.042 316.768C538.468 316.565 538.826 316.256 539.114 315.84L539.962 316.416C539.631 316.96 539.178 317.376 538.602 317.664C538.026 317.941 537.38 318.08 536.666 318.08ZM545.477 318.08C544.666 318.08 543.935 317.899 543.285 317.536C542.645 317.163 542.138 316.656 541.765 316.016C541.391 315.365 541.205 314.624 541.205 313.792C541.205 312.949 541.391 312.208 541.765 311.568C542.138 310.928 542.645 310.427 543.285 310.064C543.925 309.701 544.655 309.52 545.477 309.52C546.309 309.52 547.045 309.701 547.685 310.064C548.335 310.427 548.842 310.928 549.205 311.568C549.578 312.208 549.765 312.949 549.765 313.792C549.765 314.624 549.578 315.365 549.205 316.016C548.842 316.656 548.335 317.163 547.685 317.536C547.034 317.899 546.298 318.08 545.477 318.08ZM545.477 317.072C546.085 317.072 546.623 316.939 547.093 316.672C547.562 316.395 547.93 316.011 548.197 315.52C548.474 315.019 548.613 314.443 548.613 313.792C548.613 313.131 548.474 312.555 548.197 312.064C547.93 311.573 547.562 311.195 547.093 310.928C546.623 310.651 546.09 310.512 545.493 310.512C544.895 310.512 544.362 310.651 543.893 310.928C543.423 311.195 543.05 311.573 542.773 312.064C542.495 312.555 542.357 313.131 542.357 313.792C542.357 314.443 542.495 315.019 542.773 315.52C543.05 316.011 543.423 316.395 543.893 316.672C544.362 316.939 544.89 317.072 545.477 317.072ZM552.084 318V309.6H553.172V311.888L553.06 311.488C553.295 310.848 553.689 310.363 554.244 310.032C554.799 309.691 555.487 309.52 556.308 309.52V310.624C556.265 310.624 556.223 310.624 556.18 310.624C556.137 310.613 556.095 310.608 556.052 310.608C555.167 310.608 554.473 310.88 553.972 311.424C553.471 311.957 553.22 312.72 553.22 313.712V318H552.084ZM561.647 318.08C560.847 318.08 560.127 317.899 559.487 317.536C558.857 317.173 558.361 316.672 557.999 316.032C557.636 315.381 557.455 314.635 557.455 313.792C557.455 312.939 557.636 312.192 557.999 311.552C558.361 310.912 558.857 310.416 559.487 310.064C560.127 309.701 560.847 309.52 561.647 309.52C562.383 309.52 563.039 309.685 563.615 310.016C564.201 310.347 564.665 310.832 565.007 311.472C565.359 312.101 565.535 312.875 565.535 313.792C565.535 314.699 565.364 315.472 565.023 316.112C564.681 316.752 564.217 317.243 563.631 317.584C563.055 317.915 562.393 318.08 561.647 318.08ZM561.727 317.072C562.324 317.072 562.857 316.939 563.327 316.672C563.807 316.395 564.18 316.011 564.447 315.52C564.724 315.019 564.863 314.443 564.863 313.792C564.863 313.131 564.724 312.555 564.447 312.064C564.18 311.573 563.807 311.195 563.327 310.928C562.857 310.651 562.324 310.512 561.727 310.512C561.14 310.512 560.612 310.651 560.143 310.928C559.673 311.195 559.3 311.573 559.023 312.064C558.745 312.555 558.607 313.131 558.607 313.792C558.607 314.443 558.745 315.019 559.023 315.52C559.3 316.011 559.673 316.395 560.143 316.672C560.612 316.939 561.14 317.072 561.727 317.072ZM564.895 318V315.472L565.007 313.776L564.847 312.08V306.128H565.983V318H564.895ZM577.67 318.08C576.945 318.08 576.289 317.915 575.702 317.584C575.115 317.243 574.646 316.757 574.294 316.128C573.953 315.488 573.782 314.709 573.782 313.792C573.782 312.875 573.953 312.101 574.294 311.472C574.635 310.832 575.099 310.347 575.686 310.016C576.273 309.685 576.934 309.52 577.67 309.52C578.47 309.52 579.185 309.701 579.814 310.064C580.454 310.416 580.955 310.917 581.318 311.568C581.681 312.208 581.862 312.949 581.862 313.792C581.862 314.645 581.681 315.392 581.318 316.032C580.955 316.672 580.454 317.173 579.814 317.536C579.185 317.899 578.47 318.08 577.67 318.08ZM573.334 321.104V309.6H574.422V312.128L574.31 313.808L574.47 315.504V321.104H573.334ZM577.59 317.072C578.187 317.072 578.721 316.939 579.19 316.672C579.659 316.395 580.033 316.011 580.31 315.52C580.587 315.019 580.726 314.443 580.726 313.792C580.726 313.141 580.587 312.571 580.31 312.08C580.033 311.589 579.659 311.205 579.19 310.928C578.721 310.651 578.187 310.512 577.59 310.512C576.993 310.512 576.454 310.651 575.974 310.928C575.505 311.205 575.131 311.589 574.854 312.08C574.587 312.571 574.454 313.141 574.454 313.792C574.454 314.443 574.587 315.019 574.854 315.52C575.131 316.011 575.505 316.395 575.974 316.672C576.454 316.939 576.993 317.072 577.59 317.072ZM589.395 318V316.144L589.347 315.84V312.736C589.347 312.021 589.144 311.472 588.739 311.088C588.344 310.704 587.752 310.512 586.963 310.512C586.419 310.512 585.902 310.603 585.411 310.784C584.92 310.965 584.504 311.205 584.163 311.504L583.651 310.656C584.078 310.293 584.59 310.016 585.187 309.824C585.784 309.621 586.414 309.52 587.075 309.52C588.163 309.52 589 309.792 589.587 310.336C590.184 310.869 590.483 311.685 590.483 312.784V318H589.395ZM586.499 318.08C585.87 318.08 585.32 317.979 584.851 317.776C584.392 317.563 584.04 317.275 583.795 316.912C583.55 316.539 583.427 316.112 583.427 315.632C583.427 315.195 583.528 314.8 583.731 314.448C583.944 314.085 584.286 313.797 584.755 313.584C585.235 313.36 585.875 313.248 586.675 313.248H589.571V314.096H586.707C585.896 314.096 585.331 314.24 585.011 314.528C584.702 314.816 584.547 315.173 584.547 315.6C584.547 316.08 584.734 316.464 585.107 316.752C585.48 317.04 586.003 317.184 586.675 317.184C587.315 317.184 587.864 317.04 588.323 316.752C588.792 316.453 589.134 316.027 589.347 315.472L589.603 316.256C589.39 316.811 589.016 317.253 588.483 317.584C587.96 317.915 587.299 318.08 586.499 318.08ZM597.056 318.08C596.224 318.08 595.478 317.899 594.816 317.536C594.166 317.163 593.654 316.656 593.28 316.016C592.907 315.365 592.72 314.624 592.72 313.792C592.72 312.949 592.907 312.208 593.28 311.568C593.654 310.928 594.166 310.427 594.816 310.064C595.478 309.701 596.224 309.52 597.056 309.52C597.771 309.52 598.416 309.659 598.992 309.936C599.568 310.213 600.022 310.629 600.352 311.184L599.504 311.76C599.216 311.333 598.859 311.019 598.432 310.816C598.006 310.613 597.542 310.512 597.04 310.512C596.443 310.512 595.904 310.651 595.424 310.928C594.944 311.195 594.566 311.573 594.288 312.064C594.011 312.555 593.872 313.131 593.872 313.792C593.872 314.453 594.011 315.029 594.288 315.52C594.566 316.011 594.944 316.395 595.424 316.672C595.904 316.939 596.443 317.072 597.04 317.072C597.542 317.072 598.006 316.971 598.432 316.768C598.859 316.565 599.216 316.256 599.504 315.84L600.352 316.416C600.022 316.96 599.568 317.376 598.992 317.664C598.416 317.941 597.771 318.08 597.056 318.08ZM606.011 318.08C605.137 318.08 604.369 317.899 603.707 317.536C603.046 317.163 602.529 316.656 602.155 316.016C601.782 315.365 601.595 314.624 601.595 313.792C601.595 312.96 601.771 312.224 602.123 311.584C602.486 310.944 602.977 310.443 603.595 310.08C604.225 309.707 604.929 309.52 605.707 309.52C606.497 309.52 607.195 309.701 607.803 310.064C608.422 310.416 608.907 310.917 609.259 311.568C609.611 312.208 609.787 312.949 609.787 313.792C609.787 313.845 609.782 313.904 609.771 313.968C609.771 314.021 609.771 314.08 609.771 314.144H602.459V313.296H609.163L608.715 313.632C608.715 313.024 608.582 312.485 608.315 312.016C608.059 311.536 607.707 311.163 607.259 310.896C606.811 310.629 606.294 310.496 605.707 310.496C605.131 310.496 604.614 310.629 604.155 310.896C603.697 311.163 603.339 311.536 603.083 312.016C602.827 312.496 602.699 313.045 602.699 313.664V313.84C602.699 314.48 602.838 315.045 603.115 315.536C603.403 316.016 603.798 316.395 604.299 316.672C604.811 316.939 605.393 317.072 606.043 317.072C606.555 317.072 607.03 316.981 607.467 316.8C607.915 316.619 608.299 316.341 608.619 315.968L609.259 316.704C608.886 317.152 608.417 317.493 607.851 317.728C607.297 317.963 606.683 318.08 606.011 318.08ZM612.212 318.08C611.977 318.08 611.774 317.995 611.604 317.824C611.444 317.653 611.364 317.445 611.364 317.2C611.364 316.944 611.444 316.736 611.604 316.576C611.774 316.416 611.977 316.336 612.212 316.336C612.446 316.336 612.644 316.416 612.804 316.576C612.974 316.736 613.06 316.944 613.06 317.2C613.06 317.445 612.974 317.653 612.804 317.824C612.644 317.995 612.446 318.08 612.212 318.08Z" fill="black" fill-opacity="0.7"/>
<path d="M562.5 0V243.5H45V210L110.5 190L260 156.5L406 106L462 58L562.5 0Z" fill="#fabe1a" fill-opacity="0.4"/>
</svg>
