<svg width="603" height="414" viewBox="0 0 603 414" fill="none" xmlns="http://www.w3.org/2000/svg">
<path d="M21 14C21 16.7614 23.2386 19 26 19H39.5C39.7761 19 40 19.2239 40 19.5C40 19.7761 39.7761 20 39.5 20H26C23.2386 20 21 22.2386 21 25V39.5C21 39.7761 20.7761 40 20.5 40C20.2239 40 20 39.7761 20 39.5V25C20 22.2386 17.7614 20 15 20H0.5C0.223857 20 0 19.7761 0 19.5C0 19.2239 0.223858 19 0.5 19H15C17.7614 19 20 16.7614 20 14V0.5C20 0.223858 20.2239 0 20.5 0C20.7761 0 21 0.223858 21 0.5V14Z" fill="#CDCDCD" fill-opacity="0.4"/>
<path d="M77.25 14C77.25 16.7614 79.4886 19 82.25 19H95.75C96.0261 19 96.25 19.2239 96.25 19.5C96.25 19.7761 96.0261 20 95.75 20H82.25C79.4886 20 77.25 22.2386 77.25 25V39.5C77.25 39.7761 77.0261 40 76.75 40C76.4739 40 76.25 39.7761 76.25 39.5V25C76.25 22.2386 74.0114 20 71.25 20H56.75C56.4739 20 56.25 19.7761 56.25 19.5C56.25 19.2239 56.4739 19 56.75 19H71.25C74.0114 19 76.25 16.7614 76.25 14V0.5C76.25 0.223858 76.4739 0 76.75 0C77.0261 0 77.25 0.223858 77.25 0.5V14Z" fill="#CDCDCD" fill-opacity="0.4"/>
<path d="M133.5 14C133.5 16.7614 135.739 19 138.5 19H152C152.276 19 152.5 19.2239 152.5 19.5C152.5 19.7761 152.276 20 152 20H138.5C135.739 20 133.5 22.2386 133.5 25V39.5C133.5 39.7761 133.276 40 133 40C132.724 40 132.5 39.7761 132.5 39.5V25C132.5 22.2386 130.261 20 127.5 20H113C112.724 20 112.5 19.7761 112.5 19.5C112.5 19.2239 112.724 19 113 19H127.5C130.261 19 132.5 16.7614 132.5 14V0.5C132.5 0.223858 132.724 0 133 0C133.276 0 133.5 0.223858 133.5 0.5V14Z" fill="#CDCDCD" fill-opacity="0.4"/>
<path d="M189.75 14C189.75 16.7614 191.989 19 194.75 19H208.25C208.526 19 208.75 19.2239 208.75 19.5C208.75 19.7761 208.526 20 208.25 20H194.75C191.989 20 189.75 22.2386 189.75 25V39.5C189.75 39.7761 189.526 40 189.25 40C188.974 40 188.75 39.7761 188.75 39.5V25C188.75 22.2386 186.511 20 183.75 20H169.25C168.974 20 168.75 19.7761 168.75 19.5C168.75 19.2239 168.974 19 169.25 19H183.75C186.511 19 188.75 16.7614 188.75 14V0.5C188.75 0.223858 188.974 0 189.25 0C189.526 0 189.75 0.223858 189.75 0.5V14Z" fill="#CDCDCD" fill-opacity="0.4"/>
<path d="M246 14C246 16.7614 248.239 19 251 19H264.5C264.776 19 265 19.2239 265 19.5C265 19.7761 264.776 20 264.5 20H251C248.239 20 246 22.2386 246 25V39.5C246 39.7761 245.776 40 245.5 40C245.224 40 245 39.7761 245 39.5V25C245 22.2386 242.761 20 240 20H225.5C225.224 20 225 19.7761 225 19.5C225 19.2239 225.224 19 225.5 19H240C242.761 19 245 16.7614 245 14V0.5C245 0.223858 245.224 0 245.5 0C245.776 0 246 0.223858 246 0.5V14Z" fill="#2E2E2E" fill-opacity="0.4"/>
<path d="M302.25 14C302.25 16.7614 304.489 19 307.25 19H320.75C321.026 19 321.25 19.2239 321.25 19.5C321.25 19.7761 321.026 20 320.75 20H307.25C304.489 20 302.25 22.2386 302.25 25V39.5C302.25 39.7761 302.026 40 301.75 40C301.474 40 301.25 39.7761 301.25 39.5V25C301.25 22.2386 299.011 20 296.25 20H281.75C281.474 20 281.25 19.7761 281.25 19.5C281.25 19.2239 281.474 19 281.75 19H296.25C299.011 19 301.25 16.7614 301.25 14V0.5C301.25 0.223858 301.474 0 301.75 0C302.026 0 302.25 0.223858 302.25 0.5V14Z" fill="#CDCDCD" fill-opacity="0.4"/>
<path d="M358.5 14C358.5 16.7614 360.739 19 363.5 19H377C377.276 19 377.5 19.2239 377.5 19.5C377.5 19.7761 377.276 20 377 20H363.5C360.739 20 358.5 22.2386 358.5 25V39.5C358.5 39.7761 358.276 40 358 40C357.724 40 357.5 39.7761 357.5 39.5V25C357.5 22.2386 355.261 20 352.5 20H338C337.724 20 337.5 19.7761 337.5 19.5C337.5 19.2239 337.724 19 338 19H352.5C355.261 19 357.5 16.7614 357.5 14V0.5C357.5 0.223858 357.724 0 358 0C358.276 0 358.5 0.223858 358.5 0.5V14Z" fill="#CDCDCD" fill-opacity="0.4"/>
<path d="M414.75 14C414.75 16.7614 416.989 19 419.75 19H433.25C433.526 19 433.75 19.2239 433.75 19.5C433.75 19.7761 433.526 20 433.25 20H419.75C416.989 20 414.75 22.2386 414.75 25V39.5C414.75 39.7761 414.526 40 414.25 40C413.974 40 413.75 39.7761 413.75 39.5V25C413.75 22.2386 411.511 20 408.75 20H394.25C393.974 20 393.75 19.7761 393.75 19.5C393.75 19.2239 393.974 19 394.25 19H408.75C411.511 19 413.75 16.7614 413.75 14V0.5C413.75 0.223858 413.974 0 414.25 0C414.526 0 414.75 0.223858 414.75 0.5V14Z" fill="#CDCDCD" fill-opacity="0.4"/>
<path d="M471 14C471 16.7614 473.239 19 476 19H489.5C489.776 19 490 19.2239 490 19.5C490 19.7761 489.776 20 489.5 20H476C473.239 20 471 22.2386 471 25V39.5C471 39.7761 470.776 40 470.5 40C470.224 40 470 39.7761 470 39.5V25C470 22.2386 467.761 20 465 20H450.5C450.224 20 450 19.7761 450 19.5C450 19.2239 450.224 19 450.5 19H465C467.761 19 470 16.7614 470 14V0.5C470 0.223858 470.224 0 470.5 0C470.776 0 471 0.223858 471 0.5V14Z" fill="#CDCDCD" fill-opacity="0.4"/>
<path d="M527.25 14C527.25 16.7614 529.489 19 532.25 19H545.75C546.026 19 546.25 19.2239 546.25 19.5C546.25 19.7761 546.026 20 545.75 20H532.25C529.489 20 527.25 22.2386 527.25 25V39.5C527.25 39.7761 527.026 40 526.75 40C526.474 40 526.25 39.7761 526.25 39.5V25C526.25 22.2386 524.011 20 521.25 20H506.75C506.474 20 506.25 19.7761 506.25 19.5C506.25 19.2239 506.474 19 506.75 19H521.25C524.011 19 526.25 16.7614 526.25 14V0.5C526.25 0.223858 526.474 0 526.75 0C527.026 0 527.25 0.223858 527.25 0.5V14Z" fill="#CDCDCD" fill-opacity="0.4"/>
<path d="M583.5 14C583.5 16.7614 585.739 19 588.5 19H602C602.276 19 602.5 19.2239 602.5 19.5C602.5 19.7761 602.276 20 602 20H588.5C585.739 20 583.5 22.2386 583.5 25V39.5C583.5 39.7761 583.276 40 583 40C582.724 40 582.5 39.7761 582.5 39.5V25C582.5 22.2386 580.261 20 577.5 20H563C562.724 20 562.5 19.7761 562.5 19.5C562.5 19.2239 562.724 19 563 19H577.5C580.261 19 582.5 16.7614 582.5 14V0.5C582.5 0.223858 582.724 0 583 0C583.276 0 583.5 0.223858 583.5 0.5V14Z" fill="#CDCDCD" fill-opacity="0.4"/>
<path d="M21 67.3333C21 70.0947 23.2386 72.3333 26 72.3333H39.5C39.7761 72.3333 40 72.5571 40 72.8333C40 73.1094 39.7761 73.3333 39.5 73.3333H26C23.2386 73.3333 21 75.5718 21 78.3333V92.8333C21 93.1094 20.7761 93.3333 20.5 93.3333C20.2239 93.3333 20 93.1094 20 92.8333V78.3333C20 75.5718 17.7614 73.3333 15 73.3333H0.5C0.223857 73.3333 0 73.1094 0 72.8333C0 72.5571 0.223858 72.3333 0.5 72.3333H15C17.7614 72.3333 20 70.0947 20 67.3333V53.8333C20 53.5571 20.2239 53.3333 20.5 53.3333C20.7761 53.3333 21 53.5571 21 53.8333V67.3333Z" fill="#CDCDCD" fill-opacity="0.4"/>
<path d="M77.25 67.3333C77.25 70.0947 79.4886 72.3333 82.25 72.3333H95.75C96.0261 72.3333 96.25 72.5571 96.25 72.8333C96.25 73.1094 96.0261 73.3333 95.75 73.3333H82.25C79.4886 73.3333 77.25 75.5718 77.25 78.3333V92.8333C77.25 93.1094 77.0261 93.3333 76.75 93.3333C76.4739 93.3333 76.25 93.1094 76.25 92.8333V78.3333C76.25 75.5718 74.0114 73.3333 71.25 73.3333H56.75C56.4739 73.3333 56.25 73.1094 56.25 72.8333C56.25 72.5571 56.4739 72.3333 56.75 72.3333H71.25C74.0114 72.3333 76.25 70.0947 76.25 67.3333V53.8333C76.25 53.5571 76.4739 53.3333 76.75 53.3333C77.0261 53.3333 77.25 53.5571 77.25 53.8333V67.3333Z" fill="#CDCDCD" fill-opacity="0.4"/>
<path d="M133.5 67.3333C133.5 70.0947 135.739 72.3333 138.5 72.3333H152C152.276 72.3333 152.5 72.5571 152.5 72.8333C152.5 73.1094 152.276 73.3333 152 73.3333H138.5C135.739 73.3333 133.5 75.5718 133.5 78.3333V92.8333C133.5 93.1094 133.276 93.3333 133 93.3333C132.724 93.3333 132.5 93.1094 132.5 92.8333V78.3333C132.5 75.5718 130.261 73.3333 127.5 73.3333H113C112.724 73.3333 112.5 73.1094 112.5 72.8333C112.5 72.5571 112.724 72.3333 113 72.3333H127.5C130.261 72.3333 132.5 70.0947 132.5 67.3333V53.8333C132.5 53.5571 132.724 53.3333 133 53.3333C133.276 53.3333 133.5 53.5571 133.5 53.8333V67.3333Z" fill="#CDCDCD" fill-opacity="0.4"/>
<path d="M189.75 67.3333C189.75 70.0947 191.989 72.3333 194.75 72.3333H208.25C208.526 72.3333 208.75 72.5571 208.75 72.8333C208.75 73.1094 208.526 73.3333 208.25 73.3333H194.75C191.989 73.3333 189.75 75.5718 189.75 78.3333V92.8333C189.75 93.1094 189.526 93.3333 189.25 93.3333C188.974 93.3333 188.75 93.1094 188.75 92.8333V78.3333C188.75 75.5718 186.511 73.3333 183.75 73.3333H169.25C168.974 73.3333 168.75 73.1094 168.75 72.8333C168.75 72.5571 168.974 72.3333 169.25 72.3333H183.75C186.511 72.3333 188.75 70.0947 188.75 67.3333V53.8333C188.75 53.5571 188.974 53.3333 189.25 53.3333C189.526 53.3333 189.75 53.5571 189.75 53.8333V67.3333Z" fill="#CDCDCD" fill-opacity="0.4"/>
<path d="M246 67.3333C246 70.0947 248.239 72.3333 251 72.3333H264.5C264.776 72.3333 265 72.5571 265 72.8333C265 73.1094 264.776 73.3333 264.5 73.3333H251C248.239 73.3333 246 75.5718 246 78.3333V92.8333C246 93.1094 245.776 93.3333 245.5 93.3333C245.224 93.3333 245 93.1094 245 92.8333V78.3333C245 75.5718 242.761 73.3333 240 73.3333H225.5C225.224 73.3333 225 73.1094 225 72.8333C225 72.5571 225.224 72.3333 225.5 72.3333H240C242.761 72.3333 245 70.0947 245 67.3333V53.8333C245 53.5571 245.224 53.3333 245.5 53.3333C245.776 53.3333 246 53.5571 246 53.8333V67.3333Z" fill="#2E2E2E" fill-opacity="0.4"/>
<path d="M302.25 67.3333C302.25 70.0947 304.489 72.3333 307.25 72.3333H320.75C321.026 72.3333 321.25 72.5571 321.25 72.8333C321.25 73.1094 321.026 73.3333 320.75 73.3333H307.25C304.489 73.3333 302.25 75.5718 302.25 78.3333V92.8333C302.25 93.1094 302.026 93.3333 301.75 93.3333C301.474 93.3333 301.25 93.1094 301.25 92.8333V78.3333C301.25 75.5718 299.011 73.3333 296.25 73.3333H281.75C281.474 73.3333 281.25 73.1094 281.25 72.8333C281.25 72.5571 281.474 72.3333 281.75 72.3333H296.25C299.011 72.3333 301.25 70.0947 301.25 67.3333V53.8333C301.25 53.5571 301.474 53.3333 301.75 53.3333C302.026 53.3333 302.25 53.5571 302.25 53.8333V67.3333Z" fill="#2E2E2E" fill-opacity="0.4"/>
<path d="M358.5 67.3333C358.5 70.0947 360.739 72.3333 363.5 72.3333H377C377.276 72.3333 377.5 72.5571 377.5 72.8333C377.5 73.1094 377.276 73.3333 377 73.3333H363.5C360.739 73.3333 358.5 75.5718 358.5 78.3333V92.8333C358.5 93.1094 358.276 93.3333 358 93.3333C357.724 93.3333 357.5 93.1094 357.5 92.8333V78.3333C357.5 75.5718 355.261 73.3333 352.5 73.3333H338C337.724 73.3333 337.5 73.1094 337.5 72.8333C337.5 72.5571 337.724 72.3333 338 72.3333H352.5C355.261 72.3333 357.5 70.0947 357.5 67.3333V53.8333C357.5 53.5571 357.724 53.3333 358 53.3333C358.276 53.3333 358.5 53.5571 358.5 53.8333V67.3333Z" fill="#2E2E2E" fill-opacity="0.4"/>
<path d="M414.75 67.3333C414.75 70.0947 416.989 72.3333 419.75 72.3333H433.25C433.526 72.3333 433.75 72.5571 433.75 72.8333C433.75 73.1094 433.526 73.3333 433.25 73.3333H419.75C416.989 73.3333 414.75 75.5718 414.75 78.3333V92.8333C414.75 93.1094 414.526 93.3333 414.25 93.3333C413.974 93.3333 413.75 93.1094 413.75 92.8333V78.3333C413.75 75.5718 411.511 73.3333 408.75 73.3333H394.25C393.974 73.3333 393.75 73.1094 393.75 72.8333C393.75 72.5571 393.974 72.3333 394.25 72.3333H408.75C411.511 72.3333 413.75 70.0947 413.75 67.3333V53.8333C413.75 53.5571 413.974 53.3333 414.25 53.3333C414.526 53.3333 414.75 53.5571 414.75 53.8333V67.3333Z" fill="#CDCDCD" fill-opacity="0.4"/>
<path d="M471 67.3333C471 70.0947 473.239 72.3333 476 72.3333H489.5C489.776 72.3333 490 72.5571 490 72.8333C490 73.1094 489.776 73.3333 489.5 73.3333H476C473.239 73.3333 471 75.5718 471 78.3333V92.8333C471 93.1094 470.776 93.3333 470.5 93.3333C470.224 93.3333 470 93.1094 470 92.8333V78.3333C470 75.5718 467.761 73.3333 465 73.3333H450.5C450.224 73.3333 450 73.1094 450 72.8333C450 72.5571 450.224 72.3333 450.5 72.3333H465C467.761 72.3333 470 70.0947 470 67.3333V53.8333C470 53.5571 470.224 53.3333 470.5 53.3333C470.776 53.3333 471 53.5571 471 53.8333V67.3333Z" fill="#CDCDCD" fill-opacity="0.4"/>
<path d="M527.25 67.3333C527.25 70.0947 529.489 72.3333 532.25 72.3333H545.75C546.026 72.3333 546.25 72.5571 546.25 72.8333C546.25 73.1094 546.026 73.3333 545.75 73.3333H532.25C529.489 73.3333 527.25 75.5718 527.25 78.3333V92.8333C527.25 93.1094 527.026 93.3333 526.75 93.3333C526.474 93.3333 526.25 93.1094 526.25 92.8333V78.3333C526.25 75.5718 524.011 73.3333 521.25 73.3333H506.75C506.474 73.3333 506.25 73.1094 506.25 72.8333C506.25 72.5571 506.474 72.3333 506.75 72.3333H521.25C524.011 72.3333 526.25 70.0947 526.25 67.3333V53.8333C526.25 53.5571 526.474 53.3333 526.75 53.3333C527.026 53.3333 527.25 53.5571 527.25 53.8333V67.3333Z" fill="#CDCDCD" fill-opacity="0.4"/>
<path d="M583.5 67.3333C583.5 70.0947 585.739 72.3333 588.5 72.3333H602C602.276 72.3333 602.5 72.5571 602.5 72.8333C602.5 73.1094 602.276 73.3333 602 73.3333H588.5C585.739 73.3333 583.5 75.5718 583.5 78.3333V92.8333C583.5 93.1094 583.276 93.3333 583 93.3333C582.724 93.3333 582.5 93.1094 582.5 92.8333V78.3333C582.5 75.5718 580.261 73.3333 577.5 73.3333H563C562.724 73.3333 562.5 73.1094 562.5 72.8333C562.5 72.5571 562.724 72.3333 563 72.3333H577.5C580.261 72.3333 582.5 70.0947 582.5 67.3333V53.8333C582.5 53.5571 582.724 53.3333 583 53.3333C583.276 53.3333 583.5 53.5571 583.5 53.8333V67.3333Z" fill="#CDCDCD" fill-opacity="0.4"/>
<path d="M21 120.667C21 123.428 23.2386 125.667 26 125.667H39.5C39.7761 125.667 40 125.891 40 126.167C40 126.443 39.7761 126.667 39.5 126.667H26C23.2386 126.667 21 128.905 21 131.667V146.167C21 146.443 20.7761 146.667 20.5 146.667C20.2239 146.667 20 146.443 20 146.167V131.667C20 128.905 17.7614 126.667 15 126.667H0.5C0.223857 126.667 0 126.443 0 126.167C0 125.891 0.223858 125.667 0.5 125.667H15C17.7614 125.667 20 123.428 20 120.667V107.167C20 106.891 20.2239 106.667 20.5 106.667C20.7761 106.667 21 106.891 21 107.167V120.667Z" fill="#CDCDCD" fill-opacity="0.4"/>
<path d="M77.25 120.667C77.25 123.428 79.4886 125.667 82.25 125.667H95.75C96.0261 125.667 96.25 125.891 96.25 126.167C96.25 126.443 96.0261 126.667 95.75 126.667H82.25C79.4886 126.667 77.25 128.905 77.25 131.667V146.167C77.25 146.443 77.0261 146.667 76.75 146.667C76.4739 146.667 76.25 146.443 76.25 146.167V131.667C76.25 128.905 74.0114 126.667 71.25 126.667H56.75C56.4739 126.667 56.25 126.443 56.25 126.167C56.25 125.891 56.4739 125.667 56.75 125.667H71.25C74.0114 125.667 76.25 123.428 76.25 120.667V107.167C76.25 106.891 76.4739 106.667 76.75 106.667C77.0261 106.667 77.25 106.891 77.25 107.167V120.667Z" fill="#CDCDCD" fill-opacity="0.4"/>
<path d="M133.5 120.667C133.5 123.428 135.739 125.667 138.5 125.667H152C152.276 125.667 152.5 125.891 152.5 126.167C152.5 126.443 152.276 126.667 152 126.667H138.5C135.739 126.667 133.5 128.905 133.5 131.667V146.167C133.5 146.443 133.276 146.667 133 146.667C132.724 146.667 132.5 146.443 132.5 146.167V131.667C132.5 128.905 130.261 126.667 127.5 126.667H113C112.724 126.667 112.5 126.443 112.5 126.167C112.5 125.891 112.724 125.667 113 125.667H127.5C130.261 125.667 132.5 123.428 132.5 120.667V107.167C132.5 106.891 132.724 106.667 133 106.667C133.276 106.667 133.5 106.891 133.5 107.167V120.667Z" fill="#CDCDCD" fill-opacity="0.4"/>
<path d="M189.75 120.667C189.75 123.428 191.989 125.667 194.75 125.667H208.25C208.526 125.667 208.75 125.891 208.75 126.167C208.75 126.443 208.526 126.667 208.25 126.667H194.75C191.989 126.667 189.75 128.905 189.75 131.667V146.167C189.75 146.443 189.526 146.667 189.25 146.667C188.974 146.667 188.75 146.443 188.75 146.167V131.667C188.75 128.905 186.511 126.667 183.75 126.667H169.25C168.974 126.667 168.75 126.443 168.75 126.167C168.75 125.891 168.974 125.667 169.25 125.667H183.75C186.511 125.667 188.75 123.428 188.75 120.667V107.167C188.75 106.891 188.974 106.667 189.25 106.667C189.526 106.667 189.75 106.891 189.75 107.167V120.667Z" fill="#CDCDCD" fill-opacity="0.4"/>
<path d="M246 120.667C246 123.428 248.239 125.667 251 125.667H264.5C264.776 125.667 265 125.891 265 126.167C265 126.443 264.776 126.667 264.5 126.667H251C248.239 126.667 246 128.905 246 131.667V146.167C246 146.443 245.776 146.667 245.5 146.667C245.224 146.667 245 146.443 245 146.167V131.667C245 128.905 242.761 126.667 240 126.667H225.5C225.224 126.667 225 126.443 225 126.167C225 125.891 225.224 125.667 225.5 125.667H240C242.761 125.667 245 123.428 245 120.667V107.167C245 106.891 245.224 106.667 245.5 106.667C245.776 106.667 246 106.891 246 107.167V120.667Z" fill="#CDCDCD" fill-opacity="0.4"/>
<path d="M302.25 120.667C302.25 123.428 304.489 125.667 307.25 125.667H320.75C321.026 125.667 321.25 125.891 321.25 126.167C321.25 126.443 321.026 126.667 320.75 126.667H307.25C304.489 126.667 302.25 128.905 302.25 131.667V146.167C302.25 146.443 302.026 146.667 301.75 146.667C301.474 146.667 301.25 146.443 301.25 146.167V131.667C301.25 128.905 299.011 126.667 296.25 126.667H281.75C281.474 126.667 281.25 126.443 281.25 126.167C281.25 125.891 281.474 125.667 281.75 125.667H296.25C299.011 125.667 301.25 123.428 301.25 120.667V107.167C301.25 106.891 301.474 106.667 301.75 106.667C302.026 106.667 302.25 106.891 302.25 107.167V120.667Z" fill="#2E2E2E" fill-opacity="0.4"/>
<path d="M358.5 120.667C358.5 123.428 360.739 125.667 363.5 125.667H377C377.276 125.667 377.5 125.891 377.5 126.167C377.5 126.443 377.276 126.667 377 126.667H363.5C360.739 126.667 358.5 128.905 358.5 131.667V146.167C358.5 146.443 358.276 146.667 358 146.667C357.724 146.667 357.5 146.443 357.5 146.167V131.667C357.5 128.905 355.261 126.667 352.5 126.667H338C337.724 126.667 337.5 126.443 337.5 126.167C337.5 125.891 337.724 125.667 338 125.667H352.5C355.261 125.667 357.5 123.428 357.5 120.667V107.167C357.5 106.891 357.724 106.667 358 106.667C358.276 106.667 358.5 106.891 358.5 107.167V120.667Z" fill="#2E2E2E" fill-opacity="0.4"/>
<path d="M414.75 120.667C414.75 123.428 416.989 125.667 419.75 125.667H433.25C433.526 125.667 433.75 125.891 433.75 126.167C433.75 126.443 433.526 126.667 433.25 126.667H419.75C416.989 126.667 414.75 128.905 414.75 131.667V146.167C414.75 146.443 414.526 146.667 414.25 146.667C413.974 146.667 413.75 146.443 413.75 146.167V131.667C413.75 128.905 411.511 126.667 408.75 126.667H394.25C393.974 126.667 393.75 126.443 393.75 126.167C393.75 125.891 393.974 125.667 394.25 125.667H408.75C411.511 125.667 413.75 123.428 413.75 120.667V107.167C413.75 106.891 413.974 106.667 414.25 106.667C414.526 106.667 414.75 106.891 414.75 107.167V120.667Z" fill="#CDCDCD" fill-opacity="0.4"/>
<path d="M471 120.667C471 123.428 473.239 125.667 476 125.667H489.5C489.776 125.667 490 125.891 490 126.167C490 126.443 489.776 126.667 489.5 126.667H476C473.239 126.667 471 128.905 471 131.667V146.167C471 146.443 470.776 146.667 470.5 146.667C470.224 146.667 470 146.443 470 146.167V131.667C470 128.905 467.761 126.667 465 126.667H450.5C450.224 126.667 450 126.443 450 126.167C450 125.891 450.224 125.667 450.5 125.667H465C467.761 125.667 470 123.428 470 120.667V107.167C470 106.891 470.224 106.667 470.5 106.667C470.776 106.667 471 106.891 471 107.167V120.667Z" fill="#CDCDCD" fill-opacity="0.4"/>
<path d="M527.25 120.667C527.25 123.428 529.489 125.667 532.25 125.667H545.75C546.026 125.667 546.25 125.891 546.25 126.167C546.25 126.443 546.026 126.667 545.75 126.667H532.25C529.489 126.667 527.25 128.905 527.25 131.667V146.167C527.25 146.443 527.026 146.667 526.75 146.667C526.474 146.667 526.25 146.443 526.25 146.167V131.667C526.25 128.905 524.011 126.667 521.25 126.667H506.75C506.474 126.667 506.25 126.443 506.25 126.167C506.25 125.891 506.474 125.667 506.75 125.667H521.25C524.011 125.667 526.25 123.428 526.25 120.667V107.167C526.25 106.891 526.474 106.667 526.75 106.667C527.026 106.667 527.25 106.891 527.25 107.167V120.667Z" fill="#CDCDCD" fill-opacity="0.4"/>
<path d="M583.5 120.667C583.5 123.428 585.739 125.667 588.5 125.667H602C602.276 125.667 602.5 125.891 602.5 126.167C602.5 126.443 602.276 126.667 602 126.667H588.5C585.739 126.667 583.5 128.905 583.5 131.667V146.167C583.5 146.443 583.276 146.667 583 146.667C582.724 146.667 582.5 146.443 582.5 146.167V131.667C582.5 128.905 580.261 126.667 577.5 126.667H563C562.724 126.667 562.5 126.443 562.5 126.167C562.5 125.891 562.724 125.667 563 125.667H577.5C580.261 125.667 582.5 123.428 582.5 120.667V107.167C582.5 106.891 582.724 106.667 583 106.667C583.276 106.667 583.5 106.891 583.5 107.167V120.667Z" fill="#CDCDCD" fill-opacity="0.4"/>
<path d="M21 174C21 176.761 23.2386 179 26 179H39.5C39.7761 179 40 179.224 40 179.5C40 179.776 39.7761 180 39.5 180H26C23.2386 180 21 182.239 21 185V199.5C21 199.776 20.7761 200 20.5 200C20.2239 200 20 199.776 20 199.5V185C20 182.239 17.7614 180 15 180H0.5C0.223857 180 0 179.776 0 179.5C0 179.224 0.223858 179 0.5 179H15C17.7614 179 20 176.761 20 174V160.5C20 160.224 20.2239 160 20.5 160C20.7761 160 21 160.224 21 160.5V174Z" fill="#CDCDCD" fill-opacity="0.4"/>
<path d="M77.25 174C77.25 176.761 79.4886 179 82.25 179H95.75C96.0261 179 96.25 179.224 96.25 179.5C96.25 179.776 96.0261 180 95.75 180H82.25C79.4886 180 77.25 182.239 77.25 185V199.5C77.25 199.776 77.0261 200 76.75 200C76.4739 200 76.25 199.776 76.25 199.5V185C76.25 182.239 74.0114 180 71.25 180H56.75C56.4739 180 56.25 179.776 56.25 179.5C56.25 179.224 56.4739 179 56.75 179H71.25C74.0114 179 76.25 176.761 76.25 174V160.5C76.25 160.224 76.4739 160 76.75 160C77.0261 160 77.25 160.224 77.25 160.5V174Z" fill="#CDCDCD" fill-opacity="0.4"/>
<path d="M133.5 174C133.5 176.761 135.739 179 138.5 179H152C152.276 179 152.5 179.224 152.5 179.5C152.5 179.776 152.276 180 152 180H138.5C135.739 180 133.5 182.239 133.5 185V199.5C133.5 199.776 133.276 200 133 200C132.724 200 132.5 199.776 132.5 199.5V185C132.5 182.239 130.261 180 127.5 180H113C112.724 180 112.5 179.776 112.5 179.5C112.5 179.224 112.724 179 113 179H127.5C130.261 179 132.5 176.761 132.5 174V160.5C132.5 160.224 132.724 160 133 160C133.276 160 133.5 160.224 133.5 160.5V174Z" fill="#CDCDCD" fill-opacity="0.4"/>
<path d="M189.75 174C189.75 176.761 191.989 179 194.75 179H208.25C208.526 179 208.75 179.224 208.75 179.5C208.75 179.776 208.526 180 208.25 180H194.75C191.989 180 189.75 182.239 189.75 185V199.5C189.75 199.776 189.526 200 189.25 200C188.974 200 188.75 199.776 188.75 199.5V185C188.75 182.239 186.511 180 183.75 180H169.25C168.974 180 168.75 179.776 168.75 179.5C168.75 179.224 168.974 179 169.25 179H183.75C186.511 179 188.75 176.761 188.75 174V160.5C188.75 160.224 188.974 160 189.25 160C189.526 160 189.75 160.224 189.75 160.5V174Z" fill="#CDCDCD" fill-opacity="0.4"/>
<path d="M246 174C246 176.761 248.239 179 251 179H264.5C264.776 179 265 179.224 265 179.5C265 179.776 264.776 180 264.5 180H251C248.239 180 246 182.239 246 185V199.5C246 199.776 245.776 200 245.5 200C245.224 200 245 199.776 245 199.5V185C245 182.239 242.761 180 240 180H225.5C225.224 180 225 179.776 225 179.5C225 179.224 225.224 179 225.5 179H240C242.761 179 245 176.761 245 174V160.5C245 160.224 245.224 160 245.5 160C245.776 160 246 160.224 246 160.5V174Z" fill="#2E2E2E" fill-opacity="0.4"/>
<path d="M302.25 174C302.25 176.761 304.489 179 307.25 179H320.75C321.026 179 321.25 179.224 321.25 179.5C321.25 179.776 321.026 180 320.75 180H307.25C304.489 180 302.25 182.239 302.25 185V199.5C302.25 199.776 302.026 200 301.75 200C301.474 200 301.25 199.776 301.25 199.5V185C301.25 182.239 299.011 180 296.25 180H281.75C281.474 180 281.25 179.776 281.25 179.5C281.25 179.224 281.474 179 281.75 179H296.25C299.011 179 301.25 176.761 301.25 174V160.5C301.25 160.224 301.474 160 301.75 160C302.026 160 302.25 160.224 302.25 160.5V174Z" fill="#2E2E2E" fill-opacity="0.4"/>
<path d="M358.5 174C358.5 176.761 360.739 179 363.5 179H377C377.276 179 377.5 179.224 377.5 179.5C377.5 179.776 377.276 180 377 180H363.5C360.739 180 358.5 182.239 358.5 185V199.5C358.5 199.776 358.276 200 358 200C357.724 200 357.5 199.776 357.5 199.5V185C357.5 182.239 355.261 180 352.5 180H338C337.724 180 337.5 179.776 337.5 179.5C337.5 179.224 337.724 179 338 179H352.5C355.261 179 357.5 176.761 357.5 174V160.5C357.5 160.224 357.724 160 358 160C358.276 160 358.5 160.224 358.5 160.5V174Z" fill="#CDCDCD" fill-opacity="0.4"/>
<path d="M414.75 174C414.75 176.761 416.989 179 419.75 179H433.25C433.526 179 433.75 179.224 433.75 179.5C433.75 179.776 433.526 180 433.25 180H419.75C416.989 180 414.75 182.239 414.75 185V199.5C414.75 199.776 414.526 200 414.25 200C413.974 200 413.75 199.776 413.75 199.5V185C413.75 182.239 411.511 180 408.75 180H394.25C393.974 180 393.75 179.776 393.75 179.5C393.75 179.224 393.974 179 394.25 179H408.75C411.511 179 413.75 176.761 413.75 174V160.5C413.75 160.224 413.974 160 414.25 160C414.526 160 414.75 160.224 414.75 160.5V174Z" fill="#CDCDCD" fill-opacity="0.4"/>
<path d="M471 174C471 176.761 473.239 179 476 179H489.5C489.776 179 490 179.224 490 179.5C490 179.776 489.776 180 489.5 180H476C473.239 180 471 182.239 471 185V199.5C471 199.776 470.776 200 470.5 200C470.224 200 470 199.776 470 199.5V185C470 182.239 467.761 180 465 180H450.5C450.224 180 450 179.776 450 179.5C450 179.224 450.224 179 450.5 179H465C467.761 179 470 176.761 470 174V160.5C470 160.224 470.224 160 470.5 160C470.776 160 471 160.224 471 160.5V174Z" fill="#CDCDCD" fill-opacity="0.4"/>
<path d="M527.25 174C527.25 176.761 529.489 179 532.25 179H545.75C546.026 179 546.25 179.224 546.25 179.5C546.25 179.776 546.026 180 545.75 180H532.25C529.489 180 527.25 182.239 527.25 185V199.5C527.25 199.776 527.026 200 526.75 200C526.474 200 526.25 199.776 526.25 199.5V185C526.25 182.239 524.011 180 521.25 180H506.75C506.474 180 506.25 179.776 506.25 179.5C506.25 179.224 506.474 179 506.75 179H521.25C524.011 179 526.25 176.761 526.25 174V160.5C526.25 160.224 526.474 160 526.75 160C527.026 160 527.25 160.224 527.25 160.5V174Z" fill="#CDCDCD" fill-opacity="0.4"/>
<path d="M583.5 174C583.5 176.761 585.739 179 588.5 179H602C602.276 179 602.5 179.224 602.5 179.5C602.5 179.776 602.276 180 602 180H588.5C585.739 180 583.5 182.239 583.5 185V199.5C583.5 199.776 583.276 200 583 200C582.724 200 582.5 199.776 582.5 199.5V185C582.5 182.239 580.261 180 577.5 180H563C562.724 180 562.5 179.776 562.5 179.5C562.5 179.224 562.724 179 563 179H577.5C580.261 179 582.5 176.761 582.5 174V160.5C582.5 160.224 582.724 160 583 160C583.276 160 583.5 160.224 583.5 160.5V174Z" fill="#CDCDCD" fill-opacity="0.4"/>
<path d="M21 227.333C21 230.095 23.2386 232.333 26 232.333H39.5C39.7761 232.333 40 232.557 40 232.833C40 233.109 39.7761 233.333 39.5 233.333H26C23.2386 233.333 21 235.572 21 238.333V252.833C21 253.109 20.7761 253.333 20.5 253.333C20.2239 253.333 20 253.109 20 252.833V238.333C20 235.572 17.7614 233.333 15 233.333H0.5C0.223857 233.333 0 233.109 0 232.833C0 232.557 0.223858 232.333 0.5 232.333H15C17.7614 232.333 20 230.095 20 227.333V213.833C20 213.557 20.2239 213.333 20.5 213.333C20.7761 213.333 21 213.557 21 213.833V227.333Z" fill="#CDCDCD" fill-opacity="0.4"/>
<path d="M77.25 227.333C77.25 230.095 79.4886 232.333 82.25 232.333H95.75C96.0261 232.333 96.25 232.557 96.25 232.833C96.25 233.109 96.0261 233.333 95.75 233.333H82.25C79.4886 233.333 77.25 235.572 77.25 238.333V252.833C77.25 253.109 77.0261 253.333 76.75 253.333C76.4739 253.333 76.25 253.109 76.25 252.833V238.333C76.25 235.572 74.0114 233.333 71.25 233.333H56.75C56.4739 233.333 56.25 233.109 56.25 232.833C56.25 232.557 56.4739 232.333 56.75 232.333H71.25C74.0114 232.333 76.25 230.095 76.25 227.333V213.833C76.25 213.557 76.4739 213.333 76.75 213.333C77.0261 213.333 77.25 213.557 77.25 213.833V227.333Z" fill="#CDCDCD" fill-opacity="0.4"/>
<path d="M133.5 227.333C133.5 230.095 135.739 232.333 138.5 232.333H152C152.276 232.333 152.5 232.557 152.5 232.833C152.5 233.109 152.276 233.333 152 233.333H138.5C135.739 233.333 133.5 235.572 133.5 238.333V252.833C133.5 253.109 133.276 253.333 133 253.333C132.724 253.333 132.5 253.109 132.5 252.833V238.333C132.5 235.572 130.261 233.333 127.5 233.333H113C112.724 233.333 112.5 233.109 112.5 232.833C112.5 232.557 112.724 232.333 113 232.333H127.5C130.261 232.333 132.5 230.095 132.5 227.333V213.833C132.5 213.557 132.724 213.333 133 213.333C133.276 213.333 133.5 213.557 133.5 213.833V227.333Z" fill="#CDCDCD" fill-opacity="0.4"/>
<path d="M189.75 227.333C189.75 230.095 191.989 232.333 194.75 232.333H208.25C208.526 232.333 208.75 232.557 208.75 232.833C208.75 233.109 208.526 233.333 208.25 233.333H194.75C191.989 233.333 189.75 235.572 189.75 238.333V252.833C189.75 253.109 189.526 253.333 189.25 253.333C188.974 253.333 188.75 253.109 188.75 252.833V238.333C188.75 235.572 186.511 233.333 183.75 233.333H169.25C168.974 233.333 168.75 233.109 168.75 232.833C168.75 232.557 168.974 232.333 169.25 232.333H183.75C186.511 232.333 188.75 230.095 188.75 227.333V213.833C188.75 213.557 188.974 213.333 189.25 213.333C189.526 213.333 189.75 213.557 189.75 213.833V227.333Z" fill="#CDCDCD" fill-opacity="0.4"/>
<path d="M246 227.333C246 230.095 248.239 232.333 251 232.333H264.5C264.776 232.333 265 232.557 265 232.833C265 233.109 264.776 233.333 264.5 233.333H251C248.239 233.333 246 235.572 246 238.333V252.833C246 253.109 245.776 253.333 245.5 253.333C245.224 253.333 245 253.109 245 252.833V238.333C245 235.572 242.761 233.333 240 233.333H225.5C225.224 233.333 225 233.109 225 232.833C225 232.557 225.224 232.333 225.5 232.333H240C242.761 232.333 245 230.095 245 227.333V213.833C245 213.557 245.224 213.333 245.5 213.333C245.776 213.333 246 213.557 246 213.833V227.333Z" fill="#2E2E2E" fill-opacity="0.4"/>
<path d="M302.25 227.333C302.25 230.095 304.489 232.333 307.25 232.333H320.75C321.026 232.333 321.25 232.557 321.25 232.833C321.25 233.109 321.026 233.333 320.75 233.333H307.25C304.489 233.333 302.25 235.572 302.25 238.333V252.833C302.25 253.109 302.026 253.333 301.75 253.333C301.474 253.333 301.25 253.109 301.25 252.833V238.333C301.25 235.572 299.011 233.333 296.25 233.333H281.75C281.474 233.333 281.25 233.109 281.25 232.833C281.25 232.557 281.474 232.333 281.75 232.333H296.25C299.011 232.333 301.25 230.095 301.25 227.333V213.833C301.25 213.557 301.474 213.333 301.75 213.333C302.026 213.333 302.25 213.557 302.25 213.833V227.333Z" fill="#2E2E2E" fill-opacity="0.4"/>
<path d="M358.5 227.333C358.5 230.095 360.739 232.333 363.5 232.333H377C377.276 232.333 377.5 232.557 377.5 232.833C377.5 233.109 377.276 233.333 377 233.333H363.5C360.739 233.333 358.5 235.572 358.5 238.333V252.833C358.5 253.109 358.276 253.333 358 253.333C357.724 253.333 357.5 253.109 357.5 252.833V238.333C357.5 235.572 355.261 233.333 352.5 233.333H338C337.724 233.333 337.5 233.109 337.5 232.833C337.5 232.557 337.724 232.333 338 232.333H352.5C355.261 232.333 357.5 230.095 357.5 227.333V213.833C357.5 213.557 357.724 213.333 358 213.333C358.276 213.333 358.5 213.557 358.5 213.833V227.333Z" fill="#2E2E2E" fill-opacity="0.4"/>
<path d="M414.75 227.333C414.75 230.095 416.989 232.333 419.75 232.333H433.25C433.526 232.333 433.75 232.557 433.75 232.833C433.75 233.109 433.526 233.333 433.25 233.333H419.75C416.989 233.333 414.75 235.572 414.75 238.333V252.833C414.75 253.109 414.526 253.333 414.25 253.333C413.974 253.333 413.75 253.109 413.75 252.833V238.333C413.75 235.572 411.511 233.333 408.75 233.333H394.25C393.974 233.333 393.75 233.109 393.75 232.833C393.75 232.557 393.974 232.333 394.25 232.333H408.75C411.511 232.333 413.75 230.095 413.75 227.333V213.833C413.75 213.557 413.974 213.333 414.25 213.333C414.526 213.333 414.75 213.557 414.75 213.833V227.333Z" fill="#CDCDCD" fill-opacity="0.4"/>
<path d="M471 227.333C471 230.095 473.239 232.333 476 232.333H489.5C489.776 232.333 490 232.557 490 232.833C490 233.109 489.776 233.333 489.5 233.333H476C473.239 233.333 471 235.572 471 238.333V252.833C471 253.109 470.776 253.333 470.5 253.333C470.224 253.333 470 253.109 470 252.833V238.333C470 235.572 467.761 233.333 465 233.333H450.5C450.224 233.333 450 233.109 450 232.833C450 232.557 450.224 232.333 450.5 232.333H465C467.761 232.333 470 230.095 470 227.333V213.833C470 213.557 470.224 213.333 470.5 213.333C470.776 213.333 471 213.557 471 213.833V227.333Z" fill="#CDCDCD" fill-opacity="0.4"/>
<path d="M527.25 227.333C527.25 230.095 529.489 232.333 532.25 232.333H545.75C546.026 232.333 546.25 232.557 546.25 232.833C546.25 233.109 546.026 233.333 545.75 233.333H532.25C529.489 233.333 527.25 235.572 527.25 238.333V252.833C527.25 253.109 527.026 253.333 526.75 253.333C526.474 253.333 526.25 253.109 526.25 252.833V238.333C526.25 235.572 524.011 233.333 521.25 233.333H506.75C506.474 233.333 506.25 233.109 506.25 232.833C506.25 232.557 506.474 232.333 506.75 232.333H521.25C524.011 232.333 526.25 230.095 526.25 227.333V213.833C526.25 213.557 526.474 213.333 526.75 213.333C527.026 213.333 527.25 213.557 527.25 213.833V227.333Z" fill="#CDCDCD" fill-opacity="0.4"/>
<path d="M583.5 227.333C583.5 230.095 585.739 232.333 588.5 232.333H602C602.276 232.333 602.5 232.557 602.5 232.833C602.5 233.109 602.276 233.333 602 233.333H588.5C585.739 233.333 583.5 235.572 583.5 238.333V252.833C583.5 253.109 583.276 253.333 583 253.333C582.724 253.333 582.5 253.109 582.5 252.833V238.333C582.5 235.572 580.261 233.333 577.5 233.333H563C562.724 233.333 562.5 233.109 562.5 232.833C562.5 232.557 562.724 232.333 563 232.333H577.5C580.261 232.333 582.5 230.095 582.5 227.333V213.833C582.5 213.557 582.724 213.333 583 213.333C583.276 213.333 583.5 213.557 583.5 213.833V227.333Z" fill="#CDCDCD" fill-opacity="0.4"/>
<path d="M21 280.667C21 283.428 23.2386 285.667 26 285.667H39.5C39.7761 285.667 40 285.891 40 286.167C40 286.443 39.7761 286.667 39.5 286.667H26C23.2386 286.667 21 288.905 21 291.667V306.167C21 306.443 20.7761 306.667 20.5 306.667C20.2239 306.667 20 306.443 20 306.167V291.667C20 288.905 17.7614 286.667 15 286.667H0.5C0.223857 286.667 0 286.443 0 286.167C0 285.891 0.223858 285.667 0.5 285.667H15C17.7614 285.667 20 283.428 20 280.667V267.167C20 266.891 20.2239 266.667 20.5 266.667C20.7761 266.667 21 266.891 21 267.167V280.667Z" fill="#CDCDCD" fill-opacity="0.4"/>
<path d="M77.25 280.667C77.25 283.428 79.4886 285.667 82.25 285.667H95.75C96.0261 285.667 96.25 285.891 96.25 286.167C96.25 286.443 96.0261 286.667 95.75 286.667H82.25C79.4886 286.667 77.25 288.905 77.25 291.667V306.167C77.25 306.443 77.0261 306.667 76.75 306.667C76.4739 306.667 76.25 306.443 76.25 306.167V291.667C76.25 288.905 74.0114 286.667 71.25 286.667H56.75C56.4739 286.667 56.25 286.443 56.25 286.167C56.25 285.891 56.4739 285.667 56.75 285.667H71.25C74.0114 285.667 76.25 283.428 76.25 280.667V267.167C76.25 266.891 76.4739 266.667 76.75 266.667C77.0261 266.667 77.25 266.891 77.25 267.167V280.667Z" fill="#CDCDCD" fill-opacity="0.4"/>
<path d="M133.5 280.667C133.5 283.428 135.739 285.667 138.5 285.667H152C152.276 285.667 152.5 285.891 152.5 286.167C152.5 286.443 152.276 286.667 152 286.667H138.5C135.739 286.667 133.5 288.905 133.5 291.667V306.167C133.5 306.443 133.276 306.667 133 306.667C132.724 306.667 132.5 306.443 132.5 306.167V291.667C132.5 288.905 130.261 286.667 127.5 286.667H113C112.724 286.667 112.5 286.443 112.5 286.167C112.5 285.891 112.724 285.667 113 285.667H127.5C130.261 285.667 132.5 283.428 132.5 280.667V267.167C132.5 266.891 132.724 266.667 133 266.667C133.276 266.667 133.5 266.891 133.5 267.167V280.667Z" fill="#CDCDCD" fill-opacity="0.4"/>
<path d="M189.75 280.667C189.75 283.428 191.989 285.667 194.75 285.667H208.25C208.526 285.667 208.75 285.891 208.75 286.167C208.75 286.443 208.526 286.667 208.25 286.667H194.75C191.989 286.667 189.75 288.905 189.75 291.667V306.167C189.75 306.443 189.526 306.667 189.25 306.667C188.974 306.667 188.75 306.443 188.75 306.167V291.667C188.75 288.905 186.511 286.667 183.75 286.667H169.25C168.974 286.667 168.75 286.443 168.75 286.167C168.75 285.891 168.974 285.667 169.25 285.667H183.75C186.511 285.667 188.75 283.428 188.75 280.667V267.167C188.75 266.891 188.974 266.667 189.25 266.667C189.526 266.667 189.75 266.891 189.75 267.167V280.667Z" fill="#CDCDCD" fill-opacity="0.4"/>
<path d="M246 280.667C246 283.428 248.239 285.667 251 285.667H264.5C264.776 285.667 265 285.891 265 286.167C265 286.443 264.776 286.667 264.5 286.667H251C248.239 286.667 246 288.905 246 291.667V306.167C246 306.443 245.776 306.667 245.5 306.667C245.224 306.667 245 306.443 245 306.167V291.667C245 288.905 242.761 286.667 240 286.667H225.5C225.224 286.667 225 286.443 225 286.167C225 285.891 225.224 285.667 225.5 285.667H240C242.761 285.667 245 283.428 245 280.667V267.167C245 266.891 245.224 266.667 245.5 266.667C245.776 266.667 246 266.891 246 267.167V280.667Z" fill="#CDCDCD" fill-opacity="0.4"/>
<path d="M302.25 280.667C302.25 283.428 304.489 285.667 307.25 285.667H320.75C321.026 285.667 321.25 285.891 321.25 286.167C321.25 286.443 321.026 286.667 320.75 286.667H307.25C304.489 286.667 302.25 288.905 302.25 291.667V306.167C302.25 306.443 302.026 306.667 301.75 306.667C301.474 306.667 301.25 306.443 301.25 306.167V291.667C301.25 288.905 299.011 286.667 296.25 286.667H281.75C281.474 286.667 281.25 286.443 281.25 286.167C281.25 285.891 281.474 285.667 281.75 285.667H296.25C299.011 285.667 301.25 283.428 301.25 280.667V267.167C301.25 266.891 301.474 266.667 301.75 266.667C302.026 266.667 302.25 266.891 302.25 267.167V280.667Z" fill="#2E2E2E" fill-opacity="0.4"/>
<path d="M358.5 280.667C358.5 283.428 360.739 285.667 363.5 285.667H377C377.276 285.667 377.5 285.891 377.5 286.167C377.5 286.443 377.276 286.667 377 286.667H363.5C360.739 286.667 358.5 288.905 358.5 291.667V306.167C358.5 306.443 358.276 306.667 358 306.667C357.724 306.667 357.5 306.443 357.5 306.167V291.667C357.5 288.905 355.261 286.667 352.5 286.667H338C337.724 286.667 337.5 286.443 337.5 286.167C337.5 285.891 337.724 285.667 338 285.667H352.5C355.261 285.667 357.5 283.428 357.5 280.667V267.167C357.5 266.891 357.724 266.667 358 266.667C358.276 266.667 358.5 266.891 358.5 267.167V280.667Z" fill="#2E2E2E" fill-opacity="0.4"/>
<path d="M414.75 280.667C414.75 283.428 416.989 285.667 419.75 285.667H433.25C433.526 285.667 433.75 285.891 433.75 286.167C433.75 286.443 433.526 286.667 433.25 286.667H419.75C416.989 286.667 414.75 288.905 414.75 291.667V306.167C414.75 306.443 414.526 306.667 414.25 306.667C413.974 306.667 413.75 306.443 413.75 306.167V291.667C413.75 288.905 411.511 286.667 408.75 286.667H394.25C393.974 286.667 393.75 286.443 393.75 286.167C393.75 285.891 393.974 285.667 394.25 285.667H408.75C411.511 285.667 413.75 283.428 413.75 280.667V267.167C413.75 266.891 413.974 266.667 414.25 266.667C414.526 266.667 414.75 266.891 414.75 267.167V280.667Z" fill="#CDCDCD" fill-opacity="0.4"/>
<path d="M471 280.667C471 283.428 473.239 285.667 476 285.667H489.5C489.776 285.667 490 285.891 490 286.167C490 286.443 489.776 286.667 489.5 286.667H476C473.239 286.667 471 288.905 471 291.667V306.167C471 306.443 470.776 306.667 470.5 306.667C470.224 306.667 470 306.443 470 306.167V291.667C470 288.905 467.761 286.667 465 286.667H450.5C450.224 286.667 450 286.443 450 286.167C450 285.891 450.224 285.667 450.5 285.667H465C467.761 285.667 470 283.428 470 280.667V267.167C470 266.891 470.224 266.667 470.5 266.667C470.776 266.667 471 266.891 471 267.167V280.667Z" fill="#CDCDCD" fill-opacity="0.4"/>
<path d="M527.25 280.667C527.25 283.428 529.489 285.667 532.25 285.667H545.75C546.026 285.667 546.25 285.891 546.25 286.167C546.25 286.443 546.026 286.667 545.75 286.667H532.25C529.489 286.667 527.25 288.905 527.25 291.667V306.167C527.25 306.443 527.026 306.667 526.75 306.667C526.474 306.667 526.25 306.443 526.25 306.167V291.667C526.25 288.905 524.011 286.667 521.25 286.667H506.75C506.474 286.667 506.25 286.443 506.25 286.167C506.25 285.891 506.474 285.667 506.75 285.667H521.25C524.011 285.667 526.25 283.428 526.25 280.667V267.167C526.25 266.891 526.474 266.667 526.75 266.667C527.026 266.667 527.25 266.891 527.25 267.167V280.667Z" fill="#CDCDCD" fill-opacity="0.4"/>
<path d="M583.5 280.667C583.5 283.428 585.739 285.667 588.5 285.667H602C602.276 285.667 602.5 285.891 602.5 286.167C602.5 286.443 602.276 286.667 602 286.667H588.5C585.739 286.667 583.5 288.905 583.5 291.667V306.167C583.5 306.443 583.276 306.667 583 306.667C582.724 306.667 582.5 306.443 582.5 306.167V291.667C582.5 288.905 580.261 286.667 577.5 286.667H563C562.724 286.667 562.5 286.443 562.5 286.167C562.5 285.891 562.724 285.667 563 285.667H577.5C580.261 285.667 582.5 283.428 582.5 280.667V267.167C582.5 266.891 582.724 266.667 583 266.667C583.276 266.667 583.5 266.891 583.5 267.167V280.667Z" fill="#CDCDCD" fill-opacity="0.4"/>
<path d="M21 334C21 336.761 23.2386 339 26 339H39.5C39.7761 339 40 339.224 40 339.5C40 339.776 39.7761 340 39.5 340H26C23.2386 340 21 342.239 21 345V359.5C21 359.776 20.7761 360 20.5 360C20.2239 360 20 359.776 20 359.5V345C20 342.239 17.7614 340 15 340H0.5C0.223857 340 0 339.776 0 339.5C0 339.224 0.223858 339 0.5 339H15C17.7614 339 20 336.761 20 334V320.5C20 320.224 20.2239 320 20.5 320C20.7761 320 21 320.224 21 320.5V334Z" fill="#CDCDCD" fill-opacity="0.4"/>
<path d="M77.25 334C77.25 336.761 79.4886 339 82.25 339H95.75C96.0261 339 96.25 339.224 96.25 339.5C96.25 339.776 96.0261 340 95.75 340H82.25C79.4886 340 77.25 342.239 77.25 345V359.5C77.25 359.776 77.0261 360 76.75 360C76.4739 360 76.25 359.776 76.25 359.5V345C76.25 342.239 74.0114 340 71.25 340H56.75C56.4739 340 56.25 339.776 56.25 339.5C56.25 339.224 56.4739 339 56.75 339H71.25C74.0114 339 76.25 336.761 76.25 334V320.5C76.25 320.224 76.4739 320 76.75 320C77.0261 320 77.25 320.224 77.25 320.5V334Z" fill="#CDCDCD" fill-opacity="0.4"/>
<path d="M133.5 334C133.5 336.761 135.739 339 138.5 339H152C152.276 339 152.5 339.224 152.5 339.5C152.5 339.776 152.276 340 152 340H138.5C135.739 340 133.5 342.239 133.5 345V359.5C133.5 359.776 133.276 360 133 360C132.724 360 132.5 359.776 132.5 359.5V345C132.5 342.239 130.261 340 127.5 340H113C112.724 340 112.5 339.776 112.5 339.5C112.5 339.224 112.724 339 113 339H127.5C130.261 339 132.5 336.761 132.5 334V320.5C132.5 320.224 132.724 320 133 320C133.276 320 133.5 320.224 133.5 320.5V334Z" fill="#CDCDCD" fill-opacity="0.4"/>
<path d="M189.75 334C189.75 336.761 191.989 339 194.75 339H208.25C208.526 339 208.75 339.224 208.75 339.5C208.75 339.776 208.526 340 208.25 340H194.75C191.989 340 189.75 342.239 189.75 345V359.5C189.75 359.776 189.526 360 189.25 360C188.974 360 188.75 359.776 188.75 359.5V345C188.75 342.239 186.511 340 183.75 340H169.25C168.974 340 168.75 339.776 168.75 339.5C168.75 339.224 168.974 339 169.25 339H183.75C186.511 339 188.75 336.761 188.75 334V320.5C188.75 320.224 188.974 320 189.25 320C189.526 320 189.75 320.224 189.75 320.5V334Z" fill="#CDCDCD" fill-opacity="0.4"/>
<path d="M246 334C246 336.761 248.239 339 251 339H264.5C264.776 339 265 339.224 265 339.5C265 339.776 264.776 340 264.5 340H251C248.239 340 246 342.239 246 345V359.5C246 359.776 245.776 360 245.5 360C245.224 360 245 359.776 245 359.5V345C245 342.239 242.761 340 240 340H225.5C225.224 340 225 339.776 225 339.5C225 339.224 225.224 339 225.5 339H240C242.761 339 245 336.761 245 334V320.5C245 320.224 245.224 320 245.5 320C245.776 320 246 320.224 246 320.5V334Z" fill="#2E2E2E" fill-opacity="0.4"/>
<path d="M302.25 334C302.25 336.761 304.489 339 307.25 339H320.75C321.026 339 321.25 339.224 321.25 339.5C321.25 339.776 321.026 340 320.75 340H307.25C304.489 340 302.25 342.239 302.25 345V359.5C302.25 359.776 302.026 360 301.75 360C301.474 360 301.25 359.776 301.25 359.5V345C301.25 342.239 299.011 340 296.25 340H281.75C281.474 340 281.25 339.776 281.25 339.5C281.25 339.224 281.474 339 281.75 339H296.25C299.011 339 301.25 336.761 301.25 334V320.5C301.25 320.224 301.474 320 301.75 320C302.026 320 302.25 320.224 302.25 320.5V334Z" fill="#2E2E2E" fill-opacity="0.4"/>
<path d="M358.5 334C358.5 336.761 360.739 339 363.5 339H377C377.276 339 377.5 339.224 377.5 339.5C377.5 339.776 377.276 340 377 340H363.5C360.739 340 358.5 342.239 358.5 345V359.5C358.5 359.776 358.276 360 358 360C357.724 360 357.5 359.776 357.5 359.5V345C357.5 342.239 355.261 340 352.5 340H338C337.724 340 337.5 339.776 337.5 339.5C337.5 339.224 337.724 339 338 339H352.5C355.261 339 357.5 336.761 357.5 334V320.5C357.5 320.224 357.724 320 358 320C358.276 320 358.5 320.224 358.5 320.5V334Z" fill="#CDCDCD" fill-opacity="0.4"/>
<path d="M414.75 334C414.75 336.761 416.989 339 419.75 339H433.25C433.526 339 433.75 339.224 433.75 339.5C433.75 339.776 433.526 340 433.25 340H419.75C416.989 340 414.75 342.239 414.75 345V359.5C414.75 359.776 414.526 360 414.25 360C413.974 360 413.75 359.776 413.75 359.5V345C413.75 342.239 411.511 340 408.75 340H394.25C393.974 340 393.75 339.776 393.75 339.5C393.75 339.224 393.974 339 394.25 339H408.75C411.511 339 413.75 336.761 413.75 334V320.5C413.75 320.224 413.974 320 414.25 320C414.526 320 414.75 320.224 414.75 320.5V334Z" fill="#CDCDCD" fill-opacity="0.4"/>
<path d="M471 334C471 336.761 473.239 339 476 339H489.5C489.776 339 490 339.224 490 339.5C490 339.776 489.776 340 489.5 340H476C473.239 340 471 342.239 471 345V359.5C471 359.776 470.776 360 470.5 360C470.224 360 470 359.776 470 359.5V345C470 342.239 467.761 340 465 340H450.5C450.224 340 450 339.776 450 339.5C450 339.224 450.224 339 450.5 339H465C467.761 339 470 336.761 470 334V320.5C470 320.224 470.224 320 470.5 320C470.776 320 471 320.224 471 320.5V334Z" fill="#CDCDCD" fill-opacity="0.4"/>
<path d="M527.25 334C527.25 336.761 529.489 339 532.25 339H545.75C546.026 339 546.25 339.224 546.25 339.5C546.25 339.776 546.026 340 545.75 340H532.25C529.489 340 527.25 342.239 527.25 345V359.5C527.25 359.776 527.026 360 526.75 360C526.474 360 526.25 359.776 526.25 359.5V345C526.25 342.239 524.011 340 521.25 340H506.75C506.474 340 506.25 339.776 506.25 339.5C506.25 339.224 506.474 339 506.75 339H521.25C524.011 339 526.25 336.761 526.25 334V320.5C526.25 320.224 526.474 320 526.75 320C527.026 320 527.25 320.224 527.25 320.5V334Z" fill="#CDCDCD" fill-opacity="0.4"/>
<path d="M583.5 334C583.5 336.761 585.739 339 588.5 339H602C602.276 339 602.5 339.224 602.5 339.5C602.5 339.776 602.276 340 602 340H588.5C585.739 340 583.5 342.239 583.5 345V359.5C583.5 359.776 583.276 360 583 360C582.724 360 582.5 359.776 582.5 359.5V345C582.5 342.239 580.261 340 577.5 340H563C562.724 340 562.5 339.776 562.5 339.5C562.5 339.224 562.724 339 563 339H577.5C580.261 339 582.5 336.761 582.5 334V320.5C582.5 320.224 582.724 320 583 320C583.276 320 583.5 320.224 583.5 320.5V334Z" fill="#CDCDCD" fill-opacity="0.4"/>
<path d="M21 387.333C21 390.095 23.2386 392.333 26 392.333H39.5C39.7761 392.333 40 392.557 40 392.833C40 393.109 39.7761 393.333 39.5 393.333H26C23.2386 393.333 21 395.572 21 398.333V412.833C21 413.109 20.7761 413.333 20.5 413.333C20.2239 413.333 20 413.109 20 412.833V398.333C20 395.572 17.7614 393.333 15 393.333H0.5C0.223857 393.333 0 393.109 0 392.833C0 392.557 0.223858 392.333 0.5 392.333H15C17.7614 392.333 20 390.095 20 387.333V373.833C20 373.557 20.2239 373.333 20.5 373.333C20.7761 373.333 21 373.557 21 373.833V387.333Z" fill="#CDCDCD" fill-opacity="0.4"/>
<path d="M77.25 387.333C77.25 390.095 79.4886 392.333 82.25 392.333H95.75C96.0261 392.333 96.25 392.557 96.25 392.833C96.25 393.109 96.0261 393.333 95.75 393.333H82.25C79.4886 393.333 77.25 395.572 77.25 398.333V412.833C77.25 413.109 77.0261 413.333 76.75 413.333C76.4739 413.333 76.25 413.109 76.25 412.833V398.333C76.25 395.572 74.0114 393.333 71.25 393.333H56.75C56.4739 393.333 56.25 393.109 56.25 392.833C56.25 392.557 56.4739 392.333 56.75 392.333H71.25C74.0114 392.333 76.25 390.095 76.25 387.333V373.833C76.25 373.557 76.4739 373.333 76.75 373.333C77.0261 373.333 77.25 373.557 77.25 373.833V387.333Z" fill="#CDCDCD" fill-opacity="0.4"/>
<path d="M133.5 387.333C133.5 390.095 135.739 392.333 138.5 392.333H152C152.276 392.333 152.5 392.557 152.5 392.833C152.5 393.109 152.276 393.333 152 393.333H138.5C135.739 393.333 133.5 395.572 133.5 398.333V412.833C133.5 413.109 133.276 413.333 133 413.333C132.724 413.333 132.5 413.109 132.5 412.833V398.333C132.5 395.572 130.261 393.333 127.5 393.333H113C112.724 393.333 112.5 393.109 112.5 392.833C112.5 392.557 112.724 392.333 113 392.333H127.5C130.261 392.333 132.5 390.095 132.5 387.333V373.833C132.5 373.557 132.724 373.333 133 373.333C133.276 373.333 133.5 373.557 133.5 373.833V387.333Z" fill="#CDCDCD" fill-opacity="0.4"/>
<path d="M189.75 387.333C189.75 390.095 191.989 392.333 194.75 392.333H208.25C208.526 392.333 208.75 392.557 208.75 392.833C208.75 393.109 208.526 393.333 208.25 393.333H194.75C191.989 393.333 189.75 395.572 189.75 398.333V412.833C189.75 413.109 189.526 413.333 189.25 413.333C188.974 413.333 188.75 413.109 188.75 412.833V398.333C188.75 395.572 186.511 393.333 183.75 393.333H169.25C168.974 393.333 168.75 393.109 168.75 392.833C168.75 392.557 168.974 392.333 169.25 392.333H183.75C186.511 392.333 188.75 390.095 188.75 387.333V373.833C188.75 373.557 188.974 373.333 189.25 373.333C189.526 373.333 189.75 373.557 189.75 373.833V387.333Z" fill="#CDCDCD" fill-opacity="0.4"/>
<path d="M246 387.333C246 390.095 248.239 392.333 251 392.333H264.5C264.776 392.333 265 392.557 265 392.833C265 393.109 264.776 393.333 264.5 393.333H251C248.239 393.333 246 395.572 246 398.333V412.833C246 413.109 245.776 413.333 245.5 413.333C245.224 413.333 245 413.109 245 412.833V398.333C245 395.572 242.761 393.333 240 393.333H225.5C225.224 393.333 225 393.109 225 392.833C225 392.557 225.224 392.333 225.5 392.333H240C242.761 392.333 245 390.095 245 387.333V373.833C245 373.557 245.224 373.333 245.5 373.333C245.776 373.333 246 373.557 246 373.833V387.333Z" fill="#2E2E2E" fill-opacity="0.4"/>
<path d="M302.25 387.333C302.25 390.095 304.489 392.333 307.25 392.333H320.75C321.026 392.333 321.25 392.557 321.25 392.833C321.25 393.109 321.026 393.333 320.75 393.333H307.25C304.489 393.333 302.25 395.572 302.25 398.333V412.833C302.25 413.109 302.026 413.333 301.75 413.333C301.474 413.333 301.25 413.109 301.25 412.833V398.333C301.25 395.572 299.011 393.333 296.25 393.333H281.75C281.474 393.333 281.25 393.109 281.25 392.833C281.25 392.557 281.474 392.333 281.75 392.333H296.25C299.011 392.333 301.25 390.095 301.25 387.333V373.833C301.25 373.557 301.474 373.333 301.75 373.333C302.026 373.333 302.25 373.557 302.25 373.833V387.333Z" fill="#CDCDCD" fill-opacity="0.4"/>
<path d="M358.5 387.333C358.5 390.095 360.739 392.333 363.5 392.333H377C377.276 392.333 377.5 392.557 377.5 392.833C377.5 393.109 377.276 393.333 377 393.333H363.5C360.739 393.333 358.5 395.572 358.5 398.333V412.833C358.5 413.109 358.276 413.333 358 413.333C357.724 413.333 357.5 413.109 357.5 412.833V398.333C357.5 395.572 355.261 393.333 352.5 393.333H338C337.724 393.333 337.5 393.109 337.5 392.833C337.5 392.557 337.724 392.333 338 392.333H352.5C355.261 392.333 357.5 390.095 357.5 387.333V373.833C357.5 373.557 357.724 373.333 358 373.333C358.276 373.333 358.5 373.557 358.5 373.833V387.333Z" fill="#CDCDCD" fill-opacity="0.4"/>
<path d="M414.75 387.333C414.75 390.095 416.989 392.333 419.75 392.333H433.25C433.526 392.333 433.75 392.557 433.75 392.833C433.75 393.109 433.526 393.333 433.25 393.333H419.75C416.989 393.333 414.75 395.572 414.75 398.333V412.833C414.75 413.109 414.526 413.333 414.25 413.333C413.974 413.333 413.75 413.109 413.75 412.833V398.333C413.75 395.572 411.511 393.333 408.75 393.333H394.25C393.974 393.333 393.75 393.109 393.75 392.833C393.75 392.557 393.974 392.333 394.25 392.333H408.75C411.511 392.333 413.75 390.095 413.75 387.333V373.833C413.75 373.557 413.974 373.333 414.25 373.333C414.526 373.333 414.75 373.557 414.75 373.833V387.333Z" fill="#CDCDCD" fill-opacity="0.4"/>
<path d="M471 387.333C471 390.095 473.239 392.333 476 392.333H489.5C489.776 392.333 490 392.557 490 392.833C490 393.109 489.776 393.333 489.5 393.333H476C473.239 393.333 471 395.572 471 398.333V412.833C471 413.109 470.776 413.333 470.5 413.333C470.224 413.333 470 413.109 470 412.833V398.333C470 395.572 467.761 393.333 465 393.333H450.5C450.224 393.333 450 393.109 450 392.833C450 392.557 450.224 392.333 450.5 392.333H465C467.761 392.333 470 390.095 470 387.333V373.833C470 373.557 470.224 373.333 470.5 373.333C470.776 373.333 471 373.557 471 373.833V387.333Z" fill="#CDCDCD" fill-opacity="0.4"/>
<path d="M527.25 387.333C527.25 390.095 529.489 392.333 532.25 392.333H545.75C546.026 392.333 546.25 392.557 546.25 392.833C546.25 393.109 546.026 393.333 545.75 393.333H532.25C529.489 393.333 527.25 395.572 527.25 398.333V412.833C527.25 413.109 527.026 413.333 526.75 413.333C526.474 413.333 526.25 413.109 526.25 412.833V398.333C526.25 395.572 524.011 393.333 521.25 393.333H506.75C506.474 393.333 506.25 393.109 506.25 392.833C506.25 392.557 506.474 392.333 506.75 392.333H521.25C524.011 392.333 526.25 390.095 526.25 387.333V373.833C526.25 373.557 526.474 373.333 526.75 373.333C527.026 373.333 527.25 373.557 527.25 373.833V387.333Z" fill="#CDCDCD" fill-opacity="0.4"/>
<path d="M583.5 387.333C583.5 390.095 585.739 392.333 588.5 392.333H602C602.276 392.333 602.5 392.557 602.5 392.833C602.5 393.109 602.276 393.333 602 393.333H588.5C585.739 393.333 583.5 395.572 583.5 398.333V412.833C583.5 413.109 583.276 413.333 583 413.333C582.724 413.333 582.5 413.109 582.5 412.833V398.333C582.5 395.572 580.261 393.333 577.5 393.333H563C562.724 393.333 562.5 393.109 562.5 392.833C562.5 392.557 562.724 392.333 563 392.333H577.5C580.261 392.333 582.5 390.095 582.5 387.333V373.833C582.5 373.557 582.724 373.333 583 373.333C583.276 373.333 583.5 373.557 583.5 373.833V387.333Z" fill="#CDCDCD" fill-opacity="0.4"/>
</svg>
