<svg width="225" height="53" viewBox="0 0 225 53" fill="none" xmlns="http://www.w3.org/2000/svg">
<rect width="225" height="53" fill="#CDCDCD" fill-opacity="0.4"/>
<path d="M123.311 25.4397L121.811 23.9397C121.557 23.6856 121.22 23.5313 120.861 23.505C120.502 23.4786 120.146 23.582 119.858 23.7962L115.204 19.1425C115.418 18.8538 115.522 18.4977 115.495 18.1391C115.469 17.7805 115.315 17.4432 115.061 17.1887L113.561 15.6887C113.422 15.5494 113.257 15.4389 113.075 15.3635C112.893 15.2881 112.698 15.2493 112.5 15.2493C112.303 15.2493 112.108 15.2881 111.926 15.3635C111.744 15.4389 111.579 15.5494 111.44 15.6887L105.44 21.6887C105.3 21.828 105.19 21.9934 105.114 22.1754C105.039 22.3574 105 22.5525 105 22.7495C105 22.9465 105.039 23.1416 105.114 23.3236C105.19 23.5056 105.3 23.671 105.44 23.8103L106.94 25.3103C107.194 25.564 107.531 25.718 107.89 25.7441C108.248 25.7703 108.604 25.6669 108.893 25.4528L109.565 26.125L103.435 32.2544C103.028 32.6997 102.808 33.285 102.822 33.8883C102.835 34.4916 103.081 35.0665 103.508 35.4932C103.934 35.9199 104.509 36.1656 105.113 36.1791C105.716 36.1926 106.301 35.9728 106.747 35.5656L112.875 29.4362L113.547 30.1075C113.333 30.3962 113.229 30.7522 113.255 31.1108C113.282 31.4694 113.436 31.8067 113.69 32.0612L115.19 33.5612C115.329 33.7006 115.494 33.8111 115.676 33.8865C115.858 33.9619 116.053 34.0007 116.25 34.0007C116.448 34.0007 116.643 33.9619 116.825 33.8865C117.007 33.8111 117.172 33.7006 117.311 33.5612L123.311 27.5612C123.451 27.4219 123.561 27.2566 123.637 27.0746C123.712 26.8925 123.751 26.6975 123.751 26.5004C123.751 26.3034 123.712 26.1084 123.637 25.9263C123.561 25.7443 123.451 25.579 123.311 25.4397ZM108 24.25L106.5 22.75L112.5 16.75L114 18.25L108 24.25ZM105.686 34.5044C105.528 34.6615 105.314 34.7497 105.091 34.7497C104.869 34.7497 104.655 34.6615 104.497 34.5044C104.34 34.3463 104.252 34.1327 104.252 33.91C104.252 33.6873 104.34 33.4736 104.497 33.3156L110.625 27.1862L111.815 28.375L105.686 34.5044ZM109.969 24.4056L114.156 20.2187L118.781 24.8444L114.595 29.0312L109.969 24.4056ZM116.25 32.5L114.75 31L115.125 30.625L120.375 25.375L120.75 25L122.25 26.5L116.25 32.5Z" fill="black"/>
</svg>
