<svg width="478" height="287" viewBox="0 0 478 287" fill="none" xmlns="http://www.w3.org/2000/svg">
<path d="M0 267V162.822L146.54 163.985L105.835 126.769L126.769 113.976L119.791 81.4112L223.299 166.311L243.071 145.377L222.136 96.5304L252.375 110.487L234.929 84.9002L250.049 66.292L251.212 22.0973L382.633 163.985H402.404L380.307 133.747L402.404 138.399L366.35 110.487L376.818 100.019L366.35 69.781L478 166.311V267H0Z" fill="url(#paint0_linear_148_6729)"/>
<path d="M365.842 209.219C363.857 209.219 362.165 208.606 360.764 207.381C359.421 206.097 358.75 204.491 358.75 202.565C358.75 200.581 359.421 198.976 360.764 197.75C362.165 196.524 363.857 195.911 365.842 195.911C367.827 195.911 369.49 196.524 370.833 197.75C372.175 198.976 372.846 200.581 372.846 202.565C372.846 204.491 372.175 206.097 370.833 207.381C369.49 208.606 367.827 209.219 365.842 209.219ZM355.511 257.199V256.323L356.736 255.973C357.904 255.623 358.692 255.097 359.1 254.397C359.567 253.697 359.801 252.763 359.801 251.595V224.191C359.801 222.965 359.567 222.061 359.1 221.477C358.692 220.835 357.904 220.397 356.736 220.164L355.511 219.901V219.025L371.533 213.86L372.408 214.735L372.146 227.168V251.683C372.146 252.85 372.35 253.784 372.759 254.485C373.226 255.185 374.014 255.71 375.123 256.061L375.998 256.323V257.199H355.511Z" fill="#e0b84d"/>
<path d="M334.998 213.772C340.018 213.772 343.987 215.698 346.905 219.551C349.882 223.345 351.37 228.802 351.37 235.923C351.37 242.927 349.735 248.443 346.467 252.471C343.257 256.498 338.704 258.512 332.809 258.512C328.198 258.512 324.316 257.84 321.164 256.498V271.645C321.164 273.98 322.215 275.439 324.316 276.022L325.979 276.461V277.336H304.704V276.461L305.755 276.11C307.914 275.527 308.994 274.126 308.994 271.908V224.278C308.994 222.994 308.761 222.032 308.294 221.39C307.885 220.747 307.097 220.31 305.93 220.076L304.704 219.813V218.937L319.588 213.859L320.464 214.735L321.252 217.449C323.178 216.282 325.309 215.377 327.644 214.735C330.037 214.093 332.488 213.772 334.998 213.772ZM239.075 197.838C242.402 197.838 245.467 198.217 248.269 198.975C251.07 199.734 253.697 200.785 256.148 202.128L256.498 212.896H255.623L251.245 205.892C250.661 204.784 250.02 203.791 249.319 202.916C248.619 201.982 247.743 201.281 246.692 200.814C245.817 200.406 244.941 200.113 244.065 199.938C243.248 199.705 242.198 199.589 240.914 199.589C237.529 199.589 234.435 200.493 231.633 202.303C228.89 204.112 226.672 207.118 224.979 211.32C223.345 215.464 222.527 221.156 222.527 228.393C222.527 235.573 223.316 241.264 224.892 245.467C226.468 249.611 228.598 252.588 231.283 254.397C234.026 256.148 237.091 257.023 240.477 257.023C242.344 257.023 243.832 256.907 244.941 256.674C246.05 256.382 247.16 255.972 248.269 255.447C249.377 254.98 250.224 254.309 250.808 253.433C251.391 252.5 251.917 251.507 252.384 250.457L256.235 241.877H257.111L256.849 254.397C254.397 255.681 251.653 256.732 248.618 257.549C245.583 258.366 242.256 258.774 238.638 258.774C232.976 258.774 227.84 257.636 223.229 255.36C218.676 253.025 215.056 249.582 212.371 245.029C209.686 240.476 208.344 234.901 208.344 228.306C208.344 223.286 209.162 218.88 210.796 215.086C212.43 211.292 214.648 208.11 217.449 205.542C220.309 202.974 223.579 201.048 227.256 199.764C230.991 198.48 234.931 197.838 239.075 197.838ZM75.3916 213.772C79.1852 213.772 82.4246 214.56 85.1094 216.136C87.7943 217.653 89.8374 219.755 91.2383 222.44C92.6974 225.067 93.4277 228.073 93.4277 231.458C93.4277 232.1 93.3982 232.771 93.3398 233.472C93.2815 234.114 93.1643 234.697 92.9893 235.223H66.8984C66.9568 241.526 68.066 246.079 70.2256 248.881C72.4436 251.624 75.7121 252.996 80.0312 252.996C82.9495 252.996 85.3137 252.529 87.123 251.596C88.9324 250.662 90.6253 249.29 92.2012 247.48L93.0771 248.268C91.2678 251.479 88.8455 253.988 85.8105 255.798C82.8337 257.607 79.2436 258.512 75.041 258.512C70.897 258.512 67.2199 257.637 64.0098 255.886C60.7995 254.076 58.2889 251.508 56.4795 248.181C54.6701 244.854 53.7656 240.884 53.7656 236.273C53.7656 231.487 54.8158 227.43 56.917 224.103C59.0183 220.718 61.704 218.149 64.9727 216.398C68.2996 214.647 71.7729 213.772 75.3916 213.772ZM163.719 213.772C167.863 213.772 171.569 214.677 174.838 216.486C178.106 218.237 180.674 220.777 182.542 224.103C184.468 227.43 185.432 231.4 185.432 236.011C185.432 240.622 184.527 244.62 182.718 248.006C180.967 251.333 178.456 253.93 175.188 255.798C171.977 257.607 168.155 258.512 163.719 258.512C159.283 258.512 155.43 257.607 152.161 255.798C148.893 253.93 146.353 251.303 144.544 247.918C142.793 244.532 141.918 240.563 141.918 236.011C141.918 231.458 142.852 227.518 144.72 224.191C146.646 220.864 149.243 218.296 152.512 216.486C155.839 214.677 159.575 213.772 163.719 213.772ZM281.937 213.772C287.131 213.772 291.129 215.057 293.931 217.625C296.791 220.135 298.221 224.249 298.221 229.97V249.319C298.221 251.946 299.447 253.259 301.898 253.259H303.824L304.612 253.959C303.503 255.36 302.278 256.44 300.936 257.199C299.652 257.958 297.813 258.337 295.42 258.337C292.852 258.337 290.809 257.753 289.291 256.586C287.832 255.36 286.868 253.755 286.401 251.77C284.65 253.638 282.84 255.243 280.973 256.586C279.163 257.87 276.799 258.512 273.881 258.512C270.496 258.512 267.635 257.549 265.301 255.623C263.025 253.697 261.887 250.924 261.887 247.306C261.887 244.562 263.287 242.052 266.089 239.775C268.891 237.441 273.298 235.69 279.31 234.522C280.243 234.347 281.295 234.172 282.462 233.997C283.629 233.764 284.855 233.53 286.139 233.297V226.38C286.139 222.411 285.643 219.638 284.65 218.062C283.717 216.428 282.228 215.611 280.186 215.611C278.785 215.611 277.676 216.078 276.858 217.012C276.041 217.887 275.516 219.434 275.282 221.652L275.107 222.615C274.991 225.125 274.377 226.963 273.269 228.131C272.16 229.298 270.788 229.882 269.153 229.882C267.636 229.882 266.381 229.415 265.389 228.481C264.396 227.547 263.9 226.292 263.9 224.717C263.9 222.324 264.717 220.309 266.352 218.675C268.044 217.04 270.263 215.815 273.006 214.998C275.749 214.181 278.726 213.772 281.937 213.772ZM397.108 215.086H406.914V216.837H397.021V248.355C397.021 250.398 397.458 251.945 398.334 252.996C399.268 254.047 400.435 254.572 401.836 254.572C403.062 254.572 404.141 254.28 405.075 253.696C406.009 253.054 406.943 252.208 407.877 251.157L408.753 252.033C407.586 254.018 405.98 255.593 403.938 256.761C401.895 257.928 399.414 258.512 396.495 258.512C392.76 258.512 389.841 257.578 387.74 255.71C385.697 253.842 384.676 250.866 384.676 246.78V216.837H378.634V215.961L380.735 215.611C382.545 215.203 384.092 214.618 385.376 213.859C386.718 213.101 388.032 212.08 389.315 210.796L396.495 202.828H397.371L397.108 215.086ZM432.333 213.772C437.528 213.772 441.526 215.057 444.328 217.625C447.188 220.135 448.618 224.25 448.618 229.97V249.319C448.618 251.946 449.845 253.259 452.296 253.259H454.222L455.01 253.959C453.901 255.36 452.675 256.44 451.332 257.199C450.048 257.958 448.209 258.337 445.816 258.337C443.248 258.337 441.205 257.753 439.688 256.586C438.228 255.36 437.266 253.755 436.799 251.77C435.048 253.638 433.238 255.243 431.37 256.586C429.561 257.87 427.197 258.512 424.278 258.512C420.893 258.512 418.033 257.549 415.698 255.623C413.422 253.697 412.283 250.924 412.283 247.306C412.283 244.562 413.685 242.052 416.486 239.775C419.288 237.441 423.695 235.69 429.707 234.522C430.641 234.347 431.691 234.172 432.858 233.997C434.026 233.763 435.252 233.53 436.536 233.297V226.38C436.536 222.411 436.04 219.638 435.048 218.062C434.114 216.428 432.625 215.611 430.582 215.611C429.181 215.611 428.072 216.078 427.255 217.012C426.438 217.887 425.913 219.434 425.68 221.652L425.504 222.615C425.387 225.125 424.774 226.963 423.665 228.131C422.556 229.298 421.185 229.882 419.551 229.882C418.033 229.882 416.778 229.415 415.786 228.481C414.794 227.547 414.297 226.292 414.297 224.717C414.297 222.324 415.115 220.309 416.749 218.675C418.442 217.041 420.66 215.815 423.403 214.998C426.146 214.181 429.123 213.772 432.333 213.772ZM44.5645 239.075V206.067C44.5644 204.9 44.3597 203.85 43.9512 202.916C43.601 201.982 42.8422 201.369 41.6748 201.077L38.7861 200.289V199.413H51.3057V200.289L48.9414 201.077C47.891 201.427 47.2491 202.04 47.0156 202.916C46.7822 203.791 46.665 204.813 46.665 205.98V257.462H41.7627L8.31738 211.496V250.72C8.31738 251.887 8.49261 252.879 8.84277 253.696C9.19298 254.513 9.92228 255.097 11.0312 255.447L13.6582 256.323V257.199H0.349609V256.323L3.23926 255.447C4.28967 255.155 5.04874 254.601 5.51562 253.784C5.98252 252.909 6.21582 251.887 6.21582 250.72V208.606C5.57386 207.206 5.0482 206.155 4.63965 205.455C4.28943 204.755 3.88101 204.17 3.41406 203.703C2.94717 203.178 2.30523 202.536 1.48828 201.777L-0.000976562 200.289V199.413H15.4961L44.5645 239.075ZM118.812 215.961L117.235 216.311C114.959 216.895 114.259 218.413 115.135 220.864L124.327 245.292L132.908 221.039C133.375 219.872 133.491 218.909 133.258 218.15C133.024 217.391 132.324 216.836 131.156 216.486L128.968 215.961V215.086H141.663V215.961L139.124 216.574C138.015 216.866 137.139 217.304 136.497 217.888C135.914 218.471 135.417 219.346 135.009 220.514L122.139 257.462H117.061L101.563 220.251C100.746 218.267 99.3456 216.953 97.3613 216.311L96.1357 215.961V215.086H118.812V215.961ZM372.394 214.735L372.132 227.168V251.682C372.132 252.85 372.336 253.784 372.744 254.484C373.211 255.185 373.999 255.71 375.108 256.06L375.983 256.323V257.199H355.496V256.323L356.722 255.973C357.889 255.622 358.677 255.098 359.086 254.397C359.553 253.697 359.786 252.763 359.786 251.596V224.191C359.786 222.966 359.553 222.06 359.086 221.476C358.677 220.835 357.889 220.397 356.722 220.164L355.496 219.901V219.025L371.519 213.859L372.394 214.735ZM474.06 196.611L473.709 208.869V245.292C473.767 247.393 473.797 249.494 473.797 251.596C473.797 252.763 474.03 253.726 474.497 254.484C474.964 255.185 475.752 255.71 476.861 256.06L477.999 256.323V257.199H457.074V256.323L458.125 255.973C460.226 255.272 461.276 253.813 461.276 251.596V204.754C461.276 203.587 461.043 202.711 460.576 202.128C460.109 201.486 459.292 201.018 458.125 200.726L456.986 200.464V199.589L473.009 195.824L474.06 196.611ZM163.719 215.523C161.676 215.523 160.012 216.107 158.728 217.274C157.502 218.442 156.597 220.514 156.014 223.49C155.488 226.467 155.226 230.699 155.226 236.185C155.226 241.614 155.488 245.817 156.014 248.794C156.597 251.77 157.502 253.842 158.728 255.01C160.012 256.177 161.676 256.761 163.719 256.761C165.761 256.761 167.395 256.177 168.621 255.01C169.847 253.842 170.723 251.771 171.248 248.794C171.832 245.817 172.124 241.614 172.124 236.185C172.124 230.699 171.832 226.467 171.248 223.49C170.723 220.514 169.847 218.442 168.621 217.274C167.395 216.107 165.761 215.523 163.719 215.523ZM328.606 217.186C326.447 217.186 324.053 217.887 321.427 219.288V254.572C323.645 255.506 326.038 255.973 328.606 255.973C331.525 255.972 333.831 254.455 335.523 251.42C337.274 248.385 338.149 243.336 338.149 236.273C338.149 229.211 337.333 224.278 335.698 221.476C334.064 218.617 331.7 217.186 328.606 217.186ZM284.388 235.398C283.804 235.515 283.133 235.631 282.374 235.748C279.689 236.448 277.529 237.645 275.895 239.338C274.319 240.972 273.531 243.19 273.531 245.992C273.531 248.385 274.086 250.194 275.194 251.42C276.303 252.587 277.646 253.171 279.222 253.171C280.389 253.171 281.47 252.909 282.462 252.384C283.513 251.8 284.738 250.924 286.139 249.757V235.048C285.555 235.164 284.971 235.282 284.388 235.398ZM434.785 235.398C434.202 235.515 433.53 235.631 432.771 235.748C430.087 236.448 427.926 237.645 426.292 239.338C424.716 240.972 423.928 243.19 423.928 245.992C423.928 248.385 424.483 250.194 425.592 251.42C426.701 252.587 428.043 253.171 429.619 253.171C430.786 253.171 431.866 252.909 432.858 252.384C433.909 251.8 435.135 250.924 436.536 249.757V235.048C435.953 235.164 435.369 235.282 434.785 235.398ZM75.1289 215.523C73.4362 215.523 71.9767 216.049 70.751 217.099C69.5837 218.092 68.6496 219.901 67.9492 222.527C67.3072 225.095 66.9568 228.744 66.8984 233.472H81.8701C82.4538 227.109 82.2206 222.527 81.1699 219.725C80.1193 216.924 78.1055 215.523 75.1289 215.523Z" fill="black"/>
<path d="M117.465 60.4769L0 162.822L146.54 163.985L105.835 126.769L126.769 113.976L119.791 81.4112L223.299 166.311L243.071 145.377L222.136 96.5304L252.375 110.487L234.929 84.9002L250.049 66.292L251.212 22.0973L382.633 163.985H402.404L380.307 133.747L402.404 138.399L366.35 110.487L376.818 100.019L366.35 69.781L478 166.311L366.35 50.0097L324.482 90.7153L251.212 0L151.192 90.7153L117.465 60.4769Z" fill="black"/>
<defs>
<linearGradient id="paint0_linear_148_6729" x1="239" y1="22.0973" x2="239" y2="267" gradientUnits="userSpaceOnUse">
<stop offset="0.673077" stop-color="white"/>
<stop offset="1" stop-color="white" stop-opacity="0"/>
</linearGradient>
</defs>
</svg>
