<svg width="525" height="273" viewBox="0 0 525 273" fill="none" xmlns="http://www.w3.org/2000/svg">
<path d="M0 267V162.822L146.54 163.985L105.835 126.769L126.769 113.976L119.791 81.4112L223.299 166.311L243.071 145.377L222.136 96.5304L252.375 110.487L234.929 84.9002L250.049 66.292L251.212 22.0973L382.633 163.985H402.404L380.307 133.747L402.404 138.399L366.35 110.487L376.818 100.019L366.35 69.781L478 166.311V267H0Z" fill="url(#paint0_linear_148_6729)"/>
<path d="M410.834 251.199V203.442H420.13V251.199H410.834ZM415.529 196.074C413.912 196.074 412.523 195.535 411.362 194.457C410.222 193.358 409.652 192.052 409.652 190.539C409.652 189.005 410.222 187.7 411.362 186.622C412.523 185.523 413.912 184.974 415.529 184.974C417.145 184.974 418.524 185.523 419.664 186.622C420.825 187.7 421.405 189.005 421.405 190.539C421.405 192.052 420.825 193.358 419.664 194.457C418.524 195.535 417.145 196.074 415.529 196.074Z" fill="#E0B84D"/>
<path d="M380.65 202.82C384.506 202.82 387.946 203.795 390.973 205.743C393.999 207.691 396.372 210.5 398.093 214.169C399.834 217.838 400.705 222.253 400.705 227.414C400.705 232.575 399.844 237 398.124 240.689C396.404 244.358 394.041 247.188 391.035 249.178C388.03 251.147 384.599 252.132 380.744 252.132C377.842 252.132 375.469 251.644 373.624 250.67C371.8 249.696 370.369 248.556 369.333 247.25C368.297 245.944 367.499 244.783 366.939 243.767H366.38V269.107H357.083V203.442H366.162V211.184H366.939C367.478 210.19 368.256 209.039 369.271 207.733C370.287 206.427 371.697 205.287 373.5 204.312C375.303 203.318 377.687 202.82 380.65 202.82ZM326.171 202.82C328.078 202.82 330.099 203.049 332.233 203.505C334.389 203.94 336.4 204.748 338.266 205.93C340.152 207.111 341.695 208.801 342.897 210.998C344.1 213.174 344.701 216.003 344.701 219.485V251.199H335.622V244.67H335.249C334.648 245.872 333.746 247.053 332.544 248.214C331.342 249.374 329.798 250.338 327.912 251.105C326.026 251.872 323.766 252.256 321.134 252.256C318.108 252.256 315.372 251.696 312.926 250.577C310.48 249.437 308.542 247.789 307.111 245.634C305.702 243.478 304.997 240.835 304.997 237.705C304.997 235.011 305.515 232.793 306.552 231.052C307.588 229.311 308.987 227.932 310.749 226.916C312.511 225.9 314.48 225.133 316.656 224.615C318.833 224.097 321.051 223.704 323.311 223.434C326.171 223.103 328.492 222.833 330.274 222.626C332.057 222.398 333.353 222.034 334.161 221.537C334.969 221.04 335.374 220.231 335.374 219.112V218.894C335.374 216.179 334.607 214.075 333.073 212.583C331.56 211.09 329.3 210.345 326.295 210.345C323.165 210.345 320.699 211.039 318.896 212.428C317.113 213.796 315.879 215.319 315.195 216.998L306.459 215.009C307.495 212.107 309.008 209.764 310.998 207.981C313.009 206.178 315.32 204.873 317.932 204.064C320.543 203.235 323.29 202.82 326.171 202.82ZM484.434 202.82C486.341 202.82 488.362 203.049 490.497 203.505C492.653 203.94 494.663 204.748 496.528 205.93C498.415 207.111 499.959 208.801 501.161 210.998C502.363 213.174 502.965 216.003 502.965 219.485V251.199H493.886V244.67H493.513C492.912 245.872 492.01 247.053 490.808 248.214C489.605 249.374 488.061 250.338 486.175 251.105C484.289 251.872 482.03 252.256 479.397 252.256C476.371 252.256 473.635 251.696 471.189 250.577C468.744 249.437 466.805 247.789 465.375 245.634C463.966 243.478 463.261 240.835 463.261 237.705C463.261 235.01 463.779 232.793 464.815 231.052C465.852 229.311 467.251 227.932 469.013 226.916C470.774 225.9 472.744 225.133 474.92 224.615C477.096 224.097 479.314 223.704 481.573 223.434C484.434 223.103 486.756 222.833 488.538 222.626C490.321 222.398 491.616 222.034 492.425 221.537C493.233 221.04 493.637 220.231 493.637 219.112V218.894C493.637 216.179 492.87 214.075 491.336 212.583C489.823 211.091 487.564 210.345 484.559 210.345C481.429 210.345 478.962 211.039 477.158 212.428C475.376 213.796 474.143 215.319 473.459 216.998L464.722 215.009C465.758 212.107 467.272 209.764 469.262 207.981C471.272 206.178 473.583 204.873 476.194 204.064C478.806 203.235 481.553 202.82 484.434 202.82ZM88.873 202.82C91.5676 202.82 94.1793 203.266 96.708 204.157C99.2366 205.048 101.506 206.448 103.517 208.354C105.527 210.261 107.114 212.739 108.274 215.786C109.435 218.812 110.015 222.491 110.015 226.823V230.119H76.0713C76.1431 233.03 76.7 235.528 77.7422 237.612C78.8822 239.851 80.4678 241.561 82.499 242.742C84.5303 243.903 86.9038 244.483 89.6191 244.483C91.381 244.483 92.9875 244.235 94.4385 243.737C95.8893 243.219 97.1432 242.452 98.2002 241.436C99.2573 240.421 100.066 239.166 100.626 237.674L109.425 239.26C108.72 241.851 107.455 244.12 105.631 246.068C103.828 247.996 101.558 249.499 98.8223 250.577C96.1069 251.634 93.0076 252.163 89.5254 252.163C84.8204 252.163 80.7684 251.157 77.3691 249.146C73.9906 247.115 71.3789 244.265 69.5342 240.597C67.7102 236.907 66.7979 232.585 66.7979 227.632C66.7979 222.74 67.7101 218.428 69.5342 214.697C71.3789 210.966 73.9495 208.054 77.2451 205.961C80.5615 203.867 84.4374 202.82 88.873 202.82ZM187.044 202.82C191.521 202.82 195.428 203.846 198.766 205.898C202.103 207.95 204.693 210.832 206.538 214.542C208.383 218.252 209.306 222.584 209.306 227.538C209.306 232.471 208.383 236.783 206.538 240.473C204.693 244.162 202.103 247.033 198.766 249.085C195.429 251.137 191.521 252.163 187.044 252.163C182.567 252.163 178.659 251.137 175.322 249.085C171.985 247.033 169.395 244.162 167.55 240.473C165.705 236.783 164.783 232.471 164.783 227.538C164.783 222.584 165.705 218.252 167.55 214.542C169.395 210.832 171.985 207.95 175.322 205.898C178.659 203.846 182.567 202.82 187.044 202.82ZM270.183 186.653C273.561 186.653 276.712 187.14 279.635 188.114C282.578 189.068 285.22 190.477 287.562 192.343C289.905 194.187 291.843 196.447 293.377 199.121C294.911 201.774 295.947 204.81 296.486 208.23H286.785C286.412 206.158 285.718 204.334 284.702 202.759C283.686 201.183 282.443 199.846 280.972 198.747C279.5 197.648 277.852 196.819 276.028 196.26C274.225 195.7 272.308 195.421 270.276 195.421C266.608 195.421 263.322 196.343 260.42 198.187C257.539 200.032 255.259 202.738 253.58 206.303C251.922 209.868 251.093 214.221 251.093 219.361C251.093 224.543 251.922 228.916 253.58 232.481C255.259 236.046 257.549 238.741 260.451 240.565C263.353 242.389 266.618 243.302 270.245 243.302C272.256 243.302 274.163 243.032 275.966 242.493C277.79 241.933 279.438 241.115 280.909 240.037C282.381 238.959 283.625 237.642 284.641 236.088C285.677 234.513 286.391 232.71 286.785 230.679L296.486 230.71C295.968 233.839 294.963 236.72 293.471 239.352C291.999 241.964 290.102 244.224 287.78 246.131C285.48 248.017 282.847 249.478 279.883 250.515C276.919 251.551 273.685 252.069 270.183 252.069C264.669 252.069 259.757 250.764 255.445 248.152C251.134 245.52 247.734 241.757 245.247 236.865C242.781 231.974 241.548 226.139 241.548 219.361C241.548 212.563 242.791 206.727 245.278 201.856C247.766 196.965 251.165 193.213 255.477 190.601C259.788 187.969 264.69 186.653 270.183 186.653ZM445.422 203.442H455.216V210.904H445.422V237.177C445.422 238.98 445.692 240.338 446.23 241.25C446.769 242.141 447.464 242.752 448.313 243.084C449.184 243.395 450.127 243.551 451.143 243.551C451.889 243.551 452.542 243.498 453.102 243.394C453.661 243.291 454.096 243.209 454.407 243.146L456.086 250.826C455.547 251.033 454.78 251.24 453.785 251.447C452.79 251.675 451.547 251.799 450.055 251.82C447.609 251.862 445.329 251.426 443.215 250.515C441.101 249.603 439.39 248.193 438.084 246.286C436.778 244.379 436.126 241.985 436.126 239.104V210.904H429.13V203.442H436.126V192.001H445.422V203.442ZM45.5703 234.285H46.1611V187.523H55.6748V251.199H46.8447L14.4785 204.499H13.8877V251.199H4.28125V187.523H13.1729L45.5703 234.285ZM137.274 240.192H137.772L149.836 203.442H159.815L142.498 251.199H132.549L115.199 203.442H125.18L137.274 240.192ZM420.417 251.199H411.12V203.442H420.417V251.199ZM524.643 251.199H515.347V187.523H524.643V251.199ZM335.405 227.818C335.074 228.15 334.431 228.461 333.478 228.751C332.545 229.02 331.477 229.258 330.274 229.466C329.072 229.652 327.902 229.828 326.762 229.994C325.622 230.139 324.668 230.263 323.901 230.367C322.098 230.595 320.449 230.979 318.957 231.517C317.486 232.056 316.304 232.834 315.413 233.849C314.543 234.844 314.107 236.171 314.107 237.829C314.107 240.13 314.957 241.871 316.656 243.053C318.356 244.213 320.523 244.794 323.155 244.794C325.725 244.794 327.922 244.286 329.746 243.27C331.591 242.255 332.99 240.928 333.943 239.291C334.917 237.633 335.405 235.861 335.405 233.974V227.818ZM493.668 227.818C493.336 228.15 492.693 228.461 491.74 228.751C490.808 229.02 489.74 229.258 488.538 229.466C487.336 229.652 486.164 229.828 485.024 229.994C483.884 230.139 482.931 230.263 482.164 230.367C480.361 230.595 478.713 230.979 477.221 231.517C475.749 232.056 474.568 232.834 473.677 233.849C472.806 234.844 472.37 236.171 472.37 237.829C472.37 240.13 473.22 241.871 474.92 243.053C476.62 244.213 478.786 244.794 481.418 244.794C483.988 244.794 486.186 244.286 488.01 243.27C489.854 242.255 491.254 240.928 492.207 239.291C493.181 237.633 493.668 235.861 493.668 233.974V227.818ZM187.075 210.594C184.153 210.594 181.727 211.37 179.8 212.925C177.893 214.479 176.473 216.542 175.54 219.112C174.628 221.662 174.172 224.46 174.172 227.507C174.172 230.574 174.628 233.383 175.54 235.932C176.473 238.482 177.893 240.524 179.8 242.057C181.727 243.591 184.153 244.358 187.075 244.358C189.977 244.358 192.381 243.591 194.288 242.057C196.195 240.524 197.605 238.482 198.517 235.932C199.449 233.383 199.916 230.574 199.916 227.507C199.916 224.46 199.449 221.662 198.517 219.112C197.605 216.542 196.195 214.479 194.288 212.925C192.381 211.37 189.977 210.594 187.075 210.594ZM378.661 210.718C375.967 210.718 373.686 211.412 371.82 212.801C369.976 214.189 368.576 216.128 367.623 218.615C366.67 221.102 366.193 224.004 366.193 227.32C366.193 230.678 366.68 233.622 367.654 236.15C368.628 238.679 370.038 240.659 371.883 242.089C373.728 243.498 375.987 244.203 378.661 244.203C381.438 244.203 383.76 243.467 385.625 241.996C387.49 240.504 388.9 238.482 389.854 235.932C390.828 233.383 391.315 230.512 391.315 227.32C391.315 224.17 390.838 221.341 389.885 218.833C388.952 216.325 387.542 214.345 385.656 212.894C383.791 211.444 381.459 210.718 378.661 210.718ZM88.9355 210.5C86.3239 210.5 84.0431 211.142 82.0947 212.428C80.1672 213.692 78.6752 215.35 77.6182 217.402C76.7091 219.184 76.1986 221.101 76.0869 223.154H100.905C100.905 220.708 100.408 218.542 99.4131 216.656C98.4182 214.749 97.0189 213.247 95.2158 212.148C93.4333 211.05 91.3398 210.5 88.9355 210.5Z" fill="black"/>
<path d="M117.465 60.4769L0 162.822L146.54 163.985L105.835 126.769L126.769 113.976L119.791 81.4112L223.299 166.311L243.071 145.377L222.136 96.5304L252.375 110.487L234.929 84.9002L250.049 66.292L251.212 22.0973L382.633 163.985H402.404L380.307 133.747L402.404 138.399L366.35 110.487L376.818 100.019L366.35 69.781L478 166.311L366.35 50.0097L324.482 90.7153L251.212 0L151.192 90.7153L117.465 60.4769Z" fill="black"/>
<defs>
<linearGradient id="paint0_linear_148_6729" x1="239" y1="22.0973" x2="239" y2="267" gradientUnits="userSpaceOnUse">
<stop offset="0.673077" stop-color="white"/>
<stop offset="1" stop-color="white" stop-opacity="0"/>
</linearGradient>
</defs>
</svg>
