<svg width="222" height="150" viewBox="0 0 222 150" fill="none" xmlns="http://www.w3.org/2000/svg">
<rect x="10" y="30" width="202" height="100" fill="#CDCDCD" fill-opacity="0.1"/>
<g filter="url(#filter0_d_148_1749)">
<rect x="30" y="93" width="162" height="37" fill="white"/>
</g>
<g filter="url(#filter1_d_148_1749)">
<rect x="52" y="57" width="118" height="36" fill="white"/>
</g>
<g filter="url(#filter2_d_148_1749)">
<rect x="67" y="30" width="88" height="27" fill="white"/>
</g>
<path d="M68.736 118.128C67.872 118.128 67.0773 117.989 66.352 117.712C65.6267 117.424 64.9973 117.024 64.464 116.512C63.9307 115.989 63.5147 115.381 63.216 114.688C62.9173 113.995 62.768 113.232 62.768 112.4C62.768 111.568 62.9173 110.805 63.216 110.112C63.5147 109.419 63.9307 108.816 64.464 108.304C65.008 107.781 65.6427 107.381 66.368 107.104C67.0933 106.816 67.8933 106.672 68.768 106.672C69.6533 106.672 70.464 106.816 71.2 107.104C71.936 107.392 72.56 107.824 73.072 108.4L72.08 109.392C71.6213 108.944 71.12 108.619 70.576 108.416C70.0427 108.203 69.4613 108.096 68.832 108.096C68.192 108.096 67.5947 108.203 67.04 108.416C66.496 108.629 66.0213 108.928 65.616 109.312C65.2213 109.696 64.912 110.155 64.688 110.688C64.4747 111.211 64.368 111.781 64.368 112.4C64.368 113.008 64.4747 113.579 64.688 114.112C64.912 114.635 65.2213 115.093 65.616 115.488C66.0213 115.872 66.496 116.171 67.04 116.384C67.584 116.597 68.176 116.704 68.816 116.704C69.4133 116.704 69.984 116.613 70.528 116.432C71.0827 116.24 71.5947 115.925 72.064 115.488L72.976 116.704C72.4213 117.173 71.7707 117.531 71.024 117.776C70.288 118.011 69.5253 118.128 68.736 118.128ZM71.44 116.496V112.336H72.976V116.704L71.44 116.496ZM79.4474 118.096C78.594 118.096 77.8367 117.909 77.1754 117.536C76.514 117.163 75.9914 116.651 75.6074 116C75.2234 115.339 75.0314 114.592 75.0314 113.76C75.0314 112.917 75.2234 112.171 75.6074 111.52C75.9914 110.869 76.514 110.363 77.1754 110C77.8367 109.627 78.594 109.44 79.4474 109.44C80.29 109.44 81.042 109.627 81.7034 110C82.3754 110.363 82.898 110.869 83.2714 111.52C83.6554 112.16 83.8474 112.907 83.8474 113.76C83.8474 114.603 83.6554 115.349 83.2714 116C82.898 116.651 82.3754 117.163 81.7034 117.536C81.042 117.909 80.29 118.096 79.4474 118.096ZM79.4474 116.752C79.9914 116.752 80.4767 116.629 80.9034 116.384C81.3407 116.139 81.682 115.792 81.9274 115.344C82.1727 114.885 82.2954 114.357 82.2954 113.76C82.2954 113.152 82.1727 112.629 81.9274 112.192C81.682 111.744 81.3407 111.397 80.9034 111.152C80.4767 110.907 79.9914 110.784 79.4474 110.784C78.9034 110.784 78.418 110.907 77.9914 111.152C77.5647 111.397 77.2234 111.744 76.9674 112.192C76.7114 112.629 76.5834 113.152 76.5834 113.76C76.5834 114.357 76.7114 114.885 76.9674 115.344C77.2234 115.792 77.5647 116.139 77.9914 116.384C78.418 116.629 78.9034 116.752 79.4474 116.752ZM87.9613 118L84.2492 109.52H85.8493L89.1453 117.2H88.3773L91.7373 109.52H93.2413L89.5293 118H87.9613ZM98.2164 118.096C97.3097 118.096 96.5097 117.909 95.8164 117.536C95.1337 117.163 94.6004 116.651 94.2164 116C93.843 115.349 93.6564 114.603 93.6564 113.76C93.6564 112.917 93.8377 112.171 94.2004 111.52C94.5737 110.869 95.0804 110.363 95.7204 110C96.371 109.627 97.1017 109.44 97.9124 109.44C98.7337 109.44 99.459 109.621 100.088 109.984C100.718 110.347 101.208 110.859 101.56 111.52C101.923 112.171 102.104 112.933 102.104 113.808C102.104 113.872 102.099 113.947 102.088 114.032C102.088 114.117 102.083 114.197 102.072 114.272H94.8564V113.168H101.272L100.648 113.552C100.659 113.008 100.547 112.523 100.312 112.096C100.078 111.669 99.7524 111.339 99.3364 111.104C98.931 110.859 98.4564 110.736 97.9124 110.736C97.379 110.736 96.9044 110.859 96.4884 111.104C96.0724 111.339 95.747 111.675 95.5124 112.112C95.2777 112.539 95.1604 113.029 95.1604 113.584V113.84C95.1604 114.405 95.2884 114.912 95.5444 115.36C95.811 115.797 96.179 116.139 96.6484 116.384C97.1177 116.629 97.6564 116.752 98.2644 116.752C98.7657 116.752 99.219 116.667 99.6244 116.496C100.04 116.325 100.403 116.069 100.712 115.728L101.56 116.72C101.176 117.168 100.696 117.509 100.12 117.744C99.555 117.979 98.9204 118.096 98.2164 118.096ZM104.237 118V109.52H105.709V111.824L105.565 111.248C105.8 110.661 106.195 110.213 106.749 109.904C107.304 109.595 107.987 109.44 108.797 109.44V110.928C108.733 110.917 108.669 110.912 108.605 110.912C108.552 110.912 108.499 110.912 108.445 110.912C107.624 110.912 106.973 111.157 106.493 111.648C106.013 112.139 105.773 112.848 105.773 113.776V118H104.237ZM115.218 109.44C115.912 109.44 116.52 109.573 117.042 109.84C117.576 110.107 117.992 110.512 118.29 111.056C118.589 111.6 118.738 112.288 118.738 113.12V118H117.202V113.296C117.202 112.475 117 111.856 116.594 111.44C116.2 111.024 115.64 110.816 114.914 110.816C114.37 110.816 113.896 110.923 113.49 111.136C113.085 111.349 112.77 111.664 112.546 112.08C112.333 112.496 112.226 113.013 112.226 113.632V118H110.69V109.52H112.162V111.808L111.922 111.2C112.2 110.645 112.626 110.213 113.202 109.904C113.778 109.595 114.45 109.44 115.218 109.44ZM126.845 118V116.208L126.765 115.872V112.816C126.765 112.165 126.573 111.664 126.189 111.312C125.816 110.949 125.25 110.768 124.493 110.768C123.992 110.768 123.501 110.853 123.021 111.024C122.541 111.184 122.136 111.403 121.805 111.68L121.165 110.528C121.602 110.176 122.125 109.909 122.733 109.728C123.352 109.536 123.997 109.44 124.669 109.44C125.832 109.44 126.728 109.723 127.357 110.288C127.986 110.853 128.301 111.717 128.301 112.88V118H126.845ZM124.061 118.096C123.432 118.096 122.877 117.989 122.397 117.776C121.928 117.563 121.565 117.269 121.309 116.896C121.053 116.512 120.925 116.08 120.925 115.6C120.925 115.141 121.032 114.725 121.245 114.352C121.469 113.979 121.826 113.68 122.317 113.456C122.818 113.232 123.49 113.12 124.333 113.12H127.021V114.224H124.397C123.629 114.224 123.112 114.352 122.845 114.608C122.578 114.864 122.445 115.173 122.445 115.536C122.445 115.952 122.61 116.288 122.941 116.544C123.272 116.789 123.73 116.912 124.317 116.912C124.893 116.912 125.394 116.784 125.821 116.528C126.258 116.272 126.573 115.899 126.765 115.408L127.069 116.464C126.866 116.965 126.509 117.365 125.997 117.664C125.485 117.952 124.84 118.096 124.061 118.096ZM135.672 109.44C136.365 109.44 136.973 109.573 137.496 109.84C138.029 110.107 138.445 110.512 138.744 111.056C139.042 111.6 139.192 112.288 139.192 113.12V118H137.656V113.296C137.656 112.475 137.453 111.856 137.048 111.44C136.653 111.024 136.093 110.816 135.368 110.816C134.824 110.816 134.349 110.923 133.944 111.136C133.538 111.349 133.224 111.664 133 112.08C132.786 112.496 132.68 113.013 132.68 113.632V118H131.144V109.52H132.616V111.808L132.376 111.2C132.653 110.645 133.08 110.213 133.656 109.904C134.232 109.595 134.904 109.44 135.672 109.44ZM145.73 118.096C144.866 118.096 144.093 117.909 143.41 117.536C142.738 117.163 142.21 116.651 141.826 116C141.442 115.349 141.25 114.603 141.25 113.76C141.25 112.917 141.442 112.171 141.826 111.52C142.21 110.869 142.738 110.363 143.41 110C144.093 109.627 144.866 109.44 145.73 109.44C146.498 109.44 147.181 109.595 147.778 109.904C148.386 110.203 148.855 110.651 149.186 111.248L148.018 112C147.741 111.584 147.399 111.28 146.994 111.088C146.599 110.885 146.173 110.784 145.714 110.784C145.159 110.784 144.663 110.907 144.226 111.152C143.789 111.397 143.442 111.744 143.186 112.192C142.93 112.629 142.802 113.152 142.802 113.76C142.802 114.368 142.93 114.896 143.186 115.344C143.442 115.792 143.789 116.139 144.226 116.384C144.663 116.629 145.159 116.752 145.714 116.752C146.173 116.752 146.599 116.656 146.994 116.464C147.399 116.261 147.741 115.952 148.018 115.536L149.186 116.272C148.855 116.859 148.386 117.312 147.778 117.632C147.181 117.941 146.498 118.096 145.73 118.096ZM154.826 118.096C153.919 118.096 153.119 117.909 152.426 117.536C151.743 117.163 151.21 116.651 150.826 116C150.452 115.349 150.266 114.603 150.266 113.76C150.266 112.917 150.447 112.171 150.81 111.52C151.183 110.869 151.69 110.363 152.33 110C152.98 109.627 153.711 109.44 154.522 109.44C155.343 109.44 156.068 109.621 156.698 109.984C157.327 110.347 157.818 110.859 158.17 111.52C158.532 112.171 158.714 112.933 158.714 113.808C158.714 113.872 158.708 113.947 158.698 114.032C158.698 114.117 158.692 114.197 158.682 114.272H151.466V113.168H157.882L157.258 113.552C157.268 113.008 157.156 112.523 156.922 112.096C156.687 111.669 156.362 111.339 155.946 111.104C155.54 110.859 155.066 110.736 154.522 110.736C153.988 110.736 153.514 110.859 153.098 111.104C152.682 111.339 152.356 111.675 152.122 112.112C151.887 112.539 151.77 113.029 151.77 113.584V113.84C151.77 114.405 151.898 114.912 152.154 115.36C152.42 115.797 152.788 116.139 153.258 116.384C153.727 116.629 154.266 116.752 154.874 116.752C155.375 116.752 155.828 116.667 156.234 116.496C156.65 116.325 157.012 116.069 157.322 115.728L158.17 116.72C157.786 117.168 157.306 117.509 156.73 117.744C156.164 117.979 155.53 118.096 154.826 118.096Z" fill="#e0b84d"/>
<path d="M68.416 79V70.418H65.056V69.2H73.162V70.418H69.802V79H68.416ZM74.3131 79V71.58H75.6011V73.596L75.4751 73.092C75.6804 72.5787 76.0257 72.1867 76.5111 71.916C76.9964 71.6453 77.5937 71.51 78.3031 71.51V72.812C78.2471 72.8027 78.1911 72.798 78.1351 72.798C78.0884 72.798 78.0417 72.798 77.9951 72.798C77.2764 72.798 76.7071 73.0127 76.2871 73.442C75.8671 73.8713 75.6571 74.492 75.6571 75.304V79H74.3131ZM84.0187 79V77.432L83.9487 77.138V74.464C83.9487 73.8947 83.7807 73.456 83.4447 73.148C83.118 72.8307 82.6233 72.672 81.9607 72.672C81.522 72.672 81.0927 72.7467 80.6727 72.896C80.2527 73.036 79.898 73.2273 79.6087 73.47L79.0487 72.462C79.4313 72.154 79.8887 71.9207 80.4207 71.762C80.962 71.594 81.5267 71.51 82.1147 71.51C83.132 71.51 83.916 71.7573 84.4667 72.252C85.0173 72.7467 85.2927 73.5027 85.2927 74.52V79H84.0187ZM81.5827 79.084C81.032 79.084 80.5467 78.9907 80.1267 78.804C79.716 78.6173 79.3987 78.3607 79.1747 78.034C78.9507 77.698 78.8387 77.32 78.8387 76.9C78.8387 76.4987 78.932 76.1347 79.1187 75.808C79.3147 75.4813 79.6273 75.22 80.0567 75.024C80.4953 74.828 81.0833 74.73 81.8207 74.73H84.1727V75.696H81.8767C81.2047 75.696 80.752 75.808 80.5187 76.032C80.2853 76.256 80.1687 76.5267 80.1687 76.844C80.1687 77.208 80.3133 77.502 80.6027 77.726C80.892 77.9407 81.2933 78.048 81.8067 78.048C82.3107 78.048 82.7493 77.936 83.1227 77.712C83.5053 77.488 83.7807 77.1613 83.9487 76.732L84.2147 77.656C84.0373 78.0947 83.7247 78.4447 83.2767 78.706C82.8287 78.958 82.264 79.084 81.5827 79.084ZM91.7419 71.51C92.3485 71.51 92.8805 71.6267 93.3379 71.86C93.8045 72.0933 94.1685 72.448 94.4299 72.924C94.6912 73.4 94.8219 74.002 94.8219 74.73V79H93.4779V74.884C93.4779 74.1653 93.3005 73.624 92.9459 73.26C92.6005 72.896 92.1105 72.714 91.4759 72.714C90.9999 72.714 90.5845 72.8073 90.2299 72.994C89.8752 73.1807 89.5999 73.456 89.4039 73.82C89.2172 74.184 89.1239 74.6367 89.1239 75.178V79H87.7799V71.58H89.0679V73.582L88.8579 73.05C89.1005 72.5647 89.4739 72.1867 89.9779 71.916C90.4819 71.6453 91.0699 71.51 91.7419 71.51ZM99.4372 79.084C98.8212 79.084 98.2332 79 97.6732 78.832C97.1225 78.664 96.6885 78.4587 96.3712 78.216L96.9312 77.152C97.2485 77.3667 97.6405 77.5487 98.1072 77.698C98.5738 77.8473 99.0498 77.922 99.5352 77.922C100.16 77.922 100.608 77.8333 100.879 77.656C101.159 77.4787 101.299 77.2313 101.299 76.914C101.299 76.6807 101.215 76.4987 101.047 76.368C100.879 76.2373 100.655 76.1393 100.375 76.074C100.104 76.0087 99.8012 75.9527 99.4652 75.906C99.1292 75.85 98.7932 75.7847 98.4572 75.71C98.1212 75.626 97.8132 75.514 97.5332 75.374C97.2532 75.2247 97.0292 75.024 96.8612 74.772C96.6932 74.5107 96.6092 74.1653 96.6092 73.736C96.6092 73.288 96.7352 72.896 96.9872 72.56C97.2392 72.224 97.5938 71.9673 98.0512 71.79C98.5178 71.6033 99.0685 71.51 99.7032 71.51C100.188 71.51 100.678 71.5707 101.173 71.692C101.677 71.804 102.088 71.9673 102.405 72.182L101.831 73.246C101.495 73.022 101.145 72.868 100.781 72.784C100.417 72.7 100.053 72.658 99.6892 72.658C99.1012 72.658 98.6625 72.756 98.3732 72.952C98.0838 73.1387 97.9392 73.3813 97.9392 73.68C97.9392 73.932 98.0232 74.128 98.1912 74.268C98.3685 74.3987 98.5925 74.5013 98.8632 74.576C99.1432 74.6507 99.4512 74.716 99.7872 74.772C100.123 74.8187 100.459 74.884 100.795 74.968C101.131 75.0427 101.434 75.15 101.705 75.29C101.985 75.43 102.209 75.626 102.377 75.878C102.554 76.13 102.643 76.466 102.643 76.886C102.643 77.334 102.512 77.7213 102.251 78.048C101.99 78.3747 101.621 78.6313 101.145 78.818C100.669 78.9953 100.1 79.084 99.4372 79.084ZM108.257 79.084C107.641 79.084 107.076 78.944 106.563 78.664C106.059 78.3747 105.653 77.95 105.345 77.39C105.046 76.83 104.897 76.13 104.897 75.29C104.897 74.45 105.041 73.75 105.331 73.19C105.629 72.63 106.031 72.21 106.535 71.93C107.048 71.65 107.622 71.51 108.257 71.51C108.985 71.51 109.629 71.6687 110.189 71.986C110.749 72.3033 111.192 72.7467 111.519 73.316C111.845 73.876 112.009 74.534 112.009 75.29C112.009 76.046 111.845 76.7087 111.519 77.278C111.192 77.8473 110.749 78.2907 110.189 78.608C109.629 78.9253 108.985 79.084 108.257 79.084ZM104.323 81.716V71.58H105.611V73.582L105.527 75.304L105.667 77.026V81.716H104.323ZM108.145 77.908C108.621 77.908 109.045 77.8007 109.419 77.586C109.801 77.3713 110.1 77.068 110.315 76.676C110.539 76.2747 110.651 75.8127 110.651 75.29C110.651 74.758 110.539 74.3007 110.315 73.918C110.1 73.526 109.801 73.2227 109.419 73.008C109.045 72.7933 108.621 72.686 108.145 72.686C107.678 72.686 107.253 72.7933 106.871 73.008C106.497 73.2227 106.199 73.526 105.975 73.918C105.76 74.3007 105.653 74.758 105.653 75.29C105.653 75.8127 105.76 76.2747 105.975 76.676C106.199 77.068 106.497 77.3713 106.871 77.586C107.253 77.8007 107.678 77.908 108.145 77.908ZM118.403 79V77.432L118.333 77.138V74.464C118.333 73.8947 118.165 73.456 117.829 73.148C117.503 72.8307 117.008 72.672 116.345 72.672C115.907 72.672 115.477 72.7467 115.057 72.896C114.637 73.036 114.283 73.2273 113.993 73.47L113.433 72.462C113.816 72.154 114.273 71.9207 114.805 71.762C115.347 71.594 115.911 71.51 116.499 71.51C117.517 71.51 118.301 71.7573 118.851 72.252C119.402 72.7467 119.677 73.5027 119.677 74.52V79H118.403ZM115.967 79.084C115.417 79.084 114.931 78.9907 114.511 78.804C114.101 78.6173 113.783 78.3607 113.559 78.034C113.335 77.698 113.223 77.32 113.223 76.9C113.223 76.4987 113.317 76.1347 113.503 75.808C113.699 75.4813 114.012 75.22 114.441 75.024C114.88 74.828 115.468 74.73 116.205 74.73H118.557V75.696H116.261C115.589 75.696 115.137 75.808 114.903 76.032C114.67 76.256 114.553 76.5267 114.553 76.844C114.553 77.208 114.698 77.502 114.987 77.726C115.277 77.9407 115.678 78.048 116.191 78.048C116.695 78.048 117.134 77.936 117.507 77.712C117.89 77.488 118.165 77.1613 118.333 76.732L118.599 77.656C118.422 78.0947 118.109 78.4447 117.661 78.706C117.213 78.958 116.649 79.084 115.967 79.084ZM122.165 79V71.58H123.453V73.596L123.327 73.092C123.532 72.5787 123.877 72.1867 124.363 71.916C124.848 71.6453 125.445 71.51 126.155 71.51V72.812C126.099 72.8027 126.043 72.798 125.987 72.798C125.94 72.798 125.893 72.798 125.847 72.798C125.128 72.798 124.559 73.0127 124.139 73.442C123.719 73.8713 123.509 74.492 123.509 75.304V79H122.165ZM131.047 79.084C130.253 79.084 129.553 78.9207 128.947 78.594C128.349 78.2673 127.883 77.8193 127.547 77.25C127.22 76.6807 127.057 76.0273 127.057 75.29C127.057 74.5527 127.215 73.8993 127.533 73.33C127.859 72.7607 128.303 72.3173 128.863 72C129.432 71.6733 130.071 71.51 130.781 71.51C131.499 71.51 132.134 71.6687 132.685 71.986C133.235 72.3033 133.665 72.7513 133.973 73.33C134.29 73.8993 134.449 74.5667 134.449 75.332C134.449 75.388 134.444 75.4533 134.435 75.528C134.435 75.6027 134.43 75.6727 134.421 75.738H128.107V74.772H133.721L133.175 75.108C133.184 74.632 133.086 74.2073 132.881 73.834C132.675 73.4607 132.391 73.1713 132.027 72.966C131.672 72.7513 131.257 72.644 130.781 72.644C130.314 72.644 129.899 72.7513 129.535 72.966C129.171 73.1713 128.886 73.4653 128.681 73.848C128.475 74.2213 128.373 74.6507 128.373 75.136V75.36C128.373 75.8547 128.485 76.298 128.709 76.69C128.942 77.0727 129.264 77.3713 129.675 77.586C130.085 77.8007 130.557 77.908 131.089 77.908C131.527 77.908 131.924 77.8333 132.279 77.684C132.643 77.5347 132.96 77.3107 133.231 77.012L133.973 77.88C133.637 78.272 133.217 78.5707 132.713 78.776C132.218 78.9813 131.663 79.084 131.047 79.084ZM140.277 71.51C140.884 71.51 141.416 71.6267 141.873 71.86C142.34 72.0933 142.704 72.448 142.965 72.924C143.226 73.4 143.357 74.002 143.357 74.73V79H142.013V74.884C142.013 74.1653 141.836 73.624 141.481 73.26C141.136 72.896 140.646 72.714 140.011 72.714C139.535 72.714 139.12 72.8073 138.765 72.994C138.41 73.1807 138.135 73.456 137.939 73.82C137.752 74.184 137.659 74.6367 137.659 75.178V79H136.315V71.58H137.603V73.582L137.393 73.05C137.636 72.5647 138.009 72.1867 138.513 71.916C139.017 71.6453 139.605 71.51 140.277 71.51ZM149.078 79.084C148.322 79.084 147.646 78.9207 147.048 78.594C146.46 78.2673 145.998 77.8193 145.662 77.25C145.326 76.6807 145.158 76.0273 145.158 75.29C145.158 74.5527 145.326 73.8993 145.662 73.33C145.998 72.7607 146.46 72.3173 147.048 72C147.646 71.6733 148.322 71.51 149.078 71.51C149.75 71.51 150.348 71.6453 150.87 71.916C151.402 72.1773 151.813 72.5693 152.102 73.092L151.08 73.75C150.838 73.386 150.539 73.12 150.184 72.952C149.839 72.7747 149.466 72.686 149.064 72.686C148.579 72.686 148.145 72.7933 147.762 73.008C147.38 73.2227 147.076 73.526 146.852 73.918C146.628 74.3007 146.516 74.758 146.516 75.29C146.516 75.822 146.628 76.284 146.852 76.676C147.076 77.068 147.38 77.3713 147.762 77.586C148.145 77.8007 148.579 77.908 149.064 77.908C149.466 77.908 149.839 77.824 150.184 77.656C150.539 77.4787 150.838 77.208 151.08 76.844L152.102 77.488C151.813 78.0013 151.402 78.398 150.87 78.678C150.348 78.9487 149.75 79.084 149.078 79.084ZM154.069 81.8C153.714 81.8 153.369 81.7393 153.033 81.618C152.697 81.506 152.407 81.338 152.165 81.114L152.739 80.106C152.925 80.2833 153.131 80.4187 153.355 80.512C153.579 80.6053 153.817 80.652 154.069 80.652C154.395 80.652 154.666 80.568 154.881 80.4C155.095 80.232 155.296 79.9333 155.483 79.504L155.945 78.482L156.085 78.314L158.997 71.58H160.313L156.715 79.742C156.5 80.2647 156.257 80.6753 155.987 80.974C155.725 81.2727 155.436 81.4827 155.119 81.604C154.801 81.7347 154.451 81.8 154.069 81.8ZM155.833 79.238L152.445 71.58H153.845L156.729 78.188L155.833 79.238Z" fill="#e0b84d"/>
<path d="M79.016 48.096C78.376 48.096 77.784 47.992 77.24 47.784C76.704 47.568 76.236 47.268 75.836 46.884C75.444 46.492 75.136 46.036 74.912 45.516C74.688 44.996 74.576 44.424 74.576 43.8C74.576 43.176 74.688 42.604 74.912 42.084C75.136 41.564 75.448 41.112 75.848 40.728C76.248 40.336 76.716 40.036 77.252 39.828C77.796 39.612 78.388 39.504 79.028 39.504C79.676 39.504 80.272 39.616 80.816 39.84C81.368 40.056 81.836 40.38 82.22 40.812L81.44 41.568C81.12 41.232 80.76 40.984 80.36 40.824C79.96 40.656 79.532 40.572 79.076 40.572C78.604 40.572 78.164 40.652 77.756 40.812C77.356 40.972 77.008 41.196 76.712 41.484C76.416 41.772 76.184 42.116 76.016 42.516C75.856 42.908 75.776 43.336 75.776 43.8C75.776 44.264 75.856 44.696 76.016 45.096C76.184 45.488 76.416 45.828 76.712 46.116C77.008 46.404 77.356 46.628 77.756 46.788C78.164 46.948 78.604 47.028 79.076 47.028C79.532 47.028 79.96 46.948 80.36 46.788C80.76 46.62 81.12 46.364 81.44 46.02L82.22 46.776C81.836 47.208 81.368 47.536 80.816 47.76C80.272 47.984 79.672 48.096 79.016 48.096ZM86.2183 48.072C85.5783 48.072 85.0103 47.932 84.5143 47.652C84.0183 47.372 83.6263 46.988 83.3383 46.5C83.0503 46.004 82.9063 45.444 82.9063 44.82C82.9063 44.188 83.0503 43.628 83.3383 43.14C83.6263 42.652 84.0183 42.272 84.5143 42C85.0103 41.72 85.5783 41.58 86.2183 41.58C86.8503 41.58 87.4143 41.72 87.9103 42C88.4143 42.272 88.8063 42.652 89.0863 43.14C89.3743 43.62 89.5183 44.18 89.5183 44.82C89.5183 45.452 89.3743 46.012 89.0863 46.5C88.8063 46.988 88.4143 47.372 87.9103 47.652C87.4143 47.932 86.8503 48.072 86.2183 48.072ZM86.2183 47.064C86.6263 47.064 86.9903 46.972 87.3103 46.788C87.6383 46.604 87.8943 46.344 88.0783 46.008C88.2623 45.664 88.3543 45.268 88.3543 44.82C88.3543 44.364 88.2623 43.972 88.0783 43.644C87.8943 43.308 87.6383 43.048 87.3103 42.864C86.9903 42.68 86.6263 42.588 86.2183 42.588C85.8103 42.588 85.4463 42.68 85.1263 42.864C84.8063 43.048 84.5503 43.308 84.3583 43.644C84.1663 43.972 84.0703 44.364 84.0703 44.82C84.0703 45.268 84.1663 45.664 84.3583 46.008C84.5503 46.344 84.8063 46.604 85.1263 46.788C85.4463 46.972 85.8103 47.064 86.2183 47.064ZM99.0675 41.58C99.5795 41.58 100.032 41.68 100.424 41.88C100.816 42.08 101.12 42.384 101.336 42.792C101.56 43.2 101.672 43.716 101.672 44.34V48H100.52V44.472C100.52 43.856 100.376 43.392 100.088 43.08C99.7995 42.768 99.3955 42.612 98.8755 42.612C98.4915 42.612 98.1555 42.692 97.8675 42.852C97.5795 43.012 97.3555 43.248 97.1955 43.56C97.0435 43.872 96.9675 44.26 96.9675 44.724V48H95.8155V44.472C95.8155 43.856 95.6715 43.392 95.3835 43.08C95.1035 42.768 94.6995 42.612 94.1715 42.612C93.7955 42.612 93.4635 42.692 93.1755 42.852C92.8875 43.012 92.6635 43.248 92.5035 43.56C92.3435 43.872 92.2635 44.26 92.2635 44.724V48H91.1115V41.64H92.2155V43.332L92.0355 42.9C92.2355 42.484 92.5435 42.16 92.9595 41.928C93.3755 41.696 93.8595 41.58 94.4115 41.58C95.0195 41.58 95.5435 41.732 95.9835 42.036C96.4235 42.332 96.7115 42.784 96.8475 43.392L96.3795 43.2C96.5715 42.712 96.9075 42.32 97.3875 42.024C97.8675 41.728 98.4275 41.58 99.0675 41.58ZM107.163 48.072C106.635 48.072 106.151 47.952 105.711 47.712C105.279 47.464 104.931 47.1 104.667 46.62C104.411 46.14 104.283 45.54 104.283 44.82C104.283 44.1 104.407 43.5 104.655 43.02C104.911 42.54 105.255 42.18 105.687 41.94C106.127 41.7 106.619 41.58 107.163 41.58C107.787 41.58 108.339 41.716 108.819 41.988C109.299 42.26 109.679 42.64 109.959 43.128C110.239 43.608 110.379 44.172 110.379 44.82C110.379 45.468 110.239 46.036 109.959 46.524C109.679 47.012 109.299 47.392 108.819 47.664C108.339 47.936 107.787 48.072 107.163 48.072ZM103.791 50.328V41.64H104.895V43.356L104.823 44.832L104.943 46.308V50.328H103.791ZM107.067 47.064C107.475 47.064 107.839 46.972 108.159 46.788C108.487 46.604 108.743 46.344 108.927 46.008C109.119 45.664 109.215 45.268 109.215 44.82C109.215 44.364 109.119 43.972 108.927 43.644C108.743 43.308 108.487 43.048 108.159 42.864C107.839 42.68 107.475 42.588 107.067 42.588C106.667 42.588 106.303 42.68 105.975 42.864C105.655 43.048 105.399 43.308 105.207 43.644C105.023 43.972 104.931 44.364 104.931 44.82C104.931 45.268 105.023 45.664 105.207 46.008C105.399 46.344 105.655 46.604 105.975 46.788C106.303 46.972 106.667 47.064 107.067 47.064ZM111.971 48V39.096H113.123V48H111.971ZM115.322 48V41.64H116.474V48H115.322ZM115.898 40.416C115.674 40.416 115.486 40.344 115.334 40.2C115.19 40.056 115.118 39.88 115.118 39.672C115.118 39.456 115.19 39.276 115.334 39.132C115.486 38.988 115.674 38.916 115.898 38.916C116.122 38.916 116.306 38.988 116.45 39.132C116.602 39.268 116.678 39.44 116.678 39.648C116.678 39.864 116.606 40.048 116.462 40.2C116.318 40.344 116.13 40.416 115.898 40.416ZM122.622 48V46.656L122.562 46.404V44.112C122.562 43.624 122.418 43.248 122.13 42.984C121.85 42.712 121.426 42.576 120.858 42.576C120.482 42.576 120.114 42.64 119.754 42.768C119.394 42.888 119.09 43.052 118.842 43.26L118.362 42.396C118.69 42.132 119.082 41.932 119.538 41.796C120.002 41.652 120.486 41.58 120.99 41.58C121.862 41.58 122.534 41.792 123.006 42.216C123.478 42.64 123.714 43.288 123.714 44.16V48H122.622ZM120.534 48.072C120.062 48.072 119.646 47.992 119.286 47.832C118.934 47.672 118.662 47.452 118.47 47.172C118.278 46.884 118.182 46.56 118.182 46.2C118.182 45.856 118.262 45.544 118.422 45.264C118.59 44.984 118.858 44.76 119.226 44.592C119.602 44.424 120.106 44.34 120.738 44.34H122.754V45.168H120.786C120.21 45.168 119.822 45.264 119.622 45.456C119.422 45.648 119.322 45.88 119.322 46.152C119.322 46.464 119.446 46.716 119.694 46.908C119.942 47.092 120.286 47.184 120.726 47.184C121.158 47.184 121.534 47.088 121.854 46.896C122.182 46.704 122.418 46.424 122.562 46.056L122.79 46.848C122.638 47.224 122.37 47.524 121.986 47.748C121.602 47.964 121.118 48.072 120.534 48.072ZM129.242 41.58C129.762 41.58 130.218 41.68 130.61 41.88C131.01 42.08 131.322 42.384 131.546 42.792C131.77 43.2 131.882 43.716 131.882 44.34V48H130.73V44.472C130.73 43.856 130.578 43.392 130.274 43.08C129.978 42.768 129.558 42.612 129.014 42.612C128.606 42.612 128.25 42.692 127.946 42.852C127.642 43.012 127.406 43.248 127.238 43.56C127.078 43.872 126.998 44.26 126.998 44.724V48H125.846V41.64H126.95V43.356L126.77 42.9C126.978 42.484 127.298 42.16 127.73 41.928C128.162 41.696 128.666 41.58 129.242 41.58ZM136.786 48.072C136.138 48.072 135.558 47.932 135.046 47.652C134.542 47.372 134.146 46.988 133.858 46.5C133.57 46.012 133.426 45.452 133.426 44.82C133.426 44.188 133.57 43.628 133.858 43.14C134.146 42.652 134.542 42.272 135.046 42C135.558 41.72 136.138 41.58 136.786 41.58C137.362 41.58 137.874 41.696 138.322 41.928C138.778 42.152 139.13 42.488 139.378 42.936L138.502 43.5C138.294 43.188 138.038 42.96 137.734 42.816C137.438 42.664 137.118 42.588 136.774 42.588C136.358 42.588 135.986 42.68 135.658 42.864C135.33 43.048 135.07 43.308 134.878 43.644C134.686 43.972 134.59 44.364 134.59 44.82C134.59 45.276 134.686 45.672 134.878 46.008C135.07 46.344 135.33 46.604 135.658 46.788C135.986 46.972 136.358 47.064 136.774 47.064C137.118 47.064 137.438 46.992 137.734 46.848C138.038 46.696 138.294 46.464 138.502 46.152L139.378 46.704C139.13 47.144 138.778 47.484 138.322 47.724C137.874 47.956 137.362 48.072 136.786 48.072ZM143.608 48.072C142.928 48.072 142.328 47.932 141.808 47.652C141.296 47.372 140.896 46.988 140.608 46.5C140.328 46.012 140.188 45.452 140.188 44.82C140.188 44.188 140.324 43.628 140.596 43.14C140.876 42.652 141.256 42.272 141.736 42C142.224 41.72 142.772 41.58 143.38 41.58C143.996 41.58 144.54 41.716 145.012 41.988C145.484 42.26 145.852 42.644 146.116 43.14C146.388 43.628 146.524 44.2 146.524 44.856C146.524 44.904 146.52 44.96 146.512 45.024C146.512 45.088 146.508 45.148 146.5 45.204H141.088V44.376H145.9L145.432 44.664C145.44 44.256 145.356 43.892 145.18 43.572C145.004 43.252 144.76 43.004 144.448 42.828C144.144 42.644 143.788 42.552 143.38 42.552C142.98 42.552 142.624 42.644 142.312 42.828C142 43.004 141.756 43.256 141.58 43.584C141.404 43.904 141.316 44.272 141.316 44.688V44.88C141.316 45.304 141.412 45.684 141.604 46.02C141.804 46.348 142.08 46.604 142.432 46.788C142.784 46.972 143.188 47.064 143.644 47.064C144.02 47.064 144.36 47 144.664 46.872C144.976 46.744 145.248 46.552 145.48 46.296L146.116 47.04C145.828 47.376 145.468 47.632 145.036 47.808C144.612 47.984 144.136 48.072 143.608 48.072Z" fill="#e0b84d"/>
<defs>
<filter id="filter0_d_148_1749" x="0" y="63" width="222" height="97" filterUnits="userSpaceOnUse" color-interpolation-filters="sRGB">
<feFlood flood-opacity="0" result="BackgroundImageFix"/>
<feColorMatrix in="SourceAlpha" type="matrix" values="0 0 0 0 0 0 0 0 0 0 0 0 0 0 0 0 0 0 127 0" result="hardAlpha"/>
<feMorphology radius="5" operator="dilate" in="SourceAlpha" result="effect1_dropShadow_148_1749"/>
<feOffset/>
<feGaussianBlur stdDeviation="12.5"/>
<feComposite in2="hardAlpha" operator="out"/>
<feColorMatrix type="matrix" values="0 0 0 0 0 0 0 0 0 0 0 0 0 0 0 0 0 0 0.05 0"/>
<feBlend mode="normal" in2="BackgroundImageFix" result="effect1_dropShadow_148_1749"/>
<feBlend mode="normal" in="SourceGraphic" in2="effect1_dropShadow_148_1749" result="shape"/>
</filter>
<filter id="filter1_d_148_1749" x="22" y="27" width="178" height="96" filterUnits="userSpaceOnUse" color-interpolation-filters="sRGB">
<feFlood flood-opacity="0" result="BackgroundImageFix"/>
<feColorMatrix in="SourceAlpha" type="matrix" values="0 0 0 0 0 0 0 0 0 0 0 0 0 0 0 0 0 0 127 0" result="hardAlpha"/>
<feMorphology radius="5" operator="dilate" in="SourceAlpha" result="effect1_dropShadow_148_1749"/>
<feOffset/>
<feGaussianBlur stdDeviation="12.5"/>
<feComposite in2="hardAlpha" operator="out"/>
<feColorMatrix type="matrix" values="0 0 0 0 0 0 0 0 0 0 0 0 0 0 0 0 0 0 0.05 0"/>
<feBlend mode="normal" in2="BackgroundImageFix" result="effect1_dropShadow_148_1749"/>
<feBlend mode="normal" in="SourceGraphic" in2="effect1_dropShadow_148_1749" result="shape"/>
</filter>
<filter id="filter2_d_148_1749" x="37" y="0" width="148" height="87" filterUnits="userSpaceOnUse" color-interpolation-filters="sRGB">
<feFlood flood-opacity="0" result="BackgroundImageFix"/>
<feColorMatrix in="SourceAlpha" type="matrix" values="0 0 0 0 0 0 0 0 0 0 0 0 0 0 0 0 0 0 127 0" result="hardAlpha"/>
<feMorphology radius="5" operator="dilate" in="SourceAlpha" result="effect1_dropShadow_148_1749"/>
<feOffset/>
<feGaussianBlur stdDeviation="12.5"/>
<feComposite in2="hardAlpha" operator="out"/>
<feColorMatrix type="matrix" values="0 0 0 0 0 0 0 0 0 0 0 0 0 0 0 0 0 0 0.05 0"/>
<feBlend mode="normal" in2="BackgroundImageFix" result="effect1_dropShadow_148_1749"/>
<feBlend mode="normal" in="SourceGraphic" in2="effect1_dropShadow_148_1749" result="shape"/>
</filter>
</defs>
</svg>
