<svg width="361" height="260" viewBox="0 0 361 260" fill="none" xmlns="http://www.w3.org/2000/svg">
<rect x="16.1906" y="48.1906" width="328.619" height="163.5" stroke="#CDCDCD" stroke-opacity="0.4" stroke-width="1.61881"/>
<rect x="17" y="49" width="327" height="161.881" fill="#CDCDCD" fill-opacity="0.1"/>
<g filter="url(#filter0_d_229_2054)">
<rect x="49.3762" y="150.985" width="262.248" height="59.896" fill="white"/>
</g>
<g filter="url(#filter1_d_229_2054)">
<rect x="84.9901" y="92.708" width="191.02" height="58.2772" fill="white"/>
</g>
<g filter="url(#filter2_d_229_2054)">
<rect x="109.272" y="49" width="142.455" height="43.7079" fill="white"/>
</g>
<path d="M112.083 190.762C110.684 190.762 109.397 190.537 108.223 190.088C107.049 189.622 106.03 188.975 105.167 188.146C104.304 187.3 103.63 186.316 103.147 185.193C102.663 184.071 102.421 182.836 102.421 181.489C102.421 180.142 102.663 178.908 103.147 177.785C103.63 176.663 104.304 175.688 105.167 174.859C106.048 174.013 107.075 173.365 108.249 172.916C109.423 172.45 110.718 172.217 112.134 172.217C113.568 172.217 114.88 172.45 116.071 172.916C117.263 173.382 118.273 174.082 119.102 175.014L117.496 176.62C116.753 175.895 115.942 175.368 115.061 175.04C114.198 174.695 113.257 174.522 112.238 174.522C111.202 174.522 110.235 174.695 109.337 175.04C108.456 175.385 107.688 175.869 107.032 176.49C106.393 177.112 105.892 177.855 105.53 178.718C105.184 179.564 105.012 180.488 105.012 181.489C105.012 182.474 105.184 183.397 105.53 184.261C105.892 185.107 106.393 185.849 107.032 186.488C107.688 187.11 108.456 187.593 109.337 187.939C110.218 188.284 111.176 188.457 112.212 188.457C113.179 188.457 114.103 188.31 114.983 188.016C115.881 187.706 116.71 187.196 117.47 186.488L118.946 188.457C118.048 189.216 116.995 189.795 115.786 190.192C114.595 190.572 113.36 190.762 112.083 190.762ZM116.46 188.12V181.386H118.946V188.457L116.46 188.12ZM129.422 190.71C128.041 190.71 126.815 190.408 125.744 189.804C124.674 189.199 123.828 188.37 123.206 187.317C122.584 186.246 122.274 185.038 122.274 183.691C122.274 182.327 122.584 181.118 123.206 180.065C123.828 179.011 124.674 178.191 125.744 177.604C126.815 177 128.041 176.698 129.422 176.698C130.786 176.698 132.004 177 133.074 177.604C134.162 178.191 135.008 179.011 135.613 180.065C136.234 181.101 136.545 182.31 136.545 183.691C136.545 185.055 136.234 186.264 135.613 187.317C135.008 188.37 134.162 189.199 133.074 189.804C132.004 190.408 130.786 190.71 129.422 190.71ZM129.422 188.534C130.303 188.534 131.089 188.336 131.779 187.939C132.487 187.542 133.04 186.98 133.437 186.255C133.834 185.513 134.033 184.658 134.033 183.691C134.033 182.707 133.834 181.861 133.437 181.153C133.04 180.427 132.487 179.866 131.779 179.469C131.089 179.072 130.303 178.873 129.422 178.873C128.542 178.873 127.756 179.072 127.065 179.469C126.375 179.866 125.822 180.427 125.408 181.153C124.993 181.861 124.786 182.707 124.786 183.691C124.786 184.658 124.993 185.513 125.408 186.255C125.822 186.98 126.375 187.542 127.065 187.939C127.756 188.336 128.542 188.534 129.422 188.534ZM143.205 190.555L137.196 176.827H139.786L145.121 189.26H143.878L149.317 176.827H151.752L145.743 190.555H143.205ZM159.806 190.71C158.338 190.71 157.043 190.408 155.921 189.804C154.815 189.199 153.952 188.37 153.33 187.317C152.726 186.264 152.424 185.055 152.424 183.691C152.424 182.327 152.717 181.118 153.305 180.065C153.909 179.011 154.729 178.191 155.765 177.604C156.818 177 158.001 176.698 159.314 176.698C160.643 176.698 161.817 176.991 162.836 177.578C163.855 178.165 164.649 178.994 165.219 180.065C165.806 181.118 166.1 182.353 166.1 183.769C166.1 183.872 166.091 183.993 166.074 184.131C166.074 184.269 166.065 184.399 166.048 184.52H154.367V182.733H164.753L163.743 183.354C163.76 182.474 163.579 181.688 163.199 180.997C162.819 180.307 162.292 179.771 161.619 179.391C160.963 178.994 160.194 178.796 159.314 178.796C158.45 178.796 157.682 178.994 157.008 179.391C156.335 179.771 155.808 180.315 155.428 181.023C155.049 181.714 154.859 182.508 154.859 183.406V183.82C154.859 184.736 155.066 185.556 155.48 186.281C155.912 186.989 156.508 187.542 157.267 187.939C158.027 188.336 158.899 188.534 159.883 188.534C160.695 188.534 161.429 188.396 162.085 188.12C162.758 187.844 163.346 187.429 163.846 186.877L165.219 188.483C164.597 189.208 163.82 189.76 162.888 190.14C161.973 190.52 160.945 190.71 159.806 190.71ZM169.552 190.555V176.827H171.935V180.557L171.702 179.624C172.082 178.675 172.721 177.95 173.619 177.449C174.517 176.948 175.622 176.698 176.934 176.698V179.106C176.831 179.089 176.727 179.081 176.623 179.081C176.537 179.081 176.451 179.081 176.364 179.081C175.035 179.081 173.981 179.478 173.204 180.272C172.427 181.066 172.039 182.215 172.039 183.717V190.555H169.552ZM187.329 176.698C188.451 176.698 189.435 176.913 190.281 177.345C191.145 177.777 191.818 178.433 192.302 179.314C192.785 180.194 193.027 181.308 193.027 182.655V190.555H190.54V182.94C190.54 181.61 190.212 180.609 189.556 179.935C188.917 179.262 188.011 178.925 186.837 178.925C185.956 178.925 185.188 179.098 184.531 179.443C183.875 179.789 183.366 180.298 183.003 180.971C182.658 181.645 182.485 182.482 182.485 183.484V190.555H179.999V176.827H182.382V180.531L181.993 179.547C182.442 178.649 183.133 177.95 184.065 177.449C184.998 176.948 186.086 176.698 187.329 176.698ZM206.15 190.555V187.654L206.021 187.11V182.163C206.021 181.109 205.71 180.298 205.088 179.728C204.484 179.141 203.569 178.847 202.343 178.847C201.531 178.847 200.737 178.986 199.96 179.262C199.183 179.521 198.527 179.875 197.991 180.324L196.955 178.459C197.663 177.889 198.509 177.457 199.494 177.164C200.495 176.853 201.54 176.698 202.628 176.698C204.51 176.698 205.96 177.155 206.979 178.07C207.998 178.986 208.507 180.384 208.507 182.266V190.555H206.15ZM201.643 190.71C200.625 190.71 199.727 190.537 198.95 190.192C198.19 189.847 197.603 189.372 197.188 188.768C196.774 188.146 196.567 187.447 196.567 186.67C196.567 185.927 196.739 185.254 197.085 184.649C197.447 184.045 198.026 183.561 198.82 183.199C199.632 182.836 200.72 182.655 202.084 182.655H206.435V184.442H202.187C200.944 184.442 200.107 184.649 199.675 185.064C199.243 185.478 199.027 185.979 199.027 186.566C199.027 187.239 199.295 187.783 199.83 188.198C200.366 188.595 201.108 188.793 202.058 188.793C202.99 188.793 203.802 188.586 204.492 188.172C205.2 187.757 205.71 187.153 206.021 186.359L206.513 188.068C206.185 188.88 205.606 189.527 204.777 190.011C203.948 190.477 202.904 190.71 201.643 190.71ZM220.439 176.698C221.561 176.698 222.545 176.913 223.391 177.345C224.255 177.777 224.928 178.433 225.412 179.314C225.895 180.194 226.137 181.308 226.137 182.655V190.555H223.65V182.94C223.65 181.61 223.322 180.609 222.666 179.935C222.027 179.262 221.121 178.925 219.946 178.925C219.066 178.925 218.297 179.098 217.641 179.443C216.985 179.789 216.476 180.298 216.113 180.971C215.768 181.645 215.595 182.482 215.595 183.484V190.555H213.109V176.827H215.491V180.531L215.103 179.547C215.552 178.649 216.243 177.95 217.175 177.449C218.107 176.948 219.195 176.698 220.439 176.698ZM236.722 190.71C235.323 190.71 234.071 190.408 232.966 189.804C231.878 189.199 231.023 188.37 230.402 187.317C229.78 186.264 229.469 185.055 229.469 183.691C229.469 182.327 229.78 181.118 230.402 180.065C231.023 179.011 231.878 178.191 232.966 177.604C234.071 177 235.323 176.698 236.722 176.698C237.965 176.698 239.07 176.948 240.037 177.449C241.021 177.932 241.781 178.657 242.316 179.624L240.425 180.842C239.976 180.168 239.424 179.676 238.768 179.365C238.129 179.037 237.438 178.873 236.696 178.873C235.798 178.873 234.995 179.072 234.287 179.469C233.579 179.866 233.018 180.427 232.603 181.153C232.189 181.861 231.982 182.707 231.982 183.691C231.982 184.675 232.189 185.53 232.603 186.255C233.018 186.98 233.579 187.542 234.287 187.939C234.995 188.336 235.798 188.534 236.696 188.534C237.438 188.534 238.129 188.379 238.768 188.068C239.424 187.74 239.976 187.239 240.425 186.566L242.316 187.757C241.781 188.707 241.021 189.441 240.037 189.959C239.07 190.46 237.965 190.71 236.722 190.71ZM251.446 190.71C249.978 190.71 248.683 190.408 247.561 189.804C246.455 189.199 245.592 188.37 244.97 187.317C244.366 186.264 244.064 185.055 244.064 183.691C244.064 182.327 244.357 181.118 244.945 180.065C245.549 179.011 246.369 178.191 247.405 177.604C248.458 177 249.641 176.698 250.954 176.698C252.283 176.698 253.457 176.991 254.476 177.578C255.495 178.165 256.289 178.994 256.859 180.065C257.446 181.118 257.74 182.353 257.74 183.769C257.74 183.872 257.731 183.993 257.714 184.131C257.714 184.269 257.705 184.399 257.688 184.52H246.006V182.733H256.393L255.383 183.354C255.4 182.474 255.219 181.688 254.839 180.997C254.459 180.307 253.932 179.771 253.259 179.391C252.603 178.994 251.834 178.796 250.954 178.796C250.09 178.796 249.322 178.994 248.648 179.391C247.975 179.771 247.448 180.315 247.068 181.023C246.689 181.714 246.499 182.508 246.499 183.406V183.82C246.499 184.736 246.706 185.556 247.12 186.281C247.552 186.989 248.148 187.542 248.907 187.939C249.667 188.336 250.539 188.534 251.523 188.534C252.335 188.534 253.069 188.396 253.725 188.12C254.398 187.844 254.985 187.429 255.486 186.877L256.859 188.483C256.237 189.208 255.46 189.76 254.528 190.14C253.613 190.52 252.585 190.71 251.446 190.71Z" fill="#CDCDCD"/>
<path d="M111.565 127.658V113.766H106.125V111.794H119.247V113.766H113.808V127.658H111.565ZM121.111 127.658V115.647H123.196V118.91L122.992 118.094C123.324 117.263 123.883 116.629 124.669 116.191C125.455 115.752 126.422 115.533 127.57 115.533V117.641C127.479 117.626 127.389 117.618 127.298 117.618C127.222 117.618 127.147 117.618 127.071 117.618C125.908 117.618 124.986 117.966 124.306 118.661C123.626 119.356 123.286 120.361 123.286 121.675V127.658H121.111ZM136.822 127.658V125.12L136.709 124.644V120.315C136.709 119.394 136.437 118.684 135.893 118.185C135.364 117.671 134.564 117.414 133.491 117.414C132.781 117.414 132.086 117.535 131.406 117.777C130.726 118.004 130.152 118.313 129.683 118.706L128.777 117.074C129.396 116.576 130.137 116.198 130.998 115.941C131.874 115.669 132.788 115.533 133.74 115.533C135.387 115.533 136.656 115.934 137.548 116.734C138.439 117.535 138.885 118.759 138.885 120.406V127.658H136.822ZM132.879 127.794C131.987 127.794 131.202 127.643 130.522 127.341C129.857 127.039 129.343 126.623 128.981 126.094C128.618 125.551 128.437 124.939 128.437 124.259C128.437 123.609 128.588 123.02 128.89 122.491C129.207 121.962 129.714 121.539 130.409 121.222C131.119 120.905 132.071 120.746 133.264 120.746H137.072V122.31H133.355C132.267 122.31 131.534 122.491 131.156 122.854C130.779 123.216 130.59 123.654 130.59 124.168C130.59 124.757 130.824 125.233 131.292 125.596C131.761 125.943 132.411 126.117 133.242 126.117C134.057 126.117 134.768 125.936 135.372 125.573C135.991 125.211 136.437 124.682 136.709 123.987L137.14 125.483C136.853 126.193 136.346 126.759 135.621 127.182C134.896 127.59 133.982 127.794 132.879 127.794ZM149.325 115.533C150.307 115.533 151.168 115.722 151.908 116.1C152.664 116.478 153.253 117.052 153.676 117.822C154.099 118.593 154.311 119.567 154.311 120.746V127.658H152.135V120.995C152.135 119.832 151.848 118.955 151.274 118.366C150.715 117.777 149.922 117.482 148.894 117.482C148.124 117.482 147.451 117.633 146.877 117.936C146.303 118.238 145.857 118.684 145.54 119.273C145.238 119.862 145.087 120.595 145.087 121.471V127.658H142.911V115.647H144.996V118.887L144.656 118.026C145.049 117.241 145.653 116.629 146.469 116.191C147.285 115.752 148.237 115.533 149.325 115.533ZM161.782 127.794C160.785 127.794 159.833 127.658 158.926 127.386C158.035 127.114 157.332 126.782 156.819 126.389L157.725 124.667C158.239 125.014 158.873 125.309 159.629 125.551C160.384 125.792 161.155 125.913 161.941 125.913C162.953 125.913 163.678 125.77 164.116 125.483C164.57 125.195 164.796 124.795 164.796 124.281C164.796 123.904 164.66 123.609 164.388 123.397C164.116 123.186 163.754 123.027 163.3 122.922C162.862 122.816 162.371 122.725 161.827 122.65C161.283 122.559 160.739 122.453 160.196 122.332C159.652 122.196 159.153 122.015 158.7 121.788C158.246 121.547 157.884 121.222 157.612 120.814C157.34 120.391 157.204 119.832 157.204 119.137C157.204 118.412 157.408 117.777 157.816 117.233C158.224 116.689 158.798 116.274 159.538 115.987C160.294 115.684 161.185 115.533 162.213 115.533C162.998 115.533 163.791 115.632 164.592 115.828C165.408 116.009 166.073 116.274 166.587 116.621L165.657 118.344C165.113 117.981 164.547 117.732 163.958 117.596C163.368 117.46 162.779 117.392 162.19 117.392C161.238 117.392 160.528 117.55 160.06 117.868C159.591 118.17 159.357 118.563 159.357 119.046C159.357 119.454 159.493 119.771 159.765 119.998C160.052 120.21 160.415 120.376 160.853 120.497C161.306 120.617 161.805 120.723 162.349 120.814C162.892 120.889 163.436 120.995 163.98 121.131C164.524 121.252 165.015 121.426 165.453 121.652C165.907 121.879 166.269 122.196 166.541 122.604C166.828 123.012 166.972 123.556 166.972 124.236C166.972 124.961 166.76 125.588 166.337 126.117C165.914 126.646 165.317 127.061 164.547 127.364C163.776 127.651 162.855 127.794 161.782 127.794ZM176.059 127.794C175.062 127.794 174.148 127.568 173.317 127.114C172.501 126.646 171.844 125.958 171.345 125.052C170.862 124.145 170.62 123.012 170.62 121.652C170.62 120.293 170.854 119.159 171.323 118.253C171.806 117.346 172.456 116.666 173.272 116.213C174.103 115.76 175.032 115.533 176.059 115.533C177.238 115.533 178.28 115.79 179.187 116.304C180.093 116.818 180.811 117.535 181.34 118.457C181.869 119.363 182.133 120.429 182.133 121.652C182.133 122.876 181.869 123.949 181.34 124.871C180.811 125.792 180.093 126.51 179.187 127.024C178.28 127.537 177.238 127.794 176.059 127.794ZM169.691 132.055V115.647H171.776V118.887L171.64 121.675L171.867 124.463V132.055H169.691ZM175.878 125.89C176.649 125.89 177.336 125.717 177.94 125.369C178.56 125.022 179.043 124.531 179.391 123.896C179.753 123.246 179.935 122.499 179.935 121.652C179.935 120.791 179.753 120.051 179.391 119.431C179.043 118.797 178.56 118.306 177.94 117.958C177.336 117.611 176.649 117.437 175.878 117.437C175.123 117.437 174.435 117.611 173.816 117.958C173.211 118.306 172.728 118.797 172.365 119.431C172.018 120.051 171.844 120.791 171.844 121.652C171.844 122.499 172.018 123.246 172.365 123.896C172.728 124.531 173.211 125.022 173.816 125.369C174.435 125.717 175.123 125.89 175.878 125.89ZM192.485 127.658V125.12L192.371 124.644V120.315C192.371 119.394 192.1 118.684 191.556 118.185C191.027 117.671 190.226 117.414 189.153 117.414C188.443 117.414 187.748 117.535 187.068 117.777C186.388 118.004 185.814 118.313 185.346 118.706L184.439 117.074C185.059 116.576 185.799 116.198 186.66 115.941C187.537 115.669 188.451 115.533 189.403 115.533C191.049 115.533 192.319 115.934 193.21 116.734C194.101 117.535 194.547 118.759 194.547 120.406V127.658H192.485ZM188.541 127.794C187.65 127.794 186.864 127.643 186.184 127.341C185.52 127.039 185.006 126.623 184.643 126.094C184.281 125.551 184.099 124.939 184.099 124.259C184.099 123.609 184.25 123.02 184.553 122.491C184.87 121.962 185.376 121.539 186.071 121.222C186.781 120.905 187.733 120.746 188.927 120.746H192.734V122.31H189.017C187.929 122.31 187.197 122.491 186.819 122.854C186.441 123.216 186.252 123.654 186.252 124.168C186.252 124.757 186.487 125.233 186.955 125.596C187.423 125.943 188.073 126.117 188.904 126.117C189.72 126.117 190.43 125.936 191.034 125.573C191.654 125.211 192.1 124.682 192.371 123.987L192.802 125.483C192.515 126.193 192.009 126.759 191.284 127.182C190.558 127.59 189.644 127.794 188.541 127.794ZM198.573 127.658V115.647H200.658V118.91L200.455 118.094C200.787 117.263 201.346 116.629 202.132 116.191C202.917 115.752 203.884 115.533 205.033 115.533V117.641C204.942 117.626 204.851 117.618 204.761 117.618C204.685 117.618 204.609 117.618 204.534 117.618C203.371 117.618 202.449 117.966 201.769 118.661C201.089 119.356 200.749 120.361 200.749 121.675V127.658H198.573ZM212.952 127.794C211.668 127.794 210.535 127.53 209.552 127.001C208.585 126.472 207.83 125.747 207.286 124.825C206.757 123.904 206.493 122.846 206.493 121.652C206.493 120.459 206.75 119.401 207.263 118.48C207.792 117.558 208.51 116.84 209.416 116.327C210.338 115.798 211.373 115.533 212.521 115.533C213.685 115.533 214.712 115.79 215.604 116.304C216.495 116.818 217.19 117.543 217.689 118.48C218.202 119.401 218.459 120.481 218.459 121.72C218.459 121.811 218.452 121.917 218.436 122.038C218.436 122.159 218.429 122.272 218.414 122.378H208.193V120.814H217.281L216.397 121.358C216.412 120.587 216.253 119.9 215.921 119.295C215.588 118.691 215.128 118.223 214.538 117.89C213.964 117.543 213.292 117.369 212.521 117.369C211.766 117.369 211.094 117.543 210.504 117.89C209.915 118.223 209.454 118.699 209.122 119.318C208.789 119.922 208.623 120.617 208.623 121.403V121.766C208.623 122.566 208.805 123.284 209.167 123.919C209.545 124.538 210.066 125.022 210.731 125.369C211.396 125.717 212.159 125.89 213.02 125.89C213.73 125.89 214.372 125.77 214.946 125.528C215.536 125.286 216.049 124.923 216.487 124.44L217.689 125.845C217.145 126.48 216.465 126.963 215.649 127.296C214.848 127.628 213.949 127.794 212.952 127.794ZM227.894 115.533C228.876 115.533 229.737 115.722 230.478 116.1C231.233 116.478 231.822 117.052 232.245 117.822C232.668 118.593 232.88 119.567 232.88 120.746V127.658H230.704V120.995C230.704 119.832 230.417 118.955 229.843 118.366C229.284 117.777 228.491 117.482 227.463 117.482C226.693 117.482 226.02 117.633 225.446 117.936C224.872 118.238 224.426 118.684 224.109 119.273C223.807 119.862 223.656 120.595 223.656 121.471V127.658H221.48V115.647H223.565V118.887L223.225 118.026C223.618 117.241 224.223 116.629 225.038 116.191C225.854 115.752 226.806 115.533 227.894 115.533ZM242.142 127.794C240.918 127.794 239.822 127.53 238.855 127.001C237.904 126.472 237.156 125.747 236.612 124.825C236.068 123.904 235.796 122.846 235.796 121.652C235.796 120.459 236.068 119.401 236.612 118.48C237.156 117.558 237.904 116.84 238.855 116.327C239.822 115.798 240.918 115.533 242.142 115.533C243.229 115.533 244.196 115.752 245.043 116.191C245.904 116.614 246.569 117.248 247.037 118.094L245.383 119.159C244.99 118.57 244.506 118.14 243.932 117.868C243.373 117.581 242.769 117.437 242.119 117.437C241.333 117.437 240.631 117.611 240.011 117.958C239.392 118.306 238.901 118.797 238.538 119.431C238.176 120.051 237.994 120.791 237.994 121.652C237.994 122.514 238.176 123.262 238.538 123.896C238.901 124.531 239.392 125.022 240.011 125.369C240.631 125.717 241.333 125.89 242.119 125.89C242.769 125.89 243.373 125.754 243.932 125.483C244.506 125.195 244.99 124.757 245.383 124.168L247.037 125.211C246.569 126.042 245.904 126.684 245.043 127.137C244.196 127.575 243.229 127.794 242.142 127.794ZM250.22 132.191C249.646 132.191 249.087 132.093 248.543 131.896C247.999 131.715 247.531 131.443 247.138 131.08L248.067 129.449C248.369 129.736 248.702 129.955 249.064 130.106C249.427 130.257 249.812 130.332 250.22 130.332C250.749 130.332 251.187 130.197 251.535 129.925C251.882 129.653 252.207 129.169 252.509 128.474L253.257 126.82L253.484 126.548L258.198 115.647H260.328L254.503 128.859C254.156 129.705 253.763 130.37 253.325 130.854C252.902 131.337 252.434 131.677 251.92 131.874C251.406 132.085 250.84 132.191 250.22 132.191ZM253.076 128.043L247.591 115.647H249.857L254.526 126.344L253.076 128.043Z" fill="#CDCDCD"/>
<path d="M128.724 77.8683C127.688 77.8683 126.73 77.6999 125.849 77.3632C124.981 77.0136 124.224 76.5279 123.576 75.9063C122.942 75.2717 122.443 74.5335 122.08 73.6918C121.718 72.85 121.536 71.924 121.536 70.9139C121.536 69.9037 121.718 68.9778 122.08 68.136C122.443 67.2942 122.948 66.5625 123.596 65.9409C124.243 65.3063 125.001 64.8207 125.868 64.484C126.749 64.1343 127.707 63.9595 128.743 63.9595C129.792 63.9595 130.757 64.1408 131.638 64.5034C132.531 64.853 133.289 65.3775 133.911 66.0769L132.648 67.3007C132.13 66.7568 131.547 66.3553 130.9 66.0963C130.252 65.8243 129.559 65.6884 128.821 65.6884C128.057 65.6884 127.345 65.8179 126.684 66.0769C126.037 66.3359 125.473 66.6985 124.994 67.1647C124.515 67.6309 124.139 68.1878 123.868 68.8353C123.609 69.4699 123.479 70.1628 123.479 70.9139C123.479 71.665 123.609 72.3643 123.868 73.0119C124.139 73.6464 124.515 74.1968 124.994 74.663C125.473 75.1293 126.037 75.4919 126.684 75.7509C127.345 76.0099 128.057 76.1394 128.821 76.1394C129.559 76.1394 130.252 76.0099 130.9 75.7509C131.547 75.4789 132.13 75.0645 132.648 74.5076L133.911 75.7315C133.289 76.4308 132.531 76.9618 131.638 77.3244C130.757 77.687 129.786 77.8683 128.724 77.8683ZM140.383 77.8294C139.347 77.8294 138.428 77.6028 137.625 77.1495C136.822 76.6963 136.187 76.0747 135.721 75.2847C135.255 74.4817 135.022 73.5752 135.022 72.5651C135.022 71.542 135.255 70.6354 135.721 69.8455C136.187 69.0555 136.822 68.4403 137.625 68C138.428 67.5468 139.347 67.3201 140.383 67.3201C141.406 67.3201 142.319 67.5468 143.122 68C143.938 68.4403 144.573 69.0555 145.026 69.8455C145.492 70.6225 145.725 71.529 145.725 72.5651C145.725 73.5882 145.492 74.4947 145.026 75.2847C144.573 76.0747 143.938 76.6963 143.122 77.1495C142.319 77.6028 141.406 77.8294 140.383 77.8294ZM140.383 76.1977C141.044 76.1977 141.633 76.0488 142.151 75.7509C142.682 75.453 143.096 75.0321 143.394 74.4882C143.692 73.9313 143.841 73.2903 143.841 72.5651C143.841 71.8269 143.692 71.1923 143.394 70.6613C143.096 70.1174 142.682 69.6965 142.151 69.3987C141.633 69.1008 141.044 68.9519 140.383 68.9519C139.723 68.9519 139.133 69.1008 138.615 69.3987C138.097 69.6965 137.683 70.1174 137.372 70.6613C137.061 71.1923 136.906 71.8269 136.906 72.5651C136.906 73.2903 137.061 73.9313 137.372 74.4882C137.683 75.0321 138.097 75.453 138.615 75.7509C139.133 76.0488 139.723 76.1977 140.383 76.1977ZM161.184 67.3201C162.012 67.3201 162.744 67.482 163.379 67.8058C164.013 68.1295 164.505 68.6216 164.855 69.2821C165.218 69.9426 165.399 70.7779 165.399 71.788V77.7129H163.534V72.0017C163.534 71.0045 163.301 70.2534 162.835 69.7483C162.369 69.2433 161.715 68.9907 160.873 68.9907C160.251 68.9907 159.707 69.1202 159.241 69.3792C158.775 69.6383 158.412 70.0203 158.153 70.5254C157.907 71.0304 157.784 71.6585 157.784 72.4097V77.7129H155.919V72.0017C155.919 71.0045 155.686 70.2534 155.22 69.7483C154.767 69.2433 154.113 68.9907 153.258 68.9907C152.649 68.9907 152.112 69.1202 151.646 69.3792C151.179 69.6383 150.817 70.0203 150.558 70.5254C150.299 71.0304 150.169 71.6585 150.169 72.4097V77.7129H148.304V67.4172H150.092V70.1563L149.8 69.4569C150.124 68.7835 150.622 68.259 151.296 67.8835C151.969 67.5079 152.753 67.3201 153.646 67.3201C154.631 67.3201 155.479 67.5662 156.191 68.0583C156.903 68.5375 157.37 69.2692 157.59 70.2534L156.832 69.9426C157.143 69.1526 157.687 68.518 158.464 68.0389C159.241 67.5597 160.148 67.3201 161.184 67.3201ZM174.289 77.8294C173.434 77.8294 172.651 77.6352 171.939 77.2467C171.239 76.8452 170.676 76.256 170.248 75.4789C169.834 74.7019 169.627 73.7306 169.627 72.5651C169.627 71.3995 169.828 70.4282 170.229 69.6512C170.643 68.8742 171.2 68.2914 171.9 67.9029C172.612 67.5144 173.408 67.3201 174.289 67.3201C175.299 67.3201 176.193 67.5403 176.97 67.9806C177.747 68.4209 178.362 69.0361 178.815 69.826C179.268 70.6031 179.495 71.5161 179.495 72.5651C179.495 73.6141 179.268 74.5335 178.815 75.3235C178.362 76.1135 177.747 76.7287 176.97 77.169C176.193 77.6093 175.299 77.8294 174.289 77.8294ZM168.83 81.4815V67.4172H170.618V70.1951L170.501 72.5845L170.695 74.9739V81.4815H168.83ZM174.134 76.1977C174.794 76.1977 175.383 76.0488 175.901 75.7509C176.432 75.453 176.847 75.0321 177.145 74.4882C177.455 73.9313 177.611 73.2903 177.611 72.5651C177.611 71.8269 177.455 71.1923 177.145 70.6613C176.847 70.1174 176.432 69.6965 175.901 69.3987C175.383 69.1008 174.794 68.9519 174.134 68.9519C173.486 68.9519 172.897 69.1008 172.366 69.3987C171.848 69.6965 171.433 70.1174 171.123 70.6613C170.825 71.1923 170.676 71.8269 170.676 72.5651C170.676 73.2903 170.825 73.9313 171.123 74.4882C171.433 75.0321 171.848 75.453 172.366 75.7509C172.897 76.0488 173.486 76.1977 174.134 76.1977ZM182.072 77.7129V63.299H183.937V77.7129H182.072ZM187.497 77.7129V67.4172H189.362V77.7129H187.497ZM188.43 65.4358C188.067 65.4358 187.763 65.3193 187.517 65.0862C187.284 64.853 187.167 64.5681 187.167 64.2314C187.167 63.8818 187.284 63.5904 187.517 63.3573C187.763 63.1242 188.067 63.0076 188.43 63.0076C188.792 63.0076 189.09 63.1242 189.323 63.3573C189.569 63.5774 189.692 63.8559 189.692 64.1926C189.692 64.5422 189.576 64.8401 189.343 65.0862C189.11 65.3193 188.805 65.4358 188.43 65.4358ZM199.314 77.7129V75.5372L199.217 75.1293V71.4189C199.217 70.629 198.984 70.0203 198.517 69.5929C198.064 69.1526 197.378 68.9325 196.458 68.9325C195.85 68.9325 195.254 69.0361 194.671 69.2433C194.088 69.4375 193.596 69.703 193.195 70.0397L192.418 68.6411C192.949 68.2137 193.583 67.8899 194.322 67.6698C195.073 67.4367 195.856 67.3201 196.672 67.3201C198.084 67.3201 199.171 67.6633 199.936 68.3497C200.7 69.0361 201.082 70.085 201.082 71.4967V77.7129H199.314ZM195.934 77.8294C195.17 77.8294 194.496 77.6999 193.914 77.4409C193.344 77.1819 192.903 76.8258 192.593 76.3725C192.282 75.9063 192.126 75.3818 192.126 74.799C192.126 74.2422 192.256 73.7371 192.515 73.2838C192.787 72.8306 193.221 72.4679 193.816 72.196C194.425 71.924 195.241 71.788 196.264 71.788H199.528V73.1284H196.342C195.409 73.1284 194.781 73.2838 194.457 73.5946C194.134 73.9054 193.972 74.281 193.972 74.7213C193.972 75.2264 194.173 75.6343 194.574 75.9451C194.976 76.243 195.532 76.3919 196.245 76.3919C196.944 76.3919 197.553 76.2365 198.071 75.9257C198.602 75.6149 198.984 75.1616 199.217 74.5659L199.586 75.848C199.34 76.4567 198.906 76.9423 198.284 77.3049C197.663 77.6546 196.879 77.8294 195.934 77.8294ZM210.03 67.3201C210.872 67.3201 211.61 67.482 212.245 67.8058C212.892 68.1295 213.397 68.6216 213.76 69.2821C214.123 69.9426 214.304 70.7779 214.304 71.788V77.7129H212.439V72.0017C212.439 71.0045 212.193 70.2534 211.701 69.7483C211.222 69.2433 210.542 68.9907 209.661 68.9907C209.001 68.9907 208.424 69.1202 207.932 69.3792C207.44 69.6383 207.058 70.0203 206.786 70.5254C206.527 71.0304 206.398 71.6585 206.398 72.4097V77.7129H204.533V67.4172H206.32V70.1951L206.029 69.4569C206.365 68.7835 206.883 68.259 207.583 67.8835C208.282 67.5079 209.098 67.3201 210.03 67.3201ZM222.243 77.8294C221.194 77.8294 220.255 77.6028 219.426 77.1495C218.61 76.6963 217.969 76.0747 217.503 75.2847C217.036 74.4947 216.803 73.5882 216.803 72.5651C216.803 71.542 217.036 70.6354 217.503 69.8455C217.969 69.0555 218.61 68.4403 219.426 68C220.255 67.5468 221.194 67.3201 222.243 67.3201C223.175 67.3201 224.004 67.5079 224.729 67.8835C225.467 68.2461 226.037 68.79 226.438 69.5152L225.02 70.4282C224.684 69.9232 224.269 69.5541 223.777 69.321C223.298 69.0749 222.78 68.9519 222.223 68.9519C221.55 68.9519 220.947 69.1008 220.417 69.3987C219.886 69.6965 219.465 70.1174 219.154 70.6613C218.843 71.1923 218.688 71.8269 218.688 72.5651C218.688 73.3032 218.843 73.9443 219.154 74.4882C219.465 75.0321 219.886 75.453 220.417 75.7509C220.947 76.0488 221.55 76.1977 222.223 76.1977C222.78 76.1977 223.298 76.0811 223.777 75.848C224.269 75.602 224.684 75.2264 225.02 74.7213L226.438 75.6149C226.037 76.3272 225.467 76.8776 224.729 77.2661C224.004 77.6417 223.175 77.8294 222.243 77.8294ZM233.286 77.8294C232.185 77.8294 231.214 77.6028 230.372 77.1495C229.543 76.6963 228.895 76.0747 228.429 75.2847C227.976 74.4947 227.749 73.5882 227.749 72.5651C227.749 71.542 227.969 70.6354 228.41 69.8455C228.863 69.0555 229.478 68.4403 230.255 68C231.045 67.5468 231.932 67.3201 232.917 67.3201C233.914 67.3201 234.794 67.5403 235.558 67.9806C236.322 68.4209 236.918 69.0425 237.346 69.8455C237.786 70.6354 238.006 71.5614 238.006 72.6233C238.006 72.701 238 72.7917 237.987 72.8953C237.987 72.9989 237.98 73.096 237.967 73.1867H229.206V71.8463H236.996L236.238 72.3125C236.251 71.6521 236.115 71.0628 235.83 70.5448C235.545 70.0268 235.15 69.6253 234.645 69.3404C234.153 69.0425 233.577 68.8936 232.917 68.8936C232.269 68.8936 231.693 69.0425 231.188 69.3404C230.683 69.6253 230.288 70.0332 230.003 70.5642C229.718 71.0822 229.575 71.678 229.575 72.3514V72.6622C229.575 73.3486 229.731 73.9637 230.042 74.5076C230.365 75.0386 230.812 75.453 231.382 75.7509C231.952 76.0488 232.606 76.1977 233.344 76.1977C233.953 76.1977 234.503 76.0941 234.995 75.8869C235.5 75.6797 235.94 75.3689 236.316 74.9544L237.346 76.1588C236.879 76.7028 236.297 77.1172 235.597 77.4021C234.911 77.687 234.14 77.8294 233.286 77.8294Z" fill="#CDCDCD"/>
<defs>
<filter id="filter0_d_229_2054" x="0.811867" y="102.421" width="359.376" height="157.025" filterUnits="userSpaceOnUse" color-interpolation-filters="sRGB">
<feFlood flood-opacity="0" result="BackgroundImageFix"/>
<feColorMatrix in="SourceAlpha" type="matrix" values="0 0 0 0 0 0 0 0 0 0 0 0 0 0 0 0 0 0 127 0" result="hardAlpha"/>
<feMorphology radius="8.09406" operator="dilate" in="SourceAlpha" result="effect1_dropShadow_229_2054"/>
<feOffset/>
<feGaussianBlur stdDeviation="20.2351"/>
<feComposite in2="hardAlpha" operator="out"/>
<feColorMatrix type="matrix" values="0 0 0 0 0 0 0 0 0 0 0 0 0 0 0 0 0 0 0.05 0"/>
<feBlend mode="normal" in2="BackgroundImageFix" result="effect1_dropShadow_229_2054"/>
<feBlend mode="normal" in="SourceGraphic" in2="effect1_dropShadow_229_2054" result="shape"/>
</filter>
<filter id="filter1_d_229_2054" x="36.4258" y="44.1437" width="288.148" height="155.406" filterUnits="userSpaceOnUse" color-interpolation-filters="sRGB">
<feFlood flood-opacity="0" result="BackgroundImageFix"/>
<feColorMatrix in="SourceAlpha" type="matrix" values="0 0 0 0 0 0 0 0 0 0 0 0 0 0 0 0 0 0 127 0" result="hardAlpha"/>
<feMorphology radius="8.09406" operator="dilate" in="SourceAlpha" result="effect1_dropShadow_229_2054"/>
<feOffset/>
<feGaussianBlur stdDeviation="20.2351"/>
<feComposite in2="hardAlpha" operator="out"/>
<feColorMatrix type="matrix" values="0 0 0 0 0 0 0 0 0 0 0 0 0 0 0 0 0 0 0.05 0"/>
<feBlend mode="normal" in2="BackgroundImageFix" result="effect1_dropShadow_229_2054"/>
<feBlend mode="normal" in="SourceGraphic" in2="effect1_dropShadow_229_2054" result="shape"/>
</filter>
<filter id="filter2_d_229_2054" x="60.7079" y="0.435646" width="239.584" height="140.837" filterUnits="userSpaceOnUse" color-interpolation-filters="sRGB">
<feFlood flood-opacity="0" result="BackgroundImageFix"/>
<feColorMatrix in="SourceAlpha" type="matrix" values="0 0 0 0 0 0 0 0 0 0 0 0 0 0 0 0 0 0 127 0" result="hardAlpha"/>
<feMorphology radius="8.09406" operator="dilate" in="SourceAlpha" result="effect1_dropShadow_229_2054"/>
<feOffset/>
<feGaussianBlur stdDeviation="20.2351"/>
<feComposite in2="hardAlpha" operator="out"/>
<feColorMatrix type="matrix" values="0 0 0 0 0 0 0 0 0 0 0 0 0 0 0 0 0 0 0.05 0"/>
<feBlend mode="normal" in2="BackgroundImageFix" result="effect1_dropShadow_229_2054"/>
<feBlend mode="normal" in="SourceGraphic" in2="effect1_dropShadow_229_2054" result="shape"/>
</filter>
</defs>
</svg>
