<svg width="225" height="52" viewBox="0 0 225 52" fill="none" xmlns="http://www.w3.org/2000/svg">
<rect width="225" height="52" fill="#CDCDCD" fill-opacity="0.4"/>
<path d="M123 19.25V25.25C123 25.4489 122.921 25.6397 122.781 25.7803C122.64 25.921 122.449 26 122.25 26C122.052 26 121.861 25.921 121.72 25.7803C121.579 25.6397 121.5 25.4489 121.5 25.25V21.0603L113.781 28.7806C113.711 28.8504 113.629 28.9057 113.538 28.9434C113.447 28.9812 113.349 29.0006 113.25 29.0006C113.152 29.0006 113.054 28.9812 112.963 28.9434C112.872 28.9057 112.789 28.8504 112.72 28.7806L109.5 25.5603L103.281 31.7806C103.14 31.9214 102.949 32.0004 102.75 32.0004C102.551 32.0004 102.361 31.9214 102.22 31.7806C102.079 31.6399 102 31.449 102 31.25C102 31.051 102.079 30.8601 102.22 30.7194L108.97 23.9694C109.039 23.8996 109.122 23.8443 109.213 23.8066C109.304 23.7688 109.402 23.7494 109.5 23.7494C109.599 23.7494 109.697 23.7688 109.788 23.8066C109.879 23.8443 109.961 23.8996 110.031 23.9694L113.25 27.1897L120.44 20H116.25C116.052 20 115.861 19.921 115.72 19.7803C115.579 19.6397 115.5 19.4489 115.5 19.25C115.5 19.0511 115.579 18.8603 115.72 18.7197C115.861 18.579 116.052 18.5 116.25 18.5H122.25C122.449 18.5 122.64 18.579 122.781 18.7197C122.921 18.8603 123 19.0511 123 19.25Z" fill="black"/>
</svg>
