<svg width="1440" height="143" viewBox="0 0 1440 143" fill="none" xmlns="http://www.w3.org/2000/svg">
<mask id="mask0_317_2479" style="mask-type:alpha" maskUnits="userSpaceOnUse" x="0" y="-7" width="1440" height="150">
<rect y="-7" width="1440" height="150" fill="url(#paint0_linear_317_2479)"/>
</mask>
<g mask="url(#mask0_317_2479)">
<line x1="-18.6464" y1="-23.3536" x2="12.4663" y2="7.75914" stroke="#E0B84D"/>
<line x1="104.354" y1="-23.3536" x2="135.466" y2="7.75914" stroke="#E0B84D"/>
<line x1="227.354" y1="-23.3536" x2="258.466" y2="7.75914" stroke="#E0B84D"/>
<line x1="350.354" y1="-23.3536" x2="381.466" y2="7.75914" stroke="#E0B84D"/>
<line x1="473.354" y1="-23.3536" x2="504.466" y2="7.75914" stroke="#E0B84D"/>
<line x1="596.354" y1="-23.3536" x2="627.466" y2="7.75914" stroke="#E0B84D"/>
<line x1="719.354" y1="-23.3536" x2="750.466" y2="7.75914" stroke="#E0B84D"/>
<line x1="842.354" y1="-23.3536" x2="873.466" y2="7.75914" stroke="#E0B84D"/>
<line x1="965.354" y1="-23.3536" x2="996.466" y2="7.75914" stroke="#E0B84D"/>
<line x1="1088.35" y1="-23.3536" x2="1119.47" y2="7.75914" stroke="#E0B84D"/>
<line x1="1211.35" y1="-23.3536" x2="1242.47" y2="7.75914" stroke="#E0B84D"/>
<line x1="1334.35" y1="-23.3536" x2="1365.47" y2="7.75914" stroke="#E0B84D"/>
<line y1="-0.5" x2="44" y2="-0.5" transform="matrix(-0.707107 0.707107 0.707107 0.707107 43.6705 -22.4404)" stroke="#E0B84D"/>
<line y1="-0.5" x2="44" y2="-0.5" transform="matrix(-0.707107 0.707107 0.707107 0.707107 166.671 -22.4404)" stroke="#E0B84D"/>
<line y1="-0.5" x2="44" y2="-0.5" transform="matrix(-0.707107 0.707107 0.707107 0.707107 289.671 -22.4404)" stroke="#E0B84D"/>
<line y1="-0.5" x2="44" y2="-0.5" transform="matrix(-0.707107 0.707107 0.707107 0.707107 412.671 -22.4404)" stroke="#E0B84D"/>
<line y1="-0.5" x2="44" y2="-0.5" transform="matrix(-0.707107 0.707107 0.707107 0.707107 535.671 -22.4404)" stroke="#E0B84D"/>
<line y1="-0.5" x2="44" y2="-0.5" transform="matrix(-0.707107 0.707107 0.707107 0.707107 658.671 -22.4404)" stroke="#E0B84D"/>
<line y1="-0.5" x2="44" y2="-0.5" transform="matrix(-0.707107 0.707107 0.707107 0.707107 781.671 -22.4404)" stroke="#E0B84D"/>
<line y1="-0.5" x2="44" y2="-0.5" transform="matrix(-0.707107 0.707107 0.707107 0.707107 904.671 -22.4404)" stroke="#E0B84D"/>
<line y1="-0.5" x2="44" y2="-0.5" transform="matrix(-0.707107 0.707107 0.707107 0.707107 1027.67 -22.4404)" stroke="#E0B84D"/>
<line y1="-0.5" x2="44" y2="-0.5" transform="matrix(-0.707107 0.707107 0.707107 0.707107 1150.67 -22.4404)" stroke="#E0B84D"/>
<line y1="-0.5" x2="44" y2="-0.5" transform="matrix(-0.707107 0.707107 0.707107 0.707107 1273.67 -22.4404)" stroke="#E0B84D"/>
<line y1="-0.5" x2="44" y2="-0.5" transform="matrix(-0.707107 0.707107 0.707107 0.707107 1396.67 -22.4404)" stroke="#E0B84D"/>
<line x1="42.9114" y1="-23.3536" x2="74.0241" y2="7.75914" stroke="#E0B84D"/>
<line x1="165.911" y1="-23.3536" x2="197.024" y2="7.75914" stroke="#E0B84D"/>
<line x1="288.911" y1="-23.3536" x2="320.024" y2="7.75914" stroke="#E0B84D"/>
<line x1="411.911" y1="-23.3536" x2="443.024" y2="7.75914" stroke="#E0B84D"/>
<line x1="534.911" y1="-23.3536" x2="566.024" y2="7.75914" stroke="#E0B84D"/>
<line x1="657.911" y1="-23.3536" x2="689.024" y2="7.75914" stroke="#E0B84D"/>
<line x1="780.911" y1="-23.3536" x2="812.024" y2="7.75914" stroke="#E0B84D"/>
<line x1="903.911" y1="-23.3536" x2="935.024" y2="7.75914" stroke="#E0B84D"/>
<line x1="1026.91" y1="-23.3536" x2="1058.02" y2="7.75914" stroke="#E0B84D"/>
<line x1="1149.91" y1="-23.3536" x2="1181.02" y2="7.75914" stroke="#E0B84D"/>
<line x1="1272.91" y1="-23.3536" x2="1304.02" y2="7.75914" stroke="#E0B84D"/>
<line x1="1395.91" y1="-23.3536" x2="1427.02" y2="7.75914" stroke="#E0B84D"/>
<line y1="-0.5" x2="44" y2="-0.5" transform="matrix(-0.707107 0.707107 0.707107 0.707107 105.228 -22.4404)" stroke="#E0B84D"/>
<line y1="-0.5" x2="44" y2="-0.5" transform="matrix(-0.707107 0.707107 0.707107 0.707107 228.228 -22.4404)" stroke="#E0B84D"/>
<line y1="-0.5" x2="44" y2="-0.5" transform="matrix(-0.707107 0.707107 0.707107 0.707107 351.228 -22.4404)" stroke="#E0B84D"/>
<line y1="-0.5" x2="44" y2="-0.5" transform="matrix(-0.707107 0.707107 0.707107 0.707107 474.228 -22.4404)" stroke="#E0B84D"/>
<line y1="-0.5" x2="44" y2="-0.5" transform="matrix(-0.707107 0.707107 0.707107 0.707107 597.228 -22.4404)" stroke="#E0B84D"/>
<line y1="-0.5" x2="44" y2="-0.5" transform="matrix(-0.707107 0.707107 0.707107 0.707107 720.228 -22.4404)" stroke="#E0B84D"/>
<line y1="-0.5" x2="44" y2="-0.5" transform="matrix(-0.707107 0.707107 0.707107 0.707107 843.228 -22.4404)" stroke="#E0B84D"/>
<line y1="-0.5" x2="44" y2="-0.5" transform="matrix(-0.707107 0.707107 0.707107 0.707107 966.228 -22.4404)" stroke="#E0B84D"/>
<line y1="-0.5" x2="44" y2="-0.5" transform="matrix(-0.707107 0.707107 0.707107 0.707107 1089.23 -22.4404)" stroke="#E0B84D"/>
<line y1="-0.5" x2="44" y2="-0.5" transform="matrix(-0.707107 0.707107 0.707107 0.707107 1212.23 -22.4404)" stroke="#E0B84D"/>
<line y1="-0.5" x2="44" y2="-0.5" transform="matrix(-0.707107 0.707107 0.707107 0.707107 1335.23 -22.4404)" stroke="#E0B84D"/>
<line y1="-0.5" x2="44" y2="-0.5" transform="matrix(-0.707107 0.707107 0.707107 0.707107 1458.23 -22.4404)" stroke="#E0B84D"/>
<line x1="-18.6464" y1="-3.35355" x2="12.4663" y2="27.7591" stroke="#E0B84D"/>
<line x1="104.354" y1="-3.35355" x2="135.466" y2="27.7591" stroke="#E0B84D"/>
<line x1="227.354" y1="-3.35355" x2="258.466" y2="27.7591" stroke="#E0B84D"/>
<line x1="350.354" y1="-3.35355" x2="381.466" y2="27.7591" stroke="#E0B84D"/>
<line x1="473.354" y1="-3.35355" x2="504.466" y2="27.7591" stroke="#E0B84D"/>
<line x1="596.354" y1="-3.35355" x2="627.466" y2="27.7591" stroke="#E0B84D"/>
<line x1="719.354" y1="-3.35355" x2="750.466" y2="27.7591" stroke="#E0B84D"/>
<line x1="842.354" y1="-3.35355" x2="873.466" y2="27.7591" stroke="#E0B84D"/>
<line x1="965.354" y1="-3.35355" x2="996.466" y2="27.7591" stroke="#E0B84D"/>
<line x1="1088.35" y1="-3.35355" x2="1119.47" y2="27.7591" stroke="#E0B84D"/>
<line x1="1211.35" y1="-3.35355" x2="1242.47" y2="27.7591" stroke="#E0B84D"/>
<line x1="1334.35" y1="-3.35355" x2="1365.47" y2="27.7591" stroke="#E0B84D"/>
<line y1="-0.5" x2="44" y2="-0.5" transform="matrix(-0.707107 0.707107 0.707107 0.707107 43.6705 -2.44043)" stroke="#E0B84D"/>
<line y1="-0.5" x2="44" y2="-0.5" transform="matrix(-0.707107 0.707107 0.707107 0.707107 166.671 -2.44043)" stroke="#E0B84D"/>
<line y1="-0.5" x2="44" y2="-0.5" transform="matrix(-0.707107 0.707107 0.707107 0.707107 289.671 -2.44043)" stroke="#E0B84D"/>
<line y1="-0.5" x2="44" y2="-0.5" transform="matrix(-0.707107 0.707107 0.707107 0.707107 412.671 -2.44043)" stroke="#E0B84D"/>
<line y1="-0.5" x2="44" y2="-0.5" transform="matrix(-0.707107 0.707107 0.707107 0.707107 535.671 -2.44043)" stroke="#E0B84D"/>
<line y1="-0.5" x2="44" y2="-0.5" transform="matrix(-0.707107 0.707107 0.707107 0.707107 658.671 -2.44043)" stroke="#E0B84D"/>
<line y1="-0.5" x2="44" y2="-0.5" transform="matrix(-0.707107 0.707107 0.707107 0.707107 781.671 -2.44043)" stroke="#E0B84D"/>
<line y1="-0.5" x2="44" y2="-0.5" transform="matrix(-0.707107 0.707107 0.707107 0.707107 904.671 -2.44043)" stroke="#E0B84D"/>
<line y1="-0.5" x2="44" y2="-0.5" transform="matrix(-0.707107 0.707107 0.707107 0.707107 1027.67 -2.44043)" stroke="#E0B84D"/>
<line y1="-0.5" x2="44" y2="-0.5" transform="matrix(-0.707107 0.707107 0.707107 0.707107 1150.67 -2.44043)" stroke="#E0B84D"/>
<line y1="-0.5" x2="44" y2="-0.5" transform="matrix(-0.707107 0.707107 0.707107 0.707107 1273.67 -2.44043)" stroke="#E0B84D"/>
<line y1="-0.5" x2="44" y2="-0.5" transform="matrix(-0.707107 0.707107 0.707107 0.707107 1396.67 -2.44043)" stroke="#E0B84D"/>
<line x1="42.9114" y1="-3.35355" x2="74.0241" y2="27.7591" stroke="#E0B84D"/>
<line x1="165.911" y1="-3.35355" x2="197.024" y2="27.7591" stroke="#E0B84D"/>
<line x1="288.911" y1="-3.35355" x2="320.024" y2="27.7591" stroke="#E0B84D"/>
<line x1="411.911" y1="-3.35355" x2="443.024" y2="27.7591" stroke="#E0B84D"/>
<line x1="534.911" y1="-3.35355" x2="566.024" y2="27.7591" stroke="#E0B84D"/>
<line x1="657.911" y1="-3.35355" x2="689.024" y2="27.7591" stroke="#E0B84D"/>
<line x1="780.911" y1="-3.35355" x2="812.024" y2="27.7591" stroke="#E0B84D"/>
<line x1="903.911" y1="-3.35355" x2="935.024" y2="27.7591" stroke="#E0B84D"/>
<line x1="1026.91" y1="-3.35355" x2="1058.02" y2="27.7591" stroke="#E0B84D"/>
<line x1="1149.91" y1="-3.35355" x2="1181.02" y2="27.7591" stroke="#E0B84D"/>
<line x1="1272.91" y1="-3.35355" x2="1304.02" y2="27.7591" stroke="#E0B84D"/>
<line x1="1395.91" y1="-3.35355" x2="1427.02" y2="27.7591" stroke="#E0B84D"/>
<line y1="-0.5" x2="44" y2="-0.5" transform="matrix(-0.707107 0.707107 0.707107 0.707107 105.228 -2.44043)" stroke="#E0B84D"/>
<line y1="-0.5" x2="44" y2="-0.5" transform="matrix(-0.707107 0.707107 0.707107 0.707107 228.228 -2.44043)" stroke="#E0B84D"/>
<line y1="-0.5" x2="44" y2="-0.5" transform="matrix(-0.707107 0.707107 0.707107 0.707107 351.228 -2.44043)" stroke="#E0B84D"/>
<line y1="-0.5" x2="44" y2="-0.5" transform="matrix(-0.707107 0.707107 0.707107 0.707107 474.228 -2.44043)" stroke="#E0B84D"/>
<line y1="-0.5" x2="44" y2="-0.5" transform="matrix(-0.707107 0.707107 0.707107 0.707107 597.228 -2.44043)" stroke="#E0B84D"/>
<line y1="-0.5" x2="44" y2="-0.5" transform="matrix(-0.707107 0.707107 0.707107 0.707107 720.228 -2.44043)" stroke="#E0B84D"/>
<line y1="-0.5" x2="44" y2="-0.5" transform="matrix(-0.707107 0.707107 0.707107 0.707107 843.228 -2.44043)" stroke="#E0B84D"/>
<line y1="-0.5" x2="44" y2="-0.5" transform="matrix(-0.707107 0.707107 0.707107 0.707107 966.228 -2.44043)" stroke="#E0B84D"/>
<line y1="-0.5" x2="44" y2="-0.5" transform="matrix(-0.707107 0.707107 0.707107 0.707107 1089.23 -2.44043)" stroke="#E0B84D"/>
<line y1="-0.5" x2="44" y2="-0.5" transform="matrix(-0.707107 0.707107 0.707107 0.707107 1212.23 -2.44043)" stroke="#E0B84D"/>
<line y1="-0.5" x2="44" y2="-0.5" transform="matrix(-0.707107 0.707107 0.707107 0.707107 1335.23 -2.44043)" stroke="#E0B84D"/>
<line y1="-0.5" x2="44" y2="-0.5" transform="matrix(-0.707107 0.707107 0.707107 0.707107 1458.23 -2.44043)" stroke="#E0B84D"/>
<line x1="-18.6464" y1="16.6464" x2="12.4663" y2="47.7591" stroke="#E0B84D"/>
<line x1="104.354" y1="16.6464" x2="135.466" y2="47.7591" stroke="#E0B84D"/>
<line x1="227.354" y1="16.6464" x2="258.466" y2="47.7591" stroke="#E0B84D"/>
<line x1="350.354" y1="16.6464" x2="381.466" y2="47.7591" stroke="#E0B84D"/>
<line x1="473.354" y1="16.6464" x2="504.466" y2="47.7591" stroke="#E0B84D"/>
<line x1="596.354" y1="16.6464" x2="627.466" y2="47.7591" stroke="#E0B84D"/>
<line x1="719.354" y1="16.6464" x2="750.466" y2="47.7591" stroke="#E0B84D"/>
<line x1="842.354" y1="16.6464" x2="873.466" y2="47.7591" stroke="#E0B84D"/>
<line x1="965.354" y1="16.6464" x2="996.466" y2="47.7591" stroke="#E0B84D"/>
<line x1="1088.35" y1="16.6464" x2="1119.47" y2="47.7591" stroke="#E0B84D"/>
<line x1="1211.35" y1="16.6464" x2="1242.47" y2="47.7591" stroke="#E0B84D"/>
<line x1="1334.35" y1="16.6464" x2="1365.47" y2="47.7591" stroke="#E0B84D"/>
<line y1="-0.5" x2="44" y2="-0.5" transform="matrix(-0.707107 0.707107 0.707107 0.707107 43.6705 17.5596)" stroke="#E0B84D"/>
<line y1="-0.5" x2="44" y2="-0.5" transform="matrix(-0.707107 0.707107 0.707107 0.707107 166.671 17.5596)" stroke="#E0B84D"/>
<line y1="-0.5" x2="44" y2="-0.5" transform="matrix(-0.707107 0.707107 0.707107 0.707107 289.671 17.5596)" stroke="#E0B84D"/>
<line y1="-0.5" x2="44" y2="-0.5" transform="matrix(-0.707107 0.707107 0.707107 0.707107 412.671 17.5596)" stroke="#E0B84D"/>
<line y1="-0.5" x2="44" y2="-0.5" transform="matrix(-0.707107 0.707107 0.707107 0.707107 535.671 17.5596)" stroke="#E0B84D"/>
<line y1="-0.5" x2="44" y2="-0.5" transform="matrix(-0.707107 0.707107 0.707107 0.707107 658.671 17.5596)" stroke="#E0B84D"/>
<line y1="-0.5" x2="44" y2="-0.5" transform="matrix(-0.707107 0.707107 0.707107 0.707107 781.671 17.5596)" stroke="#E0B84D"/>
<line y1="-0.5" x2="44" y2="-0.5" transform="matrix(-0.707107 0.707107 0.707107 0.707107 904.671 17.5596)" stroke="#E0B84D"/>
<line y1="-0.5" x2="44" y2="-0.5" transform="matrix(-0.707107 0.707107 0.707107 0.707107 1027.67 17.5596)" stroke="#E0B84D"/>
<line y1="-0.5" x2="44" y2="-0.5" transform="matrix(-0.707107 0.707107 0.707107 0.707107 1150.67 17.5596)" stroke="#E0B84D"/>
<line y1="-0.5" x2="44" y2="-0.5" transform="matrix(-0.707107 0.707107 0.707107 0.707107 1273.67 17.5596)" stroke="#E0B84D"/>
<line y1="-0.5" x2="44" y2="-0.5" transform="matrix(-0.707107 0.707107 0.707107 0.707107 1396.67 17.5596)" stroke="#E0B84D"/>
<line x1="42.9114" y1="16.6464" x2="74.0241" y2="47.7591" stroke="#E0B84D"/>
<line x1="165.911" y1="16.6464" x2="197.024" y2="47.7591" stroke="#E0B84D"/>
<line x1="288.911" y1="16.6464" x2="320.024" y2="47.7591" stroke="#E0B84D"/>
<line x1="411.911" y1="16.6464" x2="443.024" y2="47.7591" stroke="#E0B84D"/>
<line x1="534.911" y1="16.6464" x2="566.024" y2="47.7591" stroke="#E0B84D"/>
<line x1="657.911" y1="16.6464" x2="689.024" y2="47.7591" stroke="#E0B84D"/>
<line x1="780.911" y1="16.6464" x2="812.024" y2="47.7591" stroke="#E0B84D"/>
<line x1="903.911" y1="16.6464" x2="935.024" y2="47.7591" stroke="#E0B84D"/>
<line x1="1026.91" y1="16.6464" x2="1058.02" y2="47.7591" stroke="#E0B84D"/>
<line x1="1149.91" y1="16.6464" x2="1181.02" y2="47.7591" stroke="#E0B84D"/>
<line x1="1272.91" y1="16.6464" x2="1304.02" y2="47.7591" stroke="#E0B84D"/>
<line x1="1395.91" y1="16.6464" x2="1427.02" y2="47.7591" stroke="#E0B84D"/>
<line y1="-0.5" x2="44" y2="-0.5" transform="matrix(-0.707107 0.707107 0.707107 0.707107 105.228 17.5596)" stroke="#E0B84D"/>
<line y1="-0.5" x2="44" y2="-0.5" transform="matrix(-0.707107 0.707107 0.707107 0.707107 228.228 17.5596)" stroke="#E0B84D"/>
<line y1="-0.5" x2="44" y2="-0.5" transform="matrix(-0.707107 0.707107 0.707107 0.707107 351.228 17.5596)" stroke="#E0B84D"/>
<line y1="-0.5" x2="44" y2="-0.5" transform="matrix(-0.707107 0.707107 0.707107 0.707107 474.228 17.5596)" stroke="#E0B84D"/>
<line y1="-0.5" x2="44" y2="-0.5" transform="matrix(-0.707107 0.707107 0.707107 0.707107 597.228 17.5596)" stroke="#E0B84D"/>
<line y1="-0.5" x2="44" y2="-0.5" transform="matrix(-0.707107 0.707107 0.707107 0.707107 720.228 17.5596)" stroke="#E0B84D"/>
<line y1="-0.5" x2="44" y2="-0.5" transform="matrix(-0.707107 0.707107 0.707107 0.707107 843.228 17.5596)" stroke="#E0B84D"/>
<line y1="-0.5" x2="44" y2="-0.5" transform="matrix(-0.707107 0.707107 0.707107 0.707107 966.228 17.5596)" stroke="#E0B84D"/>
<line y1="-0.5" x2="44" y2="-0.5" transform="matrix(-0.707107 0.707107 0.707107 0.707107 1089.23 17.5596)" stroke="#E0B84D"/>
<line y1="-0.5" x2="44" y2="-0.5" transform="matrix(-0.707107 0.707107 0.707107 0.707107 1212.23 17.5596)" stroke="#E0B84D"/>
<line y1="-0.5" x2="44" y2="-0.5" transform="matrix(-0.707107 0.707107 0.707107 0.707107 1335.23 17.5596)" stroke="#E0B84D"/>
<line y1="-0.5" x2="44" y2="-0.5" transform="matrix(-0.707107 0.707107 0.707107 0.707107 1458.23 17.5596)" stroke="#E0B84D"/>
<line x1="-18.6464" y1="36.6464" x2="12.4663" y2="67.7591" stroke="#E0B84D"/>
<line x1="104.354" y1="36.6464" x2="135.466" y2="67.7591" stroke="#E0B84D"/>
<line x1="227.354" y1="36.6464" x2="258.466" y2="67.7591" stroke="#E0B84D"/>
<line x1="350.354" y1="36.6464" x2="381.466" y2="67.7591" stroke="#E0B84D"/>
<line x1="473.354" y1="36.6464" x2="504.466" y2="67.7591" stroke="#E0B84D"/>
<line x1="596.354" y1="36.6464" x2="627.466" y2="67.7591" stroke="#E0B84D"/>
<line x1="719.354" y1="36.6464" x2="750.466" y2="67.7591" stroke="#E0B84D"/>
<line x1="842.354" y1="36.6464" x2="873.466" y2="67.7591" stroke="#E0B84D"/>
<line x1="965.354" y1="36.6464" x2="996.466" y2="67.7591" stroke="#E0B84D"/>
<line x1="1088.35" y1="36.6464" x2="1119.47" y2="67.7591" stroke="#E0B84D"/>
<line x1="1211.35" y1="36.6464" x2="1242.47" y2="67.7591" stroke="#E0B84D"/>
<line x1="1334.35" y1="36.6464" x2="1365.47" y2="67.7591" stroke="#E0B84D"/>
<line y1="-0.5" x2="44" y2="-0.5" transform="matrix(-0.707107 0.707107 0.707107 0.707107 43.6705 37.5596)" stroke="#E0B84D"/>
<line y1="-0.5" x2="44" y2="-0.5" transform="matrix(-0.707107 0.707107 0.707107 0.707107 166.671 37.5596)" stroke="#E0B84D"/>
<line y1="-0.5" x2="44" y2="-0.5" transform="matrix(-0.707107 0.707107 0.707107 0.707107 289.671 37.5596)" stroke="#E0B84D"/>
<line y1="-0.5" x2="44" y2="-0.5" transform="matrix(-0.707107 0.707107 0.707107 0.707107 412.671 37.5596)" stroke="#E0B84D"/>
<line y1="-0.5" x2="44" y2="-0.5" transform="matrix(-0.707107 0.707107 0.707107 0.707107 535.671 37.5596)" stroke="#E0B84D"/>
<line y1="-0.5" x2="44" y2="-0.5" transform="matrix(-0.707107 0.707107 0.707107 0.707107 658.671 37.5596)" stroke="#E0B84D"/>
<line y1="-0.5" x2="44" y2="-0.5" transform="matrix(-0.707107 0.707107 0.707107 0.707107 781.671 37.5596)" stroke="#E0B84D"/>
<line y1="-0.5" x2="44" y2="-0.5" transform="matrix(-0.707107 0.707107 0.707107 0.707107 904.671 37.5596)" stroke="#E0B84D"/>
<line y1="-0.5" x2="44" y2="-0.5" transform="matrix(-0.707107 0.707107 0.707107 0.707107 1027.67 37.5596)" stroke="#E0B84D"/>
<line y1="-0.5" x2="44" y2="-0.5" transform="matrix(-0.707107 0.707107 0.707107 0.707107 1150.67 37.5596)" stroke="#E0B84D"/>
<line y1="-0.5" x2="44" y2="-0.5" transform="matrix(-0.707107 0.707107 0.707107 0.707107 1273.67 37.5596)" stroke="#E0B84D"/>
<line y1="-0.5" x2="44" y2="-0.5" transform="matrix(-0.707107 0.707107 0.707107 0.707107 1396.67 37.5596)" stroke="#E0B84D"/>
<line x1="42.9114" y1="36.6464" x2="74.0241" y2="67.7591" stroke="#E0B84D"/>
<line x1="165.911" y1="36.6464" x2="197.024" y2="67.7591" stroke="#E0B84D"/>
<line x1="288.911" y1="36.6464" x2="320.024" y2="67.7591" stroke="#E0B84D"/>
<line x1="411.911" y1="36.6464" x2="443.024" y2="67.7591" stroke="#E0B84D"/>
<line x1="534.911" y1="36.6464" x2="566.024" y2="67.7591" stroke="#E0B84D"/>
<line x1="657.911" y1="36.6464" x2="689.024" y2="67.7591" stroke="#E0B84D"/>
<line x1="780.911" y1="36.6464" x2="812.024" y2="67.7591" stroke="#E0B84D"/>
<line x1="903.911" y1="36.6464" x2="935.024" y2="67.7591" stroke="#E0B84D"/>
<line x1="1026.91" y1="36.6464" x2="1058.02" y2="67.7591" stroke="#E0B84D"/>
<line x1="1149.91" y1="36.6464" x2="1181.02" y2="67.7591" stroke="#E0B84D"/>
<line x1="1272.91" y1="36.6464" x2="1304.02" y2="67.7591" stroke="#E0B84D"/>
<line x1="1395.91" y1="36.6464" x2="1427.02" y2="67.7591" stroke="#E0B84D"/>
<line y1="-0.5" x2="44" y2="-0.5" transform="matrix(-0.707107 0.707107 0.707107 0.707107 105.228 37.5596)" stroke="#E0B84D"/>
<line y1="-0.5" x2="44" y2="-0.5" transform="matrix(-0.707107 0.707107 0.707107 0.707107 228.228 37.5596)" stroke="#E0B84D"/>
<line y1="-0.5" x2="44" y2="-0.5" transform="matrix(-0.707107 0.707107 0.707107 0.707107 351.228 37.5596)" stroke="#E0B84D"/>
<line y1="-0.5" x2="44" y2="-0.5" transform="matrix(-0.707107 0.707107 0.707107 0.707107 474.228 37.5596)" stroke="#E0B84D"/>
<line y1="-0.5" x2="44" y2="-0.5" transform="matrix(-0.707107 0.707107 0.707107 0.707107 597.228 37.5596)" stroke="#E0B84D"/>
<line y1="-0.5" x2="44" y2="-0.5" transform="matrix(-0.707107 0.707107 0.707107 0.707107 720.228 37.5596)" stroke="#E0B84D"/>
<line y1="-0.5" x2="44" y2="-0.5" transform="matrix(-0.707107 0.707107 0.707107 0.707107 843.228 37.5596)" stroke="#E0B84D"/>
<line y1="-0.5" x2="44" y2="-0.5" transform="matrix(-0.707107 0.707107 0.707107 0.707107 966.228 37.5596)" stroke="#E0B84D"/>
<line y1="-0.5" x2="44" y2="-0.5" transform="matrix(-0.707107 0.707107 0.707107 0.707107 1089.23 37.5596)" stroke="#E0B84D"/>
<line y1="-0.5" x2="44" y2="-0.5" transform="matrix(-0.707107 0.707107 0.707107 0.707107 1212.23 37.5596)" stroke="#E0B84D"/>
<line y1="-0.5" x2="44" y2="-0.5" transform="matrix(-0.707107 0.707107 0.707107 0.707107 1335.23 37.5596)" stroke="#E0B84D"/>
<line y1="-0.5" x2="44" y2="-0.5" transform="matrix(-0.707107 0.707107 0.707107 0.707107 1458.23 37.5596)" stroke="#E0B84D"/>
<line x1="-18.6464" y1="56.6464" x2="12.4663" y2="87.7591" stroke="#E0B84D"/>
<line x1="104.354" y1="56.6464" x2="135.466" y2="87.7591" stroke="#E0B84D"/>
<line x1="227.354" y1="56.6464" x2="258.466" y2="87.7591" stroke="#E0B84D"/>
<line x1="350.354" y1="56.6464" x2="381.466" y2="87.7591" stroke="#E0B84D"/>
<line x1="473.354" y1="56.6464" x2="504.466" y2="87.7591" stroke="#E0B84D"/>
<line x1="596.354" y1="56.6464" x2="627.466" y2="87.7591" stroke="#E0B84D"/>
<line x1="719.354" y1="56.6464" x2="750.466" y2="87.7591" stroke="#E0B84D"/>
<line x1="842.354" y1="56.6464" x2="873.466" y2="87.7591" stroke="#E0B84D"/>
<line x1="965.354" y1="56.6464" x2="996.466" y2="87.7591" stroke="#E0B84D"/>
<line x1="1088.35" y1="56.6464" x2="1119.47" y2="87.7591" stroke="#E0B84D"/>
<line x1="1211.35" y1="56.6464" x2="1242.47" y2="87.7591" stroke="#E0B84D"/>
<line x1="1334.35" y1="56.6464" x2="1365.47" y2="87.7591" stroke="#E0B84D"/>
<line y1="-0.5" x2="44" y2="-0.5" transform="matrix(-0.707107 0.707107 0.707107 0.707107 43.6705 57.5596)" stroke="#E0B84D"/>
<line y1="-0.5" x2="44" y2="-0.5" transform="matrix(-0.707107 0.707107 0.707107 0.707107 166.671 57.5596)" stroke="#E0B84D"/>
<line y1="-0.5" x2="44" y2="-0.5" transform="matrix(-0.707107 0.707107 0.707107 0.707107 289.671 57.5596)" stroke="#E0B84D"/>
<line y1="-0.5" x2="44" y2="-0.5" transform="matrix(-0.707107 0.707107 0.707107 0.707107 412.671 57.5596)" stroke="#E0B84D"/>
<line y1="-0.5" x2="44" y2="-0.5" transform="matrix(-0.707107 0.707107 0.707107 0.707107 535.671 57.5596)" stroke="#E0B84D"/>
<line y1="-0.5" x2="44" y2="-0.5" transform="matrix(-0.707107 0.707107 0.707107 0.707107 658.671 57.5596)" stroke="#E0B84D"/>
<line y1="-0.5" x2="44" y2="-0.5" transform="matrix(-0.707107 0.707107 0.707107 0.707107 781.671 57.5596)" stroke="#E0B84D"/>
<line y1="-0.5" x2="44" y2="-0.5" transform="matrix(-0.707107 0.707107 0.707107 0.707107 904.671 57.5596)" stroke="#E0B84D"/>
<line y1="-0.5" x2="44" y2="-0.5" transform="matrix(-0.707107 0.707107 0.707107 0.707107 1027.67 57.5596)" stroke="#E0B84D"/>
<line y1="-0.5" x2="44" y2="-0.5" transform="matrix(-0.707107 0.707107 0.707107 0.707107 1150.67 57.5596)" stroke="#E0B84D"/>
<line y1="-0.5" x2="44" y2="-0.5" transform="matrix(-0.707107 0.707107 0.707107 0.707107 1273.67 57.5596)" stroke="#E0B84D"/>
<line y1="-0.5" x2="44" y2="-0.5" transform="matrix(-0.707107 0.707107 0.707107 0.707107 1396.67 57.5596)" stroke="#E0B84D"/>
<line x1="42.9114" y1="56.6464" x2="74.0241" y2="87.7591" stroke="#E0B84D"/>
<line x1="165.911" y1="56.6464" x2="197.024" y2="87.7591" stroke="#E0B84D"/>
<line x1="288.911" y1="56.6464" x2="320.024" y2="87.7591" stroke="#E0B84D"/>
<line x1="411.911" y1="56.6464" x2="443.024" y2="87.7591" stroke="#E0B84D"/>
<line x1="534.911" y1="56.6464" x2="566.024" y2="87.7591" stroke="#E0B84D"/>
<line x1="657.911" y1="56.6464" x2="689.024" y2="87.7591" stroke="#E0B84D"/>
<line x1="780.911" y1="56.6464" x2="812.024" y2="87.7591" stroke="#E0B84D"/>
<line x1="903.911" y1="56.6464" x2="935.024" y2="87.7591" stroke="#E0B84D"/>
<line x1="1026.91" y1="56.6464" x2="1058.02" y2="87.7591" stroke="#E0B84D"/>
<line x1="1149.91" y1="56.6464" x2="1181.02" y2="87.7591" stroke="#E0B84D"/>
<line x1="1272.91" y1="56.6464" x2="1304.02" y2="87.7591" stroke="#E0B84D"/>
<line x1="1395.91" y1="56.6464" x2="1427.02" y2="87.7591" stroke="#E0B84D"/>
<line y1="-0.5" x2="44" y2="-0.5" transform="matrix(-0.707107 0.707107 0.707107 0.707107 105.228 57.5596)" stroke="#E0B84D"/>
<line y1="-0.5" x2="44" y2="-0.5" transform="matrix(-0.707107 0.707107 0.707107 0.707107 228.228 57.5596)" stroke="#E0B84D"/>
<line y1="-0.5" x2="44" y2="-0.5" transform="matrix(-0.707107 0.707107 0.707107 0.707107 351.228 57.5596)" stroke="#E0B84D"/>
<line y1="-0.5" x2="44" y2="-0.5" transform="matrix(-0.707107 0.707107 0.707107 0.707107 474.228 57.5596)" stroke="#E0B84D"/>
<line y1="-0.5" x2="44" y2="-0.5" transform="matrix(-0.707107 0.707107 0.707107 0.707107 597.228 57.5596)" stroke="#E0B84D"/>
<line y1="-0.5" x2="44" y2="-0.5" transform="matrix(-0.707107 0.707107 0.707107 0.707107 720.228 57.5596)" stroke="#E0B84D"/>
<line y1="-0.5" x2="44" y2="-0.5" transform="matrix(-0.707107 0.707107 0.707107 0.707107 843.228 57.5596)" stroke="#E0B84D"/>
<line y1="-0.5" x2="44" y2="-0.5" transform="matrix(-0.707107 0.707107 0.707107 0.707107 966.228 57.5596)" stroke="#E0B84D"/>
<line y1="-0.5" x2="44" y2="-0.5" transform="matrix(-0.707107 0.707107 0.707107 0.707107 1089.23 57.5596)" stroke="#E0B84D"/>
<line y1="-0.5" x2="44" y2="-0.5" transform="matrix(-0.707107 0.707107 0.707107 0.707107 1212.23 57.5596)" stroke="#E0B84D"/>
<line y1="-0.5" x2="44" y2="-0.5" transform="matrix(-0.707107 0.707107 0.707107 0.707107 1335.23 57.5596)" stroke="#E0B84D"/>
<line y1="-0.5" x2="44" y2="-0.5" transform="matrix(-0.707107 0.707107 0.707107 0.707107 1458.23 57.5596)" stroke="#E0B84D"/>
<line x1="-18.6464" y1="76.6464" x2="12.4663" y2="107.759" stroke="#E0B84D"/>
<line x1="104.354" y1="76.6464" x2="135.466" y2="107.759" stroke="#E0B84D"/>
<line x1="227.354" y1="76.6464" x2="258.466" y2="107.759" stroke="#E0B84D"/>
<line x1="350.354" y1="76.6464" x2="381.466" y2="107.759" stroke="#E0B84D"/>
<line x1="473.354" y1="76.6464" x2="504.466" y2="107.759" stroke="#E0B84D"/>
<line x1="596.354" y1="76.6464" x2="627.466" y2="107.759" stroke="#E0B84D"/>
<line x1="719.354" y1="76.6464" x2="750.466" y2="107.759" stroke="#E0B84D"/>
<line x1="842.354" y1="76.6464" x2="873.466" y2="107.759" stroke="#E0B84D"/>
<line x1="965.354" y1="76.6464" x2="996.466" y2="107.759" stroke="#E0B84D"/>
<line x1="1088.35" y1="76.6464" x2="1119.47" y2="107.759" stroke="#E0B84D"/>
<line x1="1211.35" y1="76.6464" x2="1242.47" y2="107.759" stroke="#E0B84D"/>
<line x1="1334.35" y1="76.6464" x2="1365.47" y2="107.759" stroke="#E0B84D"/>
<line y1="-0.5" x2="44" y2="-0.5" transform="matrix(-0.707107 0.707107 0.707107 0.707107 43.6705 77.5596)" stroke="#E0B84D"/>
<line y1="-0.5" x2="44" y2="-0.5" transform="matrix(-0.707107 0.707107 0.707107 0.707107 166.671 77.5596)" stroke="#E0B84D"/>
<line y1="-0.5" x2="44" y2="-0.5" transform="matrix(-0.707107 0.707107 0.707107 0.707107 289.671 77.5596)" stroke="#E0B84D"/>
<line y1="-0.5" x2="44" y2="-0.5" transform="matrix(-0.707107 0.707107 0.707107 0.707107 412.671 77.5596)" stroke="#E0B84D"/>
<line y1="-0.5" x2="44" y2="-0.5" transform="matrix(-0.707107 0.707107 0.707107 0.707107 535.671 77.5596)" stroke="#E0B84D"/>
<line y1="-0.5" x2="44" y2="-0.5" transform="matrix(-0.707107 0.707107 0.707107 0.707107 658.671 77.5596)" stroke="#E0B84D"/>
<line y1="-0.5" x2="44" y2="-0.5" transform="matrix(-0.707107 0.707107 0.707107 0.707107 781.671 77.5596)" stroke="#E0B84D"/>
<line y1="-0.5" x2="44" y2="-0.5" transform="matrix(-0.707107 0.707107 0.707107 0.707107 904.671 77.5596)" stroke="#E0B84D"/>
<line y1="-0.5" x2="44" y2="-0.5" transform="matrix(-0.707107 0.707107 0.707107 0.707107 1027.67 77.5596)" stroke="#E0B84D"/>
<line y1="-0.5" x2="44" y2="-0.5" transform="matrix(-0.707107 0.707107 0.707107 0.707107 1150.67 77.5596)" stroke="#E0B84D"/>
<line y1="-0.5" x2="44" y2="-0.5" transform="matrix(-0.707107 0.707107 0.707107 0.707107 1273.67 77.5596)" stroke="#E0B84D"/>
<line y1="-0.5" x2="44" y2="-0.5" transform="matrix(-0.707107 0.707107 0.707107 0.707107 1396.67 77.5596)" stroke="#E0B84D"/>
<line x1="42.9114" y1="76.6464" x2="74.0241" y2="107.759" stroke="#E0B84D"/>
<line x1="165.911" y1="76.6464" x2="197.024" y2="107.759" stroke="#E0B84D"/>
<line x1="288.911" y1="76.6464" x2="320.024" y2="107.759" stroke="#E0B84D"/>
<line x1="411.911" y1="76.6464" x2="443.024" y2="107.759" stroke="#E0B84D"/>
<line x1="534.911" y1="76.6464" x2="566.024" y2="107.759" stroke="#E0B84D"/>
<line x1="657.911" y1="76.6464" x2="689.024" y2="107.759" stroke="#E0B84D"/>
<line x1="780.911" y1="76.6464" x2="812.024" y2="107.759" stroke="#E0B84D"/>
<line x1="903.911" y1="76.6464" x2="935.024" y2="107.759" stroke="#E0B84D"/>
<line x1="1026.91" y1="76.6464" x2="1058.02" y2="107.759" stroke="#E0B84D"/>
<line x1="1149.91" y1="76.6464" x2="1181.02" y2="107.759" stroke="#E0B84D"/>
<line x1="1272.91" y1="76.6464" x2="1304.02" y2="107.759" stroke="#E0B84D"/>
<line x1="1395.91" y1="76.6464" x2="1427.02" y2="107.759" stroke="#E0B84D"/>
<line y1="-0.5" x2="44" y2="-0.5" transform="matrix(-0.707107 0.707107 0.707107 0.707107 105.228 77.5596)" stroke="#E0B84D"/>
<line y1="-0.5" x2="44" y2="-0.5" transform="matrix(-0.707107 0.707107 0.707107 0.707107 228.228 77.5596)" stroke="#E0B84D"/>
<line y1="-0.5" x2="44" y2="-0.5" transform="matrix(-0.707107 0.707107 0.707107 0.707107 351.228 77.5596)" stroke="#E0B84D"/>
<line y1="-0.5" x2="44" y2="-0.5" transform="matrix(-0.707107 0.707107 0.707107 0.707107 474.228 77.5596)" stroke="#E0B84D"/>
<line y1="-0.5" x2="44" y2="-0.5" transform="matrix(-0.707107 0.707107 0.707107 0.707107 597.228 77.5596)" stroke="#E0B84D"/>
<line y1="-0.5" x2="44" y2="-0.5" transform="matrix(-0.707107 0.707107 0.707107 0.707107 720.228 77.5596)" stroke="#E0B84D"/>
<line y1="-0.5" x2="44" y2="-0.5" transform="matrix(-0.707107 0.707107 0.707107 0.707107 843.228 77.5596)" stroke="#E0B84D"/>
<line y1="-0.5" x2="44" y2="-0.5" transform="matrix(-0.707107 0.707107 0.707107 0.707107 966.228 77.5596)" stroke="#E0B84D"/>
<line y1="-0.5" x2="44" y2="-0.5" transform="matrix(-0.707107 0.707107 0.707107 0.707107 1089.23 77.5596)" stroke="#E0B84D"/>
<line y1="-0.5" x2="44" y2="-0.5" transform="matrix(-0.707107 0.707107 0.707107 0.707107 1212.23 77.5596)" stroke="#E0B84D"/>
<line y1="-0.5" x2="44" y2="-0.5" transform="matrix(-0.707107 0.707107 0.707107 0.707107 1335.23 77.5596)" stroke="#E0B84D"/>
<line y1="-0.5" x2="44" y2="-0.5" transform="matrix(-0.707107 0.707107 0.707107 0.707107 1458.23 77.5596)" stroke="#E0B84D"/>
<line x1="-18.6464" y1="96.6464" x2="12.4663" y2="127.759" stroke="#E0B84D"/>
<line x1="104.354" y1="96.6464" x2="135.466" y2="127.759" stroke="#E0B84D"/>
<line x1="227.354" y1="96.6464" x2="258.466" y2="127.759" stroke="#E0B84D"/>
<line x1="350.354" y1="96.6464" x2="381.466" y2="127.759" stroke="#E0B84D"/>
<line x1="473.354" y1="96.6464" x2="504.466" y2="127.759" stroke="#E0B84D"/>
<line x1="596.354" y1="96.6464" x2="627.466" y2="127.759" stroke="#E0B84D"/>
<line x1="719.354" y1="96.6464" x2="750.466" y2="127.759" stroke="#E0B84D"/>
<line x1="842.354" y1="96.6464" x2="873.466" y2="127.759" stroke="#E0B84D"/>
<line x1="965.354" y1="96.6464" x2="996.466" y2="127.759" stroke="#E0B84D"/>
<line x1="1088.35" y1="96.6464" x2="1119.47" y2="127.759" stroke="#E0B84D"/>
<line x1="1211.35" y1="96.6464" x2="1242.47" y2="127.759" stroke="#E0B84D"/>
<line x1="1334.35" y1="96.6464" x2="1365.47" y2="127.759" stroke="#E0B84D"/>
<line y1="-0.5" x2="44" y2="-0.5" transform="matrix(-0.707107 0.707107 0.707107 0.707107 43.6705 97.5596)" stroke="#E0B84D"/>
<line y1="-0.5" x2="44" y2="-0.5" transform="matrix(-0.707107 0.707107 0.707107 0.707107 166.671 97.5596)" stroke="#E0B84D"/>
<line y1="-0.5" x2="44" y2="-0.5" transform="matrix(-0.707107 0.707107 0.707107 0.707107 289.671 97.5596)" stroke="#E0B84D"/>
<line y1="-0.5" x2="44" y2="-0.5" transform="matrix(-0.707107 0.707107 0.707107 0.707107 412.671 97.5596)" stroke="#E0B84D"/>
<line y1="-0.5" x2="44" y2="-0.5" transform="matrix(-0.707107 0.707107 0.707107 0.707107 535.671 97.5596)" stroke="#E0B84D"/>
<line y1="-0.5" x2="44" y2="-0.5" transform="matrix(-0.707107 0.707107 0.707107 0.707107 658.671 97.5596)" stroke="#E0B84D"/>
<line y1="-0.5" x2="44" y2="-0.5" transform="matrix(-0.707107 0.707107 0.707107 0.707107 781.671 97.5596)" stroke="#E0B84D"/>
<line y1="-0.5" x2="44" y2="-0.5" transform="matrix(-0.707107 0.707107 0.707107 0.707107 904.671 97.5596)" stroke="#E0B84D"/>
<line y1="-0.5" x2="44" y2="-0.5" transform="matrix(-0.707107 0.707107 0.707107 0.707107 1027.67 97.5596)" stroke="#E0B84D"/>
<line y1="-0.5" x2="44" y2="-0.5" transform="matrix(-0.707107 0.707107 0.707107 0.707107 1150.67 97.5596)" stroke="#E0B84D"/>
<line y1="-0.5" x2="44" y2="-0.5" transform="matrix(-0.707107 0.707107 0.707107 0.707107 1273.67 97.5596)" stroke="#E0B84D"/>
<line y1="-0.5" x2="44" y2="-0.5" transform="matrix(-0.707107 0.707107 0.707107 0.707107 1396.67 97.5596)" stroke="#E0B84D"/>
<line x1="42.9114" y1="96.6464" x2="74.0241" y2="127.759" stroke="#E0B84D"/>
<line x1="165.911" y1="96.6464" x2="197.024" y2="127.759" stroke="#E0B84D"/>
<line x1="288.911" y1="96.6464" x2="320.024" y2="127.759" stroke="#E0B84D"/>
<line x1="411.911" y1="96.6464" x2="443.024" y2="127.759" stroke="#E0B84D"/>
<line x1="534.911" y1="96.6464" x2="566.024" y2="127.759" stroke="#E0B84D"/>
<line x1="657.911" y1="96.6464" x2="689.024" y2="127.759" stroke="#E0B84D"/>
<line x1="780.911" y1="96.6464" x2="812.024" y2="127.759" stroke="#E0B84D"/>
<line x1="903.911" y1="96.6464" x2="935.024" y2="127.759" stroke="#E0B84D"/>
<line x1="1026.91" y1="96.6464" x2="1058.02" y2="127.759" stroke="#E0B84D"/>
<line x1="1149.91" y1="96.6464" x2="1181.02" y2="127.759" stroke="#E0B84D"/>
<line x1="1272.91" y1="96.6464" x2="1304.02" y2="127.759" stroke="#E0B84D"/>
<line x1="1395.91" y1="96.6464" x2="1427.02" y2="127.759" stroke="#E0B84D"/>
<line y1="-0.5" x2="44" y2="-0.5" transform="matrix(-0.707107 0.707107 0.707107 0.707107 105.228 97.5596)" stroke="#E0B84D"/>
<line y1="-0.5" x2="44" y2="-0.5" transform="matrix(-0.707107 0.707107 0.707107 0.707107 228.228 97.5596)" stroke="#E0B84D"/>
<line y1="-0.5" x2="44" y2="-0.5" transform="matrix(-0.707107 0.707107 0.707107 0.707107 351.228 97.5596)" stroke="#E0B84D"/>
<line y1="-0.5" x2="44" y2="-0.5" transform="matrix(-0.707107 0.707107 0.707107 0.707107 474.228 97.5596)" stroke="#E0B84D"/>
<line y1="-0.5" x2="44" y2="-0.5" transform="matrix(-0.707107 0.707107 0.707107 0.707107 597.228 97.5596)" stroke="#E0B84D"/>
<line y1="-0.5" x2="44" y2="-0.5" transform="matrix(-0.707107 0.707107 0.707107 0.707107 720.228 97.5596)" stroke="#E0B84D"/>
<line y1="-0.5" x2="44" y2="-0.5" transform="matrix(-0.707107 0.707107 0.707107 0.707107 843.228 97.5596)" stroke="#E0B84D"/>
<line y1="-0.5" x2="44" y2="-0.5" transform="matrix(-0.707107 0.707107 0.707107 0.707107 966.228 97.5596)" stroke="#E0B84D"/>
<line y1="-0.5" x2="44" y2="-0.5" transform="matrix(-0.707107 0.707107 0.707107 0.707107 1089.23 97.5596)" stroke="#E0B84D"/>
<line y1="-0.5" x2="44" y2="-0.5" transform="matrix(-0.707107 0.707107 0.707107 0.707107 1212.23 97.5596)" stroke="#E0B84D"/>
<line y1="-0.5" x2="44" y2="-0.5" transform="matrix(-0.707107 0.707107 0.707107 0.707107 1335.23 97.5596)" stroke="#E0B84D"/>
<line y1="-0.5" x2="44" y2="-0.5" transform="matrix(-0.707107 0.707107 0.707107 0.707107 1458.23 97.5596)" stroke="#E0B84D"/>
</g>
<defs>
<linearGradient id="paint0_linear_317_2479" x1="720" y1="-7" x2="720" y2="143" gradientUnits="userSpaceOnUse">
<stop stop-color="white"/>
<stop offset="1" stop-color="white" stop-opacity="0"/>
</linearGradient>
</defs>
</svg>
