<svg width="43" height="42" viewBox="0 0 43 42" fill="none" xmlns="http://www.w3.org/2000/svg">
<path d="M37.25 26.25C37.25 26.5981 37.1117 26.9319 36.8656 27.1781C36.6194 27.4242 36.2856 27.5625 35.9375 27.5625H7.0625C6.7144 27.5625 6.38056 27.4242 6.13442 27.1781C5.88828 26.9319 5.75 26.5981 5.75 26.25C5.75 25.9019 5.88828 25.5681 6.13442 25.3219C6.38056 25.0758 6.7144 24.9375 7.0625 24.9375H35.9375C36.2856 24.9375 36.6194 25.0758 36.8656 25.3219C37.1117 25.5681 37.25 25.9019 37.25 26.25ZM7.0625 17.0625H35.9375C36.2856 17.0625 36.6194 16.9242 36.8656 16.6781C37.1117 16.4319 37.25 16.0981 37.25 15.75C37.25 15.4019 37.1117 15.0681 36.8656 14.8219C36.6194 14.5758 36.2856 14.4375 35.9375 14.4375H7.0625C6.7144 14.4375 6.38056 14.5758 6.13442 14.8219C5.88828 15.0681 5.75 15.4019 5.75 15.75C5.75 16.0981 5.88828 16.4319 6.13442 16.6781C6.38056 16.9242 6.7144 17.0625 7.0625 17.0625Z" fill="black"/>
</svg>
