<svg width="297" height="100" viewBox="0 0 297 100" fill="none" xmlns="http://www.w3.org/2000/svg">
<rect width="297" height="100" fill="#CDCDCD" fill-opacity="0.1"/>
<path fill-rule="evenodd" clip-rule="evenodd" d="M0 0H164V7C164 13.5 156.958 23.272 152.79 27C151.565 28.096 150.313 29.1159 149.044 30.0641C137.255 38.8754 122.012 39 115 39C112.541 50.5912 109.229 61.9258 102.436 68.1899C101.138 69.3866 99.7857 70.4896 98.3891 71.5C90.4466 77.2463 81.064 80 72 80H0V0Z" fill="url(#paint0_linear_0_1)" fill-opacity="0.1"/>
<path d="M149.044 30.0641C137.255 38.8754 122.012 39 115 39C112.541 50.5912 109.229 61.9258 102.436 68.1899L149.044 30.0641Z" fill="black" fill-opacity="0.79"/>
<path fill-rule="evenodd" clip-rule="evenodd" d="M149.044 30.0641C150.313 29.1159 151.565 28.096 152.79 27L149.044 30.0641ZM102.436 68.1899L98.3891 71.5C99.7857 70.4896 101.138 69.3866 102.436 68.1899Z" fill="black" fill-opacity="0.79"/>
<path d="M16.96 64V37.2L18.24 38.56H10.36V36H19.84V64H16.96ZM26.0131 64V61.96L37.6531 50.56C38.7198 49.52 39.5198 48.6133 40.0531 47.84C40.5865 47.04 40.9465 46.2933 41.1331 45.6C41.3198 44.9067 41.4131 44.2533 41.4131 43.64C41.4131 42.0133 40.8531 40.7333 39.7331 39.8C38.6398 38.8667 37.0131 38.4 34.8531 38.4C33.1998 38.4 31.7331 38.6533 30.4531 39.16C29.1998 39.6667 28.1198 40.4533 27.2131 41.52L25.1731 39.76C26.2665 38.48 27.6665 37.4933 29.3731 36.8C31.0798 36.1067 32.9865 35.76 35.0931 35.76C36.9865 35.76 38.6265 36.0667 40.0131 36.68C41.3998 37.2667 42.4665 38.1333 43.2131 39.28C43.9865 40.4267 44.3731 41.7733 44.3731 43.32C44.3731 44.2267 44.2398 45.12 43.9731 46C43.7331 46.88 43.2798 47.8133 42.6131 48.8C41.9731 49.76 41.0265 50.8533 39.7731 52.08L29.0931 62.56L28.2931 61.44H45.6531V64H26.0131Z" fill="#CDCDCD"/>
<defs>
<linearGradient id="paint0_linear_0_1" x1="164" y1="80" x2="3.58936e-06" y2="-7.35819e-06" gradientUnits="userSpaceOnUse">
<stop stop-color="#555555"/>
<stop offset="1" stop-color="#F8F8F8"/>
</linearGradient>
</defs>
</svg>
