<svg width="225" height="53" viewBox="0 0 225 53" fill="none" xmlns="http://www.w3.org/2000/svg">
<rect width="225" height="53" fill="#CDCDCD" fill-opacity="0.4"/>
<path d="M120 17.5H117.75V16.75C117.75 16.5511 117.671 16.3603 117.53 16.2197C117.39 16.079 117.199 16 117 16C116.801 16 116.61 16.079 116.47 16.2197C116.329 16.3603 116.25 16.5511 116.25 16.75V17.5H108.75V16.75C108.75 16.5511 108.671 16.3603 108.53 16.2197C108.39 16.079 108.199 16 108 16C107.801 16 107.61 16.079 107.47 16.2197C107.329 16.3603 107.25 16.5511 107.25 16.75V17.5H105C104.602 17.5 104.221 17.658 103.939 17.9393C103.658 18.2206 103.5 18.6022 103.5 19V34C103.5 34.3978 103.658 34.7794 103.939 35.0607C104.221 35.342 104.602 35.5 105 35.5H120C120.398 35.5 120.779 35.342 121.061 35.0607C121.342 34.7794 121.5 34.3978 121.5 34V19C121.5 18.6022 121.342 18.2206 121.061 17.9393C120.779 17.658 120.398 17.5 120 17.5ZM107.25 19V19.75C107.25 19.9489 107.329 20.1397 107.47 20.2803C107.61 20.421 107.801 20.5 108 20.5C108.199 20.5 108.39 20.421 108.53 20.2803C108.671 20.1397 108.75 19.9489 108.75 19.75V19H116.25V19.75C116.25 19.9489 116.329 20.1397 116.47 20.2803C116.61 20.421 116.801 20.5 117 20.5C117.199 20.5 117.39 20.421 117.53 20.2803C117.671 20.1397 117.75 19.9489 117.75 19.75V19H120V22H105V19H107.25ZM120 34H105V23.5H120V34ZM111 25.75V31.75C111 31.9489 110.921 32.1397 110.78 32.2803C110.64 32.421 110.449 32.5 110.25 32.5C110.051 32.5 109.86 32.421 109.72 32.2803C109.579 32.1397 109.5 31.9489 109.5 31.75V26.9631L109.086 27.1713C108.908 27.2603 108.702 27.2749 108.513 27.212C108.324 27.149 108.168 27.0137 108.079 26.8356C107.99 26.6576 107.975 26.4515 108.038 26.2627C108.101 26.0739 108.236 25.9178 108.414 25.8287L109.914 25.0787C110.029 25.0215 110.156 24.9945 110.284 25.0002C110.411 25.006 110.536 25.0443 110.644 25.1116C110.753 25.1788 110.843 25.2728 110.905 25.3845C110.967 25.4963 111 25.6221 111 25.75ZM116.546 28.6047L114.75 31H116.25C116.449 31 116.64 31.079 116.78 31.2197C116.921 31.3603 117 31.5511 117 31.75C117 31.9489 116.921 32.1397 116.78 32.2803C116.64 32.421 116.449 32.5 116.25 32.5H113.25C113.111 32.5 112.974 32.4612 112.856 32.388C112.737 32.3148 112.641 32.21 112.579 32.0854C112.517 31.9608 112.491 31.8214 112.503 31.6826C112.516 31.5439 112.566 31.4114 112.65 31.3L115.348 27.7028C115.409 27.6211 115.454 27.5277 115.478 27.4284C115.501 27.3291 115.505 27.2259 115.488 27.1252C115.47 27.0245 115.433 26.9284 115.377 26.8428C115.321 26.7572 115.248 26.6839 115.163 26.6274C115.078 26.5709 114.982 26.5324 114.882 26.5143C114.781 26.4961 114.678 26.4987 114.578 26.5219C114.479 26.5451 114.385 26.5884 114.303 26.6491C114.221 26.7098 114.152 26.7867 114.1 26.875C114.053 26.963 113.988 27.0406 113.909 27.1031C113.831 27.1656 113.741 27.2118 113.645 27.239C113.548 27.2661 113.447 27.2737 113.348 27.2613C113.249 27.2489 113.153 27.2166 113.066 27.1665C112.979 27.1165 112.904 27.0495 112.843 26.9696C112.783 26.8898 112.739 26.7986 112.714 26.7015C112.69 26.6044 112.685 26.5034 112.7 26.4044C112.715 26.3054 112.75 26.2104 112.802 26.125C113.05 25.6963 113.432 25.3612 113.889 25.1718C114.347 24.9824 114.854 24.9493 115.332 25.0774C115.811 25.2056 116.233 25.488 116.535 25.8808C116.836 26.2736 117 26.7548 117 27.25C117.002 27.7391 116.842 28.2152 116.546 28.6047Z" fill="black"/>
</svg>
