<?xml version="1.0" encoding="UTF-8"?>
<!DOCTYPE svg PUBLIC "-//W3C//DTD SVG 1.1//EN" "http://www.w3.org/Graphics/SVG/1.1/DTD/svg11.dtd">
<svg xmlns="http://www.w3.org/2000/svg" version="1.1" width="419px" height="244px" style="shape-rendering:geometricPrecision; text-rendering:geometricPrecision; image-rendering:optimizeQuality; fill-rule:evenodd; clip-rule:evenodd" xmlns:xlink="http://www.w3.org/1999/xlink">
<g><path style="opacity:1" fill="#044733" d="M 211.5,37.5 C 211.544,45.5007 211.544,53.5007 211.5,61.5C 208.273,67.496 204.94,73.3293 201.5,79C 205.264,85.5927 209.93,91.426 215.5,96.5C 216.429,97.6888 216.762,99.0222 216.5,100.5C 210.086,99.3342 203.753,96.8342 197.5,93C 195.272,92.1799 193.272,92.5132 191.5,94C 195.821,104.317 200.821,114.651 206.5,125C 205.576,125.85 205.576,126.85 206.5,128C 202.876,132.297 199.21,136.63 195.5,141C 193.218,143.602 190.385,145.436 187,146.5C 185.775,146.138 184.609,145.638 183.5,145C 173.484,135.987 163.151,127.32 152.5,119C 146.33,113.996 140.663,108.496 135.5,102.5C 135.938,102.565 136.272,102.399 136.5,102C 131.999,97.0019 126.999,92.5019 121.5,88.5C 120.626,86.2534 120.292,83.9201 120.5,81.5C 122.322,81.8308 123.989,82.4975 125.5,83.5C 126.873,83.6567 128.207,83.49 129.5,83C 128.833,82.6667 128.167,82.3333 127.5,82C 130.132,81.5506 132.632,80.7173 135,79.5C 135.772,79.6448 136.439,79.9781 137,80.5C 138.741,77.795 140.241,74.9617 141.5,72C 145.072,70.3832 148.072,68.0499 150.5,65C 151.449,64.3828 152.282,64.5494 153,65.5C 155.546,62.9627 157.212,59.9627 158,56.5C 160.709,55.0666 162.875,53.0666 164.5,50.5C 167.891,48.7379 171.224,46.9046 174.5,45C 177.808,40.2247 181.474,35.7247 185.5,31.5C 192.67,25.1629 199.67,18.6629 206.5,12C 208.856,12.0026 211.189,12.5026 213.5,13.5C 216.455,16.9926 219.455,20.4926 222.5,24C 221.958,26.2548 220.791,28.0881 219,29.5C 216.912,28.6919 214.912,27.6919 213,26.5C 212.333,27.1667 211.667,27.8333 211,28.5C 210.774,31.095 210.274,33.595 209.5,36C 210.416,36.2784 211.082,36.7784 211.5,37.5 Z"/></g>
<g><path style="opacity:1" fill="#094533" d="M 339.5,75.5 C 336.715,75.933 334.381,77.2663 332.5,79.5C 327.598,76.8903 322.932,74.057 318.5,71C 317.887,66.6524 316.054,65.8191 313,68.5C 313.416,64.054 311.249,61.3873 306.5,60.5C 305.923,64.7836 307.59,67.7836 311.5,69.5C 310.738,69.9106 309.738,70.0773 308.5,70C 311.028,71.3159 311.028,72.4826 308.5,73.5C 310.865,76.9289 313.199,80.2622 315.5,83.5C 315.5,84.1667 315.833,84.5 316.5,84.5C 317.303,85.4232 317.47,86.4232 317,87.5C 314.167,90.3333 311.333,93.1667 308.5,96C 311.692,99.0951 315.359,101.428 319.5,103C 319.167,103.333 318.833,103.667 318.5,104C 321.529,106.176 324.529,108.343 327.5,110.5C 329.318,112.567 331.651,113.9 334.5,114.5C 335.281,115.737 336.281,116.737 337.5,117.5C 338.429,118.689 338.762,120.022 338.5,121.5C 334.044,121.035 329.711,120.035 325.5,118.5C 323.948,121.567 324.615,124.067 327.5,126C 327.167,126.333 326.833,126.667 326.5,127C 329.956,131.855 333.956,136.188 338.5,140C 337.862,141.707 337.862,143.54 338.5,145.5C 330.389,145.935 322.389,145.435 314.5,144C 309.319,138.483 304.486,132.65 300,126.5C 283.333,109.167 266.667,91.8333 250,74.5C 248.248,71.328 246.248,68.328 244,65.5C 235.247,57.7499 227.58,49.0832 221,39.5C 218.306,36.8063 215.64,34.1396 213,31.5C 212.809,33.7078 212.309,35.7078 211.5,37.5C 211.082,36.7784 210.416,36.2784 209.5,36C 210.274,33.595 210.774,31.095 211,28.5C 211.667,27.8333 212.333,27.1667 213,26.5C 214.912,27.6919 216.912,28.6919 219,29.5C 220.791,28.0881 221.958,26.2548 222.5,24C 219.455,20.4926 216.455,16.9926 213.5,13.5C 211.189,12.5026 208.856,12.0026 206.5,12C 199.67,18.6629 192.67,25.1629 185.5,31.5C 181.474,35.7247 177.808,40.2247 174.5,45C 171.224,46.9046 167.891,48.7379 164.5,50.5C 162.875,53.0666 160.709,55.0666 158,56.5C 157.212,59.9627 155.546,62.9627 153,65.5C 152.282,64.5494 151.449,64.3828 150.5,65C 148.072,68.0499 145.072,70.3832 141.5,72C 140.241,74.9617 138.741,77.795 137,80.5C 136.439,79.9781 135.772,79.6448 135,79.5C 132.632,80.7173 130.132,81.5506 127.5,82C 128.167,82.3333 128.833,82.6667 129.5,83C 128.207,83.49 126.873,83.6567 125.5,83.5C 125.833,82.1667 126.167,80.8333 126.5,79.5C 128.468,78.9074 130.801,78.0741 133.5,77C 144.919,65.9079 156.585,55.2413 168.5,45C 171.624,41.1753 175.124,37.6753 179,34.5C 179.483,33.552 179.649,32.552 179.5,31.5C 181.308,31.5086 182.975,31.0086 184.5,30C 187.701,26.4636 191.201,23.2969 195,20.5C 197.538,17.3027 200.038,14.1361 202.5,11C 204.56,9.30354 206.893,8.13688 209.5,7.5C 216.568,13.0694 222.402,19.736 227,27.5C 241.058,43.5507 255.058,59.5507 269,75.5C 280.625,64.3392 291.791,53.5058 302.5,43C 303.872,42.5983 305.205,42.0983 306.5,41.5C 318.22,52.2191 329.22,63.5524 339.5,75.5 Z"/></g>
<g><path style="opacity:1" fill="#0c4835" d="M 126.5,79.5 C 126.167,80.8333 125.833,82.1667 125.5,83.5C 123.989,82.4975 122.322,81.8308 120.5,81.5C 120.292,83.9201 120.626,86.2534 121.5,88.5C 126.999,92.5019 131.999,97.0019 136.5,102C 136.272,102.399 135.938,102.565 135.5,102.5C 132.319,100.163 128.986,97.996 125.5,96C 119.649,90.1129 113.482,84.6129 107,79.5C 104.725,83.6866 105.559,87.1866 109.5,90C 109.043,90.414 108.709,90.914 108.5,91.5C 109.026,94.843 110.026,98.0097 111.5,101C 110.333,102.5 109.167,104 108,105.5C 107.586,105.043 107.086,104.709 106.5,104.5C 102.172,107.158 97.8392,109.824 93.5,112.5C 94.711,114.422 96.0443,116.255 97.5,118C 105.232,122.775 111.899,128.775 117.5,136C 120.029,138.029 122.696,139.862 125.5,141.5C 126.429,142.689 126.762,144.022 126.5,145.5C 84.0944,145.827 41.761,145.494 -0.5,144.5C -0.5,143.5 -0.5,142.5 -0.5,141.5C 0.583168,141.461 1.58317,141.127 2.5,140.5C 31.6382,114.868 60.9715,89.3678 90.5,64C 93.076,59.7547 96.576,56.5881 101,54.5C 109.342,63.0084 117.842,71.3417 126.5,79.5 Z"/></g>
<g><path style="opacity:1" fill="#113f31" d="M 339.5,75.5 C 360.442,97.6236 381.942,119.957 404,142.5C 408.26,149.009 407.093,150.676 400.5,147.5C 398.973,145.807 397.64,143.973 396.5,142C 384.482,131.978 372.482,121.978 360.5,112C 358.45,110.035 356.783,107.868 355.5,105.5C 355.167,104.167 354.833,104.167 354.5,105.5C 341.32,94.1506 328.32,82.6506 315.5,71C 314.365,70.2506 313.365,70.4173 312.5,71.5C 313.074,73.0589 313.74,74.5589 314.5,76C 314.167,76.3333 313.833,76.6667 313.5,77C 314.583,79.1648 315.916,81.1648 317.5,83C 317.43,83.7648 317.097,84.2648 316.5,84.5C 315.833,84.5 315.5,84.1667 315.5,83.5C 313.199,80.2622 310.865,76.9289 308.5,73.5C 311.028,72.4826 311.028,71.3159 308.5,70C 309.738,70.0773 310.738,69.9106 311.5,69.5C 307.59,67.7836 305.923,64.7836 306.5,60.5C 311.249,61.3873 313.416,64.054 313,68.5C 316.054,65.8191 317.887,66.6524 318.5,71C 322.932,74.057 327.598,76.8903 332.5,79.5C 334.381,77.2663 336.715,75.933 339.5,75.5 Z"/></g>
<g><path style="opacity:0.004" fill="#000000" d="M 354.5,105.5 C 354.833,105.5 355.167,105.5 355.5,105.5C 355.315,106.17 354.981,106.17 354.5,105.5 Z"/></g>
<g><path style="opacity:0.004" fill="#fefffe" d="M 327.5,109.5 C 328.833,110.167 328.833,110.167 327.5,109.5 Z"/></g>
<g><path style="opacity:1" fill="#154637" d="M 21.5,165.5 C 23.6138,166.36 24.7805,168.027 25,170.5C 25.9138,169.346 26.7471,169.513 27.5,171C 27.1667,171.333 26.8333,171.667 26.5,172C 29.5796,173.991 31.2463,176.825 31.5,180.5C 32.5,180.5 33.5,180.5 34.5,180.5C 34.5,181.833 34.5,183.167 34.5,184.5C 37.694,184.176 38.694,185.342 37.5,188C 39.3733,190.53 41.2066,193.03 43,195.5C 44.3974,194.774 45.2308,193.607 45.5,192C 46.4717,185.886 46.8051,179.886 46.5,174C 45.1667,173.333 43.8333,172.667 42.5,172C 42.8333,171.667 43.1667,171.333 43.5,171C 41.8934,169.951 41.2267,168.451 41.5,166.5C 47.1667,166.5 52.8333,166.5 58.5,166.5C 58.7733,168.451 58.1066,169.951 56.5,171C 57.1667,171.333 57.8333,171.667 58.5,172C 57.2341,172.309 56.0674,172.809 55,173.5C 54.465,183.332 53.965,193.165 53.5,203C 53.5175,206.75 53.8508,210.417 54.5,214C 53.9288,215.205 53.2621,216.372 52.5,217.5C 49.0242,216.923 45.6909,215.923 42.5,214.5C 42.7093,213.914 43.0426,213.414 43.5,213C 36.1887,203.513 29.022,194.013 22,184.5C 21.3333,191.5 21.3333,198.5 22,205.5C 22.8715,208.747 24.3715,211.58 26.5,214C 26.3749,215.627 25.8749,217.127 25,218.5C 19.4642,216.575 13.6309,215.908 7.5,216.5C 7.21958,213.612 8.55291,212.112 11.5,212C 10.7203,210.927 10.887,209.76 12,208.5C 12.6667,196.833 12.6667,185.167 12,173.5C 9.45294,171.796 7.95294,169.463 7.5,166.5C 12.3633,166.819 17.03,166.486 21.5,165.5 Z"/></g>
<g><path style="opacity:0.004" fill="#000000" d="M 109.5,179.5 C 110.833,180.167 110.833,180.167 109.5,179.5 Z"/></g>
<g><path style="opacity:0.004" fill="#000000" d="M 272.5,181.5 C 271.833,180.167 271.833,180.167 272.5,181.5 Z"/></g>
<g><path style="opacity:1" fill="#0f4230" d="M 73.5,180.5 C 76.4931,180.84 79.4931,180.84 82.5,180.5C 85.0495,181.357 87.5495,182.357 90,183.5C 91.9199,182.912 93.5866,181.912 95,180.5C 101.29,181.309 107.457,181.309 113.5,180.5C 113.833,180.667 114.167,180.833 114.5,181C 112.637,183.364 110.971,185.864 109.5,188.5C 110.667,191.5 111.833,194.5 113,197.5C 118.267,192.708 118.767,188.041 114.5,183.5C 115.347,182.155 116.513,181.155 118,180.5C 122.136,181.809 126.302,181.809 130.5,180.5C 131.386,181.325 131.719,182.325 131.5,183.5C 135.698,184.535 139.532,183.535 143,180.5C 146.667,181.833 150.333,181.833 154,180.5C 157.93,182.115 161.596,184.115 165,186.5C 167.492,192.291 168.659,198.125 168.5,204C 163.433,215.46 154.767,220.126 142.5,218C 133.23,213.988 128.563,206.821 128.5,196.5C 129.093,194.618 129.76,192.785 130.5,191C 129.542,189.853 129.875,188.853 131.5,188C 129.597,187.226 127.93,187.56 126.5,189C 126.957,189.414 127.291,189.914 127.5,190.5C 124.493,194.603 122.659,199.27 122,204.5C 121.25,205.126 120.416,205.626 119.5,206C 119.833,206.333 120.167,206.667 120.5,207C 119.991,209.57 118.991,211.903 117.5,214C 117.833,214.333 118.167,214.667 118.5,215C 111.504,220.159 107.17,218.326 105.5,209.5C 103.615,208.803 103.282,207.803 104.5,206.5C 101.551,200.271 98.8844,193.937 96.5,187.5C 95.448,187.351 94.448,187.517 93.5,188C 93.8543,191.552 93.8543,195.218 93.5,199C 91.1093,199.287 88.7759,199.787 86.5,200.5C 82.2824,198.933 78.2824,199.266 74.5,201.5C 73.1667,203.5 73.1667,205.5 74.5,207.5C 76.7094,208.106 78.876,208.773 81,209.5C 83.0408,208.577 85.2075,208.244 87.5,208.5C 87.5,207.5 87.5,206.5 87.5,205.5C 93.7011,203.739 95.5344,206.072 93,212.5C 88.7547,217.093 83.9214,218.76 78.5,217.5C 77.3044,217.846 77.3044,218.346 78.5,219C 77.8333,219.167 77.1667,219.333 76.5,219.5C 61.5504,213.867 56.7171,203.867 62,189.5C 65.446,185.878 69.2793,182.878 73.5,180.5 Z M 144.5,187.5 C 152.294,186.479 155.961,189.646 155.5,197C 156.167,198.333 156.833,199.667 157.5,201C 156.438,205.088 154.105,208.421 150.5,211C 148.833,211.667 147.167,211.667 145.5,211C 144.194,208.427 142.527,206.094 140.5,204C 142.929,203.549 143.096,202.715 141,201.5C 140.901,198.852 140.735,196.352 140.5,194C 142.07,191.941 143.403,189.774 144.5,187.5 Z M 76.5,186.5 C 80.389,186.387 82.0556,188.721 81.5,193.5C 78.1501,193.665 74.8168,193.498 71.5,193C 72.1667,192.667 72.8333,192.333 73.5,192C 73.0338,190.701 73.0338,189.201 73.5,187.5C 74.791,187.737 75.791,187.404 76.5,186.5 Z M 131.5,184.5 C 132.376,184.369 133.043,184.702 133.5,185.5C 131.192,186.873 130.525,186.54 131.5,184.5 Z"/></g>
<g><path style="opacity:1" fill="#104433" d="M 201.5,165.5 C 207.895,165.593 214.228,165.593 220.5,165.5C 223.188,166.005 225.355,167.338 227,169.5C 227.21,173.781 227.377,177.948 227.5,182C 225.866,182.494 224.199,182.66 222.5,182.5C 220.417,175.719 216.083,172.053 209.5,171.5C 202.806,174.303 199.806,179.136 200.5,186C 199.02,187.299 198.354,188.966 198.5,191C 199.911,194.899 200.911,198.899 201.5,203C 208.715,214.458 215.881,214.291 223,202.5C 223.333,202.833 223.667,203.167 224,203.5C 225.049,201.893 226.549,201.227 228.5,201.5C 228.824,205.555 228.491,209.555 227.5,213.5C 212.337,221.973 199.17,219.64 188,206.5C 181.885,187.997 186.385,174.33 201.5,165.5 Z"/></g>
<g><path style="opacity:0.008" fill="#7e7f7e" d="M 244.5,196.5 C 243.833,195.167 243.833,195.167 244.5,196.5 Z"/></g>
<g><path style="opacity:1" fill="#0e4432" d="M 327.5,212.5 C 328.806,213.467 329.473,214.801 329.5,216.5C 322.468,216.83 315.468,216.497 308.5,215.5C 308.291,214.914 307.957,214.414 307.5,214C 309.99,213.505 311.49,212.005 312,209.5C 312.446,206.657 312.946,203.824 313.5,201C 312.213,197.161 312.213,193.328 313.5,189.5C 311.548,187.874 310.214,185.874 309.5,183.5C 311.696,183.435 313.696,182.768 315.5,181.5C 313.317,177.372 312.984,173.039 314.5,168.5C 324.159,166.323 327.159,169.823 323.5,179C 323.832,188.162 323.832,197.162 323.5,206C 325.263,207.654 325.596,209.487 324.5,211.5C 325.325,212.386 326.325,212.719 327.5,212.5 Z"/></g>
<g><path style="opacity:0.812" fill="#104332" d="M 269.5,212.5 C 269.489,214.017 268.823,215.184 267.5,216C 265.871,216.585 264.371,217.419 263,218.5C 259.607,217.652 256.274,216.652 253,215.5C 250.225,215.814 247.725,216.814 245.5,218.5C 234.43,218.741 230.43,213.408 233.5,202.5C 234.87,200.873 236.37,199.206 238,197.5C 238.414,197.957 238.914,198.291 239.5,198.5C 241.336,197.972 243.003,197.306 244.5,196.5C 249.5,195.845 251.167,193.178 249.5,188.5C 244.271,187.355 240.605,189.355 238.5,194.5C 233.068,192.764 232.068,189.43 235.5,184.5C 242.644,180.163 249.978,179.496 257.5,182.5C 259.483,183.982 261.316,185.649 263,187.5C 263.437,191.648 263.271,195.815 262.5,200C 262.481,203.665 263.148,207.165 264.5,210.5C 266.554,210.365 268.221,211.032 269.5,212.5 Z M 245.5,209.5 C 243.86,208.21 243.36,206.543 244,204.5C 244.333,204.833 244.667,205.167 245,205.5C 246.836,203.292 249.169,201.958 252,201.5C 251.628,205.395 249.461,208.062 245.5,209.5 Z"/></g>
<g><path style="opacity:1" fill="#134637" d="M 383.5,218.5 C 383.167,217.167 382.833,217.167 382.5,218.5C 381.527,217.209 380.527,217.209 379.5,218.5C 378.304,218.154 378.304,217.654 379.5,217C 377.191,214.949 375.024,215.116 373,217.5C 371.16,216.167 370.66,216.334 371.5,218C 368.275,217.878 365.108,218.044 362,218.5C 360.099,217.464 358.265,216.298 356.5,215C 357.711,214.107 357.711,213.274 356.5,212.5C 353.249,214.375 350.082,216.375 347,218.5C 344.534,217.212 342.034,217.212 339.5,218.5C 338.808,217.975 338.308,217.308 338,216.5C 337.667,216.833 337.333,217.167 337,217.5C 336.333,216.167 335.667,214.833 335,213.5C 334.749,204.467 334.249,195.467 333.5,186.5C 331.833,186.5 330.167,186.5 328.5,186.5C 328.5,185.167 328.5,183.833 328.5,182.5C 330.308,182.509 331.975,182.009 333.5,181C 334.345,178.888 335.345,176.388 336.5,173.5C 338.514,169.97 341.181,169.136 344.5,171C 343.488,173.86 343.488,177.027 344.5,180.5C 348.049,180.735 351.549,180.735 355,180.5C 357.732,182.244 357.899,184.411 355.5,187C 352.482,186.501 349.482,186.668 346.5,187.5C 345.469,188.7 344.635,190.034 344,191.5C 344.207,194.81 344.041,197.976 343.5,201C 344.554,203.382 345.221,205.882 345.5,208.5C 349.182,208.665 352.848,208.499 356.5,208C 356.043,207.586 355.709,207.086 355.5,206.5C 356.154,204.885 356.654,203.218 357,201.5C 357.333,201.833 357.667,202.167 358,202.5C 358.698,201.309 359.531,200.309 360.5,199.5C 364.982,197.562 369.649,196.229 374.5,195.5C 374.5,193.167 374.5,190.833 374.5,188.5C 368.802,186.981 364.635,188.981 362,194.5C 361.259,193.359 360.425,193.359 359.5,194.5C 358.209,190.955 358.209,187.455 359.5,184C 366.318,180.3 373.318,179.633 380.5,182C 381.354,183.022 382.354,183.855 383.5,184.5C 384.331,191.811 384.831,199.144 385,206.5C 386.514,208.766 388.681,209.932 391.5,210C 393.125,210.853 393.458,211.853 392.5,213C 393.167,213.667 393.833,213.667 394.5,213C 395.249,211.266 395.749,209.433 396,207.5C 396.667,196.167 396.667,184.833 396,173.5C 395.427,170.496 393.927,168.163 391.5,166.5C 391.608,165.558 391.941,164.725 392.5,164C 396.803,162.95 401.137,162.116 405.5,161.5C 406.185,177.172 406.518,192.839 406.5,208.5C 406.833,209.833 407.167,211.167 407.5,212.5C 408.5,213.833 409.5,213.833 410.5,212.5C 411.262,213.628 411.929,214.795 412.5,216C 405.253,216.812 398.086,216.646 391,215.5C 388.975,217.693 386.475,218.693 383.5,218.5 Z M 372.5,202.5 C 374.252,202.418 375.252,203.251 375.5,205C 375,206.5 374.5,208 374,209.5C 372.602,210.051 371.268,210.384 370,210.5C 369.293,208.919 368.46,207.419 367.5,206C 369.233,204.811 370.9,203.644 372.5,202.5 Z"/></g>
<g><path style="opacity:0.004" fill="#000000" d="M 360.5,199.5 C 359.833,198.167 359.833,198.167 360.5,199.5 Z"/></g>
<g><path style="opacity:0.004" fill="#000000" d="M 356.5,190.5 C 357.525,190.897 357.692,191.563 357,192.5C 356.536,191.906 356.369,191.239 356.5,190.5 Z"/></g>
<g><path style="opacity:0.004" fill="#000000" d="M 356.5,187.5 C 357.833,188.167 357.833,188.167 356.5,187.5 Z"/></g>
<g><path style="opacity:0.004" fill="#00ff00" d="M 327.5,211.5 C 328.833,212.167 328.833,212.167 327.5,211.5 Z"/></g>
<g><path style="opacity:1" fill="#124534" d="M 269.5,212.5 C 270.416,204.757 270.749,197.091 270.5,189.5C 270.075,187.62 269.075,186.12 267.5,185C 268.921,183.377 270.588,182.21 272.5,181.5C 273.222,181.082 273.722,180.416 274,179.5C 277.411,180.293 280.911,180.793 284.5,181C 283.304,181.654 283.304,182.154 284.5,182.5C 285.167,181.833 285.833,181.167 286.5,180.5C 289.461,181.582 292.461,181.582 295.5,180.5C 297.693,180.864 299.527,181.864 301,183.5C 301.333,183.167 301.667,182.833 302,182.5C 304.063,184.561 305.73,186.894 307,189.5C 307.39,195.673 307.556,201.673 307.5,207.5C 305.5,209.833 303.5,212.167 301.5,214.5C 298.711,215.648 296.044,216.981 293.5,218.5C 290.198,218.151 287.031,218.151 284,218.5C 282.842,218.998 282.009,219.831 281.5,221C 282.695,222.533 282.695,224.033 281.5,225.5C 284.77,226.759 286.437,229.092 286.5,232.5C 279.655,232.958 272.988,232.458 266.5,231C 270.712,225.111 271.712,218.944 269.5,212.5 Z M 285.5,187.5 C 292.871,187.347 295.871,190.513 294.5,197C 297.006,200.056 297.006,203.223 294.5,206.5C 292.751,208.754 290.584,210.42 288,211.5C 283.845,209.69 281.345,206.523 280.5,202C 281.364,196.771 283.031,191.938 285.5,187.5 Z"/></g>
<g><path style="opacity:0.008" fill="#7e7f7e" d="M 8.5,217.5 C 9.83333,218.167 9.83333,218.167 8.5,217.5 Z"/></g>
<g><path style="opacity:0.004" fill="#000000" d="M 255.5,217.5 C 256.833,218.167 256.833,218.167 255.5,217.5 Z"/></g>
<g><path style="opacity:0.008" fill="#7e7f7e" d="M 382.5,218.5 C 382.833,218.5 383.167,218.5 383.5,218.5C 383.315,219.17 382.981,219.17 382.5,218.5 Z"/></g>
</svg>
