<svg width="297" height="100" viewBox="0 0 297 100" fill="none" xmlns="http://www.w3.org/2000/svg">
<rect width="297" height="70" fill="url(#paint0_linear_0_1)"/>
<rect width="297" height="100" fill="#CDCDCD" fill-opacity="0.1"/>
<line x1="92.5" y1="-2.18557e-08" x2="92.5" y2="100" stroke="#CDCDCD"/>
<line x1="296" y1="70.5" x2="92" y2="70.5" stroke="#CDCDCD"/>
<line x1="102" y1="37.5" x2="92" y2="37.5" stroke="#CDCDCD"/>
<line x1="102" y1="85.5" x2="92" y2="85.5" stroke="#CDCDCD"/>
<path d="M37.836 75.112C37.1453 75.112 36.4733 75.0047 35.82 74.79C35.176 74.5753 34.6487 74.286 34.238 73.922L34.882 72.816C35.2087 73.124 35.6333 73.376 36.156 73.572C36.6787 73.768 37.234 73.866 37.822 73.866C38.5687 73.866 39.1427 73.7073 39.544 73.39C39.9453 73.0727 40.146 72.648 40.146 72.116C40.146 71.752 40.0573 71.4347 39.88 71.164C39.7027 70.8933 39.3947 70.688 38.956 70.548C38.5267 70.3987 37.934 70.324 37.178 70.324H34.952L35.47 65.2H41V66.418H35.988L36.716 65.732L36.31 69.778L35.582 69.106H37.472C38.452 69.106 39.2407 69.232 39.838 69.484C40.4353 69.736 40.8693 70.086 41.14 70.534C41.4107 70.9727 41.546 71.4813 41.546 72.06C41.546 72.62 41.4107 73.1333 41.14 73.6C40.8693 74.0573 40.4587 74.426 39.908 74.706C39.3667 74.9767 38.676 75.112 37.836 75.112ZM46.7151 75.112C45.9497 75.112 45.2637 74.916 44.6571 74.524C44.0597 74.132 43.5837 73.5627 43.2291 72.816C42.8837 72.0693 42.7111 71.164 42.7111 70.1C42.7111 69.036 42.8837 68.1307 43.2291 67.384C43.5837 66.6373 44.0597 66.068 44.6571 65.676C45.2637 65.284 45.9497 65.088 46.7151 65.088C47.4711 65.088 48.1524 65.284 48.7591 65.676C49.3657 66.068 49.8417 66.6373 50.1871 67.384C50.5324 68.1307 50.7051 69.036 50.7051 70.1C50.7051 71.164 50.5324 72.0693 50.1871 72.816C49.8417 73.5627 49.3657 74.132 48.7591 74.524C48.1524 74.916 47.4711 75.112 46.7151 75.112ZM46.7151 73.866C47.2284 73.866 47.6764 73.726 48.0591 73.446C48.4511 73.166 48.7544 72.746 48.9691 72.186C49.1931 71.626 49.3051 70.9307 49.3051 70.1C49.3051 69.2693 49.1931 68.574 48.9691 68.014C48.7544 67.454 48.4511 67.034 48.0591 66.754C47.6764 66.474 47.2284 66.334 46.7151 66.334C46.2017 66.334 45.7491 66.474 45.3571 66.754C44.9651 67.034 44.6571 67.454 44.4331 68.014C44.2184 68.574 44.1111 69.2693 44.1111 70.1C44.1111 70.9307 44.2184 71.626 44.4331 72.186C44.6571 72.746 44.9651 73.166 45.3571 73.446C45.7491 73.726 46.2017 73.866 46.7151 73.866ZM51.9549 77.072L52.6549 74.244L52.8369 75.056C52.5662 75.056 52.3376 74.972 52.1509 74.804C51.9736 74.636 51.8849 74.4073 51.8849 74.118C51.8849 73.838 51.9736 73.6093 52.1509 73.432C52.3376 73.2547 52.5616 73.166 52.8229 73.166C53.0936 73.166 53.3129 73.2593 53.4809 73.446C53.6489 73.6233 53.7329 73.8473 53.7329 74.118C53.7329 74.2113 53.7236 74.3047 53.7049 74.398C53.6956 74.482 53.6722 74.5847 53.6349 74.706C53.6069 74.818 53.5602 74.958 53.4949 75.126L52.8369 77.072H51.9549ZM58.8967 75.112C58.1314 75.112 57.4454 74.916 56.8387 74.524C56.2414 74.132 55.7654 73.5627 55.4107 72.816C55.0654 72.0693 54.8927 71.164 54.8927 70.1C54.8927 69.036 55.0654 68.1307 55.4107 67.384C55.7654 66.6373 56.2414 66.068 56.8387 65.676C57.4454 65.284 58.1314 65.088 58.8967 65.088C59.6527 65.088 60.334 65.284 60.9407 65.676C61.5474 66.068 62.0234 66.6373 62.3687 67.384C62.714 68.1307 62.8867 69.036 62.8867 70.1C62.8867 71.164 62.714 72.0693 62.3687 72.816C62.0234 73.5627 61.5474 74.132 60.9407 74.524C60.334 74.916 59.6527 75.112 58.8967 75.112ZM58.8967 73.866C59.41 73.866 59.858 73.726 60.2407 73.446C60.6327 73.166 60.936 72.746 61.1507 72.186C61.3747 71.626 61.4867 70.9307 61.4867 70.1C61.4867 69.2693 61.3747 68.574 61.1507 68.014C60.936 67.454 60.6327 67.034 60.2407 66.754C59.858 66.474 59.41 66.334 58.8967 66.334C58.3834 66.334 57.9307 66.474 57.5387 66.754C57.1467 67.034 56.8387 67.454 56.6147 68.014C56.4 68.574 56.2927 69.2693 56.2927 70.1C56.2927 70.9307 56.4 71.626 56.6147 72.186C56.8387 72.746 57.1467 73.166 57.5387 73.446C57.9307 73.726 58.3834 73.866 58.8967 73.866ZM68.2346 75.112C67.4693 75.112 66.7833 74.916 66.1766 74.524C65.5793 74.132 65.1033 73.5627 64.7486 72.816C64.4033 72.0693 64.2306 71.164 64.2306 70.1C64.2306 69.036 64.4033 68.1307 64.7486 67.384C65.1033 66.6373 65.5793 66.068 66.1766 65.676C66.7833 65.284 67.4693 65.088 68.2346 65.088C68.9906 65.088 69.6719 65.284 70.2786 65.676C70.8853 66.068 71.3613 66.6373 71.7066 67.384C72.0519 68.1307 72.2246 69.036 72.2246 70.1C72.2246 71.164 72.0519 72.0693 71.7066 72.816C71.3613 73.5627 70.8853 74.132 70.2786 74.524C69.6719 74.916 68.9906 75.112 68.2346 75.112ZM68.2346 73.866C68.7479 73.866 69.1959 73.726 69.5786 73.446C69.9706 73.166 70.2739 72.746 70.4886 72.186C70.7126 71.626 70.8246 70.9307 70.8246 70.1C70.8246 69.2693 70.7126 68.574 70.4886 68.014C70.2739 67.454 69.9706 67.034 69.5786 66.754C69.1959 66.474 68.7479 66.334 68.2346 66.334C67.7213 66.334 67.2686 66.474 66.8766 66.754C66.4846 67.034 66.1766 67.454 65.9526 68.014C65.7379 68.574 65.6306 69.2693 65.6306 70.1C65.6306 70.9307 65.7379 71.626 65.9526 72.186C66.1766 72.746 66.4846 73.166 66.8766 73.446C67.2686 73.726 67.7213 73.866 68.2346 73.866ZM77.5725 75.112C76.8072 75.112 76.1212 74.916 75.5145 74.524C74.9172 74.132 74.4412 73.5627 74.0865 72.816C73.7412 72.0693 73.5685 71.164 73.5685 70.1C73.5685 69.036 73.7412 68.1307 74.0865 67.384C74.4412 66.6373 74.9172 66.068 75.5145 65.676C76.1212 65.284 76.8072 65.088 77.5725 65.088C78.3285 65.088 79.0098 65.284 79.6165 65.676C80.2232 66.068 80.6992 66.6373 81.0445 67.384C81.3898 68.1307 81.5625 69.036 81.5625 70.1C81.5625 71.164 81.3898 72.0693 81.0445 72.816C80.6992 73.5627 80.2232 74.132 79.6165 74.524C79.0098 74.916 78.3285 75.112 77.5725 75.112ZM77.5725 73.866C78.0858 73.866 78.5338 73.726 78.9165 73.446C79.3085 73.166 79.6118 72.746 79.8265 72.186C80.0505 71.626 80.1625 70.9307 80.1625 70.1C80.1625 69.2693 80.0505 68.574 79.8265 68.014C79.6118 67.454 79.3085 67.034 78.9165 66.754C78.5338 66.474 78.0858 66.334 77.5725 66.334C77.0592 66.334 76.6065 66.474 76.2145 66.754C75.8225 67.034 75.5145 67.454 75.2905 68.014C75.0758 68.574 74.9685 69.2693 74.9685 70.1C74.9685 70.9307 75.0758 71.626 75.2905 72.186C75.5145 72.746 75.8225 73.166 76.2145 73.446C76.6065 73.726 77.0592 73.866 77.5725 73.866Z" fill="black" fill-opacity="0.7"/>
<defs>
<linearGradient id="paint0_linear_0_1" x1="0" y1="35" x2="297" y2="35" gradientUnits="userSpaceOnUse">
<stop stop-color="#86EB20" stop-opacity="0"/>
<stop offset="1" stop-color="#86EB20"/>
</linearGradient>
</defs>
</svg>
