<svg width="43" height="42" viewBox="0 0 43 42" fill="none" xmlns="http://www.w3.org/2000/svg">
<path d="M34.625 6.5625H8.375C7.33071 6.5625 6.32919 6.97734 5.59077 7.71577C4.85234 8.45419 4.4375 9.45571 4.4375 10.5V28.875C4.4375 29.9193 4.85234 30.9208 5.59077 31.6592C6.32919 32.3977 7.33071 32.8125 8.375 32.8125H20.1875V35.4375H16.25C15.9019 35.4375 15.5681 35.5758 15.3219 35.8219C15.0758 36.0681 14.9375 36.4019 14.9375 36.75C14.9375 37.0981 15.0758 37.4319 15.3219 37.6781C15.5681 37.9242 15.9019 38.0625 16.25 38.0625H26.75C27.0981 38.0625 27.4319 37.9242 27.6781 37.6781C27.9242 37.4319 28.0625 37.0981 28.0625 36.75C28.0625 36.4019 27.9242 36.0681 27.6781 35.8219C27.4319 35.5758 27.0981 35.4375 26.75 35.4375H22.8125V32.8125H34.625C35.6693 32.8125 36.6708 32.3977 37.4092 31.6592C38.1477 30.9208 38.5625 29.9193 38.5625 28.875V10.5C38.5625 9.45571 38.1477 8.45419 37.4092 7.71577C36.6708 6.97734 35.6693 6.5625 34.625 6.5625ZM8.375 9.1875H34.625C34.9731 9.1875 35.3069 9.32578 35.5531 9.57192C35.7992 9.81806 35.9375 10.1519 35.9375 10.5V23.625H7.0625V10.5C7.0625 10.1519 7.20078 9.81806 7.44692 9.57192C7.69306 9.32578 8.0269 9.1875 8.375 9.1875ZM34.625 30.1875H8.375C8.0269 30.1875 7.69306 30.0492 7.44692 29.8031C7.20078 29.5569 7.0625 29.2231 7.0625 28.875V26.25H35.9375V28.875C35.9375 29.2231 35.7992 29.5569 35.5531 29.8031C35.3069 30.0492 34.9731 30.1875 34.625 30.1875Z" fill="black"/>
</svg>
