<svg width="322" height="150" viewBox="0 0 322 150" fill="none" xmlns="http://www.w3.org/2000/svg">
<rect x="25" y="21" width="297" height="100" fill="#CDCDCD" fill-opacity="0.1"/>
<g filter="url(#filter0_d_0_1)">
<path d="M25 21H292L112 121L25 91V21Z" fill="white"/>
</g>
<g filter="url(#filter1_d_0_1)">
<path d="M25 21H262L167 109L25 98V21Z" fill="white"/>
</g>
<mask id="mask0_0_1" style="mask-type:alpha" maskUnits="userSpaceOnUse" x="25" y="21" width="237" height="88">
<path d="M25 21H262L167 109L25 98V21Z" fill="url(#paint0_linear_0_1)"/>
</mask>
<g mask="url(#mask0_0_1)">
<path d="M109.095 81.1775C108.819 77.9532 109.904 71.3025 116.452 70.4943C122.999 69.6861 123.962 64.0279 123.625 61.2999C124.365 59.3757 126.751 55.5378 130.373 55.5795C133.995 55.6211 134.517 50.5469 134.325 48.0046C135.254 47.279 137.547 46.3851 139.288 48.6139C141.029 50.8427 142.77 43.5001 143.423 39.5502C144.372 38.6592 146.866 36.9503 149.248 37.2427C151.63 37.5351 152.382 33.5974 152.46 31.592C153.615 30.3905 156.521 28.0605 158.903 28.3529" stroke="#CDCDCD" stroke-opacity="0.4"/>
<path d="M136.808 28.3225C137.084 31.5468 135.998 38.1975 129.451 39.0057C122.904 39.8139 121.941 45.4721 122.277 48.2001C121.537 50.1243 119.152 53.9622 115.53 53.9205C111.908 53.8789 111.386 58.9531 111.578 61.4954C110.649 62.221 108.356 63.1149 106.615 60.8861C104.873 58.6573 103.132 65.9999 102.48 69.9498C101.531 70.8408 99.0372 72.5497 96.6551 72.2573C94.273 71.9649 93.5209 75.9026 93.4426 77.908C92.2876 79.1095 89.382 81.4395 86.9999 81.1471" stroke="#CDCDCD" stroke-opacity="0.4"/>
<path d="M118.808 28.3225C119.084 31.5468 117.999 38.1975 111.451 39.0057C104.904 39.8139 103.941 45.4721 104.277 48.2001C103.537 50.1243 101.152 53.9622 97.5301 53.9205C93.9082 53.8789 93.386 58.9531 93.5777 61.4954C92.649 62.221 90.3563 63.1149 88.6149 60.8861C86.8735 58.6573 85.1325 65.9999 84.4797 69.9498C83.5307 70.8408 81.0372 72.5497 78.6551 72.2573C76.273 71.9649 75.5209 75.9026 75.4426 77.908C74.2876 79.1095 71.3821 81.4395 68.9999 81.147" stroke="#CDCDCD" stroke-opacity="0.4"/>
<path d="M100.808 28.3225C101.084 31.5468 99.9985 38.1975 93.4513 39.0057C86.904 39.8139 85.9407 45.4721 86.2775 48.2001C85.5375 50.1243 83.1521 53.9622 79.5301 53.9205C75.9082 53.8789 75.386 58.9531 75.5777 61.4954C74.649 62.221 72.3563 63.1149 70.615 60.8861C68.8736 58.6573 67.1325 65.9999 66.4797 69.9498C65.5307 70.8408 63.0373 72.5497 60.6551 72.2573C58.273 71.9649 57.5209 75.9026 57.4427 77.908C56.2877 79.1095 53.3821 81.4395 51 81.147" stroke="#CDCDCD" stroke-opacity="0.4"/>
<path d="M82.8078 28.3225C83.0836 31.5468 81.9985 38.1975 75.4512 39.0057C68.9039 39.8139 67.9406 45.4721 68.2774 48.2001C67.5374 50.1243 65.152 53.9622 61.5301 53.9205C57.9082 53.8789 57.386 58.9531 57.5776 61.4954C56.649 62.221 54.3563 63.1149 52.6149 60.8861C50.8735 58.6573 49.1325 65.9999 48.4797 69.9498C47.5307 70.8408 45.0372 72.5497 42.6551 72.2573C40.273 71.9649 39.5209 75.9026 39.4426 77.908C38.2876 79.1095 35.382 81.4395 32.9999 81.147" stroke="#CDCDCD" stroke-opacity="0.4"/>
<path d="M64.8078 28.3225C65.0836 31.5468 63.9985 38.1975 57.4512 39.0057C50.9039 39.8139 49.9406 45.4721 50.2774 48.2001C49.5374 50.1243 47.152 53.9622 43.5301 53.9205C39.9082 53.8789 39.386 58.9531 39.5776 61.4954C38.649 62.221 36.3563 63.1149 34.6149 60.8861C32.8735 58.6573 31.1325 65.9999 30.4797 69.9498C29.5307 70.8408 27.0372 72.5497 24.6551 72.2573C22.273 71.9649 21.5209 75.9026 21.4426 77.908C20.2876 79.1095 17.382 81.4395 14.9999 81.147" stroke="#CDCDCD" stroke-opacity="0.4"/>
<path d="M168.808 28.3225C169.084 31.5468 167.998 38.1975 161.451 39.0057C154.904 39.8139 153.941 45.4721 154.277 48.2001C153.537 50.1243 151.152 53.9622 147.53 53.9205C143.908 53.8789 143.386 58.9531 143.578 61.4954C142.649 62.221 140.356 63.1149 138.615 60.8861C136.873 58.6573 135.132 65.9999 134.48 69.9498C133.531 70.8408 131.037 72.5497 128.655 72.2573C126.273 71.9649 125.521 75.9026 125.443 77.908C124.288 79.1095 121.382 81.4395 119 81.1471" stroke="#CDCDCD" stroke-opacity="0.4"/>
<path d="M139.247 81.0945C138.971 77.8702 140.057 71.2195 146.604 70.4113C153.151 69.6031 154.114 63.9449 153.778 61.2169C154.518 59.2927 156.903 55.4548 160.525 55.4965C164.147 55.5381 164.669 50.4639 164.477 47.9216C165.406 47.196 167.699 46.3021 169.44 48.5309C171.181 50.7597 172.923 43.4171 173.575 39.4672C174.524 38.5762 177.018 36.8673 179.4 37.1597C181.782 37.4521 182.534 33.5144 182.612 31.509C183.767 30.3075 186.673 27.9775 189.055 28.2699" stroke="#CDCDCD" stroke-opacity="0.4"/>
</g>
<defs>
<filter id="filter0_d_0_1" x="0" y="0" width="317" height="150" filterUnits="userSpaceOnUse" color-interpolation-filters="sRGB">
<feFlood flood-opacity="0" result="BackgroundImageFix"/>
<feColorMatrix in="SourceAlpha" type="matrix" values="0 0 0 0 0 0 0 0 0 0 0 0 0 0 0 0 0 0 127 0" result="hardAlpha"/>
<feOffset dy="4"/>
<feGaussianBlur stdDeviation="12.5"/>
<feComposite in2="hardAlpha" operator="out"/>
<feColorMatrix type="matrix" values="0 0 0 0 0 0 0 0 0 0 0 0 0 0 0 0 0 0 0.05 0"/>
<feBlend mode="normal" in2="BackgroundImageFix" result="effect1_dropShadow_0_1"/>
<feBlend mode="normal" in="SourceGraphic" in2="effect1_dropShadow_0_1" result="shape"/>
</filter>
<filter id="filter1_d_0_1" x="0" y="0" width="287" height="138" filterUnits="userSpaceOnUse" color-interpolation-filters="sRGB">
<feFlood flood-opacity="0" result="BackgroundImageFix"/>
<feColorMatrix in="SourceAlpha" type="matrix" values="0 0 0 0 0 0 0 0 0 0 0 0 0 0 0 0 0 0 127 0" result="hardAlpha"/>
<feOffset dy="4"/>
<feGaussianBlur stdDeviation="12.5"/>
<feComposite in2="hardAlpha" operator="out"/>
<feColorMatrix type="matrix" values="0 0 0 0 0 0 0 0 0 0 0 0 0 0 0 0 0 0 0.05 0"/>
<feBlend mode="normal" in2="BackgroundImageFix" result="effect1_dropShadow_0_1"/>
<feBlend mode="normal" in="SourceGraphic" in2="effect1_dropShadow_0_1" result="shape"/>
</filter>
<linearGradient id="paint0_linear_0_1" x1="181.5" y1="65" x2="21.5" y2="25" gradientUnits="userSpaceOnUse">
<stop stop-color="white"/>
<stop offset="1" stop-color="white" stop-opacity="0"/>
</linearGradient>
</defs>
</svg>
