<svg width="194" height="100" viewBox="0 0 194 100" fill="none" xmlns="http://www.w3.org/2000/svg">
<rect width="194" height="100" fill="#CDCDCD" fill-opacity="0.1"/>
<path d="M68.5 24L97.0002 17L126 24C126 24 126 56.5 114.5 69.5C103 82.5 97.0002 83 97.0002 83C97.0002 83 86.282 78.9231 79.9999 69.5C66 48.5 68.5 24 68.5 24Z" fill="#86EB20" fill-opacity="0.1"/>
<path d="M124.989 24.7842C124.986 24.9609 124.984 25.166 124.978 25.3975C124.956 26.3024 124.911 27.6122 124.822 29.2256C124.643 32.4542 124.286 36.8923 123.573 41.7295C122.859 46.5696 121.792 51.7901 120.199 56.5918C118.602 61.4043 116.499 65.7307 113.751 68.8379C108.052 75.28 103.754 78.5805 100.925 80.2656C99.5124 81.1075 98.4677 81.546 97.7985 81.7715C97.4891 81.8757 97.2589 81.9332 97.11 81.9658C97.055 81.9431 96.9908 81.9164 96.9186 81.8857C96.6261 81.7613 96.1964 81.572 95.6599 81.3145C94.5857 80.7989 93.0849 80.0134 91.3913 78.9395C87.9957 76.7862 83.8686 73.5006 80.8317 68.9453C73.9443 58.6141 71.1046 47.4014 69.9919 38.7471C69.4361 34.4239 69.3124 30.7505 69.3278 28.1621C69.3355 26.8683 69.3785 25.8465 69.4186 25.1514C69.4261 25.0221 69.435 24.9042 69.4421 24.7979L97.0016 18.0283L124.989 24.7842Z" stroke="#86EB20" stroke-opacity="0.4" stroke-width="2"/>
</svg>
