<svg width="43" height="42" viewBox="0 0 43 42" fill="none" xmlns="http://www.w3.org/2000/svg">
<path d="M36.9006 13.6434C38.7219 17.4526 39.0676 21.8014 37.8711 25.8505C36.6745 29.8997 34.0205 33.3621 30.4213 35.5695C26.8221 37.7769 22.5327 38.5728 18.3811 37.8037C14.2296 37.0345 10.51 34.7548 7.94044 31.4046C5.37085 28.0543 4.13334 23.8709 4.46675 19.6619C4.80017 15.4528 6.68088 11.5165 9.7459 8.61255C12.8109 5.70861 16.843 4.04294 21.0639 3.93702C25.2848 3.8311 29.3953 5.29243 32.6021 8.03898L36.3214 4.31805C36.5677 4.07177 36.9017 3.93341 37.25 3.93341C37.5983 3.93341 37.9323 4.07177 38.1786 4.31805C38.4249 4.56432 38.5632 4.89835 38.5632 5.24664C38.5632 5.59493 38.4249 5.92895 38.1786 6.17523L22.4286 21.9252C22.1823 22.1715 21.8483 22.3099 21.5 22.3099C21.1517 22.3099 20.8177 22.1715 20.5714 21.9252C20.3251 21.679 20.1868 21.3449 20.1868 20.9966C20.1868 20.6483 20.3251 20.3143 20.5714 20.068L25.1192 15.5202C23.8867 14.7051 22.4152 14.3298 20.9428 14.4551C19.4704 14.5803 18.0834 15.1988 17.0064 16.2105C15.9293 17.2221 15.2251 18.5677 15.0079 20.0293C14.7907 21.4909 15.0732 22.9831 15.8095 24.2642C16.5459 25.5453 17.6931 26.5405 19.0654 27.0885C20.4377 27.6365 21.9548 27.7053 23.3711 27.2838C24.7874 26.8623 26.02 25.9751 26.8693 24.7659C27.7186 23.5567 28.135 22.0962 28.051 20.6209C28.0413 20.4486 28.0657 20.276 28.1227 20.113C28.1797 19.9501 28.2682 19.8 28.3832 19.6712C28.4983 19.5425 28.6375 19.4377 28.793 19.3628C28.9486 19.2879 29.1173 19.2443 29.2897 19.2346C29.6378 19.215 29.9794 19.3345 30.2394 19.5668C30.3681 19.6818 30.4729 19.8211 30.5479 19.9766C30.6228 20.1322 30.6663 20.3009 30.676 20.4733C30.7957 22.5614 30.1993 24.6279 28.9853 26.3312C27.7714 28.0344 26.0127 29.2725 23.9998 29.8408C21.9869 30.4091 19.8403 30.2735 17.9149 29.4565C15.9895 28.6395 14.4004 27.19 13.4104 25.3476C12.4204 23.5052 12.0887 21.3801 12.4701 19.3236C12.8515 17.2671 13.9232 15.4022 15.508 14.0373C17.0928 12.6724 19.096 11.8891 21.1863 11.8169C23.2766 11.7446 25.329 12.3878 27.0043 13.6401L30.7367 9.90765C28.0015 7.6367 24.5236 6.45637 20.9712 6.59339C17.4187 6.7304 14.0421 8.17509 11.4899 10.65C8.93767 13.1249 7.38982 16.4554 7.14362 20.002C6.89743 23.5486 7.97023 27.0611 10.156 29.8649C12.3418 32.6687 15.4864 34.5661 18.9858 35.1926C22.4853 35.8192 26.0929 35.1307 29.1157 33.2595C32.1385 31.3882 34.3633 28.4661 35.363 25.0545C36.3626 21.6428 36.0665 17.9821 34.5315 14.7754C34.3814 14.4612 34.3622 14.1003 34.4782 13.772C34.5942 13.4437 34.8359 13.175 35.15 13.0248C35.4642 12.8747 35.8251 12.8556 36.1534 12.9715C36.4817 13.0875 36.7504 13.3292 36.9006 13.6434Z" fill="black"/>
</svg>
