<svg width="297" height="100" viewBox="0 0 297 100" fill="none" xmlns="http://www.w3.org/2000/svg">
<rect width="297" height="100" fill="#CDCDCD" fill-opacity="0.1"/>
<rect y="48" width="38" height="34" fill="#CDCDCD"/>
<rect x="38" y="48" width="180" height="34" fill="#fabe1a" fill-opacity="0.2"/>
<rect x="218" y="48" width="46" height="34" fill="#fabe1a" fill-opacity="0.2"/>
<line x1="218.5" y1="18" x2="218.5" y2="82" stroke="#CDCDCD" stroke-opacity="0.4"/>
<line x1="38.5" y1="18" x2="38.5" y2="82" stroke="#CDCDCD" stroke-opacity="0.4"/>
<path d="M43.596 32V22.2H47.264C48.0947 22.2 48.8087 22.3353 49.406 22.606C50.0033 22.8673 50.4607 23.25 50.778 23.754C51.1047 24.2487 51.268 24.8507 51.268 25.56C51.268 26.2507 51.1047 26.848 50.778 27.352C50.4607 27.8467 50.0033 28.2293 49.406 28.5C48.8087 28.7707 48.0947 28.906 47.264 28.906H44.17L44.632 28.416V32H43.596ZM44.632 28.5L44.17 27.996H47.236C48.216 27.996 48.958 27.786 49.462 27.366C49.9753 26.9367 50.232 26.3347 50.232 25.56C50.232 24.776 49.9753 24.1693 49.462 23.74C48.958 23.3107 48.216 23.096 47.236 23.096H44.17L44.632 22.606V28.5ZM53.1204 32V24.65H54.0724V26.652L53.9744 26.302C54.1797 25.742 54.525 25.3173 55.0104 25.028C55.4957 24.7293 56.0977 24.58 56.8164 24.58V25.546C56.779 25.546 56.7417 25.546 56.7044 25.546C56.667 25.5367 56.6297 25.532 56.5924 25.532C55.8177 25.532 55.211 25.77 54.7724 26.246C54.3337 26.7127 54.1144 27.38 54.1144 28.248V32H53.1204ZM61.5578 32.07C60.8484 32.07 60.2091 31.9113 59.6398 31.594C59.0798 31.2673 58.6364 30.824 58.3098 30.264C57.9831 29.6947 57.8198 29.046 57.8198 28.318C57.8198 27.5807 57.9831 26.932 58.3098 26.372C58.6364 25.812 59.0798 25.3733 59.6398 25.056C60.1998 24.7387 60.8391 24.58 61.5578 24.58C62.2858 24.58 62.9298 24.7387 63.4898 25.056C64.0591 25.3733 64.5024 25.812 64.8198 26.372C65.1464 26.932 65.3098 27.5807 65.3098 28.318C65.3098 29.046 65.1464 29.6947 64.8198 30.264C64.5024 30.824 64.0591 31.2673 63.4898 31.594C62.9204 31.9113 62.2764 32.07 61.5578 32.07ZM61.5578 31.188C62.0898 31.188 62.5611 31.0713 62.9718 30.838C63.3824 30.5953 63.7044 30.2593 63.9378 29.83C64.1804 29.3913 64.3018 28.8873 64.3018 28.318C64.3018 27.7393 64.1804 27.2353 63.9378 26.806C63.7044 26.3767 63.3824 26.0453 62.9718 25.812C62.5611 25.5693 62.0944 25.448 61.5718 25.448C61.0491 25.448 60.5824 25.5693 60.1718 25.812C59.7611 26.0453 59.4344 26.3767 59.1918 26.806C58.9491 27.2353 58.8278 27.7393 58.8278 28.318C58.8278 28.8873 58.9491 29.3913 59.1918 29.83C59.4344 30.2593 59.7611 30.5953 60.1718 30.838C60.5824 31.0713 61.0444 31.188 61.5578 31.188ZM67.5071 32V23.726C67.5071 23.0727 67.6985 22.5453 68.0811 22.144C68.4638 21.7427 69.0145 21.542 69.7331 21.542C70.0131 21.542 70.2838 21.5793 70.5451 21.654C70.8065 21.7287 71.0258 21.8453 71.2031 22.004L70.8671 22.746C70.7271 22.6247 70.5638 22.536 70.3771 22.48C70.1905 22.4147 69.9898 22.382 69.7751 22.382C69.3551 22.382 69.0331 22.4987 68.8091 22.732C68.5851 22.9653 68.4731 23.3107 68.4731 23.768V24.888L68.5011 25.35V32H67.5071ZM66.1911 25.476V24.65H70.7411V25.476H66.1911ZM72.0851 32V24.65H73.0791V32H72.0851ZM72.5891 23.026C72.3838 23.026 72.2111 22.956 72.0711 22.816C71.9311 22.676 71.8611 22.508 71.8611 22.312C71.8611 22.116 71.9311 21.9527 72.0711 21.822C72.2111 21.682 72.3838 21.612 72.5891 21.612C72.7945 21.612 72.9671 21.6773 73.1071 21.808C73.2471 21.9387 73.3171 22.102 73.3171 22.298C73.3171 22.5033 73.2471 22.676 73.1071 22.816C72.9765 22.956 72.8038 23.026 72.5891 23.026ZM78.1944 32.07C77.5037 32.07 76.9717 31.8833 76.5984 31.51C76.225 31.1367 76.0384 30.6093 76.0384 29.928V23.026H77.0324V29.872C77.0324 30.3013 77.1397 30.6327 77.3544 30.866C77.5784 31.0993 77.8957 31.216 78.3064 31.216C78.745 31.216 79.109 31.09 79.3984 30.838L79.7484 31.552C79.5524 31.7293 79.3144 31.86 79.0344 31.944C78.7637 32.028 78.4837 32.07 78.1944 32.07ZM74.7224 25.476V24.65H79.2724V25.476H74.7224Z" fill="black"/>
<path d="M223.436 32V22.62L223.884 23.096H221.126V22.2H224.444V32H223.436ZM230.693 32.084C229.937 32.084 229.265 31.888 228.677 31.496C228.089 31.0947 227.627 30.5253 227.291 29.788C226.955 29.0413 226.787 28.1453 226.787 27.1C226.787 26.0547 226.955 25.1633 227.291 24.426C227.627 23.6793 228.089 23.11 228.677 22.718C229.265 22.3167 229.937 22.116 230.693 22.116C231.449 22.116 232.121 22.3167 232.709 22.718C233.297 23.11 233.759 23.6793 234.095 24.426C234.44 25.1633 234.613 26.0547 234.613 27.1C234.613 28.1453 234.44 29.0413 234.095 29.788C233.759 30.5253 233.297 31.0947 232.709 31.496C232.121 31.888 231.449 32.084 230.693 32.084ZM230.693 31.16C231.271 31.16 231.775 31.006 232.205 30.698C232.634 30.3807 232.97 29.9233 233.213 29.326C233.455 28.7193 233.577 27.9773 233.577 27.1C233.577 26.2227 233.455 25.4853 233.213 24.888C232.97 24.2813 232.634 23.824 232.205 23.516C231.775 23.1987 231.271 23.04 230.693 23.04C230.133 23.04 229.633 23.1987 229.195 23.516C228.756 23.824 228.415 24.2813 228.173 24.888C227.93 25.4853 227.809 26.2227 227.809 27.1C227.809 27.9773 227.93 28.7193 228.173 29.326C228.415 29.9233 228.756 30.3807 229.195 30.698C229.633 31.006 230.133 31.16 230.693 31.16ZM237.372 32L244.064 22.2H244.89L238.198 32H237.372ZM238.128 27.45C237.689 27.45 237.302 27.3427 236.966 27.128C236.63 26.904 236.369 26.5913 236.182 26.19C236.005 25.7887 235.916 25.322 235.916 24.79C235.916 24.258 236.005 23.7913 236.182 23.39C236.369 22.9887 236.63 22.6807 236.966 22.466C237.302 22.242 237.689 22.13 238.128 22.13C238.567 22.13 238.949 22.242 239.276 22.466C239.612 22.6807 239.873 22.9887 240.06 23.39C240.247 23.7913 240.34 24.258 240.34 24.79C240.34 25.322 240.247 25.7887 240.06 26.19C239.873 26.5913 239.612 26.904 239.276 27.128C238.949 27.3427 238.567 27.45 238.128 27.45ZM238.128 26.82C238.585 26.82 238.949 26.6427 239.22 26.288C239.5 25.924 239.64 25.4247 239.64 24.79C239.64 24.1553 239.5 23.6607 239.22 23.306C238.949 22.942 238.585 22.76 238.128 22.76C237.661 22.76 237.293 22.942 237.022 23.306C236.751 23.6607 236.616 24.1553 236.616 24.79C236.616 25.4247 236.751 25.924 237.022 26.288C237.293 26.6427 237.661 26.82 238.128 26.82ZM244.134 32.07C243.705 32.07 243.322 31.9627 242.986 31.748C242.65 31.524 242.389 31.2113 242.202 30.81C242.015 30.4087 241.922 29.942 241.922 29.41C241.922 28.878 242.015 28.4113 242.202 28.01C242.389 27.6087 242.65 27.3007 242.986 27.086C243.322 26.862 243.705 26.75 244.134 26.75C244.582 26.75 244.969 26.862 245.296 27.086C245.632 27.3007 245.889 27.6087 246.066 28.01C246.253 28.4113 246.346 28.878 246.346 29.41C246.346 29.942 246.253 30.4087 246.066 30.81C245.889 31.2113 245.632 31.524 245.296 31.748C244.969 31.9627 244.582 32.07 244.134 32.07ZM244.134 31.44C244.591 31.44 244.955 31.2627 245.226 30.908C245.506 30.544 245.646 30.0447 245.646 29.41C245.646 28.7753 245.506 28.2807 245.226 27.926C244.955 27.562 244.591 27.38 244.134 27.38C243.677 27.38 243.308 27.562 243.028 27.926C242.757 28.2807 242.622 28.7753 242.622 29.41C242.622 30.0447 242.757 30.544 243.028 30.908C243.308 31.2627 243.677 31.44 244.134 31.44Z" fill="black"/>
</svg>
