<svg width="438" height="510" viewBox="0 0 438 510" fill="none" xmlns="http://www.w3.org/2000/svg">
<path d="M187.835 17.1179C188.31 12.8399 185.656 11.3742 184.27 11.1762C184.369 9.88881 185.399 7.25464 188.726 7.01697C192.053 6.7793 193.479 9.09658 193.777 10.2849C192.39 10.7801 190.362 12.6334 190.211 16.2268C187.835 72.9704 181.002 78.9122 186.052 93.4694C189.023 79.3083 197.995 45.9355 210.116 25.7336C196.094 50.9266 189.419 83.5665 187.835 96.7374C181.84 132.982 189.617 169.821 189.617 203.689C189.617 204.283 189.023 205.709 190.212 214.978C191.4 224.247 199.421 280.436 203.283 307.372C203.184 310.739 203.64 317.354 206.254 316.879C208.869 316.404 215.86 312.324 219.029 310.343C208.571 318.186 205.561 324.702 205.363 326.98C204.571 329.951 201.679 345.162 196.45 382.238C191.222 419.314 185.359 460.075 183.081 475.82C181.794 479.683 179.635 488.417 181.299 492.457C182.963 496.498 184.171 504.836 184.567 508.5H177.437C176.942 507.609 175.476 503.39 173.575 493.646C171.673 483.901 166.246 477.306 163.771 475.226L102.274 416.106L165.85 473.147C180.111 490.021 177.14 466.611 182.19 442.844C184.963 417.492 191.459 362.69 195.262 346.29C200.015 325.791 199.421 314.205 197.936 307.372C196.747 301.906 195.658 289.448 195.262 283.902C192.885 246.172 185.755 218.246 183.676 210.819C182.012 204.877 182.982 200.025 183.676 198.341C187.716 183.606 183.775 146.054 181.299 129.12C179.398 128.407 179.714 126.05 180.111 124.961C185.458 117.533 183.379 86.0423 181.002 81.586C179.971 79.6526 180.309 77.8228 181.002 76.8324C187.835 64.3548 187.241 22.4655 187.835 17.1179Z" fill="#E0B84D"/>
<path d="M102.274 416.106L165.85 473.147C180.111 490.021 177.14 466.611 182.19 442.844C184.963 417.492 191.459 362.69 195.262 346.29C200.015 325.791 199.421 314.205 197.936 307.372C196.747 301.906 195.658 289.448 195.262 283.902C192.885 246.172 185.755 218.246 183.676 210.819C182.012 204.877 182.982 200.025 183.676 198.341C187.716 183.606 183.775 146.054 181.299 129.12C179.398 128.407 179.714 126.05 180.111 124.961C185.458 117.533 183.379 86.0423 181.002 81.586C179.971 79.6526 180.309 77.8228 181.002 76.8324C187.835 64.3548 187.241 22.4655 187.835 17.1179C188.31 12.8399 185.656 11.3742 184.27 11.1762C184.369 9.88881 185.399 7.25464 188.726 7.01697C192.053 6.7793 193.479 9.09658 193.777 10.2849C192.39 10.7801 190.362 12.6334 190.211 16.2268C187.835 72.9704 181.002 78.9122 186.052 93.4694C189.023 79.3083 197.995 45.9355 210.116 25.7336C196.094 50.9266 189.419 83.5665 187.835 96.7374C181.84 132.982 189.617 169.821 189.617 203.689C189.617 204.283 189.023 205.709 190.212 214.978C191.4 224.247 199.421 280.436 203.283 307.372C203.184 310.739 203.64 317.354 206.254 316.879C208.869 316.404 215.86 312.324 219.029 310.343M102.274 416.106L69 388.774M102.274 416.106L163.771 475.226C166.246 477.306 171.673 483.901 173.575 493.646C175.476 503.39 176.942 507.609 177.437 508.5H184.567C184.171 504.836 182.963 496.498 181.299 492.457C179.635 488.417 181.794 479.683 183.081 475.82C185.359 460.075 191.222 419.314 196.45 382.238C201.679 345.162 204.571 329.951 205.363 326.98C205.561 324.702 208.571 318.186 219.029 310.343M219.029 310.343C229.486 302.5 263.79 275.584 279.635 263.106" stroke="#E0B84D" stroke-width="2.3767"/>
<path d="M0.497159 326.593V324.818H8.85938V326.593H5.74219V335H3.61435V326.593H0.497159ZM12.5396 335.149C11.7673 335.149 11.0995 334.985 10.536 334.657C9.97591 334.326 9.54338 333.865 9.23846 333.275C8.93353 332.682 8.78107 331.994 8.78107 331.212C8.78107 330.423 8.93353 329.733 9.23846 329.143C9.54338 328.55 9.97591 328.089 10.536 327.761C11.0995 327.43 11.7673 327.264 12.5396 327.264C13.3118 327.264 13.978 327.43 14.5382 327.761C15.1016 328.089 15.5358 328.55 15.8407 329.143C16.1457 329.733 16.2981 330.423 16.2981 331.212C16.2981 331.994 16.1457 332.682 15.8407 333.275C15.5358 333.865 15.1016 334.326 14.5382 334.657C13.978 334.985 13.3118 335.149 12.5396 335.149ZM12.5495 333.509C12.9009 333.509 13.1942 333.409 13.4295 333.21C13.6648 333.008 13.8422 332.733 13.9615 332.385C14.0841 332.037 14.1454 331.641 14.1454 331.197C14.1454 330.753 14.0841 330.357 13.9615 330.009C13.8422 329.661 13.6648 329.385 13.4295 329.183C13.1942 328.981 12.9009 328.88 12.5495 328.88C12.1949 328.88 11.8966 328.981 11.6547 329.183C11.416 329.385 11.2354 329.661 11.1127 330.009C10.9934 330.357 10.9338 330.753 10.9338 331.197C10.9338 331.641 10.9934 332.037 11.1127 332.385C11.2354 332.733 11.416 333.008 11.6547 333.21C11.8966 333.409 12.1949 333.509 12.5495 333.509ZM20.4892 335.124C19.9092 335.124 19.3838 334.975 18.9132 334.677C18.4458 334.375 18.0746 333.933 17.7995 333.349C17.5278 332.763 17.3919 332.044 17.3919 331.192C17.3919 330.317 17.5327 329.589 17.8145 329.009C18.0962 328.426 18.4707 327.99 18.938 327.702C19.4087 327.41 19.9241 327.264 20.4842 327.264C20.9118 327.264 21.2681 327.337 21.5531 327.483C21.8414 327.625 22.0734 327.804 22.2491 328.02C22.4281 328.232 22.564 328.441 22.6568 328.646H22.7214V324.818H24.8343V335H22.7463V333.777H22.6568C22.5574 333.989 22.4165 334.2 22.2342 334.408C22.0552 334.614 21.8216 334.785 21.5332 334.92C21.2482 335.056 20.9002 335.124 20.4892 335.124ZM21.1603 333.439C21.5017 333.439 21.7901 333.346 22.0254 333.161C22.264 332.972 22.4463 332.708 22.5723 332.37C22.7015 332.032 22.7662 331.636 22.7662 331.182C22.7662 330.728 22.7032 330.333 22.5772 329.999C22.4513 329.664 22.269 329.405 22.0304 329.223C21.7917 329.041 21.5017 328.95 21.1603 328.95C20.8123 328.95 20.519 329.044 20.2804 329.233C20.0417 329.422 19.8611 329.684 19.7385 330.018C19.6158 330.353 19.5545 330.741 19.5545 331.182C19.5545 331.626 19.6158 332.019 19.7385 332.36C19.8644 332.698 20.045 332.963 20.2804 333.156C20.519 333.344 20.8123 333.439 21.1603 333.439ZM28.7532 335.144C28.266 335.144 27.8318 335.06 27.4506 334.891C27.0695 334.718 26.7679 334.465 26.5458 334.13C26.3271 333.792 26.2177 333.371 26.2177 332.867C26.2177 332.443 26.2956 332.087 26.4513 331.798C26.6071 331.51 26.8192 331.278 27.0877 331.102C27.3562 330.927 27.6611 330.794 28.0025 330.705C28.3472 330.615 28.7085 330.552 29.0863 330.516C29.5304 330.469 29.8884 330.426 30.1602 330.386C30.4319 330.343 30.6291 330.28 30.7518 330.197C30.8744 330.115 30.9357 329.992 30.9357 329.83V329.8C30.9357 329.485 30.8363 329.241 30.6374 329.069C30.4419 328.897 30.1635 328.81 29.8022 328.81C29.421 328.81 29.1178 328.895 28.8924 329.064C28.667 329.23 28.5179 329.438 28.445 329.69L26.4862 329.531C26.5856 329.067 26.7811 328.666 27.0728 328.328C27.3645 327.987 27.7406 327.725 28.2013 327.543C28.6654 327.357 29.2023 327.264 29.8121 327.264C30.2364 327.264 30.6424 327.314 31.0302 327.413C31.4213 327.513 31.7676 327.667 32.0692 327.876C32.3742 328.085 32.6145 328.353 32.7901 328.681C32.9658 329.006 33.0536 329.395 33.0536 329.849V335H31.0451V333.941H30.9854C30.8628 334.18 30.6987 334.39 30.4933 334.572C30.2878 334.751 30.0408 334.892 29.7525 334.995C29.4641 335.094 29.131 335.144 28.7532 335.144ZM29.3597 333.683C29.6713 333.683 29.9464 333.621 30.185 333.499C30.4237 333.373 30.6109 333.204 30.7468 332.991C30.8827 332.779 30.9506 332.539 30.9506 332.271V331.46C30.8844 331.503 30.7932 331.543 30.6772 331.58C30.5645 331.613 30.4369 331.644 30.2944 331.674C30.1519 331.701 30.0094 331.725 29.8668 331.749C29.7243 331.768 29.5951 331.787 29.479 331.803C29.2305 331.84 29.0134 331.898 28.8278 331.977C28.6422 332.057 28.498 332.165 28.3952 332.3C28.2925 332.433 28.2411 332.599 28.2411 332.798C28.2411 333.086 28.3455 333.306 28.5543 333.459C28.7665 333.608 29.0349 333.683 29.3597 333.683ZM35.7308 337.864C35.4624 337.864 35.2105 337.842 34.9751 337.799C34.7431 337.759 34.5509 337.708 34.3984 337.645L34.8757 336.064C35.1243 336.14 35.348 336.182 35.5469 336.188C35.7491 336.195 35.9231 336.148 36.0689 336.049C36.218 335.95 36.339 335.781 36.4318 335.542L36.5561 335.219L33.8168 327.364H36.044L37.625 332.972H37.7045L39.3004 327.364H41.5426L38.5746 335.825C38.4321 336.236 38.2382 336.594 37.9929 336.899C37.7509 337.207 37.4444 337.444 37.0732 337.61C36.7019 337.779 36.2545 337.864 35.7308 337.864Z" fill="black"/>
<path d="M6.516 353.084C6.516 353.78 6.276 354.36 5.796 354.824C5.324 355.28 4.6 355.508 3.624 355.508H2.016V359H0.924V350.636H3.624C4.568 350.636 5.284 350.864 5.772 351.32C6.268 351.776 6.516 352.364 6.516 353.084ZM3.624 354.608C4.232 354.608 4.68 354.476 4.968 354.212C5.256 353.948 5.4 353.572 5.4 353.084C5.4 352.052 4.808 351.536 3.624 351.536H2.016V354.608H3.624ZM8.96522 353.492C9.15722 353.116 9.42922 352.824 9.78122 352.616C10.1412 352.408 10.5772 352.304 11.0892 352.304V353.432H10.8012C9.57722 353.432 8.96522 354.096 8.96522 355.424V359H7.87322V352.424H8.96522V353.492ZM12.9138 351.356C12.7058 351.356 12.5298 351.284 12.3858 351.14C12.2418 350.996 12.1698 350.82 12.1698 350.612C12.1698 350.404 12.2418 350.228 12.3858 350.084C12.5298 349.94 12.7058 349.868 12.9138 349.868C13.1138 349.868 13.2818 349.94 13.4178 350.084C13.5618 350.228 13.6338 350.404 13.6338 350.612C13.6338 350.82 13.5618 350.996 13.4178 351.14C13.2818 351.284 13.1138 351.356 12.9138 351.356ZM13.4418 352.424V359H12.3498V352.424H13.4418ZM17.7509 357.992L19.7909 352.424H20.9549L18.3749 359H17.1029L14.5229 352.424H15.6989L17.7509 357.992ZM21.6215 355.688C21.6215 355.016 21.7575 354.428 22.0295 353.924C22.3015 353.412 22.6735 353.016 23.1455 352.736C23.6255 352.456 24.1575 352.316 24.7415 352.316C25.3175 352.316 25.8175 352.44 26.2415 352.688C26.6655 352.936 26.9815 353.248 27.1895 353.624V352.424H28.2935V359H27.1895V357.776C26.9735 358.16 26.6495 358.48 26.2175 358.736C25.7935 358.984 25.2975 359.108 24.7295 359.108C24.1455 359.108 23.6175 358.964 23.1455 358.676C22.6735 358.388 22.3015 357.984 22.0295 357.464C21.7575 356.944 21.6215 356.352 21.6215 355.688ZM27.1895 355.7C27.1895 355.204 27.0895 354.772 26.8895 354.404C26.6895 354.036 26.4175 353.756 26.0735 353.564C25.7375 353.364 25.3655 353.264 24.9575 353.264C24.5495 353.264 24.1775 353.36 23.8415 353.552C23.5055 353.744 23.2375 354.024 23.0375 354.392C22.8375 354.76 22.7375 355.192 22.7375 355.688C22.7375 356.192 22.8375 356.632 23.0375 357.008C23.2375 357.376 23.5055 357.66 23.8415 357.86C24.1775 358.052 24.5495 358.148 24.9575 358.148C25.3655 358.148 25.7375 358.052 26.0735 357.86C26.4175 357.66 26.6895 357.376 26.8895 357.008C27.0895 356.632 27.1895 356.196 27.1895 355.7ZM31.4708 353.324V357.2C31.4708 357.52 31.5388 357.748 31.6748 357.884C31.8108 358.012 32.0468 358.076 32.3828 358.076H33.1868V359H32.2028C31.5948 359 31.1388 358.86 30.8348 358.58C30.5308 358.3 30.3788 357.84 30.3788 357.2V353.324H29.5268V352.424H30.3788V350.768H31.4708V352.424H33.1868V353.324H31.4708ZM40.5099 355.46C40.5099 355.668 40.4979 355.888 40.4739 356.12H35.2179C35.2579 356.768 35.4779 357.276 35.8779 357.644C36.2859 358.004 36.7779 358.184 37.3539 358.184C37.8259 358.184 38.2179 358.076 38.5299 357.86C38.8499 357.636 39.0739 357.34 39.2019 356.972H40.3779C40.2019 357.604 39.8499 358.12 39.3219 358.52C38.7939 358.912 38.1379 359.108 37.3539 359.108C36.7299 359.108 36.1699 358.968 35.6739 358.688C35.1859 358.408 34.8019 358.012 34.5219 357.5C34.2419 356.98 34.1019 356.38 34.1019 355.7C34.1019 355.02 34.2379 354.424 34.5099 353.912C34.7819 353.4 35.1619 353.008 35.6499 352.736C36.1459 352.456 36.7139 352.316 37.3539 352.316C37.9779 352.316 38.5299 352.452 39.0099 352.724C39.4899 352.996 39.8579 353.372 40.1139 353.852C40.3779 354.324 40.5099 354.86 40.5099 355.46ZM39.3819 355.232C39.3819 354.816 39.2899 354.46 39.1059 354.164C38.9219 353.86 38.6699 353.632 38.3499 353.48C38.0379 353.32 37.6899 353.24 37.3059 353.24C36.7539 353.24 36.2819 353.416 35.8899 353.768C35.5059 354.12 35.2859 354.608 35.2299 355.232H39.3819ZM56.9652 354.812C56.9652 353.996 57.1492 353.264 57.5172 352.616C57.8852 351.96 58.3852 351.448 59.0172 351.08C59.6572 350.712 60.3652 350.528 61.1412 350.528C62.0532 350.528 62.8492 350.748 63.5292 351.188C64.2092 351.628 64.7052 352.252 65.0172 353.06H63.7092C63.4772 352.556 63.1412 352.168 62.7012 351.896C62.2692 351.624 61.7492 351.488 61.1412 351.488C60.5572 351.488 60.0332 351.624 59.5692 351.896C59.1052 352.168 58.7412 352.556 58.4772 353.06C58.2132 353.556 58.0812 354.14 58.0812 354.812C58.0812 355.476 58.2132 356.06 58.4772 356.564C58.7412 357.06 59.1052 357.444 59.5692 357.716C60.0332 357.988 60.5572 358.124 61.1412 358.124C61.7492 358.124 62.2692 357.992 62.7012 357.728C63.1412 357.456 63.4772 357.068 63.7092 356.564H65.0172C64.7052 357.364 64.2092 357.984 63.5292 358.424C62.8492 358.856 62.0532 359.072 61.1412 359.072C60.3652 359.072 59.6572 358.892 59.0172 358.532C58.3852 358.164 57.8852 357.656 57.5172 357.008C57.1492 356.36 56.9652 355.628 56.9652 354.812ZM67.7348 353.492C67.9268 353.116 68.1988 352.824 68.5508 352.616C68.9108 352.408 69.3468 352.304 69.8588 352.304V353.432H69.5708C68.3468 353.432 67.7348 354.096 67.7348 355.424V359H66.6428V352.424H67.7348V353.492ZM77.1193 355.46C77.1193 355.668 77.1073 355.888 77.0833 356.12H71.8273C71.8673 356.768 72.0873 357.276 72.4873 357.644C72.8953 358.004 73.3873 358.184 73.9633 358.184C74.4353 358.184 74.8273 358.076 75.1393 357.86C75.4593 357.636 75.6833 357.34 75.8113 356.972H76.9873C76.8113 357.604 76.4593 358.12 75.9313 358.52C75.4033 358.912 74.7473 359.108 73.9633 359.108C73.3393 359.108 72.7793 358.968 72.2833 358.688C71.7953 358.408 71.4113 358.012 71.1313 357.5C70.8513 356.98 70.7113 356.38 70.7113 355.7C70.7113 355.02 70.8473 354.424 71.1193 353.912C71.3913 353.4 71.7713 353.008 72.2593 352.736C72.7553 352.456 73.3233 352.316 73.9633 352.316C74.5873 352.316 75.1393 352.452 75.6193 352.724C76.0993 352.996 76.4673 353.372 76.7233 353.852C76.9873 354.324 77.1193 354.86 77.1193 355.46ZM75.9913 355.232C75.9913 354.816 75.8993 354.46 75.7153 354.164C75.5313 353.86 75.2793 353.632 74.9593 353.48C74.6473 353.32 74.2993 353.24 73.9153 353.24C73.3633 353.24 72.8913 353.416 72.4993 353.768C72.1153 354.12 71.8953 354.608 71.8393 355.232H75.9913ZM78.1527 355.688C78.1527 355.016 78.2887 354.428 78.5607 353.924C78.8327 353.412 79.2047 353.016 79.6767 352.736C80.1567 352.456 80.6927 352.316 81.2847 352.316C81.7967 352.316 82.2727 352.436 82.7127 352.676C83.1527 352.908 83.4887 353.216 83.7207 353.6V350.12H84.8247V359H83.7207V357.764C83.5047 358.156 83.1847 358.48 82.7607 358.736C82.3367 358.984 81.8407 359.108 81.2727 359.108C80.6887 359.108 80.1567 358.964 79.6767 358.676C79.2047 358.388 78.8327 357.984 78.5607 357.464C78.2887 356.944 78.1527 356.352 78.1527 355.688ZM83.7207 355.7C83.7207 355.204 83.6207 354.772 83.4207 354.404C83.2207 354.036 82.9487 353.756 82.6047 353.564C82.2687 353.364 81.8967 353.264 81.4887 353.264C81.0807 353.264 80.7087 353.36 80.3727 353.552C80.0367 353.744 79.7687 354.024 79.5687 354.392C79.3687 354.76 79.2687 355.192 79.2687 355.688C79.2687 356.192 79.3687 356.632 79.5687 357.008C79.7687 357.376 80.0367 357.66 80.3727 357.86C80.7087 358.052 81.0807 358.148 81.4887 358.148C81.8967 358.148 82.2687 358.052 82.6047 357.86C82.9487 357.66 83.2207 357.376 83.4207 357.008C83.6207 356.632 83.7207 356.196 83.7207 355.7ZM87.2341 351.356C87.0261 351.356 86.8501 351.284 86.7061 351.14C86.5621 350.996 86.4901 350.82 86.4901 350.612C86.4901 350.404 86.5621 350.228 86.7061 350.084C86.8501 349.94 87.0261 349.868 87.2341 349.868C87.4341 349.868 87.6021 349.94 87.7381 350.084C87.8821 350.228 87.9541 350.404 87.9541 350.612C87.9541 350.82 87.8821 350.996 87.7381 351.14C87.6021 351.284 87.4341 351.356 87.2341 351.356ZM87.7621 352.424V359H86.6701V352.424H87.7621ZM90.9552 353.324V357.2C90.9552 357.52 91.0232 357.748 91.1592 357.884C91.2952 358.012 91.5312 358.076 91.8672 358.076H92.6712V359H91.6872C91.0792 359 90.6232 358.86 90.3192 358.58C90.0152 358.3 89.8632 357.84 89.8632 357.2V353.324H89.0112V352.424H89.8632V350.768H90.9552V352.424H92.6712V353.324H90.9552ZM114.144 350.636V351.524H110.508V354.344H113.46V355.232H110.508V359H109.416V350.636H114.144ZM121.295 352.424V359H120.203V358.028C119.995 358.364 119.703 358.628 119.327 358.82C118.959 359.004 118.551 359.096 118.103 359.096C117.591 359.096 117.131 358.992 116.723 358.784C116.315 358.568 115.991 358.248 115.751 357.824C115.519 357.4 115.403 356.884 115.403 356.276V352.424H116.483V356.132C116.483 356.78 116.647 357.28 116.975 357.632C117.303 357.976 117.751 358.148 118.319 358.148C118.903 358.148 119.363 357.968 119.699 357.608C120.035 357.248 120.203 356.724 120.203 356.036V352.424H121.295ZM126.343 352.304C127.143 352.304 127.791 352.548 128.287 353.036C128.783 353.516 129.031 354.212 129.031 355.124V359H127.951V355.28C127.951 354.624 127.787 354.124 127.459 353.78C127.131 353.428 126.683 353.252 126.115 353.252C125.539 353.252 125.079 353.432 124.735 353.792C124.399 354.152 124.231 354.676 124.231 355.364V359H123.139V352.424H124.231V353.36C124.447 353.024 124.739 352.764 125.107 352.58C125.483 352.396 125.895 352.304 126.343 352.304ZM130.407 355.688C130.407 355.016 130.543 354.428 130.815 353.924C131.087 353.412 131.459 353.016 131.931 352.736C132.411 352.456 132.947 352.316 133.539 352.316C134.051 352.316 134.527 352.436 134.967 352.676C135.407 352.908 135.743 353.216 135.975 353.6V350.12H137.079V359H135.975V357.764C135.759 358.156 135.439 358.48 135.015 358.736C134.591 358.984 134.095 359.108 133.527 359.108C132.943 359.108 132.411 358.964 131.931 358.676C131.459 358.388 131.087 357.984 130.815 357.464C130.543 356.944 130.407 356.352 130.407 355.688ZM135.975 355.7C135.975 355.204 135.875 354.772 135.675 354.404C135.475 354.036 135.203 353.756 134.859 353.564C134.523 353.364 134.151 353.264 133.743 353.264C133.335 353.264 132.963 353.36 132.627 353.552C132.291 353.744 132.023 354.024 131.823 354.392C131.623 354.76 131.523 355.192 131.523 355.688C131.523 356.192 131.623 356.632 131.823 357.008C132.023 357.376 132.291 357.66 132.627 357.86C132.963 358.052 133.335 358.148 133.743 358.148C134.151 358.148 134.523 358.052 134.859 357.86C135.203 357.66 135.475 357.376 135.675 357.008C135.875 356.632 135.975 356.196 135.975 355.7ZM3.732 379.232C2.964 378.48 2.364 377.524 1.932 376.364C1.508 375.204 1.296 373.952 1.296 372.608C1.296 371.232 1.52 369.948 1.968 368.756C2.424 367.556 3.072 366.568 3.912 365.792H5.052V365.9C4.156 366.74 3.48 367.752 3.024 368.936C2.576 370.112 2.352 371.336 2.352 372.608C2.352 373.848 2.564 375.032 2.988 376.16C3.42 377.288 4.048 378.276 4.872 379.124V379.232H3.732ZM8.70122 377.108C8.19722 377.108 7.74522 377.024 7.34522 376.856C6.94522 376.68 6.62922 376.44 6.39722 376.136C6.16522 375.824 6.03722 375.468 6.01322 375.068H7.14122C7.17322 375.396 7.32522 375.664 7.59722 375.872C7.87722 376.08 8.24122 376.184 8.68922 376.184C9.10522 376.184 9.43322 376.092 9.67322 375.908C9.91322 375.724 10.0332 375.492 10.0332 375.212C10.0332 374.924 9.90522 374.712 9.64922 374.576C9.39322 374.432 8.99722 374.292 8.46122 374.156C7.97322 374.028 7.57322 373.9 7.26122 373.772C6.95722 373.636 6.69322 373.44 6.46922 373.184C6.25322 372.92 6.14522 372.576 6.14522 372.152C6.14522 371.816 6.24522 371.508 6.44522 371.228C6.64522 370.948 6.92922 370.728 7.29722 370.568C7.66522 370.4 8.08522 370.316 8.55722 370.316C9.28522 370.316 9.87322 370.5 10.3212 370.868C10.7692 371.236 11.0092 371.74 11.0412 372.38H9.94922C9.92522 372.036 9.78522 371.76 9.52922 371.552C9.28122 371.344 8.94522 371.24 8.52122 371.24C8.12922 371.24 7.81722 371.324 7.58522 371.492C7.35322 371.66 7.23722 371.88 7.23722 372.152C7.23722 372.368 7.30522 372.548 7.44122 372.692C7.58522 372.828 7.76122 372.94 7.96922 373.028C8.18522 373.108 8.48122 373.2 8.85722 373.304C9.32922 373.432 9.71322 373.56 10.0092 373.688C10.3052 373.808 10.5572 373.992 10.7652 374.24C10.9812 374.488 11.0932 374.812 11.1012 375.212C11.1012 375.572 11.0012 375.896 10.8012 376.184C10.6012 376.472 10.3172 376.7 9.94922 376.868C9.58922 377.028 9.17322 377.108 8.70122 377.108ZM15.9068 370.304C16.4028 370.304 16.8508 370.412 17.2508 370.628C17.6508 370.836 17.9628 371.152 18.1868 371.576C18.4188 372 18.5348 372.516 18.5348 373.124V377H17.4548V373.28C17.4548 372.624 17.2908 372.124 16.9628 371.78C16.6348 371.428 16.1868 371.252 15.6188 371.252C15.0428 371.252 14.5828 371.432 14.2388 371.792C13.9028 372.152 13.7348 372.676 13.7348 373.364V377H12.6428V368.12H13.7348V371.36C13.9508 371.024 14.2468 370.764 14.6228 370.58C15.0068 370.396 15.4348 370.304 15.9068 370.304ZM23.1865 377.108C22.5705 377.108 22.0105 376.968 21.5065 376.688C21.0105 376.408 20.6185 376.012 20.3305 375.5C20.0505 374.98 19.9105 374.38 19.9105 373.7C19.9105 373.028 20.0545 372.436 20.3425 371.924C20.6385 371.404 21.0385 371.008 21.5425 370.736C22.0465 370.456 22.6105 370.316 23.2345 370.316C23.8585 370.316 24.4225 370.456 24.9265 370.736C25.4305 371.008 25.8265 371.4 26.1145 371.912C26.4105 372.424 26.5585 373.02 26.5585 373.7C26.5585 374.38 26.4065 374.98 26.1025 375.5C25.8065 376.012 25.4025 376.408 24.8905 376.688C24.3785 376.968 23.8105 377.108 23.1865 377.108ZM23.1865 376.148C23.5785 376.148 23.9465 376.056 24.2905 375.872C24.6345 375.688 24.9105 375.412 25.1185 375.044C25.3345 374.676 25.4425 374.228 25.4425 373.7C25.4425 373.172 25.3385 372.724 25.1305 372.356C24.9225 371.988 24.6505 371.716 24.3145 371.54C23.9785 371.356 23.6145 371.264 23.2225 371.264C22.8225 371.264 22.4545 371.356 22.1185 371.54C21.7905 371.716 21.5265 371.988 21.3265 372.356C21.1265 372.724 21.0265 373.172 21.0265 373.7C21.0265 374.236 21.1225 374.688 21.3145 375.056C21.5145 375.424 21.7785 375.7 22.1065 375.884C22.4345 376.06 22.7945 376.148 23.1865 376.148ZM29.0863 371.492C29.2783 371.116 29.5503 370.824 29.9023 370.616C30.2623 370.408 30.6983 370.304 31.2103 370.304V371.432H30.9223C29.6983 371.432 29.0863 372.096 29.0863 373.424V377H27.9943V370.424H29.0863V371.492ZM33.8029 371.324V375.2C33.8029 375.52 33.8709 375.748 34.0069 375.884C34.1429 376.012 34.3789 376.076 34.7149 376.076H35.5189V377H34.5349C33.9269 377 33.4709 376.86 33.1669 376.58C32.8629 376.3 32.7109 375.84 32.7109 375.2V371.324H31.8589V370.424H32.7109V368.768H33.8029V370.424H35.5189V371.324H33.8029ZM41.402 372.14V373.064H36.614V372.14H41.402ZM44.7833 371.324V375.2C44.7833 375.52 44.8513 375.748 44.9873 375.884C45.1233 376.012 45.3593 376.076 45.6953 376.076H46.4993V377H45.5153C44.9073 377 44.4513 376.86 44.1473 376.58C43.8433 376.3 43.6913 375.84 43.6913 375.2V371.324H42.8393V370.424H43.6913V368.768H44.7833V370.424H46.4993V371.324H44.7833ZM53.8224 373.46C53.8224 373.668 53.8104 373.888 53.7864 374.12H48.5304C48.5704 374.768 48.7904 375.276 49.1904 375.644C49.5984 376.004 50.0904 376.184 50.6664 376.184C51.1384 376.184 51.5304 376.076 51.8424 375.86C52.1624 375.636 52.3864 375.34 52.5144 374.972H53.6904C53.5144 375.604 53.1624 376.12 52.6344 376.52C52.1064 376.912 51.4504 377.108 50.6664 377.108C50.0424 377.108 49.4824 376.968 48.9864 376.688C48.4984 376.408 48.1144 376.012 47.8344 375.5C47.5544 374.98 47.4144 374.38 47.4144 373.7C47.4144 373.02 47.5504 372.424 47.8224 371.912C48.0944 371.4 48.4744 371.008 48.9624 370.736C49.4584 370.456 50.0264 370.316 50.6664 370.316C51.2904 370.316 51.8424 370.452 52.3224 370.724C52.8024 370.996 53.1704 371.372 53.4264 371.852C53.6904 372.324 53.8224 372.86 53.8224 373.46ZM52.6944 373.232C52.6944 372.816 52.6024 372.46 52.4184 372.164C52.2344 371.86 51.9824 371.632 51.6624 371.48C51.3504 371.32 51.0024 371.24 50.6184 371.24C50.0664 371.24 49.5944 371.416 49.2024 371.768C48.8184 372.12 48.5984 372.608 48.5424 373.232H52.6944ZM56.3558 371.492C56.5478 371.116 56.8198 370.824 57.1718 370.616C57.5318 370.408 57.9678 370.304 58.4798 370.304V371.432H58.1918C56.9678 371.432 56.3558 372.096 56.3558 373.424V377H55.2638V370.424H56.3558V371.492ZM67.6484 370.304C68.1604 370.304 68.6164 370.412 69.0164 370.628C69.4164 370.836 69.7324 371.152 69.9644 371.576C70.1964 372 70.3124 372.516 70.3124 373.124V377H69.2324V373.28C69.2324 372.624 69.0684 372.124 68.7404 371.78C68.4204 371.428 67.9844 371.252 67.4324 371.252C66.8644 371.252 66.4124 371.436 66.0764 371.804C65.7404 372.164 65.5724 372.688 65.5724 373.376V377H64.4924V373.28C64.4924 372.624 64.3284 372.124 64.0004 371.78C63.6804 371.428 63.2444 371.252 62.6924 371.252C62.1244 371.252 61.6724 371.436 61.3364 371.804C61.0004 372.164 60.8324 372.688 60.8324 373.376V377H59.7404V370.424H60.8324V371.372C61.0484 371.028 61.3364 370.764 61.6964 370.58C62.0644 370.396 62.4684 370.304 62.9084 370.304C63.4604 370.304 63.9484 370.428 64.3724 370.676C64.7964 370.924 65.1124 371.288 65.3204 371.768C65.5044 371.304 65.8084 370.944 66.2324 370.688C66.6564 370.432 67.1284 370.304 67.6484 370.304ZM76.3949 368.12V377H75.3029V368.12H76.3949ZM84.256 373.46C84.256 373.668 84.244 373.888 84.22 374.12H78.964C79.004 374.768 79.224 375.276 79.624 375.644C80.032 376.004 80.524 376.184 81.1 376.184C81.572 376.184 81.964 376.076 82.276 375.86C82.596 375.636 82.82 375.34 82.948 374.972H84.124C83.948 375.604 83.596 376.12 83.068 376.52C82.54 376.912 81.884 377.108 81.1 377.108C80.476 377.108 79.916 376.968 79.42 376.688C78.932 376.408 78.548 376.012 78.268 375.5C77.988 374.98 77.848 374.38 77.848 373.7C77.848 373.02 77.984 372.424 78.256 371.912C78.528 371.4 78.908 371.008 79.396 370.736C79.892 370.456 80.46 370.316 81.1 370.316C81.724 370.316 82.276 370.452 82.756 370.724C83.236 370.996 83.604 371.372 83.86 371.852C84.124 372.324 84.256 372.86 84.256 373.46ZM83.128 373.232C83.128 372.816 83.036 372.46 82.852 372.164C82.668 371.86 82.416 371.632 82.096 371.48C81.784 371.32 81.436 371.24 81.052 371.24C80.5 371.24 80.028 371.416 79.636 371.768C79.252 372.12 79.032 372.608 78.976 373.232H83.128ZM88.9014 370.304C89.7014 370.304 90.3494 370.548 90.8454 371.036C91.3414 371.516 91.5894 372.212 91.5894 373.124V377H90.5094V373.28C90.5094 372.624 90.3454 372.124 90.0174 371.78C89.6894 371.428 89.2414 371.252 88.6734 371.252C88.0974 371.252 87.6374 371.432 87.2934 371.792C86.9574 372.152 86.7894 372.676 86.7894 373.364V377H85.6974V370.424H86.7894V371.36C87.0054 371.024 87.2974 370.764 87.6654 370.58C88.0414 370.396 88.4534 370.304 88.9014 370.304ZM92.9652 373.688C92.9652 373.016 93.1012 372.428 93.3732 371.924C93.6452 371.412 94.0172 371.016 94.4892 370.736C94.9692 370.456 95.5052 370.316 96.0972 370.316C96.6092 370.316 97.0852 370.436 97.5252 370.676C97.9652 370.908 98.3012 371.216 98.5332 371.6V368.12H99.6372V377H98.5332V375.764C98.3172 376.156 97.9972 376.48 97.5732 376.736C97.1492 376.984 96.6532 377.108 96.0852 377.108C95.5012 377.108 94.9692 376.964 94.4892 376.676C94.0172 376.388 93.6452 375.984 93.3732 375.464C93.1012 374.944 92.9652 374.352 92.9652 373.688ZM98.5332 373.7C98.5332 373.204 98.4332 372.772 98.2332 372.404C98.0332 372.036 97.7612 371.756 97.4172 371.564C97.0812 371.364 96.7092 371.264 96.3012 371.264C95.8932 371.264 95.5212 371.36 95.1852 371.552C94.8492 371.744 94.5812 372.024 94.3812 372.392C94.1812 372.76 94.0812 373.192 94.0812 373.688C94.0812 374.192 94.1812 374.632 94.3812 375.008C94.5812 375.376 94.8492 375.66 95.1852 375.86C95.5212 376.052 95.8932 376.148 96.3012 376.148C96.7092 376.148 97.0812 376.052 97.4172 375.86C97.7612 375.66 98.0332 375.376 98.2332 375.008C98.4332 374.632 98.5332 374.196 98.5332 373.7ZM102.047 369.356C101.839 369.356 101.663 369.284 101.519 369.14C101.375 368.996 101.303 368.82 101.303 368.612C101.303 368.404 101.375 368.228 101.519 368.084C101.663 367.94 101.839 367.868 102.047 367.868C102.247 367.868 102.415 367.94 102.551 368.084C102.695 368.228 102.767 368.404 102.767 368.612C102.767 368.82 102.695 368.996 102.551 369.14C102.415 369.284 102.247 369.356 102.047 369.356ZM102.575 370.424V377H101.483V370.424H102.575ZM107.64 370.304C108.44 370.304 109.088 370.548 109.584 371.036C110.08 371.516 110.328 372.212 110.328 373.124V377H109.248V373.28C109.248 372.624 109.084 372.124 108.756 371.78C108.428 371.428 107.98 371.252 107.412 371.252C106.836 371.252 106.376 371.432 106.032 371.792C105.696 372.152 105.528 372.676 105.528 373.364V377H104.436V370.424H105.528V371.36C105.744 371.024 106.036 370.764 106.404 370.58C106.78 370.396 107.192 370.304 107.64 370.304ZM114.824 370.316C115.392 370.316 115.888 370.44 116.312 370.688C116.744 370.936 117.064 371.248 117.272 371.624V370.424H118.376V377.144C118.376 377.744 118.248 378.276 117.992 378.74C117.736 379.212 117.368 379.58 116.888 379.844C116.416 380.108 115.864 380.24 115.232 380.24C114.368 380.24 113.648 380.036 113.072 379.628C112.496 379.22 112.156 378.664 112.052 377.96H113.132C113.252 378.36 113.5 378.68 113.876 378.92C114.252 379.168 114.704 379.292 115.232 379.292C115.832 379.292 116.32 379.104 116.696 378.728C117.08 378.352 117.272 377.824 117.272 377.144V375.764C117.056 376.148 116.736 376.468 116.312 376.724C115.888 376.98 115.392 377.108 114.824 377.108C114.24 377.108 113.708 376.964 113.228 376.676C112.756 376.388 112.384 375.984 112.112 375.464C111.84 374.944 111.704 374.352 111.704 373.688C111.704 373.016 111.84 372.428 112.112 371.924C112.384 371.412 112.756 371.016 113.228 370.736C113.708 370.456 114.24 370.316 114.824 370.316ZM117.272 373.7C117.272 373.204 117.172 372.772 116.972 372.404C116.772 372.036 116.5 371.756 116.156 371.564C115.82 371.364 115.448 371.264 115.04 371.264C114.632 371.264 114.26 371.36 113.924 371.552C113.588 371.744 113.32 372.024 113.12 372.392C112.92 372.76 112.82 373.192 112.82 373.688C112.82 374.192 112.92 374.632 113.12 375.008C113.32 375.376 113.588 375.66 113.924 375.86C114.26 376.052 114.632 376.148 115.04 376.148C115.448 376.148 115.82 376.052 116.156 375.86C116.5 375.66 116.772 375.376 116.972 375.008C117.172 374.632 117.272 374.196 117.272 373.7ZM119.873 379.232V379.124C120.697 378.276 121.321 377.288 121.745 376.16C122.177 375.032 122.393 373.848 122.393 372.608C122.393 371.336 122.165 370.112 121.709 368.936C121.261 367.752 120.589 366.74 119.693 365.9V365.792H120.833C121.673 366.568 122.317 367.556 122.765 368.756C123.221 369.948 123.449 371.232 123.449 372.608C123.449 373.952 123.233 375.204 122.801 376.364C122.377 377.524 121.781 378.48 121.013 379.232H119.873Z" fill="black" fill-opacity="0.7"/>
<path d="M300.401 213.818V224H298.542L294.112 217.592H294.038V224H291.885V213.818H293.774L298.169 220.222H298.259V213.818H300.401ZM305.62 224.149C304.835 224.149 304.159 223.99 303.592 223.672C303.028 223.35 302.594 222.896 302.289 222.31C301.984 221.72 301.832 221.022 301.832 220.217C301.832 219.431 301.984 218.742 302.289 218.148C302.594 217.555 303.023 217.093 303.577 216.761C304.134 216.43 304.787 216.264 305.536 216.264C306.039 216.264 306.508 216.345 306.943 216.508C307.38 216.667 307.761 216.907 308.086 217.229C308.414 217.55 308.669 217.955 308.852 218.442C309.034 218.926 309.125 219.492 309.125 220.142V220.724H302.677V219.411H307.132C307.132 219.106 307.065 218.836 306.933 218.601C306.8 218.366 306.616 218.182 306.381 218.049C306.149 217.913 305.879 217.845 305.57 217.845C305.249 217.845 304.964 217.92 304.715 218.069C304.47 218.215 304.278 218.412 304.139 218.661C303.999 218.906 303.928 219.179 303.925 219.481V220.729C303.925 221.107 303.994 221.433 304.134 221.708C304.276 221.983 304.477 222.195 304.735 222.344C304.994 222.494 305.3 222.568 305.655 222.568C305.89 222.568 306.106 222.535 306.301 222.469C306.497 222.402 306.664 222.303 306.803 222.17C306.943 222.038 307.049 221.875 307.122 221.683L309.08 221.812C308.981 222.283 308.777 222.694 308.469 223.045C308.164 223.393 307.77 223.665 307.286 223.861C306.805 224.053 306.25 224.149 305.62 224.149ZM312.14 216.364L313.542 219.033L314.979 216.364H317.152L314.939 220.182L317.211 224H315.049L313.542 221.36L312.061 224H309.873L312.14 220.182L309.953 216.364H312.14ZM322.471 216.364V217.955H317.873V216.364H322.471ZM318.917 214.534H321.035V221.653C321.035 221.849 321.064 222.001 321.124 222.111C321.184 222.217 321.267 222.291 321.373 222.335C321.482 222.378 321.608 222.399 321.751 222.399C321.85 222.399 321.949 222.391 322.049 222.374C322.148 222.354 322.224 222.339 322.278 222.33L322.611 223.906C322.505 223.939 322.355 223.977 322.163 224.02C321.971 224.066 321.737 224.094 321.462 224.104C320.952 224.124 320.504 224.056 320.12 223.901C319.739 223.745 319.442 223.503 319.23 223.175C319.018 222.847 318.913 222.432 318.917 221.932V214.534Z" fill="black"/>
<path d="M291.516 243.812C291.516 242.996 291.7 242.264 292.068 241.616C292.436 240.96 292.936 240.448 293.568 240.08C294.208 239.712 294.916 239.528 295.692 239.528C296.604 239.528 297.4 239.748 298.08 240.188C298.76 240.628 299.256 241.252 299.568 242.06H298.26C298.028 241.556 297.692 241.168 297.252 240.896C296.82 240.624 296.3 240.488 295.692 240.488C295.108 240.488 294.584 240.624 294.12 240.896C293.656 241.168 293.292 241.556 293.028 242.06C292.764 242.556 292.632 243.14 292.632 243.812C292.632 244.476 292.764 245.06 293.028 245.564C293.292 246.06 293.656 246.444 294.12 246.716C294.584 246.988 295.108 247.124 295.692 247.124C296.3 247.124 296.82 246.992 297.252 246.728C297.692 246.456 298.028 246.068 298.26 245.564H299.568C299.256 246.364 298.76 246.984 298.08 247.424C297.4 247.856 296.604 248.072 295.692 248.072C294.916 248.072 294.208 247.892 293.568 247.532C292.936 247.164 292.436 246.656 292.068 246.008C291.7 245.36 291.516 244.628 291.516 243.812ZM304.062 248.108C303.446 248.108 302.886 247.968 302.382 247.688C301.886 247.408 301.494 247.012 301.206 246.5C300.926 245.98 300.786 245.38 300.786 244.7C300.786 244.028 300.93 243.436 301.218 242.924C301.514 242.404 301.914 242.008 302.418 241.736C302.922 241.456 303.486 241.316 304.11 241.316C304.734 241.316 305.298 241.456 305.802 241.736C306.306 242.008 306.702 242.4 306.99 242.912C307.286 243.424 307.434 244.02 307.434 244.7C307.434 245.38 307.282 245.98 306.978 246.5C306.682 247.012 306.278 247.408 305.766 247.688C305.254 247.968 304.686 248.108 304.062 248.108ZM304.062 247.148C304.454 247.148 304.822 247.056 305.166 246.872C305.51 246.688 305.786 246.412 305.994 246.044C306.21 245.676 306.318 245.228 306.318 244.7C306.318 244.172 306.214 243.724 306.006 243.356C305.798 242.988 305.526 242.716 305.19 242.54C304.854 242.356 304.49 242.264 304.098 242.264C303.698 242.264 303.33 242.356 302.994 242.54C302.666 242.716 302.402 242.988 302.202 243.356C302.002 243.724 301.902 244.172 301.902 244.7C301.902 245.236 301.998 245.688 302.19 246.056C302.39 246.424 302.654 246.7 302.982 246.884C303.31 247.06 303.67 247.148 304.062 247.148ZM309.961 242.492C310.153 242.116 310.425 241.824 310.777 241.616C311.137 241.408 311.573 241.304 312.085 241.304V242.432H311.797C310.573 242.432 309.961 243.096 309.961 244.424V248H308.869V241.424H309.961V242.492ZM319.346 244.46C319.346 244.668 319.334 244.888 319.31 245.12H314.054C314.094 245.768 314.314 246.276 314.714 246.644C315.122 247.004 315.614 247.184 316.19 247.184C316.662 247.184 317.054 247.076 317.366 246.86C317.686 246.636 317.91 246.34 318.038 245.972H319.214C319.038 246.604 318.686 247.12 318.158 247.52C317.63 247.912 316.974 248.108 316.19 248.108C315.566 248.108 315.006 247.968 314.51 247.688C314.022 247.408 313.638 247.012 313.358 246.5C313.078 245.98 312.938 245.38 312.938 244.7C312.938 244.02 313.074 243.424 313.346 242.912C313.618 242.4 313.998 242.008 314.486 241.736C314.982 241.456 315.55 241.316 316.19 241.316C316.814 241.316 317.366 241.452 317.846 241.724C318.326 241.996 318.694 242.372 318.95 242.852C319.214 243.324 319.346 243.86 319.346 244.46ZM318.218 244.232C318.218 243.816 318.126 243.46 317.942 243.164C317.758 242.86 317.506 242.632 317.186 242.48C316.874 242.32 316.526 242.24 316.142 242.24C315.59 242.24 315.118 242.416 314.726 242.768C314.342 243.12 314.122 243.608 314.066 244.232H318.218ZM333.894 248L331.902 244.58H330.582V248H329.49V239.636H332.19C332.822 239.636 333.354 239.744 333.786 239.96C334.226 240.176 334.554 240.468 334.77 240.836C334.986 241.204 335.094 241.624 335.094 242.096C335.094 242.672 334.926 243.18 334.59 243.62C334.262 244.06 333.766 244.352 333.102 244.496L335.202 248H333.894ZM330.582 243.704H332.19C332.782 243.704 333.226 243.56 333.522 243.272C333.818 242.976 333.966 242.584 333.966 242.096C333.966 241.6 333.818 241.216 333.522 240.944C333.234 240.672 332.79 240.536 332.19 240.536H330.582V243.704ZM342.791 244.46C342.791 244.668 342.779 244.888 342.755 245.12H337.499C337.539 245.768 337.759 246.276 338.159 246.644C338.567 247.004 339.059 247.184 339.635 247.184C340.107 247.184 340.499 247.076 340.811 246.86C341.131 246.636 341.355 246.34 341.483 245.972H342.659C342.483 246.604 342.131 247.12 341.603 247.52C341.075 247.912 340.419 248.108 339.635 248.108C339.011 248.108 338.451 247.968 337.955 247.688C337.467 247.408 337.083 247.012 336.803 246.5C336.523 245.98 336.383 245.38 336.383 244.7C336.383 244.02 336.519 243.424 336.791 242.912C337.063 242.4 337.443 242.008 337.931 241.736C338.427 241.456 338.995 241.316 339.635 241.316C340.259 241.316 340.811 241.452 341.291 241.724C341.771 241.996 342.139 242.372 342.395 242.852C342.659 243.324 342.791 243.86 342.791 244.46ZM341.663 244.232C341.663 243.816 341.571 243.46 341.387 243.164C341.203 242.86 340.951 242.632 340.631 242.48C340.319 242.32 339.971 242.24 339.587 242.24C339.035 242.24 338.563 242.416 338.171 242.768C337.787 243.12 337.567 243.608 337.511 244.232H341.663ZM343.825 244.688C343.825 244.016 343.961 243.428 344.233 242.924C344.505 242.412 344.877 242.016 345.349 241.736C345.829 241.456 346.361 241.316 346.945 241.316C347.521 241.316 348.021 241.44 348.445 241.688C348.869 241.936 349.185 242.248 349.393 242.624V241.424H350.497V248H349.393V246.776C349.177 247.16 348.853 247.48 348.421 247.736C347.997 247.984 347.501 248.108 346.933 248.108C346.349 248.108 345.821 247.964 345.349 247.676C344.877 247.388 344.505 246.984 344.233 246.464C343.961 245.944 343.825 245.352 343.825 244.688ZM349.393 244.7C349.393 244.204 349.293 243.772 349.093 243.404C348.893 243.036 348.621 242.756 348.277 242.564C347.941 242.364 347.569 242.264 347.161 242.264C346.753 242.264 346.381 242.36 346.045 242.552C345.709 242.744 345.441 243.024 345.241 243.392C345.041 243.76 344.941 244.192 344.941 244.688C344.941 245.192 345.041 245.632 345.241 246.008C345.441 246.376 345.709 246.66 346.045 246.86C346.381 247.052 346.753 247.148 347.161 247.148C347.569 247.148 347.941 247.052 348.277 246.86C348.621 246.66 348.893 246.376 349.093 246.008C349.293 245.632 349.393 245.196 349.393 244.7ZM353.434 239.12V248H352.342V239.12H353.434ZM365.09 240.524V243.32H368.138V244.22H365.09V247.1H368.498V248H363.998V239.624H368.498V240.524H365.09ZM372.479 248.108C371.975 248.108 371.523 248.024 371.123 247.856C370.723 247.68 370.407 247.44 370.175 247.136C369.943 246.824 369.815 246.468 369.791 246.068H370.919C370.951 246.396 371.103 246.664 371.375 246.872C371.655 247.08 372.019 247.184 372.467 247.184C372.883 247.184 373.211 247.092 373.451 246.908C373.691 246.724 373.811 246.492 373.811 246.212C373.811 245.924 373.683 245.712 373.427 245.576C373.171 245.432 372.775 245.292 372.239 245.156C371.751 245.028 371.351 244.9 371.039 244.772C370.735 244.636 370.471 244.44 370.247 244.184C370.031 243.92 369.923 243.576 369.923 243.152C369.923 242.816 370.023 242.508 370.223 242.228C370.423 241.948 370.707 241.728 371.075 241.568C371.443 241.4 371.863 241.316 372.335 241.316C373.063 241.316 373.651 241.5 374.099 241.868C374.547 242.236 374.787 242.74 374.819 243.38H373.727C373.703 243.036 373.563 242.76 373.307 242.552C373.059 242.344 372.723 242.24 372.299 242.24C371.907 242.24 371.595 242.324 371.363 242.492C371.131 242.66 371.015 242.88 371.015 243.152C371.015 243.368 371.083 243.548 371.219 243.692C371.363 243.828 371.539 243.94 371.747 244.028C371.963 244.108 372.259 244.2 372.635 244.304C373.107 244.432 373.491 244.56 373.787 244.688C374.083 244.808 374.335 244.992 374.543 245.24C374.759 245.488 374.871 245.812 374.879 246.212C374.879 246.572 374.779 246.896 374.579 247.184C374.379 247.472 374.095 247.7 373.727 247.868C373.367 248.028 372.951 248.108 372.479 248.108ZM377.752 242.324V246.2C377.752 246.52 377.82 246.748 377.956 246.884C378.092 247.012 378.328 247.076 378.664 247.076H379.468V248H378.484C377.876 248 377.42 247.86 377.116 247.58C376.812 247.3 376.66 246.84 376.66 246.2V242.324H375.808V241.424H376.66V239.768H377.752V241.424H379.468V242.324H377.752ZM380.383 244.688C380.383 244.016 380.519 243.428 380.791 242.924C381.063 242.412 381.435 242.016 381.907 241.736C382.387 241.456 382.919 241.316 383.503 241.316C384.079 241.316 384.579 241.44 385.003 241.688C385.427 241.936 385.743 242.248 385.951 242.624V241.424H387.055V248H385.951V246.776C385.735 247.16 385.411 247.48 384.979 247.736C384.555 247.984 384.059 248.108 383.491 248.108C382.907 248.108 382.379 247.964 381.907 247.676C381.435 247.388 381.063 246.984 380.791 246.464C380.519 245.944 380.383 245.352 380.383 244.688ZM385.951 244.7C385.951 244.204 385.851 243.772 385.651 243.404C385.451 243.036 385.179 242.756 384.835 242.564C384.499 242.364 384.127 242.264 383.719 242.264C383.311 242.264 382.939 242.36 382.603 242.552C382.267 242.744 381.999 243.024 381.799 243.392C381.599 243.76 381.499 244.192 381.499 244.688C381.499 245.192 381.599 245.632 381.799 246.008C381.999 246.376 382.267 246.66 382.603 246.86C382.939 247.052 383.311 247.148 383.719 247.148C384.127 247.148 384.499 247.052 384.835 246.86C385.179 246.66 385.451 246.376 385.651 246.008C385.851 245.632 385.951 245.196 385.951 244.7ZM390.233 242.324V246.2C390.233 246.52 390.301 246.748 390.437 246.884C390.573 247.012 390.809 247.076 391.145 247.076H391.949V248H390.965C390.357 248 389.901 247.86 389.597 247.58C389.293 247.3 389.141 246.84 389.141 246.2V242.324H388.289V241.424H389.141V239.768H390.233V241.424H391.949V242.324H390.233ZM399.272 244.46C399.272 244.668 399.26 244.888 399.236 245.12H393.98C394.02 245.768 394.24 246.276 394.64 246.644C395.048 247.004 395.54 247.184 396.116 247.184C396.588 247.184 396.98 247.076 397.292 246.86C397.612 246.636 397.836 246.34 397.964 245.972H399.14C398.964 246.604 398.612 247.12 398.084 247.52C397.556 247.912 396.9 248.108 396.116 248.108C395.492 248.108 394.932 247.968 394.436 247.688C393.948 247.408 393.564 247.012 393.284 246.5C393.004 245.98 392.864 245.38 392.864 244.7C392.864 244.02 393 243.424 393.272 242.912C393.544 242.4 393.924 242.008 394.412 241.736C394.908 241.456 395.476 241.316 396.116 241.316C396.74 241.316 397.292 241.452 397.772 241.724C398.252 241.996 398.62 242.372 398.876 242.852C399.14 243.324 399.272 243.86 399.272 244.46ZM398.144 244.232C398.144 243.816 398.052 243.46 397.868 243.164C397.684 242.86 397.432 242.632 397.112 242.48C396.8 242.32 396.452 242.24 396.068 242.24C395.516 242.24 395.044 242.416 394.652 242.768C394.268 243.12 394.048 243.608 393.992 244.232H398.144ZM414.144 239.636V240.524H410.508V243.344H413.46V244.232H410.508V248H409.416V239.636H414.144ZM421.295 241.424V248H420.203V247.028C419.995 247.364 419.703 247.628 419.327 247.82C418.959 248.004 418.551 248.096 418.103 248.096C417.591 248.096 417.131 247.992 416.723 247.784C416.315 247.568 415.991 247.248 415.751 246.824C415.519 246.4 415.403 245.884 415.403 245.276V241.424H416.483V245.132C416.483 245.78 416.647 246.28 416.975 246.632C417.303 246.976 417.751 247.148 418.319 247.148C418.903 247.148 419.363 246.968 419.699 246.608C420.035 246.248 420.203 245.724 420.203 245.036V241.424H421.295ZM426.343 241.304C427.143 241.304 427.791 241.548 428.287 242.036C428.783 242.516 429.031 243.212 429.031 244.124V248H427.951V244.28C427.951 243.624 427.787 243.124 427.459 242.78C427.131 242.428 426.683 242.252 426.115 242.252C425.539 242.252 425.079 242.432 424.735 242.792C424.399 243.152 424.231 243.676 424.231 244.364V248H423.139V241.424H424.231V242.36C424.447 242.024 424.739 241.764 425.107 241.58C425.483 241.396 425.895 241.304 426.343 241.304ZM430.407 244.688C430.407 244.016 430.543 243.428 430.815 242.924C431.087 242.412 431.459 242.016 431.931 241.736C432.411 241.456 432.947 241.316 433.539 241.316C434.051 241.316 434.527 241.436 434.967 241.676C435.407 241.908 435.743 242.216 435.975 242.6V239.12H437.079V248H435.975V246.764C435.759 247.156 435.439 247.48 435.015 247.736C434.591 247.984 434.095 248.108 433.527 248.108C432.943 248.108 432.411 247.964 431.931 247.676C431.459 247.388 431.087 246.984 430.815 246.464C430.543 245.944 430.407 245.352 430.407 244.688ZM435.975 244.7C435.975 244.204 435.875 243.772 435.675 243.404C435.475 243.036 435.203 242.756 434.859 242.564C434.523 242.364 434.151 242.264 433.743 242.264C433.335 242.264 432.963 242.36 432.627 242.552C432.291 242.744 432.023 243.024 431.823 243.392C431.623 243.76 431.523 244.192 431.523 244.688C431.523 245.192 431.623 245.632 431.823 246.008C432.023 246.376 432.291 246.66 432.627 246.86C432.963 247.052 433.335 247.148 433.743 247.148C434.151 247.148 434.523 247.052 434.859 246.86C435.203 246.66 435.475 246.376 435.675 246.008C435.875 245.632 435.975 245.196 435.975 244.7ZM294.732 268.232C293.964 267.48 293.364 266.524 292.932 265.364C292.508 264.204 292.296 262.952 292.296 261.608C292.296 260.232 292.52 258.948 292.968 257.756C293.424 256.556 294.072 255.568 294.912 254.792H296.052V254.9C295.156 255.74 294.48 256.752 294.024 257.936C293.576 259.112 293.352 260.336 293.352 261.608C293.352 262.848 293.564 264.032 293.988 265.16C294.42 266.288 295.048 267.276 295.872 268.124V268.232H294.732ZM298.465 257.12V266H297.373V257.12H298.465ZM303.194 266.108C302.578 266.108 302.018 265.968 301.514 265.688C301.018 265.408 300.626 265.012 300.338 264.5C300.058 263.98 299.918 263.38 299.918 262.7C299.918 262.028 300.062 261.436 300.35 260.924C300.646 260.404 301.046 260.008 301.55 259.736C302.054 259.456 302.618 259.316 303.242 259.316C303.866 259.316 304.43 259.456 304.934 259.736C305.438 260.008 305.834 260.4 306.122 260.912C306.418 261.424 306.566 262.02 306.566 262.7C306.566 263.38 306.414 263.98 306.11 264.5C305.814 265.012 305.41 265.408 304.898 265.688C304.386 265.968 303.818 266.108 303.194 266.108ZM303.194 265.148C303.586 265.148 303.954 265.056 304.298 264.872C304.642 264.688 304.918 264.412 305.126 264.044C305.342 263.676 305.45 263.228 305.45 262.7C305.45 262.172 305.346 261.724 305.138 261.356C304.93 260.988 304.658 260.716 304.322 260.54C303.986 260.356 303.622 260.264 303.23 260.264C302.83 260.264 302.462 260.356 302.126 260.54C301.798 260.716 301.534 260.988 301.334 261.356C301.134 261.724 301.034 262.172 301.034 262.7C301.034 263.236 301.13 263.688 301.322 264.056C301.522 264.424 301.786 264.7 302.114 264.884C302.442 265.06 302.802 265.148 303.194 265.148ZM311.206 259.304C312.006 259.304 312.654 259.548 313.15 260.036C313.646 260.516 313.894 261.212 313.894 262.124V266H312.814V262.28C312.814 261.624 312.65 261.124 312.322 260.78C311.994 260.428 311.546 260.252 310.978 260.252C310.402 260.252 309.942 260.432 309.598 260.792C309.262 261.152 309.094 261.676 309.094 262.364V266H308.002V259.424H309.094V260.36C309.31 260.024 309.602 259.764 309.97 259.58C310.346 259.396 310.758 259.304 311.206 259.304ZM318.39 259.316C318.958 259.316 319.454 259.44 319.878 259.688C320.31 259.936 320.63 260.248 320.838 260.624V259.424H321.942V266.144C321.942 266.744 321.814 267.276 321.558 267.74C321.302 268.212 320.934 268.58 320.454 268.844C319.982 269.108 319.43 269.24 318.798 269.24C317.934 269.24 317.214 269.036 316.638 268.628C316.062 268.22 315.722 267.664 315.618 266.96H316.698C316.818 267.36 317.066 267.68 317.442 267.92C317.818 268.168 318.27 268.292 318.798 268.292C319.398 268.292 319.886 268.104 320.262 267.728C320.646 267.352 320.838 266.824 320.838 266.144V264.764C320.622 265.148 320.302 265.468 319.878 265.724C319.454 265.98 318.958 266.108 318.39 266.108C317.806 266.108 317.274 265.964 316.794 265.676C316.322 265.388 315.95 264.984 315.678 264.464C315.406 263.944 315.27 263.352 315.27 262.688C315.27 262.016 315.406 261.428 315.678 260.924C315.95 260.412 316.322 260.016 316.794 259.736C317.274 259.456 317.806 259.316 318.39 259.316ZM320.838 262.7C320.838 262.204 320.738 261.772 320.538 261.404C320.338 261.036 320.066 260.756 319.722 260.564C319.386 260.364 319.014 260.264 318.606 260.264C318.198 260.264 317.826 260.36 317.49 260.552C317.154 260.744 316.886 261.024 316.686 261.392C316.486 261.76 316.386 262.192 316.386 262.688C316.386 263.192 316.486 263.632 316.686 264.008C316.886 264.376 317.154 264.66 317.49 264.86C317.826 265.052 318.198 265.148 318.606 265.148C319.014 265.148 319.386 265.052 319.722 264.86C320.066 264.66 320.338 264.376 320.538 264.008C320.738 263.632 320.838 263.196 320.838 262.7ZM328.347 261.14V262.064H323.559V261.14H328.347ZM331.729 260.324V264.2C331.729 264.52 331.797 264.748 331.933 264.884C332.069 265.012 332.305 265.076 332.641 265.076H333.445V266H332.461C331.853 266 331.397 265.86 331.093 265.58C330.789 265.3 330.637 264.84 330.637 264.2V260.324H329.785V259.424H330.637V257.768H331.729V259.424H333.445V260.324H331.729ZM340.768 262.46C340.768 262.668 340.756 262.888 340.732 263.12H335.476C335.516 263.768 335.736 264.276 336.136 264.644C336.544 265.004 337.036 265.184 337.612 265.184C338.084 265.184 338.476 265.076 338.788 264.86C339.108 264.636 339.332 264.34 339.46 263.972H340.636C340.46 264.604 340.108 265.12 339.58 265.52C339.052 265.912 338.396 266.108 337.612 266.108C336.988 266.108 336.428 265.968 335.932 265.688C335.444 265.408 335.06 265.012 334.78 264.5C334.5 263.98 334.36 263.38 334.36 262.7C334.36 262.02 334.496 261.424 334.768 260.912C335.04 260.4 335.42 260.008 335.908 259.736C336.404 259.456 336.972 259.316 337.612 259.316C338.236 259.316 338.788 259.452 339.268 259.724C339.748 259.996 340.116 260.372 340.372 260.852C340.636 261.324 340.768 261.86 340.768 262.46ZM339.64 262.232C339.64 261.816 339.548 261.46 339.364 261.164C339.18 260.86 338.928 260.632 338.608 260.48C338.296 260.32 337.948 260.24 337.564 260.24C337.012 260.24 336.54 260.416 336.148 260.768C335.764 261.12 335.544 261.608 335.488 262.232H339.64ZM343.301 260.492C343.493 260.116 343.765 259.824 344.117 259.616C344.477 259.408 344.913 259.304 345.425 259.304V260.432H345.137C343.913 260.432 343.301 261.096 343.301 262.424V266H342.209V259.424H343.301V260.492ZM354.594 259.304C355.106 259.304 355.562 259.412 355.962 259.628C356.362 259.836 356.678 260.152 356.91 260.576C357.142 261 357.258 261.516 357.258 262.124V266H356.178V262.28C356.178 261.624 356.014 261.124 355.686 260.78C355.366 260.428 354.93 260.252 354.378 260.252C353.81 260.252 353.358 260.436 353.022 260.804C352.686 261.164 352.518 261.688 352.518 262.376V266H351.438V262.28C351.438 261.624 351.274 261.124 350.946 260.78C350.626 260.428 350.19 260.252 349.638 260.252C349.07 260.252 348.618 260.436 348.282 260.804C347.946 261.164 347.778 261.688 347.778 262.376V266H346.686V259.424H347.778V260.372C347.994 260.028 348.282 259.764 348.642 259.58C349.01 259.396 349.414 259.304 349.854 259.304C350.406 259.304 350.894 259.428 351.318 259.676C351.742 259.924 352.058 260.288 352.266 260.768C352.45 260.304 352.754 259.944 353.178 259.688C353.602 259.432 354.074 259.304 354.594 259.304ZM376.187 259.316C376.755 259.316 377.251 259.44 377.675 259.688C378.107 259.936 378.427 260.248 378.635 260.624V259.424H379.739V266.144C379.739 266.744 379.611 267.276 379.355 267.74C379.099 268.212 378.731 268.58 378.251 268.844C377.779 269.108 377.227 269.24 376.595 269.24C375.731 269.24 375.011 269.036 374.435 268.628C373.859 268.22 373.519 267.664 373.415 266.96H374.495C374.615 267.36 374.863 267.68 375.239 267.92C375.615 268.168 376.067 268.292 376.595 268.292C377.195 268.292 377.683 268.104 378.059 267.728C378.443 267.352 378.635 266.824 378.635 266.144V264.764C378.419 265.148 378.099 265.468 377.675 265.724C377.251 265.98 376.755 266.108 376.187 266.108C375.603 266.108 375.071 265.964 374.591 265.676C374.119 265.388 373.747 264.984 373.475 264.464C373.203 263.944 373.067 263.352 373.067 262.688C373.067 262.016 373.203 261.428 373.475 260.924C373.747 260.412 374.119 260.016 374.591 259.736C375.071 259.456 375.603 259.316 376.187 259.316ZM378.635 262.7C378.635 262.204 378.535 261.772 378.335 261.404C378.135 261.036 377.863 260.756 377.519 260.564C377.183 260.364 376.811 260.264 376.403 260.264C375.995 260.264 375.623 260.36 375.287 260.552C374.951 260.744 374.683 261.024 374.483 261.392C374.283 261.76 374.183 262.192 374.183 262.688C374.183 263.192 374.283 263.632 374.483 264.008C374.683 264.376 374.951 264.66 375.287 264.86C375.623 265.052 375.995 265.148 376.403 265.148C376.811 265.148 377.183 265.052 377.519 264.86C377.863 264.66 378.135 264.376 378.335 264.008C378.535 263.632 378.635 263.196 378.635 262.7ZM382.676 260.492C382.868 260.116 383.14 259.824 383.492 259.616C383.852 259.408 384.288 259.304 384.8 259.304V260.432H384.512C383.288 260.432 382.676 261.096 382.676 262.424V266H381.584V259.424H382.676V260.492ZM388.929 266.108C388.313 266.108 387.753 265.968 387.249 265.688C386.753 265.408 386.361 265.012 386.073 264.5C385.793 263.98 385.653 263.38 385.653 262.7C385.653 262.028 385.797 261.436 386.085 260.924C386.381 260.404 386.781 260.008 387.285 259.736C387.789 259.456 388.353 259.316 388.977 259.316C389.601 259.316 390.165 259.456 390.669 259.736C391.173 260.008 391.569 260.4 391.857 260.912C392.153 261.424 392.301 262.02 392.301 262.7C392.301 263.38 392.149 263.98 391.845 264.5C391.549 265.012 391.145 265.408 390.633 265.688C390.121 265.968 389.553 266.108 388.929 266.108ZM388.929 265.148C389.321 265.148 389.689 265.056 390.033 264.872C390.377 264.688 390.653 264.412 390.861 264.044C391.077 263.676 391.185 263.228 391.185 262.7C391.185 262.172 391.081 261.724 390.873 261.356C390.665 260.988 390.393 260.716 390.057 260.54C389.721 260.356 389.357 260.264 388.965 260.264C388.565 260.264 388.197 260.356 387.861 260.54C387.533 260.716 387.269 260.988 387.069 261.356C386.869 261.724 386.769 262.172 386.769 262.7C386.769 263.236 386.865 263.688 387.057 264.056C387.257 264.424 387.521 264.7 387.849 264.884C388.177 265.06 388.537 265.148 388.929 265.148ZM402.497 259.424L400.445 266H399.317L397.733 260.78L396.149 266H395.021L392.957 259.424H394.073L395.585 264.944L397.217 259.424H398.333L399.929 264.956L401.417 259.424H402.497ZM404.912 260.324V264.2C404.912 264.52 404.98 264.748 405.116 264.884C405.252 265.012 405.488 265.076 405.824 265.076H406.628V266H405.644C405.036 266 404.58 265.86 404.276 265.58C403.972 265.3 403.82 264.84 403.82 264.2V260.324H402.968V259.424H403.82V257.768H404.912V259.424H406.628V260.324H404.912ZM411.215 259.304C411.711 259.304 412.159 259.412 412.559 259.628C412.959 259.836 413.271 260.152 413.495 260.576C413.727 261 413.843 261.516 413.843 262.124V266H412.763V262.28C412.763 261.624 412.599 261.124 412.271 260.78C411.943 260.428 411.495 260.252 410.927 260.252C410.351 260.252 409.891 260.432 409.547 260.792C409.211 261.152 409.043 261.676 409.043 262.364V266H407.951V257.12H409.043V260.36C409.259 260.024 409.555 259.764 409.931 259.58C410.315 259.396 410.743 259.304 411.215 259.304ZM436.473 266L435.381 264.896C434.973 265.32 434.537 265.636 434.073 265.844C433.609 266.044 433.085 266.144 432.501 266.144C431.925 266.144 431.413 266.04 430.965 265.832C430.525 265.624 430.181 265.328 429.933 264.944C429.693 264.56 429.573 264.112 429.573 263.6C429.573 263.016 429.737 262.504 430.065 262.064C430.401 261.616 430.893 261.264 431.541 261.008C431.285 260.704 431.101 260.424 430.989 260.168C430.877 259.912 430.821 259.632 430.821 259.328C430.821 258.976 430.909 258.66 431.085 258.38C431.269 258.092 431.529 257.868 431.865 257.708C432.201 257.548 432.589 257.468 433.029 257.468C433.461 257.468 433.837 257.552 434.157 257.72C434.477 257.888 434.717 258.124 434.877 258.428C435.037 258.724 435.109 259.056 435.093 259.424H434.001C434.009 259.096 433.917 258.84 433.725 258.656C433.533 258.464 433.285 258.368 432.981 258.368C432.661 258.368 432.401 258.46 432.201 258.644C432.009 258.82 431.913 259.048 431.913 259.328C431.913 259.568 431.977 259.8 432.105 260.024C432.241 260.248 432.465 260.524 432.777 260.852L435.273 263.36L435.489 263.024L436.305 261.656H437.481L436.497 263.36C436.361 263.6 436.201 263.852 436.017 264.116L437.901 266H436.473ZM432.501 265.208C432.933 265.208 433.321 265.124 433.665 264.956C434.017 264.788 434.349 264.528 434.661 264.176L432.201 261.704C431.177 262.096 430.665 262.716 430.665 263.564C430.665 264.036 430.833 264.428 431.169 264.74C431.513 265.052 431.957 265.208 432.501 265.208ZM292.488 276.356C292.28 276.356 292.104 276.284 291.96 276.14C291.816 275.996 291.744 275.82 291.744 275.612C291.744 275.404 291.816 275.228 291.96 275.084C292.104 274.94 292.28 274.868 292.488 274.868C292.688 274.868 292.856 274.94 292.992 275.084C293.136 275.228 293.208 275.404 293.208 275.612C293.208 275.82 293.136 275.996 292.992 276.14C292.856 276.284 292.688 276.356 292.488 276.356ZM293.016 277.424V284H291.924V277.424H293.016ZM298.081 277.304C298.881 277.304 299.529 277.548 300.025 278.036C300.521 278.516 300.769 279.212 300.769 280.124V284H299.689V280.28C299.689 279.624 299.525 279.124 299.197 278.78C298.869 278.428 298.421 278.252 297.853 278.252C297.277 278.252 296.817 278.432 296.473 278.792C296.137 279.152 295.969 279.676 295.969 280.364V284H294.877V277.424H295.969V278.36C296.185 278.024 296.477 277.764 296.845 277.58C297.221 277.396 297.633 277.304 298.081 277.304ZM302.145 280.7C302.145 280.02 302.281 279.428 302.553 278.924C302.825 278.412 303.201 278.016 303.681 277.736C304.169 277.456 304.725 277.316 305.349 277.316C306.157 277.316 306.821 277.512 307.341 277.904C307.869 278.296 308.217 278.84 308.385 279.536H307.209C307.097 279.136 306.877 278.82 306.549 278.588C306.229 278.356 305.829 278.24 305.349 278.24C304.725 278.24 304.221 278.456 303.837 278.888C303.453 279.312 303.261 279.916 303.261 280.7C303.261 281.492 303.453 282.104 303.837 282.536C304.221 282.968 304.725 283.184 305.349 283.184C305.829 283.184 306.229 283.072 306.549 282.848C306.869 282.624 307.089 282.304 307.209 281.888H308.385C308.209 282.56 307.857 283.1 307.329 283.508C306.801 283.908 306.141 284.108 305.349 284.108C304.725 284.108 304.169 283.968 303.681 283.688C303.201 283.408 302.825 283.012 302.553 282.5C302.281 281.988 302.145 281.388 302.145 280.7ZM312.71 284.108C312.094 284.108 311.534 283.968 311.03 283.688C310.534 283.408 310.142 283.012 309.854 282.5C309.574 281.98 309.434 281.38 309.434 280.7C309.434 280.028 309.578 279.436 309.866 278.924C310.162 278.404 310.562 278.008 311.066 277.736C311.57 277.456 312.134 277.316 312.758 277.316C313.382 277.316 313.946 277.456 314.45 277.736C314.954 278.008 315.35 278.4 315.638 278.912C315.934 279.424 316.082 280.02 316.082 280.7C316.082 281.38 315.93 281.98 315.626 282.5C315.33 283.012 314.926 283.408 314.414 283.688C313.902 283.968 313.334 284.108 312.71 284.108ZM312.71 283.148C313.102 283.148 313.47 283.056 313.814 282.872C314.158 282.688 314.434 282.412 314.642 282.044C314.858 281.676 314.966 281.228 314.966 280.7C314.966 280.172 314.862 279.724 314.654 279.356C314.446 278.988 314.174 278.716 313.838 278.54C313.502 278.356 313.138 278.264 312.746 278.264C312.346 278.264 311.978 278.356 311.642 278.54C311.314 278.716 311.05 278.988 310.85 279.356C310.65 279.724 310.55 280.172 310.55 280.7C310.55 281.236 310.646 281.688 310.838 282.056C311.038 282.424 311.302 282.7 311.63 282.884C311.958 283.06 312.318 283.148 312.71 283.148ZM325.426 277.304C325.938 277.304 326.394 277.412 326.794 277.628C327.194 277.836 327.51 278.152 327.742 278.576C327.974 279 328.09 279.516 328.09 280.124V284H327.01V280.28C327.01 279.624 326.846 279.124 326.518 278.78C326.198 278.428 325.762 278.252 325.21 278.252C324.642 278.252 324.19 278.436 323.854 278.804C323.518 279.164 323.35 279.688 323.35 280.376V284H322.27V280.28C322.27 279.624 322.106 279.124 321.778 278.78C321.458 278.428 321.022 278.252 320.47 278.252C319.902 278.252 319.45 278.436 319.114 278.804C318.778 279.164 318.61 279.688 318.61 280.376V284H317.518V277.424H318.61V278.372C318.826 278.028 319.114 277.764 319.474 277.58C319.842 277.396 320.246 277.304 320.686 277.304C321.238 277.304 321.726 277.428 322.15 277.676C322.574 277.924 322.89 278.288 323.098 278.768C323.282 278.304 323.586 277.944 324.01 277.688C324.434 277.432 324.906 277.304 325.426 277.304ZM335.881 280.46C335.881 280.668 335.869 280.888 335.845 281.12H330.589C330.629 281.768 330.849 282.276 331.249 282.644C331.657 283.004 332.149 283.184 332.725 283.184C333.197 283.184 333.589 283.076 333.901 282.86C334.221 282.636 334.445 282.34 334.573 281.972H335.749C335.573 282.604 335.221 283.12 334.693 283.52C334.165 283.912 333.509 284.108 332.725 284.108C332.101 284.108 331.541 283.968 331.045 283.688C330.557 283.408 330.173 283.012 329.893 282.5C329.613 281.98 329.473 281.38 329.473 280.7C329.473 280.02 329.609 279.424 329.881 278.912C330.153 278.4 330.533 278.008 331.021 277.736C331.517 277.456 332.085 277.316 332.725 277.316C333.349 277.316 333.901 277.452 334.381 277.724C334.861 277.996 335.229 278.372 335.485 278.852C335.749 279.324 335.881 279.86 335.881 280.46ZM334.753 280.232C334.753 279.816 334.661 279.46 334.477 279.164C334.293 278.86 334.041 278.632 333.721 278.48C333.409 278.32 333.061 278.24 332.677 278.24C332.125 278.24 331.653 278.416 331.261 278.768C330.877 279.12 330.657 279.608 330.601 280.232H334.753ZM336.974 286.232V286.124C337.798 285.276 338.422 284.288 338.846 283.16C339.278 282.032 339.494 280.848 339.494 279.608C339.494 278.336 339.266 277.112 338.81 275.936C338.362 274.752 337.69 273.74 336.794 272.9V272.792H337.934C338.774 273.568 339.418 274.556 339.866 275.756C340.322 276.948 340.55 278.232 340.55 279.608C340.55 280.952 340.334 282.204 339.902 283.364C339.478 284.524 338.882 285.48 338.114 286.232H336.974Z" fill="black" fill-opacity="0.7"/>
<path d="M223.885 14V3.81818H230.626V5.59304H226.038V8.01918H230.179V9.79403H226.038V14H223.885ZM236.453 10.7486V6.36364H238.571V14H236.538V12.6129H236.458C236.286 13.0604 235.999 13.42 235.598 13.6918C235.2 13.9635 234.715 14.0994 234.141 14.0994C233.631 14.0994 233.182 13.9834 232.794 13.7514C232.406 13.5194 232.103 13.1896 231.884 12.7621C231.669 12.3345 231.559 11.8224 231.556 11.2259V6.36364H233.674V10.848C233.677 11.2988 233.798 11.6551 234.037 11.9169C234.276 12.1787 234.595 12.3097 234.996 12.3097C235.252 12.3097 235.49 12.2517 235.712 12.1357C235.934 12.0163 236.113 11.8407 236.249 11.6087C236.388 11.3767 236.456 11.09 236.453 10.7486ZM244.327 6.36364V7.95455H239.728V6.36364H244.327ZM240.772 4.53409H242.89V11.6534C242.89 11.849 242.92 12.0014 242.98 12.1108C243.039 12.2169 243.122 12.2914 243.228 12.3345C243.338 12.3776 243.463 12.3991 243.606 12.3991C243.705 12.3991 243.805 12.3909 243.904 12.3743C244.004 12.3544 244.08 12.3395 244.133 12.3295L244.466 13.9055C244.36 13.9387 244.211 13.9768 244.019 14.0199C243.826 14.0663 243.593 14.0945 243.318 14.1044C242.807 14.1243 242.36 14.0563 241.975 13.9006C241.594 13.7448 241.298 13.5028 241.085 13.1747C240.873 12.8466 240.769 12.4323 240.772 11.9318V4.53409ZM250.604 10.7486V6.36364H252.721V14H250.688V12.6129H250.608C250.436 13.0604 250.149 13.42 249.748 13.6918C249.351 13.9635 248.865 14.0994 248.292 14.0994C247.781 14.0994 247.332 13.9834 246.944 13.7514C246.557 13.5194 246.253 13.1896 246.035 12.7621C245.819 12.3345 245.71 11.8224 245.706 11.2259V6.36364H247.824V10.848C247.828 11.2988 247.949 11.6551 248.187 11.9169C248.426 12.1787 248.746 12.3097 249.147 12.3097C249.402 12.3097 249.641 12.2517 249.863 12.1357C250.085 12.0163 250.264 11.8407 250.4 11.6087C250.539 11.3767 250.607 11.09 250.604 10.7486ZM254.415 14V6.36364H256.469V7.69602H256.548C256.688 7.22206 256.921 6.86411 257.249 6.62216C257.577 6.37689 257.955 6.25426 258.383 6.25426C258.489 6.25426 258.603 6.26089 258.726 6.27415C258.848 6.28741 258.956 6.30563 259.049 6.32883V8.2081C258.95 8.17827 258.812 8.15175 258.636 8.12855C258.461 8.10535 258.3 8.09375 258.154 8.09375C257.843 8.09375 257.564 8.1617 257.319 8.29759C257.077 8.43016 256.885 8.61577 256.742 8.8544C256.603 9.09304 256.533 9.36813 256.533 9.67969V14H254.415ZM263.269 14.1491C262.483 14.1491 261.807 13.9901 261.24 13.6719C260.677 13.3504 260.243 12.8963 259.938 12.3097C259.633 11.7197 259.48 11.022 259.48 10.2166C259.48 9.43111 259.633 8.74171 259.938 8.14844C260.243 7.55516 260.672 7.0928 261.225 6.76136C261.782 6.42992 262.435 6.2642 263.184 6.2642C263.688 6.2642 264.157 6.34541 264.591 6.50781C265.029 6.6669 265.41 6.9072 265.735 7.22869C266.063 7.55019 266.318 7.95455 266.5 8.44176C266.682 8.92566 266.774 9.49242 266.774 10.142V10.7237H260.325V9.41122H264.78C264.78 9.1063 264.714 8.83617 264.581 8.60085C264.449 8.36553 264.265 8.18158 264.029 8.04901C263.797 7.91312 263.527 7.84517 263.219 7.84517C262.897 7.84517 262.612 7.91974 262.364 8.06889C262.119 8.21473 261.926 8.41193 261.787 8.66051C261.648 8.90578 261.577 9.17921 261.573 9.48082V10.7287C261.573 11.1065 261.643 11.433 261.782 11.7081C261.925 11.9832 262.125 12.1953 262.384 12.3445C262.642 12.4936 262.949 12.5682 263.303 12.5682C263.539 12.5682 263.754 12.535 263.95 12.4688C264.145 12.4025 264.313 12.303 264.452 12.1705C264.591 12.0379 264.697 11.8755 264.77 11.6832L266.729 11.8125C266.629 12.2831 266.426 12.6941 266.117 13.0455C265.812 13.3935 265.418 13.6652 264.934 13.8608C264.454 14.053 263.898 14.1491 263.269 14.1491Z" fill="black"/>
<path d="M226.528 29.636C227.44 29.636 228.228 29.808 228.892 30.152C229.564 30.488 230.076 30.972 230.428 31.604C230.788 32.236 230.968 32.98 230.968 33.836C230.968 34.692 230.788 35.436 230.428 36.068C230.076 36.692 229.564 37.172 228.892 37.508C228.228 37.836 227.44 38 226.528 38H223.924V29.636H226.528ZM226.528 37.1C227.608 37.1 228.432 36.816 229 36.248C229.568 35.672 229.852 34.868 229.852 33.836C229.852 32.796 229.564 31.984 228.988 31.4C228.42 30.816 227.6 30.524 226.528 30.524H225.016V37.1H226.528ZM232.972 30.356C232.764 30.356 232.588 30.284 232.444 30.14C232.3 29.996 232.228 29.82 232.228 29.612C232.228 29.404 232.3 29.228 232.444 29.084C232.588 28.94 232.764 28.868 232.972 28.868C233.172 28.868 233.34 28.94 233.476 29.084C233.62 29.228 233.692 29.404 233.692 29.612C233.692 29.82 233.62 29.996 233.476 30.14C233.34 30.284 233.172 30.356 232.972 30.356ZM233.5 31.424V38H232.408V31.424H233.5ZM237.81 36.992L239.85 31.424H241.014L238.434 38H237.162L234.582 31.424H235.758L237.81 36.992ZM248.088 34.46C248.088 34.668 248.076 34.888 248.052 35.12H242.796C242.836 35.768 243.056 36.276 243.456 36.644C243.864 37.004 244.356 37.184 244.932 37.184C245.404 37.184 245.796 37.076 246.108 36.86C246.428 36.636 246.652 36.34 246.78 35.972H247.956C247.78 36.604 247.428 37.12 246.9 37.52C246.372 37.912 245.716 38.108 244.932 38.108C244.308 38.108 243.748 37.968 243.252 37.688C242.764 37.408 242.38 37.012 242.1 36.5C241.82 35.98 241.68 35.38 241.68 34.7C241.68 34.02 241.816 33.424 242.088 32.912C242.36 32.4 242.74 32.008 243.228 31.736C243.724 31.456 244.292 31.316 244.932 31.316C245.556 31.316 246.108 31.452 246.588 31.724C247.068 31.996 247.436 32.372 247.692 32.852C247.956 33.324 248.088 33.86 248.088 34.46ZM246.96 34.232C246.96 33.816 246.868 33.46 246.684 33.164C246.5 32.86 246.248 32.632 245.928 32.48C245.616 32.32 245.268 32.24 244.884 32.24C244.332 32.24 243.86 32.416 243.468 32.768C243.084 33.12 242.864 33.608 242.808 34.232H246.96ZM250.621 32.492C250.813 32.116 251.085 31.824 251.437 31.616C251.797 31.408 252.233 31.304 252.745 31.304V32.432H252.457C251.233 32.432 250.621 33.096 250.621 34.424V38H249.529V31.424H250.621V32.492ZM256.334 38.108C255.83 38.108 255.378 38.024 254.978 37.856C254.578 37.68 254.262 37.44 254.03 37.136C253.798 36.824 253.67 36.468 253.646 36.068H254.774C254.806 36.396 254.958 36.664 255.23 36.872C255.51 37.08 255.874 37.184 256.322 37.184C256.738 37.184 257.066 37.092 257.306 36.908C257.546 36.724 257.666 36.492 257.666 36.212C257.666 35.924 257.538 35.712 257.282 35.576C257.026 35.432 256.63 35.292 256.094 35.156C255.606 35.028 255.206 34.9 254.894 34.772C254.59 34.636 254.326 34.44 254.102 34.184C253.886 33.92 253.778 33.576 253.778 33.152C253.778 32.816 253.878 32.508 254.078 32.228C254.278 31.948 254.562 31.728 254.93 31.568C255.298 31.4 255.718 31.316 256.19 31.316C256.918 31.316 257.506 31.5 257.954 31.868C258.402 32.236 258.642 32.74 258.674 33.38H257.582C257.558 33.036 257.418 32.76 257.162 32.552C256.914 32.344 256.578 32.24 256.154 32.24C255.762 32.24 255.45 32.324 255.218 32.492C254.986 32.66 254.87 32.88 254.87 33.152C254.87 33.368 254.938 33.548 255.074 33.692C255.218 33.828 255.394 33.94 255.602 34.028C255.818 34.108 256.114 34.2 256.49 34.304C256.962 34.432 257.346 34.56 257.642 34.688C257.938 34.808 258.19 34.992 258.398 35.24C258.614 35.488 258.726 35.812 258.734 36.212C258.734 36.572 258.634 36.896 258.434 37.184C258.234 37.472 257.95 37.7 257.582 37.868C257.222 38.028 256.806 38.108 256.334 38.108ZM260.84 30.356C260.632 30.356 260.456 30.284 260.312 30.14C260.168 29.996 260.096 29.82 260.096 29.612C260.096 29.404 260.168 29.228 260.312 29.084C260.456 28.94 260.632 28.868 260.84 28.868C261.04 28.868 261.208 28.94 261.344 29.084C261.488 29.228 261.56 29.404 261.56 29.612C261.56 29.82 261.488 29.996 261.344 30.14C261.208 30.284 261.04 30.356 260.84 30.356ZM261.368 31.424V38H260.276V31.424H261.368ZM265.905 32.324H264.525V38H263.433V32.324H262.581V31.424H263.433V30.956C263.433 30.22 263.621 29.684 263.997 29.348C264.381 29.004 264.993 28.832 265.833 28.832V29.744C265.353 29.744 265.013 29.84 264.813 30.032C264.621 30.216 264.525 30.524 264.525 30.956V31.424H265.905V32.324ZM267.742 30.356C267.534 30.356 267.358 30.284 267.214 30.14C267.07 29.996 266.998 29.82 266.998 29.612C266.998 29.404 267.07 29.228 267.214 29.084C267.358 28.94 267.534 28.868 267.742 28.868C267.942 28.868 268.11 28.94 268.246 29.084C268.39 29.228 268.462 29.404 268.462 29.612C268.462 29.82 268.39 29.996 268.246 30.14C268.11 30.284 267.942 30.356 267.742 30.356ZM268.27 31.424V38H267.178V31.424H268.27ZM276.131 34.46C276.131 34.668 276.119 34.888 276.095 35.12H270.839C270.879 35.768 271.099 36.276 271.499 36.644C271.907 37.004 272.399 37.184 272.975 37.184C273.447 37.184 273.839 37.076 274.151 36.86C274.471 36.636 274.695 36.34 274.823 35.972H275.999C275.823 36.604 275.471 37.12 274.943 37.52C274.415 37.912 273.759 38.108 272.975 38.108C272.351 38.108 271.791 37.968 271.295 37.688C270.807 37.408 270.423 37.012 270.143 36.5C269.863 35.98 269.723 35.38 269.723 34.7C269.723 34.02 269.859 33.424 270.131 32.912C270.403 32.4 270.783 32.008 271.271 31.736C271.767 31.456 272.335 31.316 272.975 31.316C273.599 31.316 274.151 31.452 274.631 31.724C275.111 31.996 275.479 32.372 275.735 32.852C275.999 33.324 276.131 33.86 276.131 34.46ZM275.003 34.232C275.003 33.816 274.911 33.46 274.727 33.164C274.543 32.86 274.291 32.632 273.971 32.48C273.659 32.32 273.311 32.24 272.927 32.24C272.375 32.24 271.903 32.416 271.511 32.768C271.127 33.12 270.907 33.608 270.851 34.232H275.003ZM277.164 34.688C277.164 34.016 277.3 33.428 277.572 32.924C277.844 32.412 278.216 32.016 278.688 31.736C279.168 31.456 279.704 31.316 280.296 31.316C280.808 31.316 281.284 31.436 281.724 31.676C282.164 31.908 282.5 32.216 282.732 32.6V29.12H283.836V38H282.732V36.764C282.516 37.156 282.196 37.48 281.772 37.736C281.348 37.984 280.852 38.108 280.284 38.108C279.7 38.108 279.168 37.964 278.688 37.676C278.216 37.388 277.844 36.984 277.572 36.464C277.3 35.944 277.164 35.352 277.164 34.688ZM282.732 34.7C282.732 34.204 282.632 33.772 282.432 33.404C282.232 33.036 281.96 32.756 281.616 32.564C281.28 32.364 280.908 32.264 280.5 32.264C280.092 32.264 279.72 32.36 279.384 32.552C279.048 32.744 278.78 33.024 278.58 33.392C278.38 33.76 278.28 34.192 278.28 34.688C278.28 35.192 278.38 35.632 278.58 36.008C278.78 36.376 279.048 36.66 279.384 36.86C279.72 37.052 280.092 37.148 280.5 37.148C280.908 37.148 281.28 37.052 281.616 36.86C281.96 36.66 282.232 36.376 282.432 36.008C282.632 35.632 282.732 35.196 282.732 34.7ZM299.993 36.14H296.345L295.673 38H294.521L297.545 29.684H298.805L301.817 38H300.665L299.993 36.14ZM299.681 35.252L298.169 31.028L296.657 35.252H299.681ZM304.227 29.12V38H303.135V29.12H304.227ZM307.42 32.324V36.2C307.42 36.52 307.488 36.748 307.624 36.884C307.76 37.012 307.996 37.076 308.332 37.076H309.136V38H308.152C307.544 38 307.088 37.86 306.784 37.58C306.48 37.3 306.328 36.84 306.328 36.2V32.324H305.476V31.424H306.328V29.768H307.42V31.424H309.136V32.324H307.42ZM316.459 34.46C316.459 34.668 316.447 34.888 316.423 35.12H311.167C311.207 35.768 311.427 36.276 311.827 36.644C312.235 37.004 312.727 37.184 313.303 37.184C313.775 37.184 314.167 37.076 314.479 36.86C314.799 36.636 315.023 36.34 315.151 35.972H316.327C316.151 36.604 315.799 37.12 315.271 37.52C314.743 37.912 314.087 38.108 313.303 38.108C312.679 38.108 312.119 37.968 311.623 37.688C311.135 37.408 310.751 37.012 310.471 36.5C310.191 35.98 310.051 35.38 310.051 34.7C310.051 34.02 310.187 33.424 310.459 32.912C310.731 32.4 311.111 32.008 311.599 31.736C312.095 31.456 312.663 31.316 313.303 31.316C313.927 31.316 314.479 31.452 314.959 31.724C315.439 31.996 315.807 32.372 316.063 32.852C316.327 33.324 316.459 33.86 316.459 34.46ZM315.331 34.232C315.331 33.816 315.239 33.46 315.055 33.164C314.871 32.86 314.619 32.632 314.299 32.48C313.987 32.32 313.639 32.24 313.255 32.24C312.703 32.24 312.231 32.416 311.839 32.768C311.455 33.12 311.235 33.608 311.179 34.232H315.331ZM318.993 32.492C319.185 32.116 319.457 31.824 319.809 31.616C320.169 31.408 320.605 31.304 321.117 31.304V32.432H320.829C319.605 32.432 318.993 33.096 318.993 34.424V38H317.901V31.424H318.993V32.492ZM325.581 31.304C326.381 31.304 327.029 31.548 327.525 32.036C328.021 32.516 328.269 33.212 328.269 34.124V38H327.189V34.28C327.189 33.624 327.025 33.124 326.697 32.78C326.369 32.428 325.921 32.252 325.353 32.252C324.777 32.252 324.317 32.432 323.973 32.792C323.637 33.152 323.469 33.676 323.469 34.364V38H322.377V31.424H323.469V32.36C323.685 32.024 323.977 31.764 324.345 31.58C324.721 31.396 325.133 31.304 325.581 31.304ZM329.645 34.688C329.645 34.016 329.781 33.428 330.053 32.924C330.325 32.412 330.697 32.016 331.169 31.736C331.649 31.456 332.181 31.316 332.765 31.316C333.341 31.316 333.841 31.44 334.265 31.688C334.689 31.936 335.005 32.248 335.213 32.624V31.424H336.317V38H335.213V36.776C334.997 37.16 334.673 37.48 334.241 37.736C333.817 37.984 333.321 38.108 332.753 38.108C332.169 38.108 331.641 37.964 331.169 37.676C330.697 37.388 330.325 36.984 330.053 36.464C329.781 35.944 329.645 35.352 329.645 34.688ZM335.213 34.7C335.213 34.204 335.113 33.772 334.913 33.404C334.713 33.036 334.441 32.756 334.097 32.564C333.761 32.364 333.389 32.264 332.981 32.264C332.573 32.264 332.201 32.36 331.865 32.552C331.529 32.744 331.261 33.024 331.061 33.392C330.861 33.76 330.761 34.192 330.761 34.688C330.761 35.192 330.861 35.632 331.061 36.008C331.261 36.376 331.529 36.66 331.865 36.86C332.201 37.052 332.573 37.148 332.981 37.148C333.389 37.148 333.761 37.052 334.097 36.86C334.441 36.66 334.713 36.376 334.913 36.008C335.113 35.632 335.213 35.196 335.213 34.7ZM339.494 32.324V36.2C339.494 36.52 339.562 36.748 339.698 36.884C339.834 37.012 340.07 37.076 340.406 37.076H341.21V38H340.226C339.618 38 339.162 37.86 338.858 37.58C338.554 37.3 338.402 36.84 338.402 36.2V32.324H337.55V31.424H338.402V29.768H339.494V31.424H341.21V32.324H339.494ZM343.097 30.356C342.889 30.356 342.713 30.284 342.569 30.14C342.425 29.996 342.353 29.82 342.353 29.612C342.353 29.404 342.425 29.228 342.569 29.084C342.713 28.94 342.889 28.868 343.097 28.868C343.297 28.868 343.465 28.94 343.601 29.084C343.745 29.228 343.817 29.404 343.817 29.612C343.817 29.82 343.745 29.996 343.601 30.14C343.465 30.284 343.297 30.356 343.097 30.356ZM343.625 31.424V38H342.533V31.424H343.625ZM347.935 36.992L349.975 31.424H351.139L348.559 38H347.287L344.707 31.424H345.883L347.935 36.992ZM358.213 34.46C358.213 34.668 358.201 34.888 358.177 35.12H352.921C352.961 35.768 353.181 36.276 353.581 36.644C353.989 37.004 354.481 37.184 355.057 37.184C355.529 37.184 355.921 37.076 356.233 36.86C356.553 36.636 356.777 36.34 356.905 35.972H358.081C357.905 36.604 357.553 37.12 357.025 37.52C356.497 37.912 355.841 38.108 355.057 38.108C354.433 38.108 353.873 37.968 353.377 37.688C352.889 37.408 352.505 37.012 352.225 36.5C351.945 35.98 351.805 35.38 351.805 34.7C351.805 34.02 351.941 33.424 352.213 32.912C352.485 32.4 352.865 32.008 353.353 31.736C353.849 31.456 354.417 31.316 355.057 31.316C355.681 31.316 356.233 31.452 356.713 31.724C357.193 31.996 357.561 32.372 357.817 32.852C358.081 33.324 358.213 33.86 358.213 34.46ZM357.085 34.232C357.085 33.816 356.993 33.46 356.809 33.164C356.625 32.86 356.373 32.632 356.053 32.48C355.741 32.32 355.393 32.24 355.009 32.24C354.457 32.24 353.985 32.416 353.593 32.768C353.209 33.12 352.989 33.608 352.933 34.232H357.085ZM361.982 38.108C361.478 38.108 361.026 38.024 360.626 37.856C360.226 37.68 359.91 37.44 359.678 37.136C359.446 36.824 359.318 36.468 359.294 36.068H360.422C360.454 36.396 360.606 36.664 360.878 36.872C361.158 37.08 361.522 37.184 361.97 37.184C362.386 37.184 362.714 37.092 362.954 36.908C363.194 36.724 363.314 36.492 363.314 36.212C363.314 35.924 363.186 35.712 362.93 35.576C362.674 35.432 362.278 35.292 361.742 35.156C361.254 35.028 360.854 34.9 360.542 34.772C360.238 34.636 359.974 34.44 359.75 34.184C359.534 33.92 359.426 33.576 359.426 33.152C359.426 32.816 359.526 32.508 359.726 32.228C359.926 31.948 360.21 31.728 360.578 31.568C360.946 31.4 361.366 31.316 361.838 31.316C362.566 31.316 363.154 31.5 363.602 31.868C364.05 32.236 364.29 32.74 364.322 33.38H363.23C363.206 33.036 363.066 32.76 362.81 32.552C362.562 32.344 362.226 32.24 361.802 32.24C361.41 32.24 361.098 32.324 360.866 32.492C360.634 32.66 360.518 32.88 360.518 33.152C360.518 33.368 360.586 33.548 360.722 33.692C360.866 33.828 361.042 33.94 361.25 34.028C361.466 34.108 361.762 34.2 362.138 34.304C362.61 34.432 362.994 34.56 363.29 34.688C363.586 34.808 363.838 34.992 364.046 35.24C364.262 35.488 364.374 35.812 364.382 36.212C364.382 36.572 364.282 36.896 364.082 37.184C363.882 37.472 363.598 37.7 363.23 37.868C362.87 38.028 362.454 38.108 361.982 38.108ZM228.652 47.636V48.524H225.016V51.344H227.968V52.232H225.016V56H223.924V47.636H228.652ZM235.803 49.424V56H234.711V55.028C234.503 55.364 234.211 55.628 233.835 55.82C233.467 56.004 233.059 56.096 232.611 56.096C232.099 56.096 231.639 55.992 231.231 55.784C230.823 55.568 230.499 55.248 230.259 54.824C230.027 54.4 229.911 53.884 229.911 53.276V49.424H230.991V53.132C230.991 53.78 231.155 54.28 231.483 54.632C231.811 54.976 232.259 55.148 232.827 55.148C233.411 55.148 233.871 54.968 234.207 54.608C234.543 54.248 234.711 53.724 234.711 53.036V49.424H235.803ZM240.851 49.304C241.651 49.304 242.299 49.548 242.795 50.036C243.291 50.516 243.539 51.212 243.539 52.124V56H242.459V52.28C242.459 51.624 242.295 51.124 241.967 50.78C241.639 50.428 241.191 50.252 240.623 50.252C240.047 50.252 239.587 50.432 239.243 50.792C238.907 51.152 238.739 51.676 238.739 52.364V56H237.647V49.424H238.739V50.36C238.955 50.024 239.247 49.764 239.615 49.58C239.991 49.396 240.403 49.304 240.851 49.304ZM244.914 52.688C244.914 52.016 245.05 51.428 245.322 50.924C245.594 50.412 245.966 50.016 246.438 49.736C246.918 49.456 247.454 49.316 248.046 49.316C248.558 49.316 249.034 49.436 249.474 49.676C249.914 49.908 250.25 50.216 250.482 50.6V47.12H251.586V56H250.482V54.764C250.266 55.156 249.946 55.48 249.522 55.736C249.098 55.984 248.602 56.108 248.034 56.108C247.45 56.108 246.918 55.964 246.438 55.676C245.966 55.388 245.594 54.984 245.322 54.464C245.05 53.944 244.914 53.352 244.914 52.688ZM250.482 52.7C250.482 52.204 250.382 51.772 250.182 51.404C249.982 51.036 249.71 50.756 249.366 50.564C249.03 50.364 248.658 50.264 248.25 50.264C247.842 50.264 247.47 50.36 247.134 50.552C246.798 50.744 246.53 51.024 246.33 51.392C246.13 51.76 246.03 52.192 246.03 52.688C246.03 53.192 246.13 53.632 246.33 54.008C246.53 54.376 246.798 54.66 247.134 54.86C247.47 55.052 247.842 55.148 248.25 55.148C248.658 55.148 249.03 55.052 249.366 54.86C249.71 54.66 249.982 54.376 250.182 54.008C250.382 53.632 250.482 53.196 250.482 52.7ZM259.439 58.232C258.671 57.48 258.071 56.524 257.639 55.364C257.215 54.204 257.003 52.952 257.003 51.608C257.003 50.232 257.227 48.948 257.675 47.756C258.131 46.556 258.779 45.568 259.619 44.792H260.759V44.9C259.863 45.74 259.187 46.752 258.731 47.936C258.283 49.112 258.059 50.336 258.059 51.608C258.059 52.848 258.271 54.032 258.695 55.16C259.127 56.288 259.755 57.276 260.579 58.124V58.232H259.439ZM263.172 50.648C263.396 50.256 263.724 49.936 264.156 49.688C264.588 49.44 265.08 49.316 265.632 49.316C266.224 49.316 266.756 49.456 267.228 49.736C267.7 50.016 268.072 50.412 268.344 50.924C268.616 51.428 268.752 52.016 268.752 52.688C268.752 53.352 268.616 53.944 268.344 54.464C268.072 54.984 267.696 55.388 267.216 55.676C266.744 55.964 266.216 56.108 265.632 56.108C265.064 56.108 264.564 55.984 264.132 55.736C263.708 55.488 263.388 55.172 263.172 54.788V56H262.08V47.12H263.172V50.648ZM267.636 52.688C267.636 52.192 267.536 51.76 267.336 51.392C267.136 51.024 266.864 50.744 266.52 50.552C266.184 50.36 265.812 50.264 265.404 50.264C265.004 50.264 264.632 50.364 264.288 50.564C263.952 50.756 263.68 51.04 263.472 51.416C263.272 51.784 263.172 52.212 263.172 52.7C263.172 53.196 263.272 53.632 263.472 54.008C263.68 54.376 263.952 54.66 264.288 54.86C264.632 55.052 265.004 55.148 265.404 55.148C265.812 55.148 266.184 55.052 266.52 54.86C266.864 54.66 267.136 54.376 267.336 54.008C267.536 53.632 267.636 53.192 267.636 52.688ZM271.282 50.492C271.474 50.116 271.746 49.824 272.098 49.616C272.458 49.408 272.894 49.304 273.406 49.304V50.432H273.118C271.894 50.432 271.282 51.096 271.282 52.424V56H270.19V49.424H271.282V50.492ZM277.534 56.108C276.918 56.108 276.358 55.968 275.854 55.688C275.358 55.408 274.966 55.012 274.678 54.5C274.398 53.98 274.258 53.38 274.258 52.7C274.258 52.028 274.402 51.436 274.69 50.924C274.986 50.404 275.386 50.008 275.89 49.736C276.394 49.456 276.958 49.316 277.582 49.316C278.206 49.316 278.77 49.456 279.274 49.736C279.778 50.008 280.174 50.4 280.462 50.912C280.758 51.424 280.906 52.02 280.906 52.7C280.906 53.38 280.754 53.98 280.45 54.5C280.154 55.012 279.75 55.408 279.238 55.688C278.726 55.968 278.158 56.108 277.534 56.108ZM277.534 55.148C277.926 55.148 278.294 55.056 278.638 54.872C278.982 54.688 279.258 54.412 279.466 54.044C279.682 53.676 279.79 53.228 279.79 52.7C279.79 52.172 279.686 51.724 279.478 51.356C279.27 50.988 278.998 50.716 278.662 50.54C278.326 50.356 277.962 50.264 277.57 50.264C277.17 50.264 276.802 50.356 276.466 50.54C276.138 50.716 275.874 50.988 275.674 51.356C275.474 51.724 275.374 52.172 275.374 52.7C275.374 53.236 275.47 53.688 275.662 54.056C275.862 54.424 276.126 54.7 276.454 54.884C276.782 55.06 277.142 55.148 277.534 55.148ZM281.934 52.688C281.934 52.016 282.07 51.428 282.342 50.924C282.614 50.412 282.986 50.016 283.458 49.736C283.938 49.456 284.47 49.316 285.054 49.316C285.63 49.316 286.13 49.44 286.554 49.688C286.978 49.936 287.294 50.248 287.502 50.624V49.424H288.606V56H287.502V54.776C287.286 55.16 286.962 55.48 286.53 55.736C286.106 55.984 285.61 56.108 285.042 56.108C284.458 56.108 283.93 55.964 283.458 55.676C282.986 55.388 282.614 54.984 282.342 54.464C282.07 53.944 281.934 53.352 281.934 52.688ZM287.502 52.7C287.502 52.204 287.402 51.772 287.202 51.404C287.002 51.036 286.73 50.756 286.386 50.564C286.05 50.364 285.678 50.264 285.27 50.264C284.862 50.264 284.49 50.36 284.154 50.552C283.818 50.744 283.55 51.024 283.35 51.392C283.15 51.76 283.05 52.192 283.05 52.688C283.05 53.192 283.15 53.632 283.35 54.008C283.55 54.376 283.818 54.66 284.154 54.86C284.49 55.052 284.862 55.148 285.27 55.148C285.678 55.148 286.05 55.052 286.386 54.86C286.73 54.66 287.002 54.376 287.202 54.008C287.402 53.632 287.502 53.196 287.502 52.7ZM290.043 52.688C290.043 52.016 290.179 51.428 290.451 50.924C290.723 50.412 291.095 50.016 291.567 49.736C292.047 49.456 292.583 49.316 293.175 49.316C293.687 49.316 294.163 49.436 294.603 49.676C295.043 49.908 295.379 50.216 295.611 50.6V47.12H296.715V56H295.611V54.764C295.395 55.156 295.075 55.48 294.651 55.736C294.227 55.984 293.731 56.108 293.163 56.108C292.579 56.108 292.047 55.964 291.567 55.676C291.095 55.388 290.723 54.984 290.451 54.464C290.179 53.944 290.043 53.352 290.043 52.688ZM295.611 52.7C295.611 52.204 295.511 51.772 295.311 51.404C295.111 51.036 294.839 50.756 294.495 50.564C294.159 50.364 293.787 50.264 293.379 50.264C292.971 50.264 292.599 50.36 292.263 50.552C291.927 50.744 291.659 51.024 291.459 51.392C291.259 51.76 291.159 52.192 291.159 52.688C291.159 53.192 291.259 53.632 291.459 54.008C291.659 54.376 291.927 54.66 292.263 54.86C292.599 55.052 292.971 55.148 293.379 55.148C293.787 55.148 294.159 55.052 294.495 54.86C294.839 54.66 295.111 54.376 295.311 54.008C295.511 53.632 295.611 53.196 295.611 52.7ZM307.76 52.46C307.76 52.668 307.748 52.888 307.724 53.12H302.468C302.508 53.768 302.728 54.276 303.128 54.644C303.536 55.004 304.028 55.184 304.604 55.184C305.076 55.184 305.468 55.076 305.78 54.86C306.1 54.636 306.324 54.34 306.452 53.972H307.628C307.452 54.604 307.1 55.12 306.572 55.52C306.044 55.912 305.388 56.108 304.604 56.108C303.98 56.108 303.42 55.968 302.924 55.688C302.436 55.408 302.052 55.012 301.772 54.5C301.492 53.98 301.352 53.38 301.352 52.7C301.352 52.02 301.488 51.424 301.76 50.912C302.032 50.4 302.412 50.008 302.9 49.736C303.396 49.456 303.964 49.316 304.604 49.316C305.228 49.316 305.78 49.452 306.26 49.724C306.74 49.996 307.108 50.372 307.364 50.852C307.628 51.324 307.76 51.86 307.76 52.46ZM306.632 52.232C306.632 51.816 306.54 51.46 306.356 51.164C306.172 50.86 305.92 50.632 305.6 50.48C305.288 50.32 304.94 50.24 304.556 50.24C304.004 50.24 303.532 50.416 303.14 50.768C302.756 51.12 302.536 51.608 302.48 52.232H306.632ZM312.633 56L311.073 53.552L309.573 56H308.433L310.557 52.736L308.433 49.424H309.669L311.229 51.86L312.717 49.424H313.857L311.745 52.676L313.869 56H312.633ZM316.036 50.636C316.252 50.26 316.572 49.948 316.996 49.7C317.428 49.444 317.928 49.316 318.496 49.316C319.08 49.316 319.608 49.456 320.08 49.736C320.56 50.016 320.936 50.412 321.208 50.924C321.48 51.428 321.616 52.016 321.616 52.688C321.616 53.352 321.48 53.944 321.208 54.464C320.936 54.984 320.56 55.388 320.08 55.676C319.608 55.964 319.08 56.108 318.496 56.108C317.936 56.108 317.44 55.984 317.008 55.736C316.584 55.48 316.26 55.164 316.036 54.788V59.12H314.944V49.424H316.036V50.636ZM320.5 52.688C320.5 52.192 320.4 51.76 320.2 51.392C320 51.024 319.728 50.744 319.384 50.552C319.048 50.36 318.676 50.264 318.268 50.264C317.868 50.264 317.496 50.364 317.152 50.564C316.816 50.756 316.544 51.04 316.336 51.416C316.136 51.784 316.036 52.212 316.036 52.7C316.036 53.196 316.136 53.632 316.336 54.008C316.544 54.376 316.816 54.66 317.152 54.86C317.496 55.052 317.868 55.148 318.268 55.148C318.676 55.148 319.048 55.052 319.384 54.86C319.728 54.66 320 54.376 320.2 54.008C320.4 53.632 320.5 53.192 320.5 52.688ZM325.921 56.108C325.305 56.108 324.745 55.968 324.241 55.688C323.745 55.408 323.353 55.012 323.065 54.5C322.785 53.98 322.645 53.38 322.645 52.7C322.645 52.028 322.789 51.436 323.077 50.924C323.373 50.404 323.773 50.008 324.277 49.736C324.781 49.456 325.345 49.316 325.969 49.316C326.593 49.316 327.157 49.456 327.661 49.736C328.165 50.008 328.561 50.4 328.849 50.912C329.145 51.424 329.293 52.02 329.293 52.7C329.293 53.38 329.141 53.98 328.837 54.5C328.541 55.012 328.137 55.408 327.625 55.688C327.113 55.968 326.545 56.108 325.921 56.108ZM325.921 55.148C326.313 55.148 326.681 55.056 327.025 54.872C327.369 54.688 327.645 54.412 327.853 54.044C328.069 53.676 328.177 53.228 328.177 52.7C328.177 52.172 328.073 51.724 327.865 51.356C327.657 50.988 327.385 50.716 327.049 50.54C326.713 50.356 326.349 50.264 325.957 50.264C325.557 50.264 325.189 50.356 324.853 50.54C324.525 50.716 324.261 50.988 324.061 51.356C323.861 51.724 323.761 52.172 323.761 52.7C323.761 53.236 323.857 53.688 324.049 54.056C324.249 54.424 324.513 54.7 324.841 54.884C325.169 55.06 325.529 55.148 325.921 55.148ZM333.057 56.108C332.553 56.108 332.101 56.024 331.701 55.856C331.301 55.68 330.985 55.44 330.753 55.136C330.521 54.824 330.393 54.468 330.369 54.068H331.497C331.529 54.396 331.681 54.664 331.953 54.872C332.233 55.08 332.597 55.184 333.045 55.184C333.461 55.184 333.789 55.092 334.029 54.908C334.269 54.724 334.389 54.492 334.389 54.212C334.389 53.924 334.261 53.712 334.005 53.576C333.749 53.432 333.353 53.292 332.817 53.156C332.329 53.028 331.929 52.9 331.617 52.772C331.313 52.636 331.049 52.44 330.825 52.184C330.609 51.92 330.501 51.576 330.501 51.152C330.501 50.816 330.601 50.508 330.801 50.228C331.001 49.948 331.285 49.728 331.653 49.568C332.021 49.4 332.441 49.316 332.913 49.316C333.641 49.316 334.229 49.5 334.677 49.868C335.125 50.236 335.365 50.74 335.397 51.38H334.305C334.281 51.036 334.141 50.76 333.885 50.552C333.637 50.344 333.301 50.24 332.877 50.24C332.485 50.24 332.173 50.324 331.941 50.492C331.709 50.66 331.593 50.88 331.593 51.152C331.593 51.368 331.661 51.548 331.797 51.692C331.941 51.828 332.117 51.94 332.325 52.028C332.541 52.108 332.837 52.2 333.213 52.304C333.685 52.432 334.069 52.56 334.365 52.688C334.661 52.808 334.913 52.992 335.121 53.24C335.337 53.488 335.449 53.812 335.457 54.212C335.457 54.572 335.357 54.896 335.157 55.184C334.957 55.472 334.673 55.7 334.305 55.868C333.945 56.028 333.529 56.108 333.057 56.108ZM342.83 49.424V56H341.738V55.028C341.53 55.364 341.238 55.628 340.862 55.82C340.494 56.004 340.086 56.096 339.638 56.096C339.126 56.096 338.666 55.992 338.258 55.784C337.85 55.568 337.526 55.248 337.286 54.824C337.054 54.4 336.938 53.884 336.938 53.276V49.424H338.018V53.132C338.018 53.78 338.182 54.28 338.51 54.632C338.838 54.976 339.286 55.148 339.854 55.148C340.438 55.148 340.898 54.968 341.234 54.608C341.57 54.248 341.738 53.724 341.738 53.036V49.424H342.83ZM345.766 50.492C345.958 50.116 346.23 49.824 346.582 49.616C346.942 49.408 347.378 49.304 347.89 49.304V50.432H347.602C346.378 50.432 345.766 51.096 345.766 52.424V56H344.674V49.424H345.766V50.492ZM355.151 52.46C355.151 52.668 355.139 52.888 355.115 53.12H349.859C349.899 53.768 350.119 54.276 350.519 54.644C350.927 55.004 351.419 55.184 351.995 55.184C352.467 55.184 352.859 55.076 353.171 54.86C353.491 54.636 353.715 54.34 353.843 53.972H355.019C354.843 54.604 354.491 55.12 353.963 55.52C353.435 55.912 352.779 56.108 351.995 56.108C351.371 56.108 350.811 55.968 350.315 55.688C349.827 55.408 349.443 55.012 349.163 54.5C348.883 53.98 348.743 53.38 348.743 52.7C348.743 52.02 348.879 51.424 349.151 50.912C349.423 50.4 349.803 50.008 350.291 49.736C350.787 49.456 351.355 49.316 351.995 49.316C352.619 49.316 353.171 49.452 353.651 49.724C354.131 49.996 354.499 50.372 354.755 50.852C355.019 51.324 355.151 51.86 355.151 52.46ZM354.023 52.232C354.023 51.816 353.931 51.46 353.747 51.164C353.563 50.86 353.311 50.632 352.991 50.48C352.679 50.32 352.331 50.24 351.947 50.24C351.395 50.24 350.923 50.416 350.531 50.768C350.147 51.12 349.927 51.608 349.871 52.232H354.023ZM356.244 58.232V58.124C357.068 57.276 357.692 56.288 358.116 55.16C358.548 54.032 358.764 52.848 358.764 51.608C358.764 50.336 358.536 49.112 358.08 47.936C357.632 46.752 356.96 45.74 356.064 44.9V44.792H357.204C358.044 45.568 358.688 46.556 359.136 47.756C359.592 48.948 359.82 50.232 359.82 51.608C359.82 52.952 359.604 54.204 359.172 55.364C358.748 56.524 358.152 57.48 357.384 58.232H356.244Z" fill="black" fill-opacity="0.7"/>
</svg>
