<svg width="43" height="42" viewBox="0 0 43 42" fill="none" xmlns="http://www.w3.org/2000/svg">
<path d="M37.5552 16.8689C36.9366 16.2225 36.2968 15.5564 36.0556 14.9707C35.8325 14.4342 35.8194 13.545 35.8062 12.6837C35.7816 11.0824 35.7554 9.26789 34.4937 8.00625C33.2321 6.74461 31.4176 6.71836 29.8163 6.69375C28.955 6.68062 28.0658 6.6675 27.5293 6.44437C26.9452 6.2032 26.2775 5.56336 25.6311 4.94484C24.4991 3.85711 23.2128 2.625 21.5 2.625C19.7872 2.625 18.5026 3.85711 17.3689 4.94484C16.7225 5.56336 16.0564 6.2032 15.4707 6.44437C14.9375 6.6675 14.045 6.68062 13.1837 6.69375C11.5824 6.71836 9.76789 6.74461 8.50625 8.00625C7.24461 9.26789 7.22656 11.0824 7.19375 12.6837C7.18062 13.545 7.1675 14.4342 6.94437 14.9707C6.7032 15.5548 6.06336 16.2225 5.44484 16.8689C4.35711 18.0009 3.125 19.2872 3.125 21C3.125 22.7128 4.35711 23.9974 5.44484 25.1311C6.06336 25.7775 6.7032 26.4436 6.94437 27.0293C7.1675 27.5658 7.18062 28.455 7.19375 29.3163C7.21836 30.9176 7.24461 32.7321 8.50625 33.9937C9.76789 35.2554 11.5824 35.2816 13.1837 35.3062C14.045 35.3194 14.9342 35.3325 15.4707 35.5556C16.0548 35.7968 16.7225 36.4366 17.3689 37.0552C18.5009 38.1429 19.7872 39.375 21.5 39.375C23.2128 39.375 24.4974 38.1429 25.6311 37.0552C26.2775 36.4366 26.9436 35.7968 27.5293 35.5556C28.0658 35.3325 28.955 35.3194 29.8163 35.3062C31.4176 35.2816 33.2321 35.2554 34.4937 33.9937C35.7554 32.7321 35.7816 30.9176 35.8062 29.3163C35.8194 28.455 35.8325 27.5658 36.0556 27.0293C36.2968 26.4452 36.9366 25.7775 37.5552 25.1311C38.6429 23.9991 39.875 22.7128 39.875 21C39.875 19.2872 38.6429 18.0026 37.5552 16.8689ZM35.6602 23.3149C34.8744 24.1352 34.0606 24.9834 33.6291 26.0252C33.2157 27.026 33.1977 28.1695 33.1812 29.277C33.1648 30.4254 33.1468 31.628 32.6366 32.1366C32.1263 32.6452 30.932 32.6648 29.777 32.6812C28.6695 32.6977 27.526 32.7157 26.5252 33.1291C25.4834 33.5606 24.6352 34.3744 23.8149 35.1602C22.9946 35.9461 22.1562 36.75 21.5 36.75C20.8438 36.75 19.9988 35.9428 19.1851 35.1602C18.3713 34.3777 17.5166 33.5606 16.4748 33.1291C15.474 32.7157 14.3305 32.6977 13.223 32.6812C12.0746 32.6648 10.872 32.6468 10.3634 32.1366C9.85484 31.6263 9.83516 30.432 9.81875 29.277C9.80234 28.1695 9.7843 27.026 9.37086 26.0252C8.93937 24.9834 8.12562 24.1352 7.33977 23.3149C6.55391 22.4946 5.75 21.6562 5.75 21C5.75 20.3438 6.55719 19.4988 7.33977 18.6851C8.12234 17.8713 8.93937 17.0166 9.37086 15.9748C9.7843 14.974 9.80234 13.8305 9.81875 12.723C9.83516 11.5746 9.8532 10.372 10.3634 9.86344C10.8737 9.35484 12.068 9.33516 13.223 9.31875C14.3305 9.30234 15.474 9.2843 16.4748 8.87086C17.5166 8.43937 18.3648 7.62562 19.1851 6.83977C20.0054 6.05391 20.8438 5.25 21.5 5.25C22.1562 5.25 23.0012 6.05719 23.8149 6.83977C24.6287 7.62234 25.4834 8.43937 26.5252 8.87086C27.526 9.2843 28.6695 9.30234 29.777 9.31875C30.9254 9.33516 32.128 9.3532 32.6366 9.86344C33.1452 10.3737 33.1648 11.568 33.1812 12.723C33.1977 13.8305 33.2157 14.974 33.6291 15.9748C34.0606 17.0166 34.8744 17.8648 35.6602 18.6851C36.4461 19.5054 37.25 20.3438 37.25 21C37.25 21.6562 36.4428 22.5012 35.6602 23.3149ZM28.9911 16.1339C29.1131 16.2558 29.2099 16.4006 29.276 16.5599C29.342 16.7192 29.376 16.89 29.376 17.0625C29.376 17.235 29.342 17.4058 29.276 17.5651C29.2099 17.7244 29.1131 17.8692 28.9911 17.9911L19.8036 27.1786C19.6817 27.3006 19.5369 27.3974 19.3776 27.4635C19.2183 27.5295 19.0475 27.5635 18.875 27.5635C18.7025 27.5635 18.5317 27.5295 18.3724 27.4635C18.2131 27.3974 18.0683 27.3006 17.9464 27.1786L14.0089 23.2411C13.7626 22.9948 13.6243 22.6608 13.6243 22.3125C13.6243 21.9642 13.7626 21.6302 14.0089 21.3839C14.2552 21.1376 14.5892 20.9993 14.9375 20.9993C15.2858 20.9993 15.6198 21.1376 15.8661 21.3839L18.875 24.3945L27.1339 16.1339C27.2558 16.0119 27.4006 15.9151 27.5599 15.849C27.7192 15.783 27.89 15.749 28.0625 15.749C28.235 15.749 28.4058 15.783 28.5651 15.849C28.7244 15.9151 28.8692 16.0119 28.9911 16.1339Z" fill="black"/>
</svg>
