<svg width="614" height="332" viewBox="0 0 614 332" fill="none" xmlns="http://www.w3.org/2000/svg">
<line x1="28" y1="8.5" x2="614" y2="8.50005" stroke="#CDCDCD" stroke-opacity="0.4"/>
<line x1="28" y1="50.5" x2="614" y2="50.5" stroke="#CDCDCD" stroke-opacity="0.4"/>
<line x1="28" y1="92.5001" x2="614" y2="92.5002" stroke="#CDCDCD" stroke-opacity="0.4"/>
<line x1="28" y1="134.5" x2="614" y2="134.5" stroke="#CDCDCD" stroke-opacity="0.4"/>
<line x1="28" y1="176.5" x2="614" y2="176.5" stroke="#CDCDCD" stroke-opacity="0.4"/>
<line x1="28" y1="218.5" x2="614" y2="218.5" stroke="#CDCDCD" stroke-opacity="0.4"/>
<line x1="28" y1="260.5" x2="614" y2="260.5" stroke="#CDCDCD" stroke-opacity="0.4"/>
<path d="M2.436 14V4.62L2.884 5.096H0.126V4.2H3.444V14H2.436ZM7.49459 14V4.62L7.94259 5.096H5.18459V4.2H8.50259V14H7.49459Z" fill="black"/>
<path d="M2.436 56V46.62L2.884 47.096H0.126V46.2H3.444V56H2.436ZM9.69259 56.084C8.93659 56.084 8.26459 55.888 7.67659 55.496C7.08859 55.0947 6.62659 54.5253 6.29059 53.788C5.95459 53.0413 5.78659 52.1453 5.78659 51.1C5.78659 50.0547 5.95459 49.1633 6.29059 48.426C6.62659 47.6793 7.08859 47.11 7.67659 46.718C8.26459 46.3167 8.93659 46.116 9.69259 46.116C10.4486 46.116 11.1206 46.3167 11.7086 46.718C12.2966 47.11 12.7586 47.6793 13.0946 48.426C13.4399 49.1633 13.6126 50.0547 13.6126 51.1C13.6126 52.1453 13.4399 53.0413 13.0946 53.788C12.7586 54.5253 12.2966 55.0947 11.7086 55.496C11.1206 55.888 10.4486 56.084 9.69259 56.084ZM9.69259 55.16C10.2713 55.16 10.7753 55.006 11.2046 54.698C11.6339 54.3807 11.9699 53.9233 12.2126 53.326C12.4553 52.7193 12.5766 51.9773 12.5766 51.1C12.5766 50.2227 12.4553 49.4853 12.2126 48.888C11.9699 48.2813 11.6339 47.824 11.2046 47.516C10.7753 47.1987 10.2713 47.04 9.69259 47.04C9.13259 47.04 8.63326 47.1987 8.19459 47.516C7.75593 47.824 7.41526 48.2813 7.17259 48.888C6.92993 49.4853 6.80859 50.2227 6.80859 51.1C6.80859 51.9773 6.92993 52.7193 7.17259 53.326C7.41526 53.9233 7.75593 54.3807 8.19459 54.698C8.63326 55.006 9.13259 55.16 9.69259 55.16Z" fill="black"/>
<path d="M4.452 98.084C3.668 98.084 2.99133 97.972 2.422 97.748C1.862 97.524 1.428 97.202 1.12 96.782C0.821333 96.3527 0.672 95.8487 0.672 95.27C0.672 94.71 0.816667 94.234 1.106 93.842C1.40467 93.4407 1.834 93.1327 2.394 92.918C2.96333 92.7033 3.64933 92.596 4.452 92.596C5.24533 92.596 5.92667 92.7033 6.496 92.918C7.06533 93.1327 7.49933 93.4407 7.798 93.842C8.106 94.234 8.26 94.71 8.26 95.27C8.26 95.8487 8.106 96.3527 7.798 96.782C7.49 97.202 7.05133 97.524 6.482 97.748C5.91267 97.972 5.236 98.084 4.452 98.084ZM4.452 97.23C5.32 97.23 5.99667 97.0527 6.482 96.698C6.97667 96.3433 7.224 95.8627 7.224 95.256C7.224 94.6493 6.97667 94.1733 6.482 93.828C5.99667 93.4733 5.32 93.296 4.452 93.296C3.584 93.296 2.90733 93.4733 2.422 93.828C1.93667 94.1733 1.694 94.6493 1.694 95.256C1.694 95.8627 1.93667 96.3433 2.422 96.698C2.90733 97.0527 3.584 97.23 4.452 97.23ZM4.452 93.17C3.724 93.17 3.10333 93.072 2.59 92.876C2.086 92.68 1.69867 92.4 1.428 92.036C1.15733 91.6627 1.022 91.2193 1.022 90.706C1.022 90.1647 1.162 89.7027 1.442 89.32C1.73133 88.928 2.13267 88.6293 2.646 88.424C3.15933 88.2187 3.76133 88.116 4.452 88.116C5.14267 88.116 5.74467 88.2187 6.258 88.424C6.78067 88.6293 7.18667 88.928 7.476 89.32C7.76533 89.7027 7.91 90.1647 7.91 90.706C7.91 91.2193 7.77467 91.6627 7.504 92.036C7.23333 92.4 6.83667 92.68 6.314 92.876C5.80067 93.072 5.18 93.17 4.452 93.17ZM4.452 92.498C5.21733 92.498 5.81467 92.3393 6.244 92.022C6.67333 91.7047 6.888 91.28 6.888 90.748C6.888 90.188 6.664 89.754 6.216 89.446C5.77733 89.1287 5.18933 88.97 4.452 88.97C3.71467 88.97 3.12667 89.1287 2.688 89.446C2.24933 89.754 2.03 90.1833 2.03 90.734C2.03 91.2753 2.24 91.7047 2.66 92.022C3.08933 92.3393 3.68667 92.498 4.452 92.498Z" fill="black"/>
<path d="M4.746 140.084C3.878 140.084 3.14533 139.893 2.548 139.51C1.95067 139.118 1.498 138.558 1.19 137.83C0.882 137.093 0.728 136.211 0.728 135.184C0.728 134.073 0.914667 133.145 1.288 132.398C1.67067 131.642 2.198 131.073 2.87 130.69C3.542 130.307 4.32133 130.116 5.208 130.116C5.64667 130.116 6.06667 130.158 6.468 130.242C6.86933 130.326 7.224 130.461 7.532 130.648L7.126 131.46C6.874 131.292 6.58467 131.175 6.258 131.11C5.93133 131.035 5.586 130.998 5.222 130.998C4.16733 130.998 3.32267 131.334 2.688 132.006C2.06267 132.678 1.75 133.681 1.75 135.016C1.75 135.221 1.75933 135.478 1.778 135.786C1.806 136.085 1.862 136.383 1.946 136.682L1.596 136.416C1.69867 135.931 1.89933 135.52 2.198 135.184C2.49667 134.839 2.87 134.577 3.318 134.4C3.766 134.223 4.256 134.134 4.788 134.134C5.44133 134.134 6.01533 134.255 6.51 134.498C7.00467 134.741 7.392 135.081 7.672 135.52C7.952 135.959 8.092 136.477 8.092 137.074C8.092 137.681 7.94733 138.213 7.658 138.67C7.36867 139.118 6.96733 139.468 6.454 139.72C5.95 139.963 5.38067 140.084 4.746 140.084ZM4.704 139.23C5.17067 139.23 5.58133 139.146 5.936 138.978C6.3 138.801 6.58467 138.553 6.79 138.236C6.99533 137.909 7.098 137.531 7.098 137.102C7.098 136.458 6.874 135.945 6.426 135.562C5.98733 135.179 5.39 134.988 4.634 134.988C4.13 134.988 3.69133 135.081 3.318 135.268C2.94467 135.455 2.65067 135.711 2.436 136.038C2.22133 136.355 2.114 136.719 2.114 137.13C2.114 137.485 2.212 137.825 2.408 138.152C2.604 138.469 2.89333 138.731 3.276 138.936C3.668 139.132 4.144 139.23 4.704 139.23Z" fill="black"/>
<path d="M0.56 179.424V178.696L5.754 172.2H6.874L1.722 178.696L1.176 178.528H9.058V179.424H0.56ZM6.09 182V179.424L6.118 178.528V176.26H7.098V182H6.09Z" fill="black"/>
<path d="M0.546 224V223.286L4.62 219.296C4.99333 218.932 5.27333 218.615 5.46 218.344C5.64667 218.064 5.77267 217.803 5.838 217.56C5.90333 217.317 5.936 217.089 5.936 216.874C5.936 216.305 5.74 215.857 5.348 215.53C4.96533 215.203 4.396 215.04 3.64 215.04C3.06133 215.04 2.548 215.129 2.1 215.306C1.66133 215.483 1.28333 215.759 0.966 216.132L0.252 215.516C0.634667 215.068 1.12467 214.723 1.722 214.48C2.31933 214.237 2.98667 214.116 3.724 214.116C4.38667 214.116 4.96067 214.223 5.446 214.438C5.93133 214.643 6.30467 214.947 6.566 215.348C6.83667 215.749 6.972 216.221 6.972 216.762C6.972 217.079 6.92533 217.392 6.832 217.7C6.748 218.008 6.58933 218.335 6.356 218.68C6.132 219.016 5.80067 219.399 5.362 219.828L1.624 223.496L1.344 223.104H7.42V224H0.546Z" fill="black"/>
<path d="M4.634 266.084C3.878 266.084 3.206 265.888 2.618 265.496C2.03 265.095 1.568 264.525 1.232 263.788C0.896 263.041 0.728 262.145 0.728 261.1C0.728 260.055 0.896 259.163 1.232 258.426C1.568 257.679 2.03 257.11 2.618 256.718C3.206 256.317 3.878 256.116 4.634 256.116C5.39 256.116 6.062 256.317 6.65 256.718C7.238 257.11 7.7 257.679 8.036 258.426C8.38133 259.163 8.554 260.055 8.554 261.1C8.554 262.145 8.38133 263.041 8.036 263.788C7.7 264.525 7.238 265.095 6.65 265.496C6.062 265.888 5.39 266.084 4.634 266.084ZM4.634 265.16C5.21267 265.16 5.71667 265.006 6.146 264.698C6.57533 264.381 6.91133 263.923 7.154 263.326C7.39667 262.719 7.518 261.977 7.518 261.1C7.518 260.223 7.39667 259.485 7.154 258.888C6.91133 258.281 6.57533 257.824 6.146 257.516C5.71667 257.199 5.21267 257.04 4.634 257.04C4.074 257.04 3.57467 257.199 3.136 257.516C2.69733 257.824 2.35667 258.281 2.114 258.888C1.87133 259.485 1.75 260.223 1.75 261.1C1.75 261.977 1.87133 262.719 2.114 263.326C2.35667 263.923 2.69733 264.381 3.136 264.698C3.57467 265.006 4.074 265.16 4.634 265.16Z" fill="black"/>
<path d="M45.368 281V272.6H48.512C49.224 272.6 49.836 272.716 50.348 272.948C50.86 273.172 51.252 273.5 51.524 273.932C51.804 274.356 51.944 274.872 51.944 275.48C51.944 276.072 51.804 276.584 51.524 277.016C51.252 277.44 50.86 277.768 50.348 278C49.836 278.232 49.224 278.348 48.512 278.348H45.86L46.256 277.928V281H45.368ZM46.256 278L45.86 277.568H48.488C49.328 277.568 49.964 277.388 50.396 277.028C50.836 276.66 51.056 276.144 51.056 275.48C51.056 274.808 50.836 274.288 50.396 273.92C49.964 273.552 49.328 273.368 48.488 273.368H45.86L46.256 272.948V278ZM53.5318 281V274.7H54.3478V276.416L54.2638 276.116C54.4398 275.636 54.7358 275.272 55.1518 275.024C55.5678 274.768 56.0838 274.64 56.6998 274.64V275.468C56.6678 275.468 56.6358 275.468 56.6038 275.468C56.5718 275.46 56.5398 275.456 56.5078 275.456C55.8438 275.456 55.3238 275.66 54.9478 276.068C54.5718 276.468 54.3838 277.04 54.3838 277.784V281H53.5318ZM58.2544 281V274.7H59.1064V281H58.2544ZM58.6864 273.308C58.5104 273.308 58.3624 273.248 58.2424 273.128C58.1224 273.008 58.0624 272.864 58.0624 272.696C58.0624 272.528 58.1224 272.388 58.2424 272.276C58.3624 272.156 58.5104 272.096 58.6864 272.096C58.8624 272.096 59.0104 272.152 59.1304 272.264C59.2504 272.376 59.3104 272.516 59.3104 272.684C59.3104 272.86 59.2504 273.008 59.1304 273.128C59.0184 273.248 58.8704 273.308 58.6864 273.308ZM63.0971 281L60.3011 274.7H61.1891L63.7571 280.544H63.3371L65.9411 274.7H66.7811L63.9731 281H63.0971ZM71.7415 281V279.608L71.7055 279.38V277.052C71.7055 276.516 71.5535 276.104 71.2495 275.816C70.9535 275.528 70.5095 275.384 69.9175 275.384C69.5095 275.384 69.1215 275.452 68.7535 275.588C68.3855 275.724 68.0735 275.904 67.8175 276.128L67.4335 275.492C67.7535 275.22 68.1375 275.012 68.5855 274.868C69.0335 274.716 69.5055 274.64 70.0015 274.64C70.8175 274.64 71.4455 274.844 71.8855 275.252C72.3335 275.652 72.5575 276.264 72.5575 277.088V281H71.7415ZM69.5695 281.06C69.0975 281.06 68.6855 280.984 68.3335 280.832C67.9895 280.672 67.7255 280.456 67.5415 280.184C67.3575 279.904 67.2655 279.584 67.2655 279.224C67.2655 278.896 67.3415 278.6 67.4935 278.336C67.6535 278.064 67.9095 277.848 68.2615 277.688C68.6215 277.52 69.1015 277.436 69.7015 277.436H71.8735V278.072H69.7255C69.1175 278.072 68.6935 278.18 68.4535 278.396C68.2215 278.612 68.1055 278.88 68.1055 279.2C68.1055 279.56 68.2455 279.848 68.5255 280.064C68.8055 280.28 69.1975 280.388 69.7015 280.388C70.1815 280.388 70.5935 280.28 70.9375 280.064C71.2895 279.84 71.5455 279.52 71.7055 279.104L71.8975 279.692C71.7375 280.108 71.4575 280.44 71.0575 280.688C70.6655 280.936 70.1695 281.06 69.5695 281.06ZM76.8636 281.06C76.2716 281.06 75.8156 280.9 75.4956 280.58C75.1756 280.26 75.0156 279.808 75.0156 279.224V273.308H75.8676V279.176C75.8676 279.544 75.9596 279.828 76.1436 280.028C76.3356 280.228 76.6076 280.328 76.9596 280.328C77.3356 280.328 77.6476 280.22 77.8956 280.004L78.1956 280.616C78.0276 280.768 77.8236 280.88 77.5836 280.952C77.3516 281.024 77.1116 281.06 76.8636 281.06ZM73.8876 275.408V274.7H77.7876V275.408H73.8876ZM82.1999 281.06C81.5439 281.06 80.9679 280.924 80.4719 280.652C79.9759 280.372 79.5879 279.992 79.3079 279.512C79.0279 279.024 78.8879 278.468 78.8879 277.844C78.8879 277.22 79.0199 276.668 79.2839 276.188C79.5559 275.708 79.9239 275.332 80.3879 275.06C80.8599 274.78 81.3879 274.64 81.9719 274.64C82.5639 274.64 83.0879 274.776 83.5439 275.048C84.0079 275.312 84.3719 275.688 84.6359 276.176C84.8999 276.656 85.0319 277.212 85.0319 277.844C85.0319 277.884 85.0279 277.928 85.0199 277.976C85.0199 278.016 85.0199 278.06 85.0199 278.108H79.5359V277.472H84.5639L84.2279 277.724C84.2279 277.268 84.1279 276.864 83.9279 276.512C83.7359 276.152 83.4719 275.872 83.1359 275.672C82.7999 275.472 82.4119 275.372 81.9719 275.372C81.5399 275.372 81.1519 275.472 80.8079 275.672C80.4639 275.872 80.1959 276.152 80.0039 276.512C79.8119 276.872 79.7159 277.284 79.7159 277.748V277.88C79.7159 278.36 79.8199 278.784 80.0279 279.152C80.2439 279.512 80.5399 279.796 80.9159 280.004C81.2999 280.204 81.7359 280.304 82.2239 280.304C82.6079 280.304 82.9639 280.236 83.2919 280.1C83.6279 279.964 83.9159 279.756 84.1559 279.476L84.6359 280.028C84.3559 280.364 84.0039 280.62 83.5799 280.796C83.1639 280.972 82.7039 281.06 82.1999 281.06ZM93.7348 281.072C93.1028 281.072 92.5188 280.968 91.9828 280.76C91.4468 280.544 90.9828 280.244 90.5908 279.86C90.1988 279.476 89.8908 279.024 89.6668 278.504C89.4508 277.984 89.3428 277.416 89.3428 276.8C89.3428 276.184 89.4508 275.616 89.6668 275.096C89.8908 274.576 90.1988 274.124 90.5908 273.74C90.9908 273.356 91.4588 273.06 91.9948 272.852C92.5308 272.636 93.1148 272.528 93.7468 272.528C94.3548 272.528 94.9268 272.632 95.4628 272.84C95.9988 273.04 96.4508 273.344 96.8188 273.752L96.2548 274.316C95.9108 273.964 95.5308 273.712 95.1148 273.56C94.6988 273.4 94.2508 273.32 93.7708 273.32C93.2668 273.32 92.7988 273.408 92.3668 273.584C91.9348 273.752 91.5588 273.996 91.2388 274.316C90.9188 274.628 90.6668 274.996 90.4827 275.42C90.3067 275.836 90.2188 276.296 90.2188 276.8C90.2188 277.304 90.3067 277.768 90.4827 278.192C90.6668 278.608 90.9188 278.976 91.2388 279.296C91.5588 279.608 91.9348 279.852 92.3668 280.028C92.7988 280.196 93.2668 280.28 93.7708 280.28C94.2508 280.28 94.6988 280.2 95.1148 280.04C95.5308 279.88 95.9108 279.624 96.2548 279.272L96.8188 279.836C96.4508 280.244 95.9988 280.552 95.4628 280.76C94.9268 280.968 94.3508 281.072 93.7348 281.072ZM98.5318 281V274.7H99.3478V276.416L99.2638 276.116C99.4398 275.636 99.7358 275.272 100.152 275.024C100.568 274.768 101.084 274.64 101.7 274.64V275.468C101.668 275.468 101.636 275.468 101.604 275.468C101.572 275.46 101.54 275.456 101.508 275.456C100.844 275.456 100.324 275.66 99.9478 276.068C99.5718 276.468 99.3838 277.04 99.3838 277.784V281H98.5318ZM105.872 281.06C105.216 281.06 104.64 280.924 104.144 280.652C103.648 280.372 103.26 279.992 102.98 279.512C102.7 279.024 102.56 278.468 102.56 277.844C102.56 277.22 102.692 276.668 102.956 276.188C103.228 275.708 103.596 275.332 104.06 275.06C104.532 274.78 105.06 274.64 105.644 274.64C106.236 274.64 106.76 274.776 107.216 275.048C107.68 275.312 108.044 275.688 108.308 276.176C108.572 276.656 108.704 277.212 108.704 277.844C108.704 277.884 108.7 277.928 108.692 277.976C108.692 278.016 108.692 278.06 108.692 278.108H103.208V277.472H108.236L107.9 277.724C107.9 277.268 107.8 276.864 107.6 276.512C107.408 276.152 107.144 275.872 106.808 275.672C106.472 275.472 106.084 275.372 105.644 275.372C105.212 275.372 104.824 275.472 104.48 275.672C104.136 275.872 103.868 276.152 103.676 276.512C103.484 276.872 103.388 277.284 103.388 277.748V277.88C103.388 278.36 103.492 278.784 103.7 279.152C103.916 279.512 104.212 279.796 104.588 280.004C104.972 280.204 105.408 280.304 105.896 280.304C106.28 280.304 106.636 280.236 106.964 280.1C107.3 279.964 107.588 279.756 107.828 279.476L108.308 280.028C108.028 280.364 107.676 280.62 107.252 280.796C106.836 280.972 106.376 281.06 105.872 281.06ZM112.946 281.06C112.346 281.06 111.806 280.924 111.326 280.652C110.854 280.38 110.482 280.004 110.21 279.524C109.938 279.036 109.802 278.476 109.802 277.844C109.802 277.204 109.938 276.644 110.21 276.164C110.482 275.684 110.854 275.312 111.326 275.048C111.806 274.776 112.346 274.64 112.946 274.64C113.498 274.64 113.99 274.764 114.422 275.012C114.862 275.26 115.21 275.624 115.466 276.104C115.73 276.576 115.862 277.156 115.862 277.844C115.862 278.524 115.734 279.104 115.478 279.584C115.222 280.064 114.874 280.432 114.434 280.688C114.002 280.936 113.506 281.06 112.946 281.06ZM113.006 280.304C113.454 280.304 113.854 280.204 114.206 280.004C114.566 279.796 114.846 279.508 115.046 279.14C115.254 278.764 115.358 278.332 115.358 277.844C115.358 277.348 115.254 276.916 115.046 276.548C114.846 276.18 114.566 275.896 114.206 275.696C113.854 275.488 113.454 275.384 113.006 275.384C112.566 275.384 112.17 275.488 111.818 275.696C111.466 275.896 111.186 276.18 110.978 276.548C110.77 276.916 110.666 277.348 110.666 277.844C110.666 278.332 110.77 278.764 110.978 279.14C111.186 279.508 111.466 279.796 111.818 280.004C112.17 280.204 112.566 280.304 113.006 280.304ZM115.382 281V279.104L115.466 277.832L115.346 276.56V272.096H116.198V281H115.382ZM118.571 281V274.7H119.423V281H118.571ZM119.003 273.308C118.827 273.308 118.679 273.248 118.559 273.128C118.439 273.008 118.379 272.864 118.379 272.696C118.379 272.528 118.439 272.388 118.559 272.276C118.679 272.156 118.827 272.096 119.003 272.096C119.179 272.096 119.327 272.152 119.447 272.264C119.567 272.376 119.627 272.516 119.627 272.684C119.627 272.86 119.567 273.008 119.447 273.128C119.335 273.248 119.187 273.308 119.003 273.308ZM123.785 281.06C123.193 281.06 122.737 280.9 122.417 280.58C122.097 280.26 121.937 279.808 121.937 279.224V273.308H122.789V279.176C122.789 279.544 122.881 279.828 123.065 280.028C123.257 280.228 123.529 280.328 123.881 280.328C124.257 280.328 124.569 280.22 124.817 280.004L125.117 280.616C124.949 280.768 124.745 280.88 124.505 280.952C124.273 281.024 124.033 281.06 123.785 281.06ZM120.809 275.408V274.7H124.709V275.408H120.809ZM131.261 283.328C130.821 282.6 130.477 281.76 130.229 280.808C129.989 279.848 129.869 278.816 129.869 277.712C129.869 276.608 129.989 275.576 130.229 274.616C130.477 273.648 130.821 272.808 131.261 272.096H132.077C131.605 272.92 131.257 273.796 131.033 274.724C130.817 275.644 130.709 276.64 130.709 277.712C130.709 278.784 130.817 279.784 131.033 280.712C131.257 281.632 131.605 282.504 132.077 283.328H131.261ZM137.322 281.072C136.25 281.072 135.406 280.764 134.79 280.148C134.174 279.532 133.866 278.62 133.866 277.412V272.6H134.754V277.376C134.754 278.368 134.978 279.1 135.426 279.572C135.874 280.044 136.506 280.28 137.322 280.28C138.146 280.28 138.782 280.044 139.23 279.572C139.678 279.1 139.902 278.368 139.902 277.376V272.6H140.766V277.412C140.766 278.62 140.458 279.532 139.842 280.148C139.234 280.764 138.394 281.072 137.322 281.072ZM146.514 281.06C145.97 281.06 145.478 280.936 145.038 280.688C144.598 280.432 144.246 280.068 143.982 279.596C143.726 279.116 143.598 278.532 143.598 277.844C143.598 277.156 143.726 276.576 143.982 276.104C144.238 275.624 144.586 275.26 145.026 275.012C145.466 274.764 145.962 274.64 146.514 274.64C147.114 274.64 147.65 274.776 148.122 275.048C148.602 275.312 148.978 275.688 149.25 276.176C149.522 276.656 149.658 277.212 149.658 277.844C149.658 278.484 149.522 279.044 149.25 279.524C148.978 280.004 148.602 280.38 148.122 280.652C147.65 280.924 147.114 281.06 146.514 281.06ZM143.262 283.328V274.7H144.078V276.596L143.994 277.856L144.114 279.128V283.328H143.262ZM146.454 280.304C146.902 280.304 147.302 280.204 147.654 280.004C148.006 279.796 148.286 279.508 148.494 279.14C148.702 278.764 148.806 278.332 148.806 277.844C148.806 277.356 148.702 276.928 148.494 276.56C148.286 276.192 148.006 275.904 147.654 275.696C147.302 275.488 146.902 275.384 146.454 275.384C146.006 275.384 145.602 275.488 145.242 275.696C144.89 275.904 144.61 276.192 144.402 276.56C144.202 276.928 144.102 277.356 144.102 277.844C144.102 278.332 144.202 278.764 144.402 279.14C144.61 279.508 144.89 279.796 145.242 280.004C145.602 280.204 146.006 280.304 146.454 280.304ZM154.647 281.06C154.103 281.06 153.611 280.936 153.171 280.688C152.731 280.432 152.379 280.068 152.115 279.596C151.859 279.116 151.731 278.532 151.731 277.844C151.731 277.156 151.859 276.576 152.115 276.104C152.371 275.624 152.719 275.26 153.159 275.012C153.599 274.764 154.095 274.64 154.647 274.64C155.247 274.64 155.783 274.776 156.255 275.048C156.735 275.312 157.111 275.688 157.383 276.176C157.655 276.656 157.791 277.212 157.791 277.844C157.791 278.484 157.655 279.044 157.383 279.524C157.111 280.004 156.735 280.38 156.255 280.652C155.783 280.924 155.247 281.06 154.647 281.06ZM151.395 283.328V274.7H152.211V276.596L152.127 277.856L152.247 279.128V283.328H151.395ZM154.587 280.304C155.035 280.304 155.435 280.204 155.787 280.004C156.139 279.796 156.419 279.508 156.627 279.14C156.835 278.764 156.939 278.332 156.939 277.844C156.939 277.356 156.835 276.928 156.627 276.56C156.419 276.192 156.139 275.904 155.787 275.696C155.435 275.488 155.035 275.384 154.587 275.384C154.139 275.384 153.735 275.488 153.375 275.696C153.023 275.904 152.743 276.192 152.535 276.56C152.335 276.928 152.235 277.356 152.235 277.844C152.235 278.332 152.335 278.764 152.535 279.14C152.743 279.508 153.023 279.796 153.375 280.004C153.735 280.204 154.139 280.304 154.587 280.304ZM162.204 281.06C161.548 281.06 160.972 280.924 160.476 280.652C159.98 280.372 159.592 279.992 159.312 279.512C159.032 279.024 158.892 278.468 158.892 277.844C158.892 277.22 159.024 276.668 159.288 276.188C159.56 275.708 159.928 275.332 160.392 275.06C160.864 274.78 161.392 274.64 161.976 274.64C162.568 274.64 163.092 274.776 163.548 275.048C164.012 275.312 164.376 275.688 164.64 276.176C164.904 276.656 165.036 277.212 165.036 277.844C165.036 277.884 165.032 277.928 165.024 277.976C165.024 278.016 165.024 278.06 165.024 278.108H159.54V277.472H164.568L164.232 277.724C164.232 277.268 164.132 276.864 163.932 276.512C163.74 276.152 163.476 275.872 163.14 275.672C162.804 275.472 162.416 275.372 161.976 275.372C161.544 275.372 161.156 275.472 160.812 275.672C160.468 275.872 160.2 276.152 160.008 276.512C159.816 276.872 159.72 277.284 159.72 277.748V277.88C159.72 278.36 159.824 278.784 160.032 279.152C160.248 279.512 160.544 279.796 160.92 280.004C161.304 280.204 161.74 280.304 162.228 280.304C162.612 280.304 162.968 280.236 163.296 280.1C163.632 279.964 163.92 279.756 164.16 279.476L164.64 280.028C164.36 280.364 164.008 280.62 163.584 280.796C163.168 280.972 162.708 281.06 162.204 281.06ZM166.77 281V274.7H167.586V276.416L167.502 276.116C167.678 275.636 167.974 275.272 168.39 275.024C168.806 274.768 169.322 274.64 169.938 274.64V275.468C169.906 275.468 169.874 275.468 169.842 275.468C169.81 275.46 169.778 275.456 169.746 275.456C169.082 275.456 168.562 275.66 168.186 276.068C167.81 276.468 167.622 277.04 167.622 277.784V281H166.77ZM174.907 281V272.6H175.639L179.479 279.152H179.095L182.899 272.6H183.631V281H182.779V273.932H182.983L179.479 279.932H179.059L175.531 273.932H175.759V281H174.907ZM186.368 281V272.6H187.1L190.94 279.152H190.556L194.36 272.6H195.092V281H194.24V273.932H194.444L190.94 279.932H190.52L186.992 273.932H187.22V281H186.368ZM197.757 283.328H196.941C197.421 282.504 197.769 281.632 197.985 280.712C198.209 279.784 198.321 278.784 198.321 277.712C198.321 276.64 198.209 275.644 197.985 274.724C197.769 273.796 197.421 272.92 196.941 272.096H197.757C198.213 272.808 198.561 273.648 198.801 274.616C199.041 275.576 199.161 276.608 199.161 277.712C199.161 278.816 199.041 279.848 198.801 280.808C198.561 281.76 198.213 282.6 197.757 283.328Z" fill="black"/>
<path d="M256.752 281.072C255.68 281.072 254.836 280.764 254.22 280.148C253.604 279.532 253.296 278.62 253.296 277.412V272.6H254.184V277.376C254.184 278.368 254.408 279.1 254.856 279.572C255.304 280.044 255.936 280.28 256.752 280.28C257.576 280.28 258.212 280.044 258.66 279.572C259.108 279.1 259.332 278.368 259.332 277.376V272.6H260.196V277.412C260.196 278.62 259.888 279.532 259.272 280.148C258.664 280.764 257.824 281.072 256.752 281.072ZM265.188 281.072C264.564 281.072 263.964 280.972 263.388 280.772C262.82 280.564 262.38 280.3 262.068 279.98L262.416 279.296C262.712 279.584 263.108 279.828 263.604 280.028C264.108 280.22 264.636 280.316 265.188 280.316C265.716 280.316 266.144 280.252 266.472 280.124C266.808 279.988 267.052 279.808 267.204 279.584C267.364 279.36 267.444 279.112 267.444 278.84C267.444 278.512 267.348 278.248 267.156 278.048C266.972 277.848 266.728 277.692 266.424 277.58C266.12 277.46 265.784 277.356 265.416 277.268C265.048 277.18 264.68 277.088 264.312 276.992C263.944 276.888 263.604 276.752 263.292 276.584C262.988 276.416 262.74 276.196 262.548 275.924C262.364 275.644 262.272 275.28 262.272 274.832C262.272 274.416 262.38 274.036 262.596 273.692C262.82 273.34 263.16 273.06 263.616 272.852C264.072 272.636 264.656 272.528 265.368 272.528C265.84 272.528 266.308 272.596 266.772 272.732C267.236 272.86 267.636 273.04 267.972 273.272L267.672 273.98C267.312 273.74 266.928 273.564 266.52 273.452C266.12 273.34 265.732 273.284 265.356 273.284C264.852 273.284 264.436 273.352 264.108 273.488C263.78 273.624 263.536 273.808 263.376 274.04C263.224 274.264 263.148 274.52 263.148 274.808C263.148 275.136 263.24 275.4 263.424 275.6C263.616 275.8 263.864 275.956 264.168 276.068C264.48 276.18 264.82 276.28 265.188 276.368C265.556 276.456 265.92 276.552 266.28 276.656C266.648 276.76 266.984 276.896 267.288 277.064C267.6 277.224 267.848 277.44 268.032 277.712C268.224 277.984 268.32 278.34 268.32 278.78C268.32 279.188 268.208 279.568 267.984 279.92C267.76 280.264 267.416 280.544 266.952 280.76C266.496 280.968 265.908 281.072 265.188 281.072ZM273.395 281V272.6H274.283V280.232H278.987V281H273.395ZM282.864 281.06C282.208 281.06 281.632 280.924 281.136 280.652C280.64 280.372 280.252 279.992 279.972 279.512C279.692 279.024 279.552 278.468 279.552 277.844C279.552 277.22 279.684 276.668 279.948 276.188C280.22 275.708 280.588 275.332 281.052 275.06C281.524 274.78 282.052 274.64 282.636 274.64C283.228 274.64 283.752 274.776 284.208 275.048C284.672 275.312 285.036 275.688 285.3 276.176C285.564 276.656 285.696 277.212 285.696 277.844C285.696 277.884 285.692 277.928 285.684 277.976C285.684 278.016 285.684 278.06 285.684 278.108H280.2V277.472H285.228L284.892 277.724C284.892 277.268 284.792 276.864 284.592 276.512C284.4 276.152 284.136 275.872 283.8 275.672C283.464 275.472 283.076 275.372 282.636 275.372C282.204 275.372 281.816 275.472 281.472 275.672C281.128 275.872 280.86 276.152 280.668 276.512C280.476 276.872 280.38 277.284 280.38 277.748V277.88C280.38 278.36 280.484 278.784 280.692 279.152C280.908 279.512 281.204 279.796 281.58 280.004C281.964 280.204 282.4 280.304 282.888 280.304C283.272 280.304 283.628 280.236 283.956 280.1C284.292 279.964 284.58 279.756 284.82 279.476L285.3 280.028C285.02 280.364 284.668 280.62 284.244 280.796C283.828 280.972 283.368 281.06 282.864 281.06ZM288.933 281L286.137 274.7H287.025L289.593 280.544H289.173L291.777 274.7H292.617L289.809 281H288.933ZM296.317 281.06C295.661 281.06 295.085 280.924 294.589 280.652C294.093 280.372 293.705 279.992 293.425 279.512C293.145 279.024 293.005 278.468 293.005 277.844C293.005 277.22 293.137 276.668 293.401 276.188C293.673 275.708 294.041 275.332 294.505 275.06C294.977 274.78 295.505 274.64 296.089 274.64C296.681 274.64 297.205 274.776 297.661 275.048C298.125 275.312 298.489 275.688 298.753 276.176C299.017 276.656 299.149 277.212 299.149 277.844C299.149 277.884 299.145 277.928 299.137 277.976C299.137 278.016 299.137 278.06 299.137 278.108H293.653V277.472H298.681L298.345 277.724C298.345 277.268 298.245 276.864 298.045 276.512C297.853 276.152 297.589 275.872 297.253 275.672C296.917 275.472 296.529 275.372 296.089 275.372C295.657 275.372 295.269 275.472 294.925 275.672C294.581 275.872 294.313 276.152 294.121 276.512C293.929 276.872 293.833 277.284 293.833 277.748V277.88C293.833 278.36 293.937 278.784 294.145 279.152C294.361 279.512 294.657 279.796 295.033 280.004C295.417 280.204 295.853 280.304 296.341 280.304C296.725 280.304 297.081 280.236 297.409 280.1C297.745 279.964 298.033 279.756 298.273 279.476L298.753 280.028C298.473 280.364 298.121 280.62 297.697 280.796C297.281 280.972 296.821 281.06 296.317 281.06ZM300.883 281V274.7H301.699V276.416L301.615 276.116C301.791 275.636 302.087 275.272 302.503 275.024C302.919 274.768 303.435 274.64 304.051 274.64V275.468C304.019 275.468 303.987 275.468 303.955 275.468C303.923 275.46 303.891 275.456 303.859 275.456C303.195 275.456 302.675 275.66 302.299 276.068C301.923 276.468 301.735 277.04 301.735 277.784V281H300.883ZM309.085 281V279.608L309.049 279.38V277.052C309.049 276.516 308.897 276.104 308.593 275.816C308.297 275.528 307.853 275.384 307.261 275.384C306.853 275.384 306.465 275.452 306.097 275.588C305.729 275.724 305.417 275.904 305.161 276.128L304.777 275.492C305.097 275.22 305.481 275.012 305.929 274.868C306.377 274.716 306.849 274.64 307.345 274.64C308.161 274.64 308.789 274.844 309.229 275.252C309.677 275.652 309.901 276.264 309.901 277.088V281H309.085ZM306.913 281.06C306.441 281.06 306.029 280.984 305.677 280.832C305.333 280.672 305.069 280.456 304.885 280.184C304.701 279.904 304.609 279.584 304.609 279.224C304.609 278.896 304.685 278.6 304.837 278.336C304.997 278.064 305.253 277.848 305.605 277.688C305.965 277.52 306.445 277.436 307.045 277.436H309.217V278.072H307.069C306.461 278.072 306.037 278.18 305.797 278.396C305.565 278.612 305.449 278.88 305.449 279.2C305.449 279.56 305.589 279.848 305.869 280.064C306.149 280.28 306.541 280.388 307.045 280.388C307.525 280.388 307.937 280.28 308.281 280.064C308.633 279.84 308.889 279.52 309.049 279.104L309.241 279.692C309.081 280.108 308.801 280.44 308.401 280.688C308.009 280.936 307.513 281.06 306.913 281.06ZM314.903 283.388C314.327 283.388 313.775 283.304 313.247 283.136C312.719 282.968 312.291 282.728 311.963 282.416L312.395 281.768C312.691 282.032 313.055 282.24 313.487 282.392C313.927 282.552 314.391 282.632 314.879 282.632C315.679 282.632 316.267 282.444 316.643 282.068C317.019 281.7 317.207 281.124 317.207 280.34V278.768L317.327 277.688L317.243 276.608V274.7H318.059V280.232C318.059 281.32 317.791 282.116 317.255 282.62C316.727 283.132 315.943 283.388 314.903 283.388ZM314.747 280.76C314.147 280.76 313.607 280.632 313.127 280.376C312.647 280.112 312.267 279.748 311.987 279.284C311.715 278.82 311.579 278.288 311.579 277.688C311.579 277.088 311.715 276.56 311.987 276.104C312.267 275.64 312.647 275.28 313.127 275.024C313.607 274.768 314.147 274.64 314.747 274.64C315.307 274.64 315.811 274.756 316.259 274.988C316.707 275.22 317.063 275.564 317.327 276.02C317.591 276.476 317.723 277.032 317.723 277.688C317.723 278.344 317.591 278.9 317.327 279.356C317.063 279.812 316.707 280.16 316.259 280.4C315.811 280.64 315.307 280.76 314.747 280.76ZM314.831 280.004C315.295 280.004 315.707 279.908 316.067 279.716C316.427 279.516 316.711 279.244 316.919 278.9C317.127 278.548 317.231 278.144 317.231 277.688C317.231 277.232 317.127 276.832 316.919 276.488C316.711 276.144 316.427 275.876 316.067 275.684C315.707 275.484 315.295 275.384 314.831 275.384C314.375 275.384 313.963 275.484 313.595 275.684C313.235 275.876 312.951 276.144 312.743 276.488C312.543 276.832 312.443 277.232 312.443 277.688C312.443 278.144 312.543 278.548 312.743 278.9C312.951 279.244 313.235 279.516 313.595 279.716C313.963 279.908 314.375 280.004 314.831 280.004ZM323.106 281.06C322.45 281.06 321.874 280.924 321.378 280.652C320.882 280.372 320.494 279.992 320.214 279.512C319.934 279.024 319.794 278.468 319.794 277.844C319.794 277.22 319.926 276.668 320.19 276.188C320.462 275.708 320.83 275.332 321.294 275.06C321.766 274.78 322.294 274.64 322.878 274.64C323.47 274.64 323.994 274.776 324.45 275.048C324.914 275.312 325.278 275.688 325.542 276.176C325.806 276.656 325.938 277.212 325.938 277.844C325.938 277.884 325.934 277.928 325.926 277.976C325.926 278.016 325.926 278.06 325.926 278.108H320.442V277.472H325.47L325.134 277.724C325.134 277.268 325.034 276.864 324.834 276.512C324.642 276.152 324.378 275.872 324.042 275.672C323.706 275.472 323.318 275.372 322.878 275.372C322.446 275.372 322.058 275.472 321.714 275.672C321.37 275.872 321.102 276.152 320.91 276.512C320.718 276.872 320.622 277.284 320.622 277.748V277.88C320.622 278.36 320.726 278.784 320.934 279.152C321.15 279.512 321.446 279.796 321.822 280.004C322.206 280.204 322.642 280.304 323.13 280.304C323.514 280.304 323.87 280.236 324.198 280.1C324.534 279.964 324.822 279.756 325.062 279.476L325.542 280.028C325.262 280.364 324.91 280.62 324.486 280.796C324.07 280.972 323.61 281.06 323.106 281.06ZM330.18 281.06C329.58 281.06 329.04 280.924 328.56 280.652C328.088 280.38 327.716 280.004 327.444 279.524C327.172 279.036 327.036 278.476 327.036 277.844C327.036 277.204 327.172 276.644 327.444 276.164C327.716 275.684 328.088 275.312 328.56 275.048C329.04 274.776 329.58 274.64 330.18 274.64C330.732 274.64 331.224 274.764 331.656 275.012C332.096 275.26 332.444 275.624 332.7 276.104C332.964 276.576 333.096 277.156 333.096 277.844C333.096 278.524 332.968 279.104 332.712 279.584C332.456 280.064 332.108 280.432 331.668 280.688C331.236 280.936 330.74 281.06 330.18 281.06ZM330.24 280.304C330.688 280.304 331.088 280.204 331.44 280.004C331.8 279.796 332.08 279.508 332.28 279.14C332.488 278.764 332.592 278.332 332.592 277.844C332.592 277.348 332.488 276.916 332.28 276.548C332.08 276.18 331.8 275.896 331.44 275.696C331.088 275.488 330.688 275.384 330.24 275.384C329.8 275.384 329.404 275.488 329.052 275.696C328.7 275.896 328.42 276.18 328.212 276.548C328.004 276.916 327.9 277.348 327.9 277.844C327.9 278.332 328.004 278.764 328.212 279.14C328.42 279.508 328.7 279.796 329.052 280.004C329.404 280.204 329.8 280.304 330.24 280.304ZM332.616 281V279.104L332.7 277.832L332.58 276.56V272.096H333.432V281H332.616ZM339.126 281V272.6H340.014V280.232H344.718V281H339.126ZM348.486 281.06C347.878 281.06 347.33 280.924 346.842 280.652C346.362 280.372 345.982 279.992 345.702 279.512C345.422 279.024 345.282 278.468 345.282 277.844C345.282 277.212 345.422 276.656 345.702 276.176C345.982 275.696 346.362 275.32 346.842 275.048C347.322 274.776 347.87 274.64 348.486 274.64C349.11 274.64 349.662 274.776 350.142 275.048C350.63 275.32 351.01 275.696 351.282 276.176C351.562 276.656 351.702 277.212 351.702 277.844C351.702 278.468 351.562 279.024 351.282 279.512C351.01 279.992 350.63 280.372 350.142 280.652C349.654 280.924 349.102 281.06 348.486 281.06ZM348.486 280.304C348.942 280.304 349.346 280.204 349.698 280.004C350.05 279.796 350.326 279.508 350.526 279.14C350.734 278.764 350.838 278.332 350.838 277.844C350.838 277.348 350.734 276.916 350.526 276.548C350.326 276.18 350.05 275.896 349.698 275.696C349.346 275.488 348.946 275.384 348.498 275.384C348.05 275.384 347.65 275.488 347.298 275.696C346.946 275.896 346.666 276.18 346.458 276.548C346.25 276.916 346.146 277.348 346.146 277.844C346.146 278.332 346.25 278.764 346.458 279.14C346.666 279.508 346.946 279.796 347.298 280.004C347.65 280.204 348.046 280.304 348.486 280.304ZM357.355 281V279.608L357.319 279.38V277.052C357.319 276.516 357.167 276.104 356.863 275.816C356.567 275.528 356.123 275.384 355.531 275.384C355.123 275.384 354.735 275.452 354.367 275.588C353.999 275.724 353.687 275.904 353.431 276.128L353.047 275.492C353.367 275.22 353.751 275.012 354.199 274.868C354.647 274.716 355.119 274.64 355.615 274.64C356.431 274.64 357.059 274.844 357.499 275.252C357.947 275.652 358.171 276.264 358.171 277.088V281H357.355ZM355.183 281.06C354.711 281.06 354.299 280.984 353.947 280.832C353.603 280.672 353.339 280.456 353.155 280.184C352.971 279.904 352.879 279.584 352.879 279.224C352.879 278.896 352.955 278.6 353.107 278.336C353.267 278.064 353.523 277.848 353.875 277.688C354.235 277.52 354.715 277.436 355.315 277.436H357.487V278.072H355.339C354.731 278.072 354.307 278.18 354.067 278.396C353.835 278.612 353.719 278.88 353.719 279.2C353.719 279.56 353.859 279.848 354.139 280.064C354.419 280.28 354.811 280.388 355.315 280.388C355.795 280.388 356.207 280.28 356.551 280.064C356.903 279.84 357.159 279.52 357.319 279.104L357.511 279.692C357.351 280.108 357.071 280.44 356.671 280.688C356.279 280.936 355.783 281.06 355.183 281.06ZM362.993 281.06C362.393 281.06 361.853 280.924 361.373 280.652C360.901 280.38 360.529 280.004 360.257 279.524C359.985 279.036 359.849 278.476 359.849 277.844C359.849 277.204 359.985 276.644 360.257 276.164C360.529 275.684 360.901 275.312 361.373 275.048C361.853 274.776 362.393 274.64 362.993 274.64C363.545 274.64 364.037 274.764 364.469 275.012C364.909 275.26 365.257 275.624 365.513 276.104C365.777 276.576 365.909 277.156 365.909 277.844C365.909 278.524 365.781 279.104 365.525 279.584C365.269 280.064 364.921 280.432 364.481 280.688C364.049 280.936 363.553 281.06 362.993 281.06ZM363.053 280.304C363.501 280.304 363.901 280.204 364.253 280.004C364.613 279.796 364.893 279.508 365.093 279.14C365.301 278.764 365.405 278.332 365.405 277.844C365.405 277.348 365.301 276.916 365.093 276.548C364.893 276.18 364.613 275.896 364.253 275.696C363.901 275.488 363.501 275.384 363.053 275.384C362.613 275.384 362.217 275.488 361.865 275.696C361.513 275.896 361.233 276.18 361.025 276.548C360.817 276.916 360.713 277.348 360.713 277.844C360.713 278.332 360.817 278.764 361.025 279.14C361.233 279.508 361.513 279.796 361.865 280.004C362.217 280.204 362.613 280.304 363.053 280.304ZM365.429 281V279.104L365.513 277.832L365.393 276.56V272.096H366.245V281H365.429Z" fill="black"/>
<path d="M423.752 281.072C422.68 281.072 421.836 280.764 421.22 280.148C420.604 279.532 420.296 278.62 420.296 277.412V272.6H421.184V277.376C421.184 278.368 421.408 279.1 421.856 279.572C422.304 280.044 422.936 280.28 423.752 280.28C424.576 280.28 425.212 280.044 425.66 279.572C426.108 279.1 426.332 278.368 426.332 277.376V272.6H427.196V277.412C427.196 278.62 426.888 279.532 426.272 280.148C425.664 280.764 424.824 281.072 423.752 281.072ZM432.188 281.072C431.564 281.072 430.964 280.972 430.388 280.772C429.82 280.564 429.38 280.3 429.068 279.98L429.416 279.296C429.712 279.584 430.108 279.828 430.604 280.028C431.108 280.22 431.636 280.316 432.188 280.316C432.716 280.316 433.144 280.252 433.472 280.124C433.808 279.988 434.052 279.808 434.204 279.584C434.364 279.36 434.444 279.112 434.444 278.84C434.444 278.512 434.348 278.248 434.156 278.048C433.972 277.848 433.728 277.692 433.424 277.58C433.12 277.46 432.784 277.356 432.416 277.268C432.048 277.18 431.68 277.088 431.312 276.992C430.944 276.888 430.604 276.752 430.292 276.584C429.988 276.416 429.74 276.196 429.548 275.924C429.364 275.644 429.272 275.28 429.272 274.832C429.272 274.416 429.38 274.036 429.596 273.692C429.82 273.34 430.16 273.06 430.616 272.852C431.072 272.636 431.656 272.528 432.368 272.528C432.84 272.528 433.308 272.596 433.772 272.732C434.236 272.86 434.636 273.04 434.972 273.272L434.672 273.98C434.312 273.74 433.928 273.564 433.52 273.452C433.12 273.34 432.732 273.284 432.356 273.284C431.852 273.284 431.436 273.352 431.108 273.488C430.78 273.624 430.536 273.808 430.376 274.04C430.224 274.264 430.148 274.52 430.148 274.808C430.148 275.136 430.24 275.4 430.424 275.6C430.616 275.8 430.864 275.956 431.168 276.068C431.48 276.18 431.82 276.28 432.188 276.368C432.556 276.456 432.92 276.552 433.28 276.656C433.648 276.76 433.984 276.896 434.288 277.064C434.6 277.224 434.848 277.44 435.032 277.712C435.224 277.984 435.32 278.34 435.32 278.78C435.32 279.188 435.208 279.568 434.984 279.92C434.76 280.264 434.416 280.544 433.952 280.76C433.496 280.968 432.908 281.072 432.188 281.072ZM446.539 272.6H447.415V281H446.539V272.6ZM441.283 281H440.395V272.6H441.283V281ZM446.623 277.124H441.187V276.344H446.623V277.124ZM449.977 281V274.7H450.829V281H449.977ZM450.409 273.308C450.233 273.308 450.085 273.248 449.965 273.128C449.845 273.008 449.785 272.864 449.785 272.696C449.785 272.528 449.845 272.388 449.965 272.276C450.085 272.156 450.233 272.096 450.409 272.096C450.585 272.096 450.733 272.152 450.853 272.264C450.973 272.376 451.033 272.516 451.033 272.684C451.033 272.86 450.973 273.008 450.853 273.128C450.741 273.248 450.593 273.308 450.409 273.308ZM455.888 283.388C455.312 283.388 454.76 283.304 454.232 283.136C453.704 282.968 453.276 282.728 452.948 282.416L453.38 281.768C453.676 282.032 454.04 282.24 454.472 282.392C454.912 282.552 455.376 282.632 455.864 282.632C456.664 282.632 457.252 282.444 457.628 282.068C458.004 281.7 458.192 281.124 458.192 280.34V278.768L458.312 277.688L458.228 276.608V274.7H459.044V280.232C459.044 281.32 458.776 282.116 458.24 282.62C457.712 283.132 456.928 283.388 455.888 283.388ZM455.732 280.76C455.132 280.76 454.592 280.632 454.112 280.376C453.632 280.112 453.252 279.748 452.972 279.284C452.7 278.82 452.564 278.288 452.564 277.688C452.564 277.088 452.7 276.56 452.972 276.104C453.252 275.64 453.632 275.28 454.112 275.024C454.592 274.768 455.132 274.64 455.732 274.64C456.292 274.64 456.796 274.756 457.244 274.988C457.692 275.22 458.048 275.564 458.312 276.02C458.576 276.476 458.708 277.032 458.708 277.688C458.708 278.344 458.576 278.9 458.312 279.356C458.048 279.812 457.692 280.16 457.244 280.4C456.796 280.64 456.292 280.76 455.732 280.76ZM455.816 280.004C456.28 280.004 456.692 279.908 457.052 279.716C457.412 279.516 457.696 279.244 457.904 278.9C458.112 278.548 458.216 278.144 458.216 277.688C458.216 277.232 458.112 276.832 457.904 276.488C457.696 276.144 457.412 275.876 457.052 275.684C456.692 275.484 456.28 275.384 455.816 275.384C455.36 275.384 454.948 275.484 454.58 275.684C454.22 275.876 453.936 276.144 453.728 276.488C453.528 276.832 453.428 277.232 453.428 277.688C453.428 278.144 453.528 278.548 453.728 278.9C453.936 279.244 454.22 279.516 454.58 279.716C454.948 279.908 455.36 280.004 455.816 280.004ZM464.631 274.64C465.143 274.64 465.591 274.74 465.975 274.94C466.367 275.132 466.671 275.428 466.887 275.828C467.111 276.228 467.223 276.732 467.223 277.34V281H466.371V277.424C466.371 276.76 466.203 276.26 465.867 275.924C465.539 275.58 465.075 275.408 464.475 275.408C464.027 275.408 463.635 275.5 463.299 275.684C462.971 275.86 462.715 276.12 462.531 276.464C462.355 276.8 462.267 277.208 462.267 277.688V281H461.415V272.096H462.267V276.428L462.099 276.104C462.299 275.648 462.619 275.292 463.059 275.036C463.499 274.772 464.023 274.64 464.631 274.64ZM474.849 281V277.88L475.053 278.432L471.489 272.6H472.437L475.569 277.724H475.065L478.197 272.6H479.085L475.521 278.432L475.725 277.88V281H474.849ZM480.141 281V274.7H480.993V281H480.141ZM480.573 273.308C480.397 273.308 480.249 273.248 480.129 273.128C480.009 273.008 479.949 272.864 479.949 272.696C479.949 272.528 480.009 272.388 480.129 272.276C480.249 272.156 480.397 272.096 480.573 272.096C480.749 272.096 480.897 272.152 481.017 272.264C481.137 272.376 481.197 272.516 481.197 272.684C481.197 272.86 481.137 273.008 481.017 273.128C480.905 273.248 480.757 273.308 480.573 273.308ZM486.04 281.06C485.384 281.06 484.808 280.924 484.312 280.652C483.816 280.372 483.428 279.992 483.148 279.512C482.868 279.024 482.728 278.468 482.728 277.844C482.728 277.22 482.86 276.668 483.124 276.188C483.396 275.708 483.764 275.332 484.228 275.06C484.7 274.78 485.228 274.64 485.812 274.64C486.404 274.64 486.928 274.776 487.384 275.048C487.848 275.312 488.212 275.688 488.476 276.176C488.74 276.656 488.872 277.212 488.872 277.844C488.872 277.884 488.868 277.928 488.86 277.976C488.86 278.016 488.86 278.06 488.86 278.108H483.376V277.472H488.404L488.068 277.724C488.068 277.268 487.968 276.864 487.768 276.512C487.576 276.152 487.312 275.872 486.976 275.672C486.64 275.472 486.252 275.372 485.812 275.372C485.38 275.372 484.992 275.472 484.648 275.672C484.304 275.872 484.036 276.152 483.844 276.512C483.652 276.872 483.556 277.284 483.556 277.748V277.88C483.556 278.36 483.66 278.784 483.868 279.152C484.084 279.512 484.38 279.796 484.756 280.004C485.14 280.204 485.576 280.304 486.064 280.304C486.448 280.304 486.804 280.236 487.132 280.1C487.468 279.964 487.756 279.756 487.996 279.476L488.476 280.028C488.196 280.364 487.844 280.62 487.42 280.796C487.004 280.972 486.544 281.06 486.04 281.06ZM490.606 281V272.096H491.458V281H490.606ZM496.337 281.06C495.737 281.06 495.197 280.924 494.717 280.652C494.245 280.38 493.873 280.004 493.601 279.524C493.329 279.036 493.193 278.476 493.193 277.844C493.193 277.204 493.329 276.644 493.601 276.164C493.873 275.684 494.245 275.312 494.717 275.048C495.197 274.776 495.737 274.64 496.337 274.64C496.889 274.64 497.381 274.764 497.813 275.012C498.253 275.26 498.601 275.624 498.857 276.104C499.121 276.576 499.253 277.156 499.253 277.844C499.253 278.524 499.125 279.104 498.869 279.584C498.613 280.064 498.265 280.432 497.825 280.688C497.393 280.936 496.897 281.06 496.337 281.06ZM496.397 280.304C496.845 280.304 497.245 280.204 497.597 280.004C497.957 279.796 498.237 279.508 498.437 279.14C498.645 278.764 498.749 278.332 498.749 277.844C498.749 277.348 498.645 276.916 498.437 276.548C498.237 276.18 497.957 275.896 497.597 275.696C497.245 275.488 496.845 275.384 496.397 275.384C495.957 275.384 495.561 275.488 495.209 275.696C494.857 275.896 494.577 276.18 494.369 276.548C494.161 276.916 494.057 277.348 494.057 277.844C494.057 278.332 494.161 278.764 494.369 279.14C494.577 279.508 494.857 279.796 495.209 280.004C495.561 280.204 495.957 280.304 496.397 280.304ZM498.773 281V279.104L498.857 277.832L498.737 276.56V272.096H499.589V281H498.773ZM505.282 281V272.6H508.906C509.842 272.6 510.566 272.788 511.078 273.164C511.598 273.54 511.858 274.072 511.858 274.76C511.858 275.216 511.75 275.6 511.534 275.912C511.326 276.224 511.038 276.46 510.67 276.62C510.31 276.78 509.914 276.86 509.482 276.86L509.686 276.572C510.222 276.572 510.682 276.656 511.066 276.824C511.458 276.984 511.762 277.228 511.978 277.556C512.194 277.876 512.302 278.276 512.302 278.756C512.302 279.468 512.038 280.02 511.51 280.412C510.99 280.804 510.202 281 509.146 281H505.282ZM506.17 280.268H509.134C509.87 280.268 510.434 280.144 510.826 279.896C511.218 279.64 511.414 279.236 511.414 278.684C511.414 278.14 511.218 277.744 510.826 277.496C510.434 277.24 509.87 277.112 509.134 277.112H506.074V276.38H508.846C509.518 276.38 510.038 276.252 510.406 275.996C510.782 275.74 510.97 275.36 510.97 274.856C510.97 274.344 510.782 273.964 510.406 273.716C510.038 273.46 509.518 273.332 508.846 273.332H506.17V280.268ZM516.717 281.06C516.109 281.06 515.561 280.924 515.073 280.652C514.593 280.372 514.213 279.992 513.933 279.512C513.653 279.024 513.513 278.468 513.513 277.844C513.513 277.212 513.653 276.656 513.933 276.176C514.213 275.696 514.593 275.32 515.073 275.048C515.553 274.776 516.101 274.64 516.717 274.64C517.341 274.64 517.893 274.776 518.373 275.048C518.861 275.32 519.241 275.696 519.513 276.176C519.793 276.656 519.933 277.212 519.933 277.844C519.933 278.468 519.793 279.024 519.513 279.512C519.241 279.992 518.861 280.372 518.373 280.652C517.885 280.924 517.333 281.06 516.717 281.06ZM516.717 280.304C517.173 280.304 517.577 280.204 517.929 280.004C518.281 279.796 518.557 279.508 518.757 279.14C518.965 278.764 519.069 278.332 519.069 277.844C519.069 277.348 518.965 276.916 518.757 276.548C518.557 276.18 518.281 275.896 517.929 275.696C517.577 275.488 517.177 275.384 516.729 275.384C516.281 275.384 515.881 275.488 515.529 275.696C515.177 275.896 514.897 276.18 514.689 276.548C514.481 276.916 514.377 277.348 514.377 277.844C514.377 278.332 514.481 278.764 514.689 279.14C514.897 279.508 515.177 279.796 515.529 280.004C515.881 280.204 516.277 280.304 516.717 280.304ZM524.888 274.64C525.4 274.64 525.848 274.74 526.232 274.94C526.624 275.132 526.928 275.428 527.144 275.828C527.368 276.228 527.48 276.732 527.48 277.34V281H526.628V277.424C526.628 276.76 526.46 276.26 526.124 275.924C525.796 275.58 525.332 275.408 524.732 275.408C524.284 275.408 523.892 275.5 523.556 275.684C523.228 275.86 522.972 276.12 522.788 276.464C522.612 276.8 522.524 277.208 522.524 277.688V281H521.672V274.7H522.488V276.428L522.356 276.104C522.556 275.648 522.876 275.292 523.316 275.036C523.756 274.772 524.28 274.64 524.888 274.64ZM532.29 281.06C531.69 281.06 531.15 280.924 530.67 280.652C530.198 280.38 529.826 280.004 529.554 279.524C529.282 279.036 529.146 278.476 529.146 277.844C529.146 277.204 529.282 276.644 529.554 276.164C529.826 275.684 530.198 275.312 530.67 275.048C531.15 274.776 531.69 274.64 532.29 274.64C532.842 274.64 533.334 274.764 533.766 275.012C534.206 275.26 534.554 275.624 534.81 276.104C535.074 276.576 535.206 277.156 535.206 277.844C535.206 278.524 535.078 279.104 534.822 279.584C534.566 280.064 534.218 280.432 533.778 280.688C533.346 280.936 532.85 281.06 532.29 281.06ZM532.35 280.304C532.798 280.304 533.198 280.204 533.55 280.004C533.91 279.796 534.19 279.508 534.39 279.14C534.598 278.764 534.702 278.332 534.702 277.844C534.702 277.348 534.598 276.916 534.39 276.548C534.19 276.18 533.91 275.896 533.55 275.696C533.198 275.488 532.798 275.384 532.35 275.384C531.91 275.384 531.514 275.488 531.162 275.696C530.81 275.896 530.53 276.18 530.322 276.548C530.114 276.916 530.01 277.348 530.01 277.844C530.01 278.332 530.114 278.764 530.322 279.14C530.53 279.508 530.81 279.796 531.162 280.004C531.514 280.204 531.91 280.304 532.35 280.304ZM534.726 281V279.104L534.81 277.832L534.69 276.56V272.096H535.542V281H534.726ZM539.607 281.06C539.087 281.06 538.595 280.988 538.131 280.844C537.667 280.692 537.303 280.504 537.039 280.28L537.423 279.608C537.679 279.8 538.007 279.968 538.407 280.112C538.807 280.248 539.227 280.316 539.667 280.316C540.267 280.316 540.699 280.224 540.963 280.04C541.227 279.848 541.359 279.596 541.359 279.284C541.359 279.052 541.283 278.872 541.131 278.744C540.987 278.608 540.795 278.508 540.555 278.444C540.315 278.372 540.047 278.312 539.751 278.264C539.455 278.216 539.159 278.16 538.863 278.096C538.575 278.032 538.311 277.94 538.071 277.82C537.831 277.692 537.635 277.52 537.483 277.304C537.339 277.088 537.267 276.8 537.267 276.44C537.267 276.096 537.363 275.788 537.555 275.516C537.747 275.244 538.027 275.032 538.395 274.88C538.771 274.72 539.227 274.64 539.763 274.64C540.171 274.64 540.579 274.696 540.987 274.808C541.395 274.912 541.731 275.052 541.995 275.228L541.623 275.912C541.343 275.72 541.043 275.584 540.723 275.504C540.403 275.416 540.083 275.372 539.763 275.372C539.195 275.372 538.775 275.472 538.503 275.672C538.239 275.864 538.107 276.112 538.107 276.416C538.107 276.656 538.179 276.844 538.323 276.98C538.475 277.116 538.671 277.224 538.911 277.304C539.159 277.376 539.427 277.436 539.715 277.484C540.011 277.532 540.303 277.592 540.591 277.664C540.887 277.728 541.155 277.82 541.395 277.94C541.643 278.052 541.839 278.216 541.983 278.432C542.135 278.64 542.211 278.916 542.211 279.26C542.211 279.628 542.107 279.948 541.899 280.22C541.699 280.484 541.403 280.692 541.011 280.844C540.627 280.988 540.159 281.06 539.607 281.06Z" fill="black"/>
<path d="M106.505 35V25.76L107.107 26.418H104.293V25.2H107.891V35H106.505ZM114.038 35.112C113.273 35.112 112.587 34.916 111.98 34.524C111.383 34.132 110.907 33.5627 110.552 32.816C110.207 32.0693 110.034 31.164 110.034 30.1C110.034 29.036 110.207 28.1307 110.552 27.384C110.907 26.6373 111.383 26.068 111.98 25.676C112.587 25.284 113.273 25.088 114.038 25.088C114.794 25.088 115.476 25.284 116.082 25.676C116.689 26.068 117.165 26.6373 117.51 27.384C117.856 28.1307 118.028 29.036 118.028 30.1C118.028 31.164 117.856 32.0693 117.51 32.816C117.165 33.5627 116.689 34.132 116.082 34.524C115.476 34.916 114.794 35.112 114.038 35.112ZM114.038 33.866C114.552 33.866 115 33.726 115.382 33.446C115.774 33.166 116.078 32.746 116.292 32.186C116.516 31.626 116.628 30.9307 116.628 30.1C116.628 29.2693 116.516 28.574 116.292 28.014C116.078 27.454 115.774 27.034 115.382 26.754C115 26.474 114.552 26.334 114.038 26.334C113.525 26.334 113.072 26.474 112.68 26.754C112.288 27.034 111.98 27.454 111.756 28.014C111.542 28.574 111.434 29.2693 111.434 30.1C111.434 30.9307 111.542 31.626 111.756 32.186C111.98 32.746 112.288 33.166 112.68 33.446C113.072 33.726 113.525 33.866 114.038 33.866ZM120.132 35.084C119.871 35.084 119.647 34.9953 119.46 34.818C119.273 34.6313 119.18 34.398 119.18 34.118C119.18 33.838 119.273 33.6093 119.46 33.432C119.647 33.2547 119.871 33.166 120.132 33.166C120.384 33.166 120.599 33.2547 120.776 33.432C120.963 33.6093 121.056 33.838 121.056 34.118C121.056 34.398 120.963 34.6313 120.776 34.818C120.599 34.9953 120.384 35.084 120.132 35.084ZM122.363 35V34.048L126.353 30.198C126.707 29.862 126.969 29.568 127.137 29.316C127.314 29.0547 127.431 28.8167 127.487 28.602C127.552 28.378 127.585 28.1633 127.585 27.958C127.585 27.454 127.407 27.0573 127.053 26.768C126.698 26.4787 126.18 26.334 125.499 26.334C124.976 26.334 124.505 26.4227 124.085 26.6C123.665 26.768 123.301 27.034 122.993 27.398L122.041 26.572C122.414 26.096 122.913 25.732 123.539 25.48C124.173 25.2187 124.869 25.088 125.625 25.088C126.306 25.088 126.899 25.2 127.403 25.424C127.907 25.6387 128.294 25.9513 128.565 26.362C128.845 26.7727 128.985 27.258 128.985 27.818C128.985 28.1353 128.943 28.448 128.859 28.756C128.775 29.064 128.616 29.3907 128.383 29.736C128.149 30.0813 127.813 30.4687 127.375 30.898L123.819 34.328L123.483 33.782H129.405V35H122.363ZM132.037 35L138.729 25.2H139.807L133.115 35H132.037ZM132.821 30.464C132.373 30.464 131.976 30.352 131.631 30.128C131.285 29.904 131.015 29.5913 130.819 29.19C130.632 28.7887 130.539 28.322 130.539 27.79C130.539 27.258 130.632 26.7913 130.819 26.39C131.015 25.9887 131.285 25.676 131.631 25.452C131.976 25.228 132.373 25.116 132.821 25.116C133.278 25.116 133.675 25.228 134.011 25.452C134.356 25.676 134.622 25.9887 134.809 26.39C134.995 26.7913 135.089 27.258 135.089 27.79C135.089 28.322 134.995 28.7887 134.809 29.19C134.622 29.5913 134.356 29.904 134.011 30.128C133.675 30.352 133.278 30.464 132.821 30.464ZM132.821 29.666C133.25 29.666 133.586 29.5027 133.829 29.176C134.071 28.84 134.193 28.378 134.193 27.79C134.193 27.202 134.071 26.7447 133.829 26.418C133.586 26.082 133.25 25.914 132.821 25.914C132.401 25.914 132.065 26.082 131.813 26.418C131.57 26.7447 131.449 27.202 131.449 27.79C131.449 28.3687 131.57 28.826 131.813 29.162C132.065 29.498 132.401 29.666 132.821 29.666ZM139.023 35.084C138.575 35.084 138.178 34.972 137.833 34.748C137.487 34.524 137.221 34.2113 137.035 33.81C136.848 33.4087 136.755 32.942 136.755 32.41C136.755 31.878 136.848 31.4113 137.035 31.01C137.221 30.6087 137.487 30.296 137.833 30.072C138.178 29.848 138.575 29.736 139.023 29.736C139.48 29.736 139.877 29.848 140.213 30.072C140.558 30.296 140.824 30.6087 141.011 31.01C141.207 31.4113 141.305 31.878 141.305 32.41C141.305 32.942 141.207 33.4087 141.011 33.81C140.824 34.2113 140.558 34.524 140.213 34.748C139.877 34.972 139.48 35.084 139.023 35.084ZM139.023 34.286C139.443 34.286 139.774 34.1227 140.017 33.796C140.269 33.46 140.395 32.998 140.395 32.41C140.395 31.8313 140.269 31.374 140.017 31.038C139.774 30.702 139.443 30.534 139.023 30.534C138.603 30.534 138.267 30.702 138.015 31.038C137.772 31.3647 137.651 31.822 137.651 32.41C137.651 32.998 137.772 33.46 138.015 33.796C138.267 34.1227 138.603 34.286 139.023 34.286Z" fill="black"/>
<rect x="93" y="46" width="60" height="215" fill="#86EB20" fill-opacity="0.4"/>
<path d="M289.717 45.088C290.604 45.088 291.351 45.2793 291.957 45.662C292.573 46.0447 293.04 46.6 293.357 47.328C293.675 48.0467 293.833 48.9287 293.833 49.974C293.833 51.0847 293.637 52.0227 293.245 52.788C292.853 53.5533 292.312 54.132 291.621 54.524C290.931 54.916 290.123 55.112 289.199 55.112C288.742 55.112 288.299 55.0653 287.869 54.972C287.449 54.8787 287.081 54.734 286.763 54.538L287.295 53.446C287.557 53.614 287.846 53.7353 288.163 53.81C288.49 53.8753 288.831 53.908 289.185 53.908C290.175 53.908 290.963 53.6 291.551 52.984C292.139 52.3587 292.433 51.4347 292.433 50.212C292.433 50.016 292.424 49.7827 292.405 49.512C292.387 49.2413 292.345 48.9753 292.279 48.714L292.741 49.19C292.611 49.6193 292.391 49.9833 292.083 50.282C291.785 50.5713 291.421 50.7907 290.991 50.94C290.571 51.08 290.109 51.15 289.605 51.15C288.961 51.15 288.387 51.0287 287.883 50.786C287.379 50.5433 286.983 50.2027 286.693 49.764C286.404 49.316 286.259 48.7887 286.259 48.182C286.259 47.5473 286.409 47.0013 286.707 46.544C287.015 46.0773 287.431 45.718 287.953 45.466C288.485 45.214 289.073 45.088 289.717 45.088ZM289.773 46.222C289.353 46.222 288.98 46.3013 288.653 46.46C288.327 46.6187 288.07 46.838 287.883 47.118C287.706 47.398 287.617 47.734 287.617 48.126C287.617 48.7047 287.818 49.1667 288.219 49.512C288.621 49.848 289.162 50.016 289.843 50.016C290.291 50.016 290.683 49.932 291.019 49.764C291.365 49.596 291.631 49.3673 291.817 49.078C292.013 48.7887 292.111 48.4667 292.111 48.112C292.111 47.7667 292.023 47.454 291.845 47.174C291.668 46.894 291.407 46.6653 291.061 46.488C290.716 46.3107 290.287 46.222 289.773 46.222ZM295.94 55.084C295.678 55.084 295.454 54.9953 295.268 54.818C295.081 54.6313 294.988 54.398 294.988 54.118C294.988 53.838 295.081 53.6093 295.268 53.432C295.454 53.2547 295.678 53.166 295.94 53.166C296.192 53.166 296.406 53.2547 296.584 53.432C296.77 53.6093 296.864 53.838 296.864 54.118C296.864 54.398 296.77 54.6313 296.584 54.818C296.406 54.9953 296.192 55.084 295.94 55.084ZM297.925 52.592V51.612L302.937 45.2H304.449L299.479 51.612L298.765 51.388H306.591V52.592H297.925ZM303.371 55V52.592L303.413 51.388V49.26H304.729V55H303.371ZM308.35 55L315.042 45.2H316.12L309.428 55H308.35ZM309.134 50.464C308.686 50.464 308.289 50.352 307.944 50.128C307.599 49.904 307.328 49.5913 307.132 49.19C306.945 48.7887 306.852 48.322 306.852 47.79C306.852 47.258 306.945 46.7913 307.132 46.39C307.328 45.9887 307.599 45.676 307.944 45.452C308.289 45.228 308.686 45.116 309.134 45.116C309.591 45.116 309.988 45.228 310.324 45.452C310.669 45.676 310.935 45.9887 311.122 46.39C311.309 46.7913 311.402 47.258 311.402 47.79C311.402 48.322 311.309 48.7887 311.122 49.19C310.935 49.5913 310.669 49.904 310.324 50.128C309.988 50.352 309.591 50.464 309.134 50.464ZM309.134 49.666C309.563 49.666 309.899 49.5027 310.142 49.176C310.385 48.84 310.506 48.378 310.506 47.79C310.506 47.202 310.385 46.7447 310.142 46.418C309.899 46.082 309.563 45.914 309.134 45.914C308.714 45.914 308.378 46.082 308.126 46.418C307.883 46.7447 307.762 47.202 307.762 47.79C307.762 48.3687 307.883 48.826 308.126 49.162C308.378 49.498 308.714 49.666 309.134 49.666ZM315.336 55.084C314.888 55.084 314.491 54.972 314.146 54.748C313.801 54.524 313.535 54.2113 313.348 53.81C313.161 53.4087 313.068 52.942 313.068 52.41C313.068 51.878 313.161 51.4113 313.348 51.01C313.535 50.6087 313.801 50.296 314.146 50.072C314.491 49.848 314.888 49.736 315.336 49.736C315.793 49.736 316.19 49.848 316.526 50.072C316.871 50.296 317.137 50.6087 317.324 51.01C317.52 51.4113 317.618 51.878 317.618 52.41C317.618 52.942 317.52 53.4087 317.324 53.81C317.137 54.2113 316.871 54.524 316.526 54.748C316.19 54.972 315.793 55.084 315.336 55.084ZM315.336 54.286C315.756 54.286 316.087 54.1227 316.33 53.796C316.582 53.46 316.708 52.998 316.708 52.41C316.708 51.8313 316.582 51.374 316.33 51.038C316.087 50.702 315.756 50.534 315.336 50.534C314.916 50.534 314.58 50.702 314.328 51.038C314.085 51.3647 313.964 51.822 313.964 52.41C313.964 52.998 314.085 53.46 314.328 53.796C314.58 54.1227 314.916 54.286 315.336 54.286Z" fill="black"/>
<rect x="272" y="66" width="60" height="195" fill="#86EB20" fill-opacity="0.4"/>
<path d="M467.958 94L472.116 84.788L472.48 85.418H466.656L467.356 84.732V87.168H466.012V84.2H473.404V85.152L469.442 94H467.958ZM474.83 94.084C474.569 94.084 474.345 93.9953 474.158 93.818C473.972 93.6313 473.878 93.398 473.878 93.118C473.878 92.838 473.972 92.6093 474.158 92.432C474.345 92.2547 474.569 92.166 474.83 92.166C475.082 92.166 475.297 92.2547 475.474 92.432C475.661 92.6093 475.754 92.838 475.754 93.118C475.754 93.398 475.661 93.6313 475.474 93.818C475.297 93.9953 475.082 94.084 474.83 94.084ZM481.03 94.112C480.162 94.112 479.42 93.9207 478.804 93.538C478.188 93.1553 477.717 92.6047 477.39 91.886C477.073 91.158 476.914 90.2713 476.914 89.226C476.914 88.1153 477.11 87.1773 477.502 86.412C477.894 85.6467 478.44 85.068 479.14 84.676C479.84 84.284 480.643 84.088 481.548 84.088C482.015 84.088 482.458 84.1347 482.878 84.228C483.308 84.3213 483.676 84.466 483.984 84.662L483.452 85.754C483.2 85.5767 482.911 85.4553 482.584 85.39C482.267 85.3247 481.931 85.292 481.576 85.292C480.578 85.292 479.784 85.6047 479.196 86.23C478.608 86.846 478.314 87.7653 478.314 88.988C478.314 89.184 478.324 89.4173 478.342 89.688C478.361 89.9587 478.408 90.2247 478.482 90.486L478.006 90.01C478.146 89.5807 478.366 89.2213 478.664 88.932C478.972 88.6333 479.336 88.414 479.756 88.274C480.186 88.1247 480.648 88.05 481.142 88.05C481.796 88.05 482.374 88.1713 482.878 88.414C483.382 88.6567 483.779 89.002 484.068 89.45C484.358 89.8887 484.502 90.4113 484.502 91.018C484.502 91.6433 484.348 92.1893 484.04 92.656C483.732 93.1227 483.317 93.482 482.794 93.734C482.272 93.986 481.684 94.112 481.03 94.112ZM480.974 92.978C481.404 92.978 481.777 92.8987 482.094 92.74C482.421 92.5813 482.678 92.362 482.864 92.082C483.051 91.7927 483.144 91.4567 483.144 91.074C483.144 90.4953 482.944 90.038 482.542 89.702C482.141 89.3567 481.595 89.184 480.904 89.184C480.456 89.184 480.064 89.268 479.728 89.436C479.392 89.604 479.126 89.8327 478.93 90.122C478.744 90.402 478.65 90.724 478.65 91.088C478.65 91.424 478.739 91.7367 478.916 92.026C479.094 92.306 479.355 92.5347 479.7 92.712C480.046 92.8893 480.47 92.978 480.974 92.978ZM486.625 94L493.317 84.2H494.395L487.703 94H486.625ZM487.409 89.464C486.961 89.464 486.565 89.352 486.219 89.128C485.874 88.904 485.603 88.5913 485.407 88.19C485.221 87.7887 485.127 87.322 485.127 86.79C485.127 86.258 485.221 85.7913 485.407 85.39C485.603 84.9887 485.874 84.676 486.219 84.452C486.565 84.228 486.961 84.116 487.409 84.116C487.867 84.116 488.263 84.228 488.599 84.452C488.945 84.676 489.211 84.9887 489.397 85.39C489.584 85.7913 489.677 86.258 489.677 86.79C489.677 87.322 489.584 87.7887 489.397 88.19C489.211 88.5913 488.945 88.904 488.599 89.128C488.263 89.352 487.867 89.464 487.409 89.464ZM487.409 88.666C487.839 88.666 488.175 88.5027 488.417 88.176C488.66 87.84 488.781 87.378 488.781 86.79C488.781 86.202 488.66 85.7447 488.417 85.418C488.175 85.082 487.839 84.914 487.409 84.914C486.989 84.914 486.653 85.082 486.401 85.418C486.159 85.7447 486.037 86.202 486.037 86.79C486.037 87.3687 486.159 87.826 486.401 88.162C486.653 88.498 486.989 88.666 487.409 88.666ZM493.611 94.084C493.163 94.084 492.767 93.972 492.421 93.748C492.076 93.524 491.81 93.2113 491.623 92.81C491.437 92.4087 491.343 91.942 491.343 91.41C491.343 90.878 491.437 90.4113 491.623 90.01C491.81 89.6087 492.076 89.296 492.421 89.072C492.767 88.848 493.163 88.736 493.611 88.736C494.069 88.736 494.465 88.848 494.801 89.072C495.147 89.296 495.413 89.6087 495.599 90.01C495.795 90.4113 495.893 90.878 495.893 91.41C495.893 91.942 495.795 92.4087 495.599 92.81C495.413 93.2113 495.147 93.524 494.801 93.748C494.465 93.972 494.069 94.084 493.611 94.084ZM493.611 93.286C494.031 93.286 494.363 93.1227 494.605 92.796C494.857 92.46 494.983 91.998 494.983 91.41C494.983 90.8313 494.857 90.374 494.605 90.038C494.363 89.702 494.031 89.534 493.611 89.534C493.191 89.534 492.855 89.702 492.603 90.038C492.361 90.3647 492.239 90.822 492.239 91.41C492.239 91.998 492.361 92.46 492.603 92.796C492.855 93.1227 493.191 93.286 493.611 93.286Z" fill="black"/>
<rect x="451" y="105" width="60" height="156" fill="#86EB20" fill-opacity="0.4"/>
<path d="M215.496 328V323.84L215.768 324.576L211.016 316.8H212.28L216.456 323.632H215.784L219.96 316.8H221.144L216.392 324.576L216.664 323.84V328H215.496ZM222.553 328V319.6H223.689V328H222.553ZM223.129 317.744C222.894 317.744 222.697 317.664 222.537 317.504C222.377 317.344 222.297 317.152 222.297 316.928C222.297 316.704 222.377 316.517 222.537 316.368C222.697 316.208 222.894 316.128 223.129 316.128C223.363 316.128 223.561 316.203 223.721 316.352C223.881 316.501 223.961 316.688 223.961 316.912C223.961 317.147 223.881 317.344 223.721 317.504C223.571 317.664 223.374 317.744 223.129 317.744ZM230.418 328.08C229.543 328.08 228.775 327.899 228.114 327.536C227.452 327.163 226.935 326.656 226.562 326.016C226.188 325.365 226.002 324.624 226.002 323.792C226.002 322.96 226.178 322.224 226.53 321.584C226.892 320.944 227.383 320.443 228.002 320.08C228.631 319.707 229.335 319.52 230.114 319.52C230.903 319.52 231.602 319.701 232.21 320.064C232.828 320.416 233.314 320.917 233.666 321.568C234.018 322.208 234.194 322.949 234.194 323.792C234.194 323.845 234.188 323.904 234.178 323.968C234.178 324.021 234.178 324.08 234.178 324.144H226.866V323.296H233.57L233.122 323.632C233.122 323.024 232.988 322.485 232.722 322.016C232.466 321.536 232.114 321.163 231.666 320.896C231.218 320.629 230.7 320.496 230.114 320.496C229.538 320.496 229.02 320.629 228.562 320.896C228.103 321.163 227.746 321.536 227.49 322.016C227.234 322.496 227.106 323.045 227.106 323.664V323.84C227.106 324.48 227.244 325.045 227.522 325.536C227.81 326.016 228.204 326.395 228.706 326.672C229.218 326.939 229.799 327.072 230.45 327.072C230.962 327.072 231.436 326.981 231.874 326.8C232.322 326.619 232.706 326.341 233.026 325.968L233.666 326.704C233.292 327.152 232.823 327.493 232.258 327.728C231.703 327.963 231.09 328.08 230.418 328.08ZM236.506 328V316.128H237.642V328H236.506ZM244.147 328.08C243.347 328.08 242.627 327.899 241.987 327.536C241.357 327.173 240.861 326.672 240.499 326.032C240.136 325.381 239.955 324.635 239.955 323.792C239.955 322.939 240.136 322.192 240.499 321.552C240.861 320.912 241.357 320.416 241.987 320.064C242.627 319.701 243.347 319.52 244.147 319.52C244.883 319.52 245.539 319.685 246.115 320.016C246.701 320.347 247.165 320.832 247.507 321.472C247.859 322.101 248.035 322.875 248.035 323.792C248.035 324.699 247.864 325.472 247.523 326.112C247.181 326.752 246.717 327.243 246.131 327.584C245.555 327.915 244.893 328.08 244.147 328.08ZM244.227 327.072C244.824 327.072 245.357 326.939 245.827 326.672C246.307 326.395 246.68 326.011 246.947 325.52C247.224 325.019 247.363 324.443 247.363 323.792C247.363 323.131 247.224 322.555 246.947 322.064C246.68 321.573 246.307 321.195 245.827 320.928C245.357 320.651 244.824 320.512 244.227 320.512C243.64 320.512 243.112 320.651 242.643 320.928C242.173 321.195 241.8 321.573 241.523 322.064C241.245 322.555 241.107 323.131 241.107 323.792C241.107 324.443 241.245 325.019 241.523 325.52C241.8 326.011 242.173 326.395 242.643 326.672C243.112 326.939 243.64 327.072 244.227 327.072ZM247.395 328V325.472L247.507 323.776L247.347 322.08V316.128H248.483V328H247.395ZM259.322 328.08C258.49 328.08 257.743 327.899 257.082 327.536C256.431 327.163 255.919 326.656 255.546 326.016C255.173 325.365 254.986 324.624 254.986 323.792C254.986 322.949 255.173 322.208 255.546 321.568C255.919 320.928 256.431 320.427 257.082 320.064C257.743 319.701 258.49 319.52 259.322 319.52C260.037 319.52 260.682 319.659 261.258 319.936C261.834 320.213 262.287 320.629 262.618 321.184L261.77 321.76C261.482 321.333 261.125 321.019 260.698 320.816C260.271 320.613 259.807 320.512 259.306 320.512C258.709 320.512 258.17 320.651 257.69 320.928C257.21 321.195 256.831 321.573 256.554 322.064C256.277 322.555 256.138 323.131 256.138 323.792C256.138 324.453 256.277 325.029 256.554 325.52C256.831 326.011 257.21 326.395 257.69 326.672C258.17 326.939 258.709 327.072 259.306 327.072C259.807 327.072 260.271 326.971 260.698 326.768C261.125 326.565 261.482 326.256 261.77 325.84L262.618 326.416C262.287 326.96 261.834 327.376 261.258 327.664C260.682 327.941 260.037 328.08 259.322 328.08ZM268.133 328.08C267.322 328.08 266.592 327.899 265.941 327.536C265.301 327.163 264.794 326.656 264.421 326.016C264.048 325.365 263.861 324.624 263.861 323.792C263.861 322.949 264.048 322.208 264.421 321.568C264.794 320.928 265.301 320.427 265.941 320.064C266.581 319.701 267.312 319.52 268.133 319.52C268.965 319.52 269.701 319.701 270.341 320.064C270.992 320.427 271.498 320.928 271.861 321.568C272.234 322.208 272.421 322.949 272.421 323.792C272.421 324.624 272.234 325.365 271.861 326.016C271.498 326.656 270.992 327.163 270.341 327.536C269.69 327.899 268.954 328.08 268.133 328.08ZM268.133 327.072C268.741 327.072 269.28 326.939 269.749 326.672C270.218 326.395 270.586 326.011 270.853 325.52C271.13 325.019 271.269 324.443 271.269 323.792C271.269 323.131 271.13 322.555 270.853 322.064C270.586 321.573 270.218 321.195 269.749 320.928C269.28 320.651 268.746 320.512 268.149 320.512C267.552 320.512 267.018 320.651 266.549 320.928C266.08 321.195 265.706 321.573 265.429 322.064C265.152 322.555 265.013 323.131 265.013 323.792C265.013 324.443 265.152 325.019 265.429 325.52C265.706 326.011 266.08 326.395 266.549 326.672C267.018 326.939 267.546 327.072 268.133 327.072ZM285.236 319.52C285.919 319.52 286.511 319.653 287.012 319.92C287.524 320.176 287.919 320.571 288.196 321.104C288.484 321.637 288.628 322.309 288.628 323.12V328H287.492V323.232C287.492 322.347 287.279 321.68 286.852 321.232C286.436 320.773 285.844 320.544 285.076 320.544C284.5 320.544 283.999 320.667 283.572 320.912C283.156 321.147 282.831 321.493 282.596 321.952C282.372 322.4 282.26 322.944 282.26 323.584V328H281.124V323.232C281.124 322.347 280.911 321.68 280.484 321.232C280.058 320.773 279.46 320.544 278.692 320.544C278.127 320.544 277.631 320.667 277.204 320.912C276.778 321.147 276.447 321.493 276.212 321.952C275.988 322.4 275.876 322.944 275.876 323.584V328H274.74V319.6H275.828V321.872L275.652 321.472C275.908 320.864 276.319 320.389 276.884 320.048C277.46 319.696 278.138 319.52 278.916 319.52C279.738 319.52 280.436 319.728 281.012 320.144C281.588 320.549 281.962 321.163 282.132 321.984L281.684 321.808C281.93 321.125 282.362 320.576 282.98 320.16C283.61 319.733 284.362 319.52 285.236 319.52ZM296.045 328.08C295.32 328.08 294.664 327.915 294.077 327.584C293.49 327.243 293.021 326.757 292.669 326.128C292.328 325.488 292.157 324.709 292.157 323.792C292.157 322.875 292.328 322.101 292.669 321.472C293.01 320.832 293.474 320.347 294.061 320.016C294.648 319.685 295.309 319.52 296.045 319.52C296.845 319.52 297.56 319.701 298.189 320.064C298.829 320.416 299.33 320.917 299.693 321.568C300.056 322.208 300.237 322.949 300.237 323.792C300.237 324.645 300.056 325.392 299.693 326.032C299.33 326.672 298.829 327.173 298.189 327.536C297.56 327.899 296.845 328.08 296.045 328.08ZM291.709 331.104V319.6H292.797V322.128L292.685 323.808L292.845 325.504V331.104H291.709ZM295.965 327.072C296.562 327.072 297.096 326.939 297.565 326.672C298.034 326.395 298.408 326.011 298.685 325.52C298.962 325.019 299.101 324.443 299.101 323.792C299.101 323.141 298.962 322.571 298.685 322.08C298.408 321.589 298.034 321.205 297.565 320.928C297.096 320.651 296.562 320.512 295.965 320.512C295.368 320.512 294.829 320.651 294.349 320.928C293.88 321.205 293.506 321.589 293.229 322.08C292.962 322.571 292.829 323.141 292.829 323.792C292.829 324.443 292.962 325.019 293.229 325.52C293.506 326.011 293.88 326.395 294.349 326.672C294.829 326.939 295.368 327.072 295.965 327.072ZM307.77 328V326.144L307.722 325.84V322.736C307.722 322.021 307.519 321.472 307.114 321.088C306.719 320.704 306.127 320.512 305.338 320.512C304.794 320.512 304.277 320.603 303.786 320.784C303.295 320.965 302.879 321.205 302.538 321.504L302.026 320.656C302.453 320.293 302.965 320.016 303.562 319.824C304.159 319.621 304.789 319.52 305.45 319.52C306.538 319.52 307.375 319.792 307.962 320.336C308.559 320.869 308.858 321.685 308.858 322.784V328H307.77ZM304.874 328.08C304.245 328.08 303.695 327.979 303.226 327.776C302.767 327.563 302.415 327.275 302.17 326.912C301.925 326.539 301.802 326.112 301.802 325.632C301.802 325.195 301.903 324.8 302.106 324.448C302.319 324.085 302.661 323.797 303.13 323.584C303.61 323.36 304.25 323.248 305.05 323.248H307.946V324.096H305.082C304.271 324.096 303.706 324.24 303.386 324.528C303.077 324.816 302.922 325.173 302.922 325.6C302.922 326.08 303.109 326.464 303.482 326.752C303.855 327.04 304.378 327.184 305.05 327.184C305.69 327.184 306.239 327.04 306.698 326.752C307.167 326.453 307.509 326.027 307.722 325.472L307.978 326.256C307.765 326.811 307.391 327.253 306.858 327.584C306.335 327.915 305.674 328.08 304.874 328.08ZM311.943 328V319.6H313.031V321.888L312.919 321.488C313.154 320.848 313.549 320.363 314.103 320.032C314.658 319.691 315.346 319.52 316.167 319.52V320.624C316.125 320.624 316.082 320.624 316.039 320.624C315.997 320.613 315.954 320.608 315.911 320.608C315.026 320.608 314.333 320.88 313.831 321.424C313.33 321.957 313.079 322.72 313.079 323.712V328H311.943ZM318.24 328V319.6H319.376V328H318.24ZM318.816 317.744C318.582 317.744 318.384 317.664 318.224 317.504C318.064 317.344 317.984 317.152 317.984 316.928C317.984 316.704 318.064 316.517 318.224 316.368C318.384 316.208 318.582 316.128 318.816 316.128C319.051 316.128 319.248 316.203 319.408 316.352C319.568 316.501 319.648 316.688 319.648 316.912C319.648 317.147 319.568 317.344 319.408 317.504C319.259 317.664 319.062 317.744 318.816 317.744ZM324.793 328.08C324.1 328.08 323.444 327.984 322.825 327.792C322.206 327.589 321.721 327.339 321.369 327.04L321.881 326.144C322.222 326.4 322.66 326.624 323.193 326.816C323.726 326.997 324.286 327.088 324.873 327.088C325.673 327.088 326.249 326.965 326.601 326.72C326.953 326.464 327.129 326.128 327.129 325.712C327.129 325.403 327.028 325.163 326.825 324.992C326.633 324.811 326.377 324.677 326.057 324.592C325.737 324.496 325.38 324.416 324.985 324.352C324.59 324.288 324.196 324.213 323.801 324.128C323.417 324.043 323.065 323.92 322.745 323.76C322.425 323.589 322.164 323.36 321.961 323.072C321.769 322.784 321.673 322.4 321.673 321.92C321.673 321.461 321.801 321.051 322.057 320.688C322.313 320.325 322.686 320.043 323.177 319.84C323.678 319.627 324.286 319.52 325.001 319.52C325.545 319.52 326.089 319.595 326.633 319.744C327.177 319.883 327.625 320.069 327.977 320.304L327.481 321.216C327.108 320.96 326.708 320.779 326.281 320.672C325.854 320.555 325.428 320.496 325.001 320.496C324.244 320.496 323.684 320.629 323.321 320.896C322.969 321.152 322.793 321.483 322.793 321.888C322.793 322.208 322.889 322.459 323.081 322.64C323.284 322.821 323.545 322.965 323.865 323.072C324.196 323.168 324.553 323.248 324.937 323.312C325.332 323.376 325.721 323.456 326.105 323.552C326.5 323.637 326.857 323.76 327.177 323.92C327.508 324.069 327.769 324.288 327.961 324.576C328.164 324.853 328.265 325.221 328.265 325.68C328.265 326.171 328.126 326.597 327.849 326.96C327.582 327.312 327.188 327.589 326.665 327.792C326.153 327.984 325.529 328.08 324.793 328.08ZM333.774 328.08C332.963 328.08 332.232 327.899 331.582 327.536C330.942 327.163 330.435 326.656 330.062 326.016C329.688 325.365 329.502 324.624 329.502 323.792C329.502 322.949 329.688 322.208 330.062 321.568C330.435 320.928 330.942 320.427 331.582 320.064C332.222 319.701 332.952 319.52 333.774 319.52C334.606 319.52 335.342 319.701 335.982 320.064C336.632 320.427 337.139 320.928 337.502 321.568C337.875 322.208 338.062 322.949 338.062 323.792C338.062 324.624 337.875 325.365 337.502 326.016C337.139 326.656 336.632 327.163 335.982 327.536C335.331 327.899 334.595 328.08 333.774 328.08ZM333.774 327.072C334.382 327.072 334.92 326.939 335.39 326.672C335.859 326.395 336.227 326.011 336.494 325.52C336.771 325.019 336.91 324.443 336.91 323.792C336.91 323.131 336.771 322.555 336.494 322.064C336.227 321.573 335.859 321.195 335.39 320.928C334.92 320.651 334.387 320.512 333.79 320.512C333.192 320.512 332.659 320.651 332.19 320.928C331.72 321.195 331.347 321.573 331.07 322.064C330.792 322.555 330.654 323.131 330.654 323.792C330.654 324.443 330.792 325.019 331.07 325.52C331.347 326.011 331.72 326.395 332.19 326.672C332.659 326.939 333.187 327.072 333.774 327.072ZM344.669 319.52C345.352 319.52 345.949 319.653 346.461 319.92C346.984 320.176 347.389 320.571 347.677 321.104C347.976 321.637 348.125 322.309 348.125 323.12V328H346.989V323.232C346.989 322.347 346.765 321.68 346.317 321.232C345.88 320.773 345.261 320.544 344.461 320.544C343.864 320.544 343.341 320.667 342.893 320.912C342.456 321.147 342.114 321.493 341.869 321.952C341.634 322.4 341.517 322.944 341.517 323.584V328H340.381V319.6H341.469V321.904L341.293 321.472C341.56 320.864 341.986 320.389 342.573 320.048C343.16 319.696 343.858 319.52 344.669 319.52ZM357.317 331.104C356.73 330.133 356.272 329.013 355.941 327.744C355.621 326.464 355.461 325.088 355.461 323.616C355.461 322.144 355.621 320.768 355.941 319.488C356.272 318.197 356.73 317.077 357.317 316.128H358.405C357.776 317.227 357.312 318.395 357.013 319.632C356.725 320.859 356.581 322.187 356.581 323.616C356.581 325.045 356.725 326.379 357.013 327.616C357.312 328.843 357.776 330.005 358.405 331.104H357.317ZM359.687 328V327.184L364.343 322.624C364.769 322.208 365.089 321.845 365.303 321.536C365.516 321.216 365.66 320.917 365.735 320.64C365.809 320.363 365.847 320.101 365.847 319.856C365.847 319.205 365.623 318.693 365.175 318.32C364.737 317.947 364.087 317.76 363.223 317.76C362.561 317.76 361.975 317.861 361.463 318.064C360.961 318.267 360.529 318.581 360.167 319.008L359.351 318.304C359.788 317.792 360.348 317.397 361.031 317.12C361.713 316.843 362.476 316.704 363.319 316.704C364.076 316.704 364.732 316.827 365.287 317.072C365.841 317.307 366.268 317.653 366.567 318.112C366.876 318.571 367.031 319.109 367.031 319.728C367.031 320.091 366.977 320.448 366.871 320.8C366.775 321.152 366.593 321.525 366.327 321.92C366.071 322.304 365.692 322.741 365.191 323.232L360.919 327.424L360.599 326.976H367.543V328H359.687ZM373.421 328.096C372.557 328.096 371.789 327.872 371.117 327.424C370.445 326.965 369.917 326.315 369.533 325.472C369.149 324.619 368.957 323.595 368.957 322.4C368.957 321.205 369.149 320.187 369.533 319.344C369.917 318.491 370.445 317.84 371.117 317.392C371.789 316.933 372.557 316.704 373.421 316.704C374.285 316.704 375.053 316.933 375.725 317.392C376.397 317.84 376.925 318.491 377.309 319.344C377.704 320.187 377.901 321.205 377.901 322.4C377.901 323.595 377.704 324.619 377.309 325.472C376.925 326.315 376.397 326.965 375.725 327.424C375.053 327.872 374.285 328.096 373.421 328.096ZM373.421 327.04C374.082 327.04 374.658 326.864 375.149 326.512C375.64 326.149 376.024 325.627 376.301 324.944C376.578 324.251 376.717 323.403 376.717 322.4C376.717 321.397 376.578 320.555 376.301 319.872C376.024 319.179 375.64 318.656 375.149 318.304C374.658 317.941 374.082 317.76 373.421 317.76C372.781 317.76 372.21 317.941 371.709 318.304C371.208 318.656 370.818 319.179 370.541 319.872C370.264 320.555 370.125 321.397 370.125 322.4C370.125 323.403 370.264 324.251 370.541 324.944C370.818 325.627 371.208 326.149 371.709 326.512C372.21 326.864 372.781 327.04 373.421 327.04ZM379.343 328V327.184L383.999 322.624C384.425 322.208 384.745 321.845 384.959 321.536C385.172 321.216 385.316 320.917 385.391 320.64C385.465 320.363 385.503 320.101 385.503 319.856C385.503 319.205 385.279 318.693 384.831 318.32C384.393 317.947 383.743 317.76 382.879 317.76C382.217 317.76 381.631 317.861 381.119 318.064C380.617 318.267 380.185 318.581 379.823 319.008L379.007 318.304C379.444 317.792 380.004 317.397 380.687 317.12C381.369 316.843 382.132 316.704 382.975 316.704C383.732 316.704 384.388 316.827 384.943 317.072C385.497 317.307 385.924 317.653 386.223 318.112C386.532 318.571 386.687 319.109 386.687 319.728C386.687 320.091 386.633 320.448 386.527 320.8C386.431 321.152 386.249 321.525 385.983 321.92C385.727 322.304 385.348 322.741 384.847 323.232L380.575 327.424L380.255 326.976H387.199V328H379.343ZM391.989 328.096C391.178 328.096 390.41 327.968 389.685 327.712C388.97 327.445 388.394 327.093 387.957 326.656L388.517 325.744C388.879 326.117 389.365 326.427 389.973 326.672C390.591 326.917 391.263 327.04 391.989 327.04C392.917 327.04 393.626 326.837 394.117 326.432C394.618 326.027 394.869 325.483 394.869 324.8C394.869 324.117 394.623 323.573 394.133 323.168C393.653 322.763 392.89 322.56 391.845 322.56H391.045V321.712L394.501 317.376L394.661 317.824H388.421V316.8H395.621V317.616L392.165 321.952L391.605 321.584H392.036C393.381 321.584 394.383 321.883 395.045 322.48C395.717 323.077 396.053 323.845 396.053 324.784C396.053 325.413 395.903 325.979 395.605 326.48C395.306 326.981 394.853 327.376 394.245 327.664C393.647 327.952 392.895 328.096 391.989 328.096ZM398.572 331.104H397.484C398.124 330.005 398.588 328.843 398.876 327.616C399.174 326.379 399.324 325.045 399.324 323.616C399.324 322.187 399.174 320.859 398.876 319.632C398.588 318.395 398.124 317.227 397.484 316.128H398.572C399.18 317.077 399.644 318.197 399.964 319.488C400.284 320.768 400.444 322.144 400.444 323.616C400.444 325.088 400.284 326.464 399.964 327.744C399.644 329.013 399.18 330.133 398.572 331.104Z" fill="black" fill-opacity="0.7"/>
</svg>
